<svg xmlns="http://www.w3.org/2000/svg" width="133" height="133" viewBox="0 0 133 133">
  <g id="Grupo_163216" data-name="Grupo 163216" transform="translate(-390.106 -2356)">
    <g id="Elipse_18057" data-name="Elipse 18057" transform="translate(390.106 2356)" fill="#fff" stroke="#c6412a" stroke-width="4">
      <circle cx="66.5" cy="66.5" r="66.5" stroke="none"/>
      <circle cx="66.5" cy="66.5" r="64.5" fill="none"/>
    </g>
    <g id="camion-de-reparto" transform="translate(405.3 2376.859)">
      <g id="Grupo_158269" data-name="Grupo 158269" transform="translate(10.806 -391.179)">
        <g id="Grupo_158267" data-name="Grupo 158267" transform="translate(1.17 398.482)">
          <path id="Trazado_197715" data-name="Trazado 197715" d="M37.729,466.8H16.282a14.617,14.617,0,1,0,0,29.235H37.729a14.617,14.617,0,0,0,0-29.235Z" transform="translate(-1.664 -418.367)" fill="#c6412a"/>
          <g id="Grupo_158265" data-name="Grupo 158265" transform="translate(17.281)">
            <path id="Trazado_197716" data-name="Trazado 197716" d="M72.384,454.471,36.547,418.634,29.478,425.7a14.617,14.617,0,0,0,0,20.671l15.166,15.166a14.616,14.616,0,0,0,20.672,0Z" transform="translate(-25.196 -404.804)" fill="#4e2e8e"/>
            <path id="Trazado_197717" data-name="Trazado 197717" d="M35.509,431.732a14.617,14.617,0,0,0-.026,20.646l-6.005-6a14.616,14.616,0,0,1,0-20.671l7.069-7.069,6.031,6.031Z" transform="translate(-25.196 -404.804)" fill="#3d4780"/>
            <path id="Trazado_197718" data-name="Trazado 197718" d="M75.364,431.994,60.2,416.829A14.617,14.617,0,0,0,39.527,437.5l15.166,15.166a14.617,14.617,0,0,0,20.672-20.672Z" transform="translate(-28.177 -402.998)" fill="#6677d6"/>
            <path id="Trazado_197719" data-name="Trazado 197719" d="M66.548,423.177A14.617,14.617,0,1,0,45.877,443.85l-6.35-6.35A14.617,14.617,0,0,1,60.2,416.829Z" transform="translate(-28.177 -402.998)" fill="#515fab"/>
            <path id="Trazado_197720" data-name="Trazado 197720" d="M71.665,433.1l4.9-4.9a15.066,15.066,0,1,0-9.037-9.037l-4.9,4.9a6.39,6.39,0,0,0,9.037,9.037Z" transform="translate(-35.743 -398.972)" fill="#4e2e8e"/>
            <path id="Trazado_197721" data-name="Trazado 197721" d="M62.627,433.105a6.391,6.391,0,0,1,0-9.038l4.9-4.9a15.066,15.066,0,0,1,24.819-15.783c-2.468-2.468-9.238.3-15.122,6.185-4.268,4.268-6.895,9-7.074,12.22l-4.9,4.9c-2.5,2.5-3.67,5.368-2.624,6.415Z" transform="translate(-35.742 -398.972)" fill="#b0a2cd"/>
          </g>
          <g id="Grupo_158266" data-name="Grupo 158266" transform="translate(8.575 52.479)">
            <path id="Trazado_197722" data-name="Trazado 197722" d="M33.193,476.357a1.721,1.721,0,0,0-.777-2.307l-2.665-1.32a1.72,1.72,0,0,0-2.306.777l-5.273,10.638L19.6,479.853a1.72,1.72,0,0,0-2.36-.594l-2.552,1.526a1.72,1.72,0,0,0-.594,2.36l5.06,8.463a1.72,1.72,0,0,0,1.543.837l3.587-.141a1.718,1.718,0,0,0,1.473-.955Z" transform="translate(-13.855 -472.551)" fill="#ffef0f"/>
          </g>
        </g>
        <g id="Grupo_158268" data-name="Grupo 158268" transform="translate(0 397.32)">
          <path id="Trazado_197723" data-name="Trazado 197723" d="M80.583,412.554a16.364,16.364,0,0,0-32.154-3.043,15.926,15.926,0,0,0-19.926,2.1l0,0-7.128,7.128a15.95,15.95,0,0,0,0,22.53l4.18,4.18H18.294a1.181,1.181,0,1,0,0,2.362h9.618l8.761,8.762a15.884,15.884,0,0,0,11.265,4.659,16.044,16.044,0,0,0,3.2-.322q.009.235.009.471a13.585,13.585,0,0,1-13.57,13.57H15.932a13.57,13.57,0,0,1-2.167-26.966,1.181,1.181,0,1,0-.373-2.332,15.932,15.932,0,0,0,2.54,31.66H37.575a15.95,15.95,0,0,0,15.932-15.932c0-.377-.015-.755-.042-1.132a15.829,15.829,0,0,0,5.74-3.675l7.1-7.1.031-.03a15.928,15.928,0,0,0,2.115-19.911,16.313,16.313,0,0,0,5.358-2.53,1.181,1.181,0,1,0-1.381-1.917,14.007,14.007,0,0,1-12.951,1.792,1.181,1.181,0,0,0-1.236.275L53.3,432.1a5.267,5.267,0,1,1-7.45-7.449l4.944-4.945a1.18,1.18,0,0,0,.275-1.237,14.084,14.084,0,0,1,3.269-14.69,14.021,14.021,0,0,1,19.831,0,14.11,14.11,0,0,1,1.355,18.257,1.181,1.181,0,0,0,1.9,1.4,16.411,16.411,0,0,0,3.159-10.889ZM57.534,454.911a13.585,13.585,0,0,1-19.19,0l-15.3-15.3a13.57,13.57,0,0,1,0-19.19l1.224-1.223a16.031,16.031,0,0,0-.427,3.686A15.825,15.825,0,0,0,28.5,434.144l15.3,15.3a15.886,15.886,0,0,0,11.266,4.658,16.07,16.07,0,0,0,3.7-.433ZM44.179,422.982a7.629,7.629,0,1,0,10.79,10.789l4.426-4.426a16.423,16.423,0,0,0,6.5.656,13.567,13.567,0,0,1-1.23,17.777h0l-.015.015a13.589,13.589,0,0,1-19.176-.014l-15.3-15.305a13.566,13.566,0,0,1,0-19.187v0a13.567,13.567,0,0,1,17.791-1.219,16.383,16.383,0,0,0,.642,6.489Z" transform="translate(0 -397.32)"/>
          <path id="Trazado_197724" data-name="Trazado 197724" d="M16.151,477.76,13.6,479.286a2.9,2.9,0,0,0-1,3.964l5.06,8.463a2.888,2.888,0,0,0,2.479,1.408l.115,0,3.587-.141a2.887,2.887,0,0,0,2.475-1.6l7.431-14.991a2.891,2.891,0,0,0-1.306-3.874l-2.665-1.32A2.9,2.9,0,0,0,25.9,472.5l-4.32,8.717-1.467-2.453a2.9,2.9,0,0,0-3.965-1Zm1.956,2.2,2.567,4.3a1.171,1.171,0,0,0,2.053-.082L28,473.535a.55.55,0,0,1,.738-.248l2.664,1.32a.549.549,0,0,1,.249.737h0l-7.432,14.992a.547.547,0,0,1-.469.3l-3.587.141a.546.546,0,0,1-.492-.269l-5.06-8.463a.551.551,0,0,1,.189-.755l2.552-1.526a.553.553,0,0,1,.755.19Z" transform="translate(-3.616 -418.417)"/>
        </g>
      </g>
    </g>
  </g>
</svg>
