<svg xmlns="http://www.w3.org/2000/svg" xmlns:xlink="http://www.w3.org/1999/xlink" width="1030" height="953.953" viewBox="0 0 1030 953.953">
  <defs>
    <filter id="Elipse_18349" x="82.499" y="151.164" width="123.137" height="123.137" filterUnits="userSpaceOnUse">
      <feOffset dx="2" dy="2" input="SourceAlpha"/>
      <feGaussianBlur stdDeviation="1.5" result="blur"/>
      <feFlood flood-opacity="0.2"/>
      <feComposite operator="in" in2="blur"/>
      <feComposite in="SourceGraphic"/>
    </filter>
    <filter id="Elipse_18351" x="82.499" y="500.393" width="123.137" height="123.137" filterUnits="userSpaceOnUse">
      <feOffset dx="2" dy="2" input="SourceAlpha"/>
      <feGaussianBlur stdDeviation="1.5" result="blur-2"/>
      <feFlood flood-opacity="0.2"/>
      <feComposite operator="in" in2="blur-2"/>
      <feComposite in="SourceGraphic"/>
    </filter>
    <filter id="Elipse_18350" x="82.499" y="343.164" width="123.137" height="123.137" filterUnits="userSpaceOnUse">
      <feOffset dx="2" dy="2" input="SourceAlpha"/>
      <feGaussianBlur stdDeviation="1.5" result="blur-3"/>
      <feFlood flood-opacity="0.2"/>
      <feComposite operator="in" in2="blur-3"/>
      <feComposite in="SourceGraphic"/>
    </filter>
    <filter id="Elipse_18352" x="82.499" y="658.813" width="123.137" height="123.137" filterUnits="userSpaceOnUse">
      <feOffset dx="2" dy="2" input="SourceAlpha"/>
      <feGaussianBlur stdDeviation="1.5" result="blur-4"/>
      <feFlood flood-opacity="0.2"/>
      <feComposite operator="in" in2="blur-4"/>
      <feComposite in="SourceGraphic"/>
    </filter>
    <filter id="Elipse_18353" x="82.499" y="813.056" width="123.137" height="123.137" filterUnits="userSpaceOnUse">
      <feOffset dx="2" dy="2" input="SourceAlpha"/>
      <feGaussianBlur stdDeviation="1.5" result="blur-5"/>
      <feFlood flood-opacity="0.2"/>
      <feComposite operator="in" in2="blur-5"/>
      <feComposite in="SourceGraphic"/>
    </filter>
  </defs>
  <g id="Grupo_163242" data-name="Grupo 163242" transform="translate(-285.001 -3676.47)">
    <g id="Grupo_163220" data-name="Grupo 163220" opacity="0.499">
      <path id="Trazado_201386" data-name="Trazado 201386" d="M1430.781,1474.76H785.424V1336.151h645.357l72.641,69.3Z" transform="translate(-188.423 3043.589)" fill="#a4addc"/>
      <path id="Trazado_201388" data-name="Trazado 201388" d="M723.878,1523.239l32.071-48.479V1336.151l-32.071,31.419Z" transform="translate(-158.95 3043.589)" fill="#7f8cd8" style="mix-blend-mode: multiply;isolation: isolate"/>
      <path id="Trazado_201389" data-name="Trazado 201389" d="M185.424,1396.446H466.011v155.668l-140.293,63.595-140.293-63.595Z" transform="translate(99.576 3014.714)" fill="#a4addc"/>
      <path id="Trazado_201504" data-name="Trazado 201504" d="M1430.781,1208.766H785.424V1070.157h645.357l72.641,69.3Z" transform="translate(-188.423 3170.974)" fill="#9888b8"/>
      <path id="Trazado_201505" data-name="Trazado 201505" d="M723.878,201.52l32.071,36.819V376.947l-32.071-19.759Z" transform="translate(-158.95 3586.966)" fill="#7f8cd8"/>
      <path id="Trazado_201507" data-name="Trazado 201507" d="M755.95,658.619l-32.071-2.7V500.252l32.071,19.759Z" transform="translate(-158.95 3443.903)" fill="#6b529f"/>
      <path id="Trazado_201508" data-name="Trazado 201508" d="M723.878,954.651l32.071-14.36V801.683l-32.071-2.7Z" transform="translate(-158.95 3300.84)" fill="#7f8cd8"/>
      <path id="Trazado_201509" data-name="Trazado 201509" d="M723.878,1240.185l32.071-31.419V1070.157l-32.071,14.36Z" transform="translate(-158.95 3170.974)" fill="#6b529f"/>
      <path id="Trazado_201513" data-name="Trazado 201513" d="M185.424,1097.714H466.011v155.668l-140.293,63.595-140.293-63.595Z" transform="translate(99.576 3157.776)" fill="#9888b8"/>
      <path id="Trazado_201628" data-name="Trazado 201628" d="M1430.781,942.772H785.424V804.164h645.357l72.641,69.3Z" transform="translate(-188.423 3298.359)" fill="#a4addc"/>
      <path id="Trazado_201686" data-name="Trazado 201686" d="M1430.781,676.779H785.424V538.17h645.357l72.641,69.3Z" transform="translate(-188.423 3425.744)" fill="#9888b8"/>
      <path id="Trazado_201744" data-name="Trazado 201744" d="M1503.422,341.481l-72.644,69.306H785.422V272.181h645.356Z" transform="translate(-188.422 3553.127)" fill="#a4addc" fill-rule="evenodd"/>
      <path id="Trazado_201745" data-name="Trazado 201745" d="M185.424,798.983H466.011V954.651l-140.293,63.595L185.424,954.651Z" transform="translate(99.576 3300.84)" fill="#a4addc"/>
      <path id="Trazado_201803" data-name="Trazado 201803" d="M185.424,500.252H466.011V655.92L325.718,719.515,185.424,655.92Z" transform="translate(99.576 3443.903)" fill="#9888b8"/>
      <path id="Trazado_201861" data-name="Trazado 201861" d="M185.424,201.52H466.011V357.188L325.718,420.783,185.424,357.188Z" transform="translate(99.576 3586.966)" fill="#a4addc"/>
    </g>
    <text id="Medidas_técnicas_para_garantizar_la_confidencialidad_de_la_información" data-name="Medidas técnicas para  garantizar la confidencialidad de la información" transform="translate(565.588 3676.47)" fill="#12263f" font-size="24" font-family="Roboto-Black, Roboto" font-weight="800"><tspan x="38.58" y="25" xml:space="preserve">Medidas técnicas para  garantizar la </tspan></text>
    <g id="Grupo_163225" data-name="Grupo 163225">
      <g transform="matrix(1, 0, 0, 1, 285, 3676.47)" filter="url(#Elipse_18349)">
        <ellipse id="Elipse_18349-2" data-name="Elipse 18349" cx="50" cy="50" rx="50" ry="50" transform="translate(85 252.48) rotate(-81.19)" fill="#fff"/>
      </g>
      <g id="Layer_1" transform="translate(398.91 3848.311)">
        <path id="Trazado_200857" data-name="Trazado 200857" d="M80.156,494.091H59.541a1.143,1.143,0,0,1-1.144-1.144v-4.825a1.143,1.143,0,0,1,1.144-1.144h2.886v-6.112h-19.6a1.141,1.141,0,0,1-1.135-1.144V447.2a1.141,1.141,0,0,1,1.135-1.145H58.216v-6.4H50.184a4.328,4.328,0,1,1,0-2.279h9.177a1.146,1.146,0,0,1,1.144,1.135v7.54H63.77V435.312a4.324,4.324,0,1,1,2.29,0V446.05h7.578V435.312a4.324,4.324,0,1,1,2.29,0V446.05H79.2v-7.54a1.138,1.138,0,0,1,1.135-1.135h9.177a4.328,4.328,0,1,1,0,2.279H81.48v6.4H96.873a1.141,1.141,0,0,1,1.135,1.145v32.525a1.141,1.141,0,0,1-1.135,1.144H77.27v6.112h2.886a1.143,1.143,0,0,1,1.144,1.144v4.825A1.143,1.143,0,0,1,80.156,494.091ZM43.969,478.576H95.728V448.33H43.969Zm49.79-.823H45.936a1.149,1.149,0,0,1-1.144-1.144V450.3a1.147,1.147,0,0,1,1.144-1.136H93.76A1.141,1.141,0,0,1,94.9,450.3v26.31A1.143,1.143,0,0,1,93.76,477.753Zm-46.678-2.29H92.615V451.443H47.081Zm.975-36.943v-.009a2.039,2.039,0,1,0,0,.009Zm16.858-9.413a2.039,2.039,0,1,0,2.044,2.034A2.039,2.039,0,0,0,64.914,429.107Zm9.867,0a2.039,2.039,0,1,0,2.044,2.034A2.039,2.039,0,0,0,74.782,429.107Zm18.9,7.37a2.045,2.045,0,0,0-2.044,2.034v.009a2.044,2.044,0,1,0,2.044-2.043ZM75.86,473.846H63.836a1.143,1.143,0,0,1-1.145-1.145V461.991a1.142,1.142,0,0,1,1.145-1.144h.974V458.1a5.038,5.038,0,1,1,10.076,0v2.744h.975A1.142,1.142,0,0,1,77,461.991V472.7A1.142,1.142,0,0,1,75.86,473.846Zm-8.761-13h5.5V458.1a2.748,2.748,0,1,0-5.5,0Zm-2.119,10.719h9.735v-8.429H64.981Zm4.872-1.722a1.141,1.141,0,0,1-1.144-1.136v-2.715a1.14,1.14,0,1,1,2.28,0v2.715A1.139,1.139,0,0,1,69.853,469.844Zm-5.137,17.133H74.981v-6.112H64.716Zm11.409,2.29H60.686v2.545H79.011v-2.545H76.125Z" transform="translate(-41.689 -426.817)" fill-rule="evenodd"/>
        <g id="Grupo_162561" data-name="Grupo 162561" transform="translate(2.28 2.29)">
          <path id="Trazado_200858" data-name="Trazado 200858" d="M46.619,443.126a2.045,2.045,0,0,0,2.044-2.034v-.01a2.044,2.044,0,1,0-2.044,2.044Z" transform="translate(-44.576 -431.678)" fill="#ffef0f" fill-rule="evenodd"/>
          <path id="Trazado_200859" data-name="Trazado 200859" d="M68.51,431.75a2.044,2.044,0,1,0,2.043-2.034A2.047,2.047,0,0,0,68.51,431.75Z" transform="translate(-49.608 -429.716)" fill="#ffef0f" fill-rule="evenodd"/>
          <path id="Trazado_200860" data-name="Trazado 200860" d="M83.047,429.716a2.039,2.039,0,1,0,2.044,2.034A2.039,2.039,0,0,0,83.047,429.716Z" transform="translate(-52.235 -429.716)" fill="#ffef0f" fill-rule="evenodd"/>
          <path id="Trazado_200861" data-name="Trazado 200861" d="M106.982,439.048a2.045,2.045,0,0,0-2.044,2.034v.01a2.044,2.044,0,1,0,2.044-2.043Z" transform="translate(-57.266 -431.678)" fill="#ffef0f" fill-rule="evenodd"/>
        </g>
        <path id="Trazado_200862" data-name="Trazado 200862" d="M96.335,454.057H44.576V484.3H96.335Zm-1.968.832a1.141,1.141,0,0,1,1.145,1.136v26.31a1.143,1.143,0,0,1-1.145,1.144H46.543a1.149,1.149,0,0,1-1.144-1.144v-26.31a1.147,1.147,0,0,1,1.144-1.136Z" transform="translate(-42.296 -432.544)" fill="#797959" fill-rule="evenodd"/>
        <path id="Trazado_200863" data-name="Trazado 200863" d="M94.051,458H48.517v24.021H94.051ZM78.44,468.547v10.709A1.142,1.142,0,0,1,77.3,480.4H65.272a1.143,1.143,0,0,1-1.145-1.145V468.547a1.142,1.142,0,0,1,1.145-1.144h.974v-2.744a5.038,5.038,0,1,1,10.076,0V467.4H77.3A1.142,1.142,0,0,1,78.44,468.547Z" transform="translate(-43.125 -433.372)" fill="#4e2e8e" fill-rule="evenodd"/>
        <path id="Trazado_200864" data-name="Trazado 200864" d="M79.361,465.7a2.748,2.748,0,1,0-5.5,0v2.744h5.5Z" transform="translate(-48.453 -434.413)" fill="#7fe289" fill-rule="evenodd"/>
        <path id="Trazado_200865" data-name="Trazado 200865" d="M79.942,472.8H71.181v8.429h9.735V472.8Zm-2.753,2.857v2.715a1.14,1.14,0,0,1-2.28,0v-2.715a1.14,1.14,0,1,1,2.28,0Z" transform="translate(-47.889 -436.485)" fill="#ffef0f" fill-rule="evenodd"/>
        <path id="Trazado_200866" data-name="Trazado 200866" d="M81.111,495.253H70.846v6.112H81.111Z" transform="translate(-47.819 -441.205)" fill="#797959" fill-rule="evenodd"/>
        <path id="Trazado_200867" data-name="Trazado 200867" d="M81.182,505.891H65.743v2.545H84.068v-2.545H81.182Z" transform="translate(-46.746 -443.441)" fill="#797959" fill-rule="evenodd"/>
      </g>
    </g>
    <g id="Grupo_163223" data-name="Grupo 163223">
      <g transform="matrix(1, 0, 0, 1, 285, 3676.47)" filter="url(#Elipse_18351)">
        <ellipse id="Elipse_18351-2" data-name="Elipse 18351" cx="50" cy="50" rx="50" ry="50" transform="translate(85 601.71) rotate(-81.19)" fill="#fff"/>
      </g>
      <g id="Grupo_163171" data-name="Grupo 163171" transform="translate(393.91 4208.411)">
        <path id="Trazado_200868" data-name="Trazado 200868" d="M25.364,381.9a3.7,3.7,0,0,1-3.7-3.7V344.729a3.7,3.7,0,0,1,3.7-3.7h51.9a3.7,3.7,0,0,1,3.7,3.7V378.2a3.7,3.7,0,0,1-3.7,3.7Z" transform="translate(-18.816 -340.628)" fill="#cecece"/>
        <g id="Grupo_162562" data-name="Grupo 162562" transform="translate(2.853 0.406)">
          <path id="Trazado_200869" data-name="Trazado 200869" d="M25.635,378.2V344.729a3.7,3.7,0,0,1,3.7-3.7H25.364a3.7,3.7,0,0,0-3.7,3.7V378.2a3.7,3.7,0,0,0,3.7,3.7h3.966A3.7,3.7,0,0,1,25.635,378.2Z" transform="translate(-21.669 -341.034)" fill="#afafaf"/>
        </g>
        <g id="Grupo_162563" data-name="Grupo 162563" transform="translate(54.485 0.406)">
          <path id="Trazado_200870" data-name="Trazado 200870" d="M134.476,378.2V344.729a3.7,3.7,0,0,0-3.7-3.7h3.966a3.7,3.7,0,0,1,3.7,3.7V378.2a3.7,3.7,0,0,1-3.7,3.7H130.78A3.7,3.7,0,0,0,134.476,378.2Z" transform="translate(-130.78 -341.034)" fill="#e2e2e2"/>
        </g>
        <path id="Trazado_200871" data-name="Trazado 200871" d="M81.221,377.488a1.425,1.425,0,0,1-1.421,1.422H27.9a1.425,1.425,0,0,1-1.421-1.422V347.26a1.425,1.425,0,0,1,1.421-1.422H79.8a1.426,1.426,0,0,1,1.422,1.422v30.227Z" transform="translate(-21.348 -343.16)" fill="#4e2e8e"/>
        <g id="Grupo_162564" data-name="Grupo 162564" transform="translate(5.127 2.679)">
          <path id="Trazado_200872" data-name="Trazado 200872" d="M30.441,377.488V347.26a1.426,1.426,0,0,1,1.422-1.422H27.9a1.425,1.425,0,0,0-1.421,1.422v30.227a1.425,1.425,0,0,0,1.421,1.422h3.966A1.426,1.426,0,0,1,30.441,377.488Z" transform="translate(-26.475 -345.839)" fill="#6677d6"/>
        </g>
        <g id="Grupo_162565" data-name="Grupo 162565" transform="translate(54.485 2.679)">
          <path id="Trazado_200873" data-name="Trazado 200873" d="M132.2,377.488V347.26a1.425,1.425,0,0,0-1.421-1.422h3.966a1.425,1.425,0,0,1,1.421,1.422v30.227a1.425,1.425,0,0,1-1.421,1.422H130.78A1.426,1.426,0,0,0,132.2,377.488Z" transform="translate(-130.78 -345.839)" fill="#6677d6"/>
        </g>
        <g id="Grupo_162567" data-name="Grupo 162567" transform="translate(21.523 6.091)">
          <path id="Trazado_200874" data-name="Trazado 200874" d="M82.549,371.683l-9.639,7.339a1.337,1.337,0,0,1-1.621,0l-9.639-7.339a1.338,1.338,0,0,1-.528-1.065v-13.54a1.339,1.339,0,0,1,.978-1.289L71.74,353.1a1.339,1.339,0,0,1,.72,0L82.1,355.79a1.338,1.338,0,0,1,.979,1.289v13.54A1.34,1.34,0,0,1,82.549,371.683Z" transform="translate(-61.123 -353.048)" fill="#fff"/>
          <ellipse id="Elipse_18344" data-name="Elipse 18344" cx="6.515" cy="6.515" rx="6.515" ry="6.515" transform="translate(4.462 5.388)" fill="#ffef0f"/>
          <g id="Grupo_162566" data-name="Grupo 162566" transform="translate(6.589 8.397)">
            <path id="Trazado_200875" data-name="Trazado 200875" d="M78.037,377.805a1.221,1.221,0,0,1-.842-.335L75.432,375.8a1.226,1.226,0,0,1,1.686-1.782l.9.847,3.717-3.717a1.227,1.227,0,0,1,1.735,1.734l-4.56,4.56a1.224,1.224,0,0,1-.867.359Z" transform="translate(-75.048 -370.793)" fill="#6677d6"/>
          </g>
        </g>
        <path id="Trazado_200876" data-name="Trazado 200876" d="M62.495,440.05H83.151v2.487H62.495Z" transform="translate(-40.323 -392.789)" fill="#9e9e9e"/>
        <g id="Grupo_162568" data-name="Grupo 162568" transform="translate(22.172 47.261)">
          <path id="Trazado_200877" data-name="Trazado 200877" d="M62.495,440.05h3.966v2.487H62.495Z" transform="translate(-62.495 -440.05)" fill="#707070"/>
        </g>
        <path id="Trazado_200878" data-name="Trazado 200878" d="M68.7,427.387H83.483v5.992H68.7Z" transform="translate(-43.593 -386.118)" fill="#cecece"/>
        <g id="Grupo_162569" data-name="Grupo 162569" transform="translate(25.109 41.269)">
          <path id="Trazado_200879" data-name="Trazado 200879" d="M68.7,427.387h3.966v5.992H68.7Z" transform="translate(-68.702 -427.387)" fill="#afafaf"/>
        </g>
        <ellipse id="Elipse_18345" data-name="Elipse 18345" cx="1.217" cy="1.217" rx="1.217" ry="1.217" transform="translate(31.283 37.292)" fill="#9e9e9e"/>
        <g id="Grupo_162570" data-name="Grupo 162570" transform="translate(38.74 33.785)">
          <path id="Trazado_200880" data-name="Trazado 200880" d="M119.584,419.554H98.837a1.33,1.33,0,0,1-1.33-1.33V412.9a1.33,1.33,0,0,1,1.33-1.33h20.746a1.33,1.33,0,0,1,1.33,1.33v5.321A1.33,1.33,0,0,1,119.584,419.554Z" transform="translate(-97.507 -411.573)" fill="#cecece"/>
        </g>
        <g id="Grupo_162571" data-name="Grupo 162571" transform="translate(38.74 41.766)">
          <path id="Trazado_200881" data-name="Trazado 200881" d="M119.584,436.421H98.837a1.33,1.33,0,0,1-1.33-1.33V429.77a1.331,1.331,0,0,1,1.33-1.331h20.746a1.33,1.33,0,0,1,1.33,1.331v5.321A1.33,1.33,0,0,1,119.584,436.421Z" transform="translate(-97.507 -428.439)" fill="#cecece"/>
        </g>
        <g id="Grupo_162572" data-name="Grupo 162572" transform="translate(38.74 25.804)">
          <path id="Trazado_200882" data-name="Trazado 200882" d="M119.584,402.688H98.837a1.33,1.33,0,0,1-1.33-1.33v-5.321a1.33,1.33,0,0,1,1.33-1.33h20.746a1.33,1.33,0,0,1,1.33,1.33v5.321A1.33,1.33,0,0,1,119.584,402.688Z" transform="translate(-97.507 -394.707)" fill="#cecece"/>
        </g>
        <g id="Grupo_162573" data-name="Grupo 162573" transform="translate(56.85 25.804)">
          <path id="Trazado_200883" data-name="Trazado 200883" d="M139.744,394.707h-3.966a1.33,1.33,0,0,1,1.33,1.33v5.321a1.33,1.33,0,0,1-1.33,1.33h3.966a1.33,1.33,0,0,0,1.33-1.33v-5.321a1.33,1.33,0,0,0-1.33-1.33Z" transform="translate(-135.778 -394.707)" fill="#e2e2e2"/>
        </g>
        <g id="Grupo_162574" data-name="Grupo 162574" transform="translate(56.85 33.785)">
          <path id="Trazado_200884" data-name="Trazado 200884" d="M139.744,411.573h-3.966a1.33,1.33,0,0,1,1.33,1.331v5.321a1.33,1.33,0,0,1-1.33,1.33h3.966a1.33,1.33,0,0,0,1.33-1.33V412.9A1.33,1.33,0,0,0,139.744,411.573Z" transform="translate(-135.778 -411.573)" fill="#e2e2e2"/>
        </g>
        <g id="Grupo_162575" data-name="Grupo 162575" transform="translate(56.85 41.766)">
          <path id="Trazado_200885" data-name="Trazado 200885" d="M139.744,428.439h-3.966a1.33,1.33,0,0,1,1.33,1.331v5.321a1.33,1.33,0,0,1-1.33,1.33h3.966a1.33,1.33,0,0,0,1.33-1.33V429.77A1.33,1.33,0,0,0,139.744,428.439Z" transform="translate(-135.778 -428.439)" fill="#e2e2e2"/>
        </g>
        <g id="Grupo_162576" data-name="Grupo 162576" transform="translate(41.161 28.935)">
          <path id="Trazado_200886" data-name="Trazado 200886" d="M114.383,403.043H103.275a.655.655,0,0,1-.653-.653v-.413a.655.655,0,0,1,.653-.653h11.108a.655.655,0,0,1,.653.653v.413A.655.655,0,0,1,114.383,403.043Z" transform="translate(-102.622 -401.324)" fill="#c6412a"/>
          <path id="Trazado_200887" data-name="Trazado 200887" d="M114.383,419.91H103.275a.655.655,0,0,1-.653-.653v-.413a.655.655,0,0,1,.653-.653h11.108a.655.655,0,0,1,.653.653v.413A.655.655,0,0,1,114.383,419.91Z" transform="translate(-102.622 -410.209)" fill="#c6412a"/>
          <path id="Trazado_200888" data-name="Trazado 200888" d="M114.383,436.776H103.275a.655.655,0,0,1-.653-.653v-.413a.655.655,0,0,1,.653-.653h11.108a.655.655,0,0,1,.653.653v.413A.655.655,0,0,1,114.383,436.776Z" transform="translate(-102.622 -419.094)" fill="#c6412a"/>
          <path id="Trazado_200889" data-name="Trazado 200889" d="M137.657,403.043h-.413a.655.655,0,0,1-.653-.653v-.413a.655.655,0,0,1,.653-.653h.413a.655.655,0,0,1,.654.653v.413A.655.655,0,0,1,137.657,403.043Z" transform="translate(-120.517 -401.324)" fill="#c6412a"/>
          <path id="Trazado_200890" data-name="Trazado 200890" d="M137.657,419.91h-.413a.655.655,0,0,1-.653-.653v-.413a.655.655,0,0,1,.653-.653h.413a.655.655,0,0,1,.654.653v.413A.655.655,0,0,1,137.657,419.91Z" transform="translate(-120.517 -410.209)" fill="#c6412a"/>
        </g>
        <g id="Grupo_162578" data-name="Grupo 162578">
          <path id="Trazado_200891" data-name="Trazado 200891" d="M137.657,436.776h-.413a.655.655,0,0,1-.653-.653v-.413a.655.655,0,0,1,.653-.653h.413a.655.655,0,0,1,.654.653v.413A.655.655,0,0,1,137.657,436.776Z" transform="translate(-79.356 -390.159)" fill="#12263f" stroke="#12263f" stroke-width="0.5"/>
          <g id="Grupo_162577" data-name="Grupo 162577">
            <path id="Trazado_200892" data-name="Trazado 200892" d="M20.914,450.72H16.046a.406.406,0,0,0,0,.811h4.868a.406.406,0,1,0,0-.811Z" transform="translate(-15.64 -398.41)" fill="#12263f" stroke="#12263f" stroke-width="0.5"/>
            <path id="Trazado_200893" data-name="Trazado 200893" d="M146.271,450.72H141.4a.406.406,0,1,0,0,.811h4.869a.406.406,0,1,0,0-.811Z" transform="translate(-81.677 -398.41)" fill="#12263f" stroke="#12263f" stroke-width="0.5"/>
            <path id="Trazado_200894" data-name="Trazado 200894" d="M81.1,450.72H32.162a.406.406,0,0,0,0,.811H81.1a.406.406,0,0,0,0-.811Z" transform="translate(-24.13 -398.41)" fill="#12263f" stroke="#12263f" stroke-width="0.5"/>
            <path id="Trazado_200895" data-name="Trazado 200895" d="M16.046,390.331H80.234a.406.406,0,1,0,0-.811H77.923a1.726,1.726,0,0,0,.269-.925v-5.321a1.732,1.732,0,0,1,0-2.66V344.278a4.105,4.105,0,0,0-4.1-4.1h-51.9a4.105,4.105,0,0,0-4.1,4.1V377.75a4.106,4.106,0,0,0,4.1,4.1H40.343v5.181H37.812a.405.405,0,0,0-.406.406v2.082H16.046a.406.406,0,1,0,0,.811Zm61.336-7.056v5.321a.926.926,0,0,1-.925.924H55.71a.925.925,0,0,1-.924-.924v-5.321a.925.925,0,0,1,.924-.925H76.457A.925.925,0,0,1,77.381,383.274Zm0-10.642a.926.926,0,0,1-.925.925H55.71a.925.925,0,0,1-.924-.925v-5.321a.926.926,0,0,1,.924-.925H76.457a.926.926,0,0,1,.925.925Zm-23.407-5.321v.6a.4.4,0,0,0-.046.029l-5.223,3.977a.936.936,0,0,1-1.13,0l-9.639-7.339a.939.939,0,0,1-.368-.742V350.3a.937.937,0,0,1,.682-.9l9.639-2.693a.933.933,0,0,1,.5,0L58.03,349.4a.936.936,0,0,1,.682.9v13.539a.939.939,0,0,1-.368.743l-1.209.921a.416.416,0,0,0-.073.074H55.71A1.738,1.738,0,0,0,53.975,367.311Zm21.133-1.736H58.376l.459-.35a1.753,1.753,0,0,0,.688-1.387V350.3a1.75,1.75,0,0,0-1.275-1.68l-9.639-2.693a1.757,1.757,0,0,0-.939,0l-9.639,2.693a1.751,1.751,0,0,0-1.275,1.68v13.539a1.755,1.755,0,0,0,.688,1.388l9.639,7.338a1.749,1.749,0,0,0,2.113,0l4.778-3.638v3.706a1.732,1.732,0,0,1,0,2.66v.229H22.188a1.017,1.017,0,0,1-1.016-1.016V344.278a1.017,1.017,0,0,1,1.016-1.016h51.9a1.017,1.017,0,0,1,1.016,1.016v21.3Zm-19.4,15.962a.925.925,0,0,1-.924-.925v-5.321a.925.925,0,0,1,.924-.924H76.457a.926.926,0,0,1,.925.924v5.321a.926.926,0,0,1-.925.925ZM18.9,377.75V344.278a3.294,3.294,0,0,1,3.29-3.29h51.9a3.293,3.293,0,0,1,3.29,3.29v21.567a1.724,1.724,0,0,0-.925-.269h-.538v-21.3a1.829,1.829,0,0,0-1.827-1.827h-51.9a1.829,1.829,0,0,0-1.827,1.827v30.227a1.829,1.829,0,0,0,1.827,1.827H53.975v4.281a1.738,1.738,0,0,0,.055.427H22.188a3.293,3.293,0,0,1-3.29-3.29Zm22.256,4.1H54.466l.027,0c.034.033.069.065.1.1a1.733,1.733,0,0,0-.623,1.33v3.758H41.155Zm-2.937,5.992H53.975v.751a1.726,1.726,0,0,0,.269.925H38.218Z" transform="translate(-15.64 -340.177)" fill="#12263f" stroke="#12263f" stroke-width="0.5"/>
            <path id="Trazado_200896" data-name="Trazado 200896" d="M76.615,363.576a6.921,6.921,0,1,0,6.921,6.921A6.929,6.929,0,0,0,76.615,363.576Zm0,13.031a6.11,6.11,0,1,1,6.11-6.11A6.117,6.117,0,0,1,76.615,376.607Z" transform="translate(-44.115 -352.503)" fill="#12263f" stroke="#12263f" stroke-width="0.5"/>
            <path id="Trazado_200897" data-name="Trazado 200897" d="M80.991,370.414l-3.437,3.438-.61-.576a1.632,1.632,0,1,0-2.243,2.372l1.763,1.667a1.632,1.632,0,0,0,2.275-.032l4.56-4.56a1.632,1.632,0,1,0-2.309-2.307Zm1.735,1.735-4.56,4.56a.84.84,0,0,1-1.144.016l-1.763-1.667a.82.82,0,0,1,.541-1.416h.024a.816.816,0,0,1,.564.225l.9.847a.406.406,0,0,0,.565-.008l3.717-3.717a.821.821,0,0,1,1.161,1.161Z" transform="translate(-46.484 -355.855)" fill="#12263f" stroke="#12263f" stroke-width="0.5"/>
            <path id="Trazado_200898" data-name="Trazado 200898" d="M82.514,421.372a1.622,1.622,0,1,0-1.623-1.623A1.624,1.624,0,0,0,82.514,421.372Zm0-2.434a.811.811,0,1,1-.811.811A.812.812,0,0,1,82.514,418.938Z" transform="translate(-50.014 -381.24)" fill="#12263f" stroke="#12263f" stroke-width="0.5"/>
            <path id="Trazado_200899" data-name="Trazado 200899" d="M113.931,400.467H102.823a1.06,1.06,0,0,0-1.059,1.059v.413A1.06,1.06,0,0,0,102.823,403h11.108a1.06,1.06,0,0,0,1.059-1.059v-.413A1.06,1.06,0,0,0,113.931,400.467Zm.247,1.471a.25.25,0,0,1-.247.247H102.823a.25.25,0,0,1-.247-.247v-.413a.251.251,0,0,1,.247-.248h11.108a.251.251,0,0,1,.247.248Z" transform="translate(-61.009 -371.937)" fill="#12263f" stroke="#12263f" stroke-width="0.5"/>
            <path id="Trazado_200900" data-name="Trazado 200900" d="M113.931,417.333H102.823a1.06,1.06,0,0,0-1.059,1.059v.413a1.06,1.06,0,0,0,1.059,1.059h11.108a1.06,1.06,0,0,0,1.059-1.059v-.413A1.06,1.06,0,0,0,113.931,417.333Zm.247,1.472a.251.251,0,0,1-.247.247H102.823a.251.251,0,0,1-.247-.247v-.413a.25.25,0,0,1,.247-.247h11.108a.25.25,0,0,1,.247.247Z" transform="translate(-61.009 -380.822)" fill="#12263f" stroke="#12263f" stroke-width="0.5"/>
            <path id="Trazado_200901" data-name="Trazado 200901" d="M102.823,436.73h11.108a1.06,1.06,0,0,0,1.059-1.059v-.413a1.06,1.06,0,0,0-1.059-1.059H102.823a1.06,1.06,0,0,0-1.059,1.059v.413A1.06,1.06,0,0,0,102.823,436.73Zm-.247-1.472a.251.251,0,0,1,.247-.247h11.108a.25.25,0,0,1,.247.247v.413a.251.251,0,0,1-.247.247H102.823a.251.251,0,0,1-.247-.247Z" transform="translate(-61.009 -389.707)" fill="#12263f" stroke="#12263f" stroke-width="0.5"/>
            <path id="Trazado_200902" data-name="Trazado 200902" d="M137.205,400.467h-.413a1.06,1.06,0,0,0-1.059,1.059v.413A1.06,1.06,0,0,0,136.793,403h.413a1.06,1.06,0,0,0,1.059-1.059v-.413A1.06,1.06,0,0,0,137.205,400.467Zm.247,1.471a.25.25,0,0,1-.247.247h-.413a.251.251,0,0,1-.248-.247v-.413a.251.251,0,0,1,.248-.248h.413a.251.251,0,0,1,.247.248Z" transform="translate(-78.904 -371.937)" fill="#12263f" stroke="#12263f" stroke-width="0.5"/>
            <path id="Trazado_200903" data-name="Trazado 200903" d="M137.205,417.333h-.413a1.06,1.06,0,0,0-1.059,1.059v.413a1.06,1.06,0,0,0,1.059,1.059h.413a1.06,1.06,0,0,0,1.059-1.059v-.413A1.06,1.06,0,0,0,137.205,417.333Zm.247,1.472a.251.251,0,0,1-.247.247h-.413a.251.251,0,0,1-.248-.247v-.413a.251.251,0,0,1,.248-.247h.413a.25.25,0,0,1,.247.247Z" transform="translate(-78.904 -380.822)" fill="#12263f" stroke="#12263f" stroke-width="0.5"/>
            <path id="Trazado_200904" data-name="Trazado 200904" d="M136.793,436.73h.413a1.06,1.06,0,0,0,1.059-1.059v-.413a1.06,1.06,0,0,0-1.059-1.059h-.413a1.06,1.06,0,0,0-1.059,1.059v.413A1.06,1.06,0,0,0,136.793,436.73Zm-.248-1.472a.251.251,0,0,1,.248-.247h.413a.251.251,0,0,1,.247.247v.413a.251.251,0,0,1-.247.247h-.413a.251.251,0,0,1-.248-.247Z" transform="translate(-78.904 -389.707)" fill="#12263f" stroke="#12263f" stroke-width="0.5"/>
          </g>
        </g>
      </g>
    </g>
    <text id="El_cifrado_de_la_información_es_un_texto_no_entendible_por_las_personas_con_el_fin_de_proteger_los_datos._Para_acceder_a_esta_información_se_debe_disponer_de_las_claves_certificados_necesarios_personas_autorizadas_o_destinatarios_aunque_sea_interceptad" data-name="El cifrado de la información es un texto no entendible por las personas con el fin de proteger los datos. Para acceder a esta información se debe disponer de las claves/certificados necesarios (personas autorizadas o destinatarios), aunque  sea interceptad" transform="translate(623.823 3848.403)" fill="#12263f" font-size="16" font-family="Roboto-Regular, Roboto"><tspan x="0" y="17">El cifrado de la información es un texto no entendible por las personas con el fin de </tspan><tspan x="0" y="41">proteger los datos. Para acceder a esta información se debe disponer de las </tspan><tspan x="0" y="65" xml:space="preserve">claves/certificados necesarios (personas autorizadas o destinatarios), aunque  sea </tspan><tspan x="0" y="89">interceptada en tránsito o llegue al repositorio donde se encuentre almacenada.</tspan></text>
    <text id="Controles_de_acceso_a_las_instalaciones_los_repositorios_y_sistemas_donde_se_encuentra_la_información_o_la_red_por_la_que_se_mueve_evitando_acceso_no_autorizado." data-name="Controles de acceso a las instalaciones, los repositorios y sistemas donde se encuentra la información o la red por la que se mueve, evitando acceso no autorizado." transform="translate(623.823 4000.049)" fill="#12263f" font-size="16" font-family="Roboto-Regular, Roboto"><tspan x="0" y="17">Controles de acceso a las instalaciones, los repositorios y sistemas donde se </tspan><tspan x="0" y="41">encuentra la información o la red por la que se mueve, evitando acceso no </tspan><tspan x="0" y="65">autorizado.</tspan></text>
    <text id="Procedimientos_formales_de_clasificación_de_la_información_en_función_de_sus_valores_sensibilidad_requisitos_legales_y_de_tratamiento_qué_se_puede_hacer_con_ella_y_qué_no_." data-name="Procedimientos formales de clasificación de la información en función de sus valores, sensibilidad, requisitos legales y de tratamiento (qué se puede hacer con ella y qué no)." transform="translate(623.823 4136.271)" fill="#12263f" font-size="16" font-family="Roboto-Regular, Roboto"><tspan x="0" y="17">Procedimientos formales de clasificación de la información en función de sus </tspan><tspan x="0" y="41">valores, sensibilidad, requisitos legales y de tratamiento (qué se puede hacer con </tspan><tspan x="0" y="65">ella y qué no).</tspan></text>
    <text id="Formación_y_toma_de_conciencia_hacia_las_personas_acerca_de_la_confidencialidad_y_protección_de_la_información." data-name="Formación y toma de conciencia hacia las  personas acerca de la confidencialidad y protección de la información." transform="translate(623.823 4285.915)" fill="#12263f" font-size="16" font-family="Roboto-Regular, Roboto"><tspan x="0" y="17" xml:space="preserve">Formación y toma de conciencia hacia las  personas acerca de la confidencialidad y </tspan><tspan x="0" y="41">protección de la información.</tspan></text>
    <text id="Acuerdo_de_confidencialidad_NDA_establecido_formalmente_con_los_empleados_que_acceden_y_tratan_información_confidencial." data-name="Acuerdo de confidencialidad (NDA) establecido formalmente con los empleados que acceden y tratan información confidencial." transform="translate(623.823 4427.884)" fill="#12263f" font-size="16" font-family="Roboto-Regular, Roboto"><tspan x="0" y="17">Acuerdo de confidencialidad (NDA) establecido formalmente con los empleados que </tspan><tspan x="0" y="41">acceden y tratan información confidencial.</tspan></text>
    <g id="Grupo_163224" data-name="Grupo 163224">
      <g transform="matrix(1, 0, 0, 1, 285, 3676.47)" filter="url(#Elipse_18350)">
        <ellipse id="Elipse_18350-2" data-name="Elipse 18350" cx="50" cy="50" rx="50" ry="50" transform="translate(85 444.48) rotate(-81.19)" fill="#fff"/>
      </g>
      <g id="Grupo_163118" data-name="Grupo 163118" transform="translate(399.91 4051.543)">
        <g id="Grupo_162559" data-name="Grupo 162559" transform="translate(0.892 0.893)">
          <g id="Grupo_162547" data-name="Grupo 162547" transform="translate(6.246 0)">
            <path id="Trazado_200832" data-name="Trazado 200832" d="M52.783,381.661v10.707h-.892v-6.246A.894.894,0,0,0,51,385.23H17.094v-3.569Z" transform="translate(-17.094 -381.661)" fill="#c6412a"/>
          </g>
          <g id="Grupo_162548" data-name="Grupo 162548" transform="translate(4.461 3.569)">
            <path id="Trazado_200833" data-name="Trazado 200833" d="M49.4,391.1v6.246H28.541a.894.894,0,0,1-.8-.491l-1.285-2.587a.9.9,0,0,0-.8-.491H12.82v-3.569H48.51A.894.894,0,0,1,49.4,391.1Z" transform="translate(-12.82 -390.208)" fill="#e6e9ed"/>
          </g>
          <g id="Grupo_162549" data-name="Grupo 162549" transform="translate(0 19.629)">
            <path id="Trazado_200834" data-name="Trazado 200834" d="M2.137,461.681V428.668H39.611a8.915,8.915,0,0,0-3.569,7.138v6.576a10.557,10.557,0,0,0-1.785,5.915,10.7,10.7,0,0,0,12.491,10.555v2.829a.9.9,0,0,1-.892.892H3.029A.894.894,0,0,1,2.137,461.681Z" transform="translate(-2.137 -428.668)" fill="#fff"/>
          </g>
          <g id="Grupo_162550" data-name="Grupo 162550" transform="translate(0 7.138)">
            <path id="Trazado_200835" data-name="Trazado 200835" d="M46.749,403.215v6.424a8.946,8.946,0,0,0-7.138,1.606H2.137v-11.6a.9.9,0,0,1,.892-.892h16.4a.9.9,0,0,1,.8.491l1.285,2.587a.894.894,0,0,0,.8.491H45.856A.9.9,0,0,1,46.749,403.215Z" transform="translate(-2.137 -398.754)" fill="#6677d6"/>
          </g>
          <g id="Grupo_162551" data-name="Grupo 162551" transform="translate(12.491 23.198)">
            <path id="Trazado_200836" data-name="Trazado 200836" d="M35.62,449.706a4.465,4.465,0,0,0,2.525,4.024l-.74,2.221a4.881,4.881,0,0,0-2.106,1.392,1.913,1.913,0,0,0-.125.152,6.47,6.47,0,0,1-3.123-5.532v-6.718a8.03,8.03,0,0,1,16.06,0v6.718a6.47,6.47,0,0,1-3.123,5.532,4.766,4.766,0,0,0-2.231-1.544l-.74-2.221,1.222-.866a4.48,4.48,0,0,0,1.3-3.158V447.03a1.79,1.79,0,0,0-1.785-1.784h-.75a3.881,3.881,0,0,1-2.364-.8l-2.587.517a1.785,1.785,0,0,0-1.437,1.749Z" transform="translate(-32.051 -437.215)" fill="#b27946"/>
          </g>
          <g id="Grupo_162552" data-name="Grupo 162552" transform="translate(14.276 41.935)">
            <path id="Trazado_200837" data-name="Trazado 200837" d="M42.57,484.763l2.677-2.677a4.767,4.767,0,0,1,2.231,1.544,4.838,4.838,0,0,1,1,2.115l.339,1.695H36.324l.339-1.695a4.838,4.838,0,0,1,1-2.115,1.915,1.915,0,0,1,.125-.152,4.881,4.881,0,0,1,2.106-1.392Z" transform="translate(-36.324 -482.086)" fill="#ff826e"/>
          </g>
          <g id="Grupo_162553" data-name="Grupo 162553" transform="translate(17.845 39.714)">
            <path id="Trazado_200838" data-name="Trazado 200838" d="M45.611,476.766a4.506,4.506,0,0,0,3.873,0l.74,2.221-2.677,2.677-2.677-2.677Z" transform="translate(-44.871 -476.766)" fill="#f0d0b4"/>
          </g>
          <g id="Grupo_162554" data-name="Grupo 162554" transform="translate(16.06 30.425)">
            <path id="Trazado_200839" data-name="Trazado 200839" d="M48.217,462.946l-1.222.866a4.461,4.461,0,0,1-6.4-4.024v-3a1.785,1.785,0,0,1,1.437-1.749l2.587-.517a3.881,3.881,0,0,0,2.364.8h.75a1.79,1.79,0,0,1,1.785,1.784v2.677A4.48,4.48,0,0,1,48.217,462.946Z" transform="translate(-40.597 -454.523)" fill="#f0d0b4"/>
          </g>
          <g id="Grupo_162555" data-name="Grupo 162555" transform="translate(33.905 17.845)">
            <path id="Trazado_200840" data-name="Trazado 200840" d="M101.177,433.317v6.567a10.877,10.877,0,0,0-3.569-3.355v-3.212a5.361,5.361,0,0,0-5.353-5.353,5.358,5.358,0,0,0-5.354,5.353v3.212a10.64,10.64,0,0,0-3.569,3.364v-6.576a8.922,8.922,0,0,1,17.845,0Z" transform="translate(-83.332 -424.395)" fill="#aab2bd"/>
          </g>
          <g id="Grupo_162556" data-name="Grupo 162556" transform="translate(32.12 28.551)">
            <path id="Trazado_200841" data-name="Trazado 200841" d="M95.118,451.463a10.877,10.877,0,0,1,3.569,3.355,10.708,10.708,0,1,1-19.629,5.925,10.716,10.716,0,0,1,16.06-9.279Z" transform="translate(-79.058 -450.035)" fill="#ffef0f"/>
          </g>
          <g id="Grupo_162557" data-name="Grupo 162557" transform="translate(35.689 32.12)">
            <path id="Trazado_200842" data-name="Trazado 200842" d="M94.743,458.582a7.138,7.138,0,1,1-7.138,7.138A7.136,7.136,0,0,1,94.743,458.582Z" transform="translate(-87.605 -458.582)" fill="#ffeaa7"/>
          </g>
          <g id="Grupo_162558" data-name="Grupo 162558" transform="translate(41.043 35.689)">
            <ellipse id="Elipse_18343" data-name="Elipse 18343" cx="1.784" cy="1.784" rx="1.784" ry="1.784" fill="#5cd6b3"/>
          </g>
        </g>
        <g id="Grupo_162560" data-name="Grupo 162560" transform="translate(0 0)">
          <path id="Trazado_200843" data-name="Trazado 200843" d="M100.966,464.992a2.671,2.671,0,0,0-.892,5.19v3.733h1.784v-3.733a2.67,2.67,0,0,0-.892-5.19Zm0,3.569a.892.892,0,1,1,.892-.892A.893.893,0,0,1,100.966,468.561Z" transform="translate(-57.246 -429.303)"/>
          <path id="Trazado_200844" data-name="Trazado 200844" d="M93.5,456.446a8.03,8.03,0,1,0,8.03,8.03A8.039,8.039,0,0,0,93.5,456.446Zm0,14.276a6.246,6.246,0,1,1,6.246-6.246A6.253,6.253,0,0,1,93.5,470.722Z" transform="translate(-49.779 -424.325)"/>
          <path id="Trazado_200845" data-name="Trazado 200845" d="M55.319,424.653a11.506,11.506,0,0,0-1.785-6.153v-6.338a9.826,9.826,0,0,0-7.138-9.434v-5.734a1.786,1.786,0,0,0-1.785-1.784H42.827v-5.354a1.786,1.786,0,0,0-1.784-1.784H5.353v1.784h35.69v5.354H21.073l-1.291-2.583a1.776,1.776,0,0,0-1.6-.986H1.784A1.786,1.786,0,0,0,0,393.424v44.612a1.786,1.786,0,0,0,1.784,1.784H44.612a1.786,1.786,0,0,0,1.785-1.784v-2.108A11.612,11.612,0,0,0,55.319,424.653ZM51.75,412.161V416.3a11.642,11.642,0,0,0-1.784-1.408v-2.733a6.246,6.246,0,0,0-12.491,0v2.733a11.645,11.645,0,0,0-1.785,1.408v-4.141a8.03,8.03,0,0,1,16.06,0Zm-3.569,1.787a11.568,11.568,0,0,0-8.922,0v-1.787a4.461,4.461,0,0,1,8.922,0Zm-30-20.524,1.291,2.583a1.776,1.776,0,0,0,1.6.986H44.612v5.4c-.294-.027-.59-.046-.892-.046a9.751,9.751,0,0,0-5.626,1.785H1.784V393.424Zm26.426,44.612H1.784V405.916h34.37a9.767,9.767,0,0,0-2.249,6.246V418.5a11.576,11.576,0,0,0,9.815,17.752c.3,0,.6-.022.892-.045Zm-.892-3.569a9.815,9.815,0,1,1,9.814-9.815A9.826,9.826,0,0,1,43.72,434.467Z" transform="translate(0 -384.502)"/>
          <path id="Trazado_200846" data-name="Trazado 200846" d="M17.094,379.524H52.783v1.785H17.094Z" transform="translate(-9.956 -379.524)"/>
          <path id="Trazado_200847" data-name="Trazado 200847" d="M12.82,409.438H14.6v3.569H12.82Z" transform="translate(-7.467 -396.947)"/>
          <path id="Trazado_200848" data-name="Trazado 200848" d="M21.367,409.438h1.784v3.569H21.367Z" transform="translate(-12.445 -396.947)"/>
          <path id="Trazado_200849" data-name="Trazado 200849" d="M29.914,409.438H31.7v3.569H29.914Z" transform="translate(-17.423 -396.947)"/>
          <path id="Trazado_200850" data-name="Trazado 200850" d="M8.547,499.18h3.569v1.784H8.547Z" transform="translate(-4.978 -449.215)"/>
          <path id="Trazado_200851" data-name="Trazado 200851" d="M21.367,499.18h3.569v1.784H21.367Z" transform="translate(-12.445 -449.215)"/>
          <path id="Trazado_200852" data-name="Trazado 200852" d="M8.547,490.633h8.922v1.784H8.547Z" transform="translate(-4.978 -444.237)"/>
          <path id="Trazado_200853" data-name="Trazado 200853" d="M8.547,482.086h1.784v1.784H8.547Z" transform="translate(-4.978 -439.259)"/>
          <path id="Trazado_200854" data-name="Trazado 200854" d="M17.094,482.086h5.353v1.784H17.094Z" transform="translate(-9.956 -439.259)"/>
          <path id="Trazado_200855" data-name="Trazado 200855" d="M48.423,466.249H47.008v1.785h1.415a3.912,3.912,0,0,0,2.786-1.154l-1.262-1.262a2.139,2.139,0,0,1-1.523.631Z" transform="translate(-27.379 -429.667)"/>
          <path id="Trazado_200856" data-name="Trazado 200856" d="M38.836,435.079A8.932,8.932,0,0,0,29.914,444v6.717a7.392,7.392,0,0,0,2.792,5.762,5.718,5.718,0,0,0-.651,1.711l-.553,2.762H46.171l-.552-2.762a5.707,5.707,0,0,0-.651-1.711,7.391,7.391,0,0,0,2.791-5.762V444A8.932,8.932,0,0,0,38.836,435.079Zm-5.157,24.09.126-.627a3.983,3.983,0,0,1,2.143-2.785l2.888,2.889,2.889-2.889a3.981,3.981,0,0,1,2.143,2.785l.125.627Zm5.157-7.138a3.572,3.572,0,0,1-3.569-3.569v-3a.892.892,0,0,1,.717-.874l2.206-.442a4.807,4.807,0,0,0,2.574.745h.747a.894.894,0,0,1,.892.892v2.677A3.572,3.572,0,0,1,38.836,452.031Zm0,1.784a5.35,5.35,0,0,0,1.377-.185l.279.838-1.656,1.655-1.656-1.656.279-.838A5.316,5.316,0,0,0,38.836,453.816Zm7.138-3.1a5.6,5.6,0,0,1-2.118,4.366,5.749,5.749,0,0,0-1.631-1.059l-.379-1.138a5.353,5.353,0,0,0,2.343-4.424v-2.677a2.68,2.68,0,0,0-2.677-2.677h-.747a3.024,3.024,0,0,1-2.1-.846l-.005-.028-.02,0a3.016,3.016,0,0,1-.743-1.2l-1.692.565a4.814,4.814,0,0,0,.48,1.022l-1.05.21a2.684,2.684,0,0,0-2.153,2.625v3a5.351,5.351,0,0,0,2.344,4.424l-.379,1.138a5.73,5.73,0,0,0-1.631,1.059,5.6,5.6,0,0,1-2.118-4.366V444a7.138,7.138,0,1,1,14.276,0Z" transform="translate(-17.423 -411.881)"/>
        </g>
      </g>
    </g>
    <g id="Grupo_163222" data-name="Grupo 163222">
      <g transform="matrix(1, 0, 0, 1, 285, 3676.47)" filter="url(#Elipse_18352)">
        <ellipse id="Elipse_18352-2" data-name="Elipse 18352" cx="50" cy="50" rx="50" ry="50" transform="translate(85 760.13) rotate(-81.19)" fill="#fff"/>
      </g>
      <g id="Grupo_163120" data-name="Grupo 163120" transform="translate(398.189 4365.05)">
        <g id="Grupo_162582" data-name="Grupo 162582" transform="translate(0.873 0.873)">
          <path id="Trazado_200905" data-name="Trazado 200905" d="M44.827,407.8l-4.151-9.128h-24.9A6.181,6.181,0,0,0,9.6,404.856v39.852a6.181,6.181,0,0,0,6.181,6.181H53.629V411.627Z" transform="translate(-9.6 -398.675)" fill="#515fab"/>
          <path id="Trazado_200906" data-name="Trazado 200906" d="M18.942,426.919c0-11.98,5.348-22.467,13.349-28.244H15.781A6.181,6.181,0,0,0,9.6,404.856v39.852a6.18,6.18,0,0,0,6.181,6.181H27.59A36.162,36.162,0,0,1,18.942,426.919Z" transform="translate(-9.6 -398.675)" fill="#6677d6"/>
          <path id="Trazado_200907" data-name="Trazado 200907" d="M69.565,398.675v9.316a3.636,3.636,0,0,0,3.636,3.636h9.317Z" transform="translate(-38.489 -398.675)" fill="#59c2e7"/>
          <g id="Grupo_162580" data-name="Grupo 162580" transform="translate(35.259 26.881)">
            <path id="Trazado_200908" data-name="Trazado 200908" d="M92.882,467.875a2.168,2.168,0,0,1-2.167-2.168v-6.456a4.372,4.372,0,0,0-8.744,0v6.456a2.168,2.168,0,1,1-4.335,0v-6.456a8.707,8.707,0,1,1,17.414,0v6.456a2.167,2.167,0,0,1-2.167,2.168Z" transform="translate(-77.635 -450.544)" fill="#5c84d9"/>
          </g>
          <g id="Grupo_162581" data-name="Grupo 162581" transform="translate(31.918 38.751)">
            <path id="Trazado_200909" data-name="Trazado 200909" d="M89.383,473.449H77.09a5.9,5.9,0,0,0-5.9,5.9v7.3a5.9,5.9,0,0,0,5.9,5.9H89.383a5.9,5.9,0,0,0,5.9-5.9v-7.3A5.9,5.9,0,0,0,89.383,473.449Z" transform="translate(-71.189 -473.449)" fill="#ffef0f"/>
          </g>
          <path id="Trazado_200910" data-name="Trazado 200910" d="M93.329,487.559v-1.449a1.9,1.9,0,1,0-3.807,0v1.449a3.371,3.371,0,1,0,3.807,0Z" transform="translate(-47.396 -439.881)" fill="#5c84d9"/>
          <path id="Trazado_200911" data-name="Trazado 200911" d="M37.767,472.938h-9.31l-4.834-4.872a12.669,12.669,0,0,1,4.629-6.108h9.719a12.659,12.659,0,0,1,4.629,6.108Z" transform="translate(-16.356 -429.162)" fill="#5c84d9"/>
          <path id="Trazado_200912" data-name="Trazado 200912" d="M26.212,465.44a13.2,13.2,0,0,0-2.589,4.3l4.834,4.872h.49A37.084,37.084,0,0,1,26.212,465.44Z" transform="translate(-16.356 -430.84)" fill="#4677d4"/>
          <path id="Trazado_200913" data-name="Trazado 200913" d="M27.68,473.744v4.873H22.01a14.1,14.1,0,0,1,.836-4.873Z" transform="translate(-15.579 -434.84)" fill="#fff"/>
          <path id="Trazado_200914" data-name="Trazado 200914" d="M26.4,473.744H22.846a14.1,14.1,0,0,0-.836,4.873h5.67v-1.152A36.407,36.407,0,0,1,26.4,473.744Z" transform="translate(-15.579 -434.84)" fill="#e0e0e0"/>
          <path id="Trazado_200915" data-name="Trazado 200915" d="M56.586,478.616H50.915v-4.873h4.834A14.067,14.067,0,0,1,56.586,478.616Z" transform="translate(-29.504 -434.84)" fill="#fff"/>
          <ellipse id="Elipse_18346" data-name="Elipse 18346" cx="11.066" cy="11.066" rx="11.066" ry="11.066" transform="translate(5.691 11.786)" fill="#fff"/>
          <path id="Trazado_200916" data-name="Trazado 200916" d="M24.232,438.606a37.984,37.984,0,0,1,3.312-15.672,11.067,11.067,0,0,0-3.2,18.59q-.107-1.443-.109-2.918Z" transform="translate(-14.89 -410.362)" fill="#e0e0e0"/>
        </g>
        <g id="Grupo_162583" data-name="Grupo 162583" transform="translate(0)">
          <path id="Trazado_200917" data-name="Trazado 200917" d="M93.39,486.32V485.3a2.776,2.776,0,1,0-5.553,0v1.021a4.244,4.244,0,1,0,5.553,0Zm-2.776,5.708a2.5,2.5,0,0,1-1.41-4.56.873.873,0,0,0,.38-.72V485.3a1.03,1.03,0,1,1,2.061,0v1.449a.874.874,0,0,0,.379.72,2.5,2.5,0,0,1-1.41,4.56Z" transform="translate(-45.711 -438.196)"/>
          <path id="Trazado_200918" data-name="Trazado 200918" d="M41.218,453.611a.77.77,0,1,0,.77.77A.77.77,0,0,0,41.218,453.611Z" transform="translate(-23.588 -424.268)"/>
          <path id="Trazado_200919" data-name="Trazado 200919" d="M38.2,429.517A4.108,4.108,0,0,0,34,433.625a.873.873,0,1,0,1.746,0,2.363,2.363,0,1,1,2.363,2.363.874.874,0,0,0-.873.873v3.384a.873.873,0,0,0,1.746,0V437.64a4.109,4.109,0,0,0-.789-8.123Z" transform="translate(-20.484 -412.66)"/>
          <path id="Trazado_200920" data-name="Trazado 200920" d="M62.334,433.451a9.509,9.509,0,0,0-1.758-5.522.873.873,0,1,0-1.425,1.009,7.769,7.769,0,0,1,1.438,4.513v2.5A9.209,9.209,0,0,0,58,435.741v-2.29a5.245,5.245,0,0,0-10.491,0v2.29a9.709,9.709,0,0,0-2.589.211,18.058,18.058,0,0,1,.247-4.457,7.843,7.843,0,0,1,11.72-4.695.873.873,0,0,0,.924-1.482,9.536,9.536,0,0,0-4.121-1.4v-13.1a.879.879,0,0,0-.256-.618L40.482,397.246h0a.879.879,0,0,0-.617-.255h-24.9a7.062,7.062,0,0,0-7.054,7.054v6.17a.873.873,0,1,0,1.746,0v-6.17a5.314,5.314,0,0,1,5.308-5.307H38.992v8.443a4.514,4.514,0,0,0,4.509,4.509h8.444V423.9a9.544,9.544,0,0,0-5.359,2.225c-4.007,3.381-3.343,7.191-3.411,10.545a6.805,6.805,0,0,0-3.341,5.841V449.2H14.969A5.314,5.314,0,0,1,9.661,443.9v-30.19a.873.873,0,1,0-1.746,0V443.9a7.062,7.062,0,0,0,7.054,7.054H39.929a6.785,6.785,0,0,0,6.678,5.643H58.9a6.782,6.782,0,0,0,6.774-6.774v-7.3a6.776,6.776,0,0,0-3.341-5.836v-3.229Zm-6.081,0v2.29H53.69V430.08A3.5,3.5,0,0,1,56.253,433.451ZM51.01,430.42a3.478,3.478,0,0,1,.934-.372v5.693H49.255c0-2.229-.333-4.1,1.755-5.321ZM43.5,409.942a2.766,2.766,0,0,1-2.763-2.763v-7.209l9.971,9.971Zm20.429,32.574v7.3a5.034,5.034,0,0,1-5.028,5.028H46.607a5.034,5.034,0,0,1-5.022-4.805v0c0-.043,0-.086,0-.129s0-.062,0-.093c0-8.087-.007-7.4.017-7.7a5.037,5.037,0,0,1,5.011-4.633c13.139,0,12.773-.091,13.8.232a5.038,5.038,0,0,1,3.518,4.8Z" transform="translate(-7.915 -396.99)"/>
          <path id="Trazado_200921" data-name="Trazado 200921" d="M42.773,431.671A11.939,11.939,0,1,0,24.4,441.726a14.006,14.006,0,0,0-3.879,5.7h0a15.026,15.026,0,0,0-.889,5.172.873.873,0,0,0,.873.873H41.161a.874.874,0,0,0,.873-.873,14.249,14.249,0,0,0-4.771-10.869,11.939,11.939,0,0,0,5.51-10.056ZM21.972,448.6h3.334v3.127h-3.9A13.2,13.2,0,0,1,21.972,448.6Zm14.39,3.127V448.6H39.7a13.189,13.189,0,0,1,.564,3.127Zm-.762-9.1a12.181,12.181,0,0,1,3.4,4.23H35.49a.873.873,0,0,0-.873.873v4H27.053v-4a.873.873,0,0,0-.873-.873H22.665a12.192,12.192,0,0,1,3.4-4.23,11.962,11.962,0,0,0,9.531,0Zm-5.814-.81a10.193,10.193,0,1,1,11.241-10.139A10.208,10.208,0,0,1,29.787,441.81Z" transform="translate(-13.205 -407.946)"/>
        </g>
      </g>
    </g>
    <g id="Grupo_163221" data-name="Grupo 163221">
      <g transform="matrix(1, 0, 0, 1, 285, 3676.47)" filter="url(#Elipse_18353)">
        <ellipse id="Elipse_18353-2" data-name="Elipse 18353" cx="50" cy="50" rx="50" ry="50" transform="translate(85 914.38) rotate(-81.19)" fill="#fff"/>
      </g>
      <g id="Grupo_163121" data-name="Grupo 163121" transform="translate(398.288 4521.783)">
        <g id="Grupo_162600" data-name="Grupo 162600" transform="translate(0.978 0.978)">
          <g id="Grupo_162585" data-name="Grupo 162585" transform="translate(41.067)">
            <path id="Trazado_200922" data-name="Trazado 200922" d="M76.55,422.324V414.5h9.778v23.467h-17.6V422.324Z" transform="translate(-68.728 -414.502)" fill="#e6e9ed"/>
          </g>
          <g id="Grupo_162586" data-name="Grupo 162586" transform="translate(41.067)">
            <path id="Trazado_200923" data-name="Trazado 200923" d="M76.55,414.5v7.822H68.728Z" transform="translate(-68.728 -414.502)" fill="#c6412a"/>
          </g>
          <g id="Grupo_162587" data-name="Grupo 162587">
            <path id="Trazado_200924" data-name="Trazado 200924" d="M21.124,428.6a2.938,2.938,0,0,1-2.9,2.522,8.134,8.134,0,0,1-5.29-1.955H11.376a3.91,3.91,0,0,0-3.912,3.911v.978H5.51a3.9,3.9,0,0,0-2.6.988A14.519,14.519,0,0,1,16.118,414.5h8.115a14.516,14.516,0,0,1,13.209,20.543,3.9,3.9,0,0,0-2.6-.988H32.887v-1.819a3.915,3.915,0,0,0-1.74-3.256l-1.193-.792a2.937,2.937,0,0,1-2.933,2.933,8.157,8.157,0,0,1-5.9-2.522Z" transform="translate(-1.598 -414.502)" fill="#ffef0f"/>
          </g>
          <g id="Grupo_162588" data-name="Grupo 162588" transform="translate(19.556 39.424)">
            <path id="Trazado_200925" data-name="Trazado 200925" d="M43.343,484.52v9.758H39.432V493.3a2.93,2.93,0,0,0-2.933-2.933h-.978l-1.956-7.822,1.8-3.6a12.691,12.691,0,0,1,7.949,5.574Z" transform="translate(-33.565 -478.946)" fill="#4e2e8e"/>
          </g>
          <g id="Grupo_162589" data-name="Grupo 162589" transform="translate(5.867 39.414)">
            <path id="Trazado_200926" data-name="Trazado 200926" d="M22.921,490.361a1.961,1.961,0,0,1,1.956,1.956v3.911a1.961,1.961,0,0,1-1.956,1.956H15.1a3.91,3.91,0,0,1-3.912-3.912v-2.933a12.735,12.735,0,0,1,9.934-12.408l1.8,3.608-1.955,7.822Z" transform="translate(-11.188 -478.93)" fill="#4e2e8e"/>
          </g>
          <g id="Grupo_162590" data-name="Grupo 162590" transform="translate(15.645 43.022)">
            <path id="Trazado_200927" data-name="Trazado 200927" d="M31.083,484.828l1.956,7.822H27.172l1.955-7.822Z" transform="translate(-27.172 -484.828)" fill="#ffeaa7"/>
          </g>
          <g id="Grupo_162591" data-name="Grupo 162591" transform="translate(15.801 39.111)">
            <path id="Trazado_200928" data-name="Trazado 200928" d="M32.981,478.748l-1.8,3.6H29.226l-1.8-3.608a12.952,12.952,0,0,1,2.777-.3A12.487,12.487,0,0,1,32.981,478.748Z" transform="translate(-27.427 -478.435)" fill="#fcd770"/>
          </g>
          <g id="Grupo_162592" data-name="Grupo 162592" transform="translate(17.6 50.844)">
            <path id="Trazado_200929" data-name="Trazado 200929" d="M34.28,497.615h.978a2.93,2.93,0,0,1,2.933,2.933v.978H32.324v-1.955a1.961,1.961,0,0,0-1.956-1.956Z" transform="translate(-30.368 -497.615)" fill="#f0d0b4"/>
          </g>
          <g id="Grupo_162593" data-name="Grupo 162593" transform="translate(31.289 19.555)">
            <path id="Trazado_200930" data-name="Trazado 200930" d="M57.3,447.456a3.911,3.911,0,0,1-2.6,6.834H52.745v-7.822H54.7A3.9,3.9,0,0,1,57.3,447.456Z" transform="translate(-52.745 -446.468)" fill="#f0d0b4"/>
          </g>
          <g id="Grupo_162594" data-name="Grupo 162594" transform="translate(5.867 13.688)">
            <path id="Trazado_200931" data-name="Trazado 200931" d="M36.61,450.567v1.956a9.781,9.781,0,0,1-9.778,9.778H20.966a9.782,9.782,0,0,1-9.778-9.778V441.767a3.91,3.91,0,0,1,3.912-3.911h1.554a8.134,8.134,0,0,0,5.29,1.955,2.938,2.938,0,0,0,2.9-2.522,8.157,8.157,0,0,0,5.9,2.522,2.937,2.937,0,0,0,2.933-2.933l1.193.792a3.915,3.915,0,0,1,1.74,3.256v9.641Z" transform="translate(-11.188 -436.878)" fill="#f0d0b4"/>
          </g>
          <g id="Grupo_162595" data-name="Grupo 162595" transform="translate(0 19.555)">
            <path id="Trazado_200932" data-name="Trazado 200932" d="M7.465,446.468v7.822H5.51a3.911,3.911,0,1,1,0-7.822Z" transform="translate(-1.598 -446.468)" fill="#f0d0b4"/>
          </g>
          <g id="Grupo_162596" data-name="Grupo 162596" transform="translate(17.6 54.755)">
            <path id="Trazado_200933" data-name="Trazado 200933" d="M59.7,504.008v.978a2.929,2.929,0,0,1-2.933,2.933h-26.4a1.961,1.961,0,0,0,1.956-1.956v-1.956H59.7Z" transform="translate(-30.368 -504.008)" fill="#aab2bd"/>
          </g>
          <g id="Grupo_162597" data-name="Grupo 162597" transform="translate(29.333 41.067)">
            <path id="Trazado_200934" data-name="Trazado 200934" d="M67.148,483.587V495.32h-17.6V483.587a1.961,1.961,0,0,1,1.956-1.955H65.193A1.961,1.961,0,0,1,67.148,483.587Z" transform="translate(-49.548 -481.632)" fill="#ccd1d9"/>
          </g>
          <g id="Grupo_162598" data-name="Grupo 162598" transform="translate(36.178 44.978)">
            <ellipse id="Elipse_18347" data-name="Elipse 18347" cx="1.956" cy="1.956" rx="1.956" ry="1.956" fill="#69d6f4"/>
          </g>
          <g id="Grupo_162599" data-name="Grupo 162599" transform="translate(21.512 29.333)">
            <path id="Trazado_200935" data-name="Trazado 200935" d="M40.673,463.43v3.911a.981.981,0,0,1-.978.978H37.74a.981.981,0,0,1-.978-.978v-4.889H39.7A.98.98,0,0,1,40.673,463.43Z" transform="translate(-36.762 -462.452)" fill="#aab2bd"/>
          </g>
        </g>
        <g id="Grupo_162601" data-name="Grupo 162601" transform="translate(0 0)">
          <path id="Trazado_200936" data-name="Trazado 200936" d="M45.956,453.97H32.267a2.933,2.933,0,0,0-2.843,2.245,13.59,13.59,0,0,0-3.711-2.739,10.775,10.775,0,0,0,7.532-10.261v-.978h.978a4.894,4.894,0,0,0,4.888-4.888,4.838,4.838,0,0,0-1.159-3.122A15.452,15.452,0,0,0,23.613,412.9H15.5A15.452,15.452,0,0,0,1.159,434.225,4.841,4.841,0,0,0,0,437.348a4.894,4.894,0,0,0,4.889,4.888h.978v.978a10.773,10.773,0,0,0,7.554,10.268A13.693,13.693,0,0,0,5.867,465.7v2.933a4.895,4.895,0,0,0,4.889,4.889H44.978a3.915,3.915,0,0,0,3.912-3.911V456.9a2.937,2.937,0,0,0-2.933-2.933Zm-16.622,5.267v8.423H27.378a3.915,3.915,0,0,0-3.911-3.911h-.215l-1.682-6.73,1.28-2.563A11.673,11.673,0,0,1,29.333,459.236Zm-9.778-5.267a11.759,11.759,0,0,1,1.31.083l-.937,1.873h-.747l-.938-1.878A11.915,11.915,0,0,1,19.556,453.97Zm-.215,3.912h.429l1.466,5.867H17.874Zm1.991,7.822h2.136a1.958,1.958,0,0,1,1.956,1.956H21.511v-.978A2.9,2.9,0,0,0,21.331,465.7Zm12.891-25.422h-.978v-5.867h.978a2.933,2.933,0,1,1,0,5.867Zm-29.333,0a2.933,2.933,0,0,1,0-5.867h.978v5.867Zm.978-7.822H4.889a4.836,4.836,0,0,0-2.127.507,13.4,13.4,0,0,1-.806-4.566A13.557,13.557,0,0,1,15.5,414.859h8.116a13.508,13.508,0,0,1,12.735,18.107,4.835,4.835,0,0,0-2.126-.507h-.978v-.84a4.875,4.875,0,0,0-2.177-4.068l-.812-.542a3.9,3.9,0,0,0-3.855-3.351H24.444v1.956H26.4a1.955,1.955,0,1,1,0,3.911,7.2,7.2,0,0,1-4.89-1.942v-.014a3.915,3.915,0,0,0-3.911-3.911H15.644v1.956H17.6a1.955,1.955,0,1,1,0,3.911,7.151,7.151,0,0,1-6.793-4.9l-.1-.3-1.855.618.1.3a9.1,9.1,0,0,0,1.21,2.383,4.878,4.878,0,0,0-4.3,4.829Zm10.756,19.556a8.81,8.81,0,0,1-8.8-8.8V432.459a2.937,2.937,0,0,1,2.933-2.933h1.208a9.1,9.1,0,0,0,5.636,1.956,3.9,3.9,0,0,0,3.312-1.853,9.155,9.155,0,0,0,5.488,1.853,3.909,3.909,0,0,0,3.563-2.317l.02.013a2.927,2.927,0,0,1,1.307,2.441v11.6a8.81,8.81,0,0,1-8.8,8.8ZM17.6,471.57H10.756a2.937,2.937,0,0,1-2.933-2.933V465.7a11.747,11.747,0,0,1,8.435-11.253l1.283,2.567-1.682,6.73H12.188l-2.246,3.368,1.627,1.084,1.665-2.5h5.344a.979.979,0,0,1,.978.978v3.911a.979.979,0,0,1-.978.978Zm27.379,0H21.331a2.9,2.9,0,0,0,.18-.978v-.978H46.933A1.957,1.957,0,0,1,44.978,471.57Zm-13.688-3.911V456.9a.979.979,0,0,1,.978-.978H45.956a.979.979,0,0,1,.978.978v10.756Z" transform="translate(0 -412.903)"/>
          <path id="Trazado_200937" data-name="Trazado 200937" d="M39.075,451.357a3.915,3.915,0,0,0,3.911-3.911v-.978H41.03v.978a1.955,1.955,0,0,1-3.911,0v-.978H35.163v.978A3.915,3.915,0,0,0,39.075,451.357Z" transform="translate(-13.652 -425.935)"/>
          <path id="Trazado_200938" data-name="Trazado 200938" d="M23.805,447.446v-.978H21.85v.978a1.955,1.955,0,0,1-3.911,0v-.978H15.983v.978a3.911,3.911,0,0,0,7.822,0Z" transform="translate(-6.205 -425.935)"/>
          <path id="Trazado_200939" data-name="Trazado 200939" d="M32.869,467.435a1.957,1.957,0,0,0,1.955-1.956v-3.911a1.957,1.957,0,0,0-1.955-1.956H27v-1.955H25.047v1.955H23.091v-1.955H21.136v1.955H19.18v1.956h1.956v1.956h1.955v-1.956h1.956v1.956H27v-1.956h1.955v3.911a1.958,1.958,0,0,0,1.956,1.956Zm-1.956-5.867h1.956v3.911H30.913Z" transform="translate(-7.447 -430.279)"/>
          <path id="Trazado_200940" data-name="Trazado 200940" d="M62.071,486.427A2.933,2.933,0,1,0,65,489.36,2.937,2.937,0,0,0,62.071,486.427Zm0,3.911a.978.978,0,1,1,.978-.978A.979.979,0,0,1,62.071,490.338Z" transform="translate(-22.96 -441.449)"/>
          <path id="Trazado_200941" data-name="Trazado 200941" d="M75.525,412.9l-8.4,8.4v17.027H86.686V412.9Zm-.573,3.338v4.484H70.468ZM84.73,436.37H69.086V422.681h7.822v-7.822H84.73Z" transform="translate(-26.063 -412.903)"/>
          <path id="Trazado_200942" data-name="Trazado 200942" d="M67.13,457.657h3.911v1.955H67.13Z" transform="translate(-26.063 -430.279)"/>
          <path id="Trazado_200943" data-name="Trazado 200943" d="M76.72,457.657H90.409v1.955H76.72Z" transform="translate(-29.787 -430.279)"/>
          <path id="Trazado_200944" data-name="Trazado 200944" d="M67.13,464.05H86.686v1.956H67.13Z" transform="translate(-26.063 -432.761)"/>
          <path id="Trazado_200945" data-name="Trazado 200945" d="M67.13,470.443h1.956V472.4H67.13Z" transform="translate(-26.063 -435.243)"/>
          <path id="Trazado_200946" data-name="Trazado 200946" d="M73.523,470.443h3.912V472.4H73.523Z" transform="translate(-28.545 -435.243)"/>
          <path id="Trazado_200947" data-name="Trazado 200947" d="M83.113,470.443h9.778V472.4H83.113Z" transform="translate(-32.269 -435.243)"/>
          <path id="Trazado_200948" data-name="Trazado 200948" d="M86.31,419.3h3.911v1.955H86.31Z" transform="translate(-33.51 -415.386)"/>
          <path id="Trazado_200949" data-name="Trazado 200949" d="M86.31,425.69h3.911v1.956H86.31Z" transform="translate(-33.51 -417.868)"/>
          <path id="Trazado_200950" data-name="Trazado 200950" d="M73.523,432.083H85.256v1.956H73.523Z" transform="translate(-28.545 -420.35)"/>
          <path id="Trazado_200951" data-name="Trazado 200951" d="M73.523,438.477H85.256v1.955H73.523Z" transform="translate(-28.545 -422.832)"/>
          <path id="Trazado_200952" data-name="Trazado 200952" d="M73.523,444.87H85.256v1.956H73.523Z" transform="translate(-28.545 -425.314)"/>
        </g>
      </g>
    </g>
  </g>
</svg>
