<svg xmlns="http://www.w3.org/2000/svg" width="133" height="133" viewBox="0 0 133 133">
  <g id="Grupo_163243" data-name="Grupo 163243" transform="translate(-1077 -5759.694)">
    <g id="Grupo_163126" data-name="Grupo 163126" transform="translate(0 3190.693)">
      <g id="Elipse_18059" data-name="Elipse 18059" transform="translate(1077 2569.001)" fill="#fff" stroke="#c6412a" stroke-width="4">
        <circle cx="66.5" cy="66.5" r="66.5" stroke="none"/>
        <circle cx="66.5" cy="66.5" r="64.5" fill="none"/>
      </g>
    </g>
    <g id="Grupo_163130" data-name="Grupo 163130" transform="translate(1090.998 5400.576)">
      <g id="Grupo_158146" data-name="Grupo 158146" transform="translate(1.538 376.651)">
        <path id="Trazado_197557" data-name="Trazado 197557" d="M104.591,384.8l-19.009-7.3a6.518,6.518,0,0,0-8.83,5.334,14.622,14.622,0,0,0,1.367,7.589l34.562,22.814a7.5,7.5,0,0,1,1.16.343,7.622,7.622,0,0,1,3.639,2.921l.563-1.464A23.4,23.4,0,0,0,104.591,384.8Z" transform="translate(-17.681 -377.06)" fill="#ffef0f"/>
        <path id="Trazado_197558" data-name="Trazado 197558" d="M83.816,472.612v13.76l-6.6,4.108-6.6-4.108v-19.5Z" transform="translate(-16.406 -395.967)" fill="#de8957"/>
        <path id="Trazado_197559" data-name="Trazado 197559" d="M35.464,452.526H60.133v-31.1H35.464L23.13,436.975Z" transform="translate(-6.408 -386.4)" fill="#de8957"/>
        <path id="Trazado_197560" data-name="Trazado 197560" d="M7.506,429.094v18.677a4.753,4.753,0,0,0,4.754,4.753H32.175v-31.1Z" transform="translate(-3.118 -386.4)" fill="#e3986d"/>
        <path id="Trazado_197561" data-name="Trazado 197561" d="M10.92,421.425a7.036,7.036,0,0,0-6.437,4.194L2.178,430.84a2.659,2.659,0,0,0,2.432,3.733H21.621a5.491,5.491,0,0,0,5.023-3.272L31,421.425Z" transform="translate(-1.948 -386.4)" fill="#e8a882"/>
        <path id="Trazado_197562" data-name="Trazado 197562" d="M58.838,421.425a7.036,7.036,0,0,1,6.436,4.194l2.306,5.222a2.659,2.659,0,0,1-2.432,3.733H48.137a5.49,5.49,0,0,1-5.022-3.272l-4.362-9.876Z" transform="translate(-9.697 -386.4)" fill="#e8a882"/>
        <path id="Trazado_197563" data-name="Trazado 197563" d="M124.622,426.1a7.641,7.641,0,1,0,.755,6.949A7.618,7.618,0,0,0,124.622,426.1Z" transform="translate(-24.823 -386.662)" fill="#ffbd86"/>
        <path id="Trazado_197564" data-name="Trazado 197564" d="M55.02,469.593v16.66l5.184,4.108,8.007-4.108v-6.583a13.433,13.433,0,0,0,12.319-7.176L67.33,466.3Z" transform="translate(-13.121 -395.847)" fill="#e8a882"/>
        <g id="Grupo_158143" data-name="Grupo 158143" transform="translate(43.112 48.174)">
          <path id="Trazado_197565" data-name="Trazado 197565" d="M85.473,457.764l-4.618,8.787-20.438-1-3.861-10.4c.156-.373.328-.742.519-1.105l4.621-8.786a13.431,13.431,0,1,1,23.777,12.5Z" transform="translate(-56.556 -438.08)" fill="#6677d6"/>
        </g>
        <path id="Trazado_197566" data-name="Trazado 197566" d="M80.864,392.234a37.432,37.432,0,0,1,21.2-8.4L85.582,377.5a6.518,6.518,0,0,0-8.83,5.334,14.622,14.622,0,0,0,1.367,7.589Z" transform="translate(-17.681 -377.06)" fill="#eee99a"/>
        <path id="Trazado_197567" data-name="Trazado 197567" d="M109.207,412.06a9.11,9.11,0,0,0-5.754-7.132L74.885,393.985a24.073,24.073,0,0,0,2.207,44.251c16.941,6.235,34.864-7.986,32.115-26.176Z" transform="translate(-14.447 -380.623)" fill="#fed2a4"/>
        <g id="Grupo_158144" data-name="Grupo 158144" transform="translate(64.272 32.125)">
          <ellipse id="Elipse_18281" data-name="Elipse 18281" cx="3.183" cy="2.844" rx="3.183" ry="2.844" transform="matrix(0.359, -0.933, 0.933, 0.359, 0, 5.942)" fill="#423e4f"/>
        </g>
        <path id="Trazado_197568" data-name="Trazado 197568" d="M68.808,491.572a4.108,4.108,0,0,0,0,8.217h9.686a4.074,4.074,0,0,0,4.074-4.075v-4.142Z" transform="translate(-15.159 -401.167)" fill="#4e2e8e"/>
        <path id="Trazado_197569" data-name="Trazado 197569" d="M53.2,491.572a4.108,4.108,0,0,0,0,8.217H62.89a4.075,4.075,0,0,0,4.074-4.075v-4.142Z" transform="translate(-11.874 -401.167)" fill="#4e2e8e"/>
        <path id="Trazado_197570" data-name="Trazado 197570" d="M62.611,468.477A28.794,28.794,0,0,1,54.9,469.53a6.6,6.6,0,1,1,0-13.191,15.723,15.723,0,0,0,4.83-.761L64.7,460.63Z" transform="translate(-11.707 -393.59)" fill="#fed2a4"/>
        <g id="Grupo_158145" data-name="Grupo 158145" transform="translate(48.02 53.617)">
          <path id="Trazado_197571" data-name="Trazado 197571" d="M81.329,455.483a29.151,29.151,0,0,1-15.671,10.762l-2.884-12.9a15.9,15.9,0,0,0,7.937-5.688,6.595,6.595,0,1,1,10.618,7.825Z" transform="translate(-62.774 -444.974)" fill="#6677d6"/>
        </g>
        <path id="Trazado_197572" data-name="Trazado 197572" d="M64.571,422.4c0-8.491,4.321-19.667,13.7-27.122l-3.381-1.295a24.072,24.072,0,0,0-9.7,34.736A32.638,32.638,0,0,1,64.571,422.4Z" transform="translate(-14.447 -380.623)" fill="#ffbd86"/>
      </g>
      <g id="Grupo_158147" data-name="Grupo 158147" transform="translate(0.001 375.119)">
        <path id="Trazado_197573" data-name="Trazado 197573" d="M71.692,415.339a1.537,1.537,0,0,0,1.987-.883l.9-2.33a1.538,1.538,0,1,0-2.871-1.1l-.894,2.329A1.537,1.537,0,0,0,71.692,415.339Z" transform="translate(-14.886 -382.47)"/>
        <path id="Trazado_197574" data-name="Trazado 197574" d="M85.223,425.993a4.731,4.731,0,1,0-2.4-5.976A4.565,4.565,0,0,0,85.223,425.993Zm.474-4.872a1.339,1.339,0,1,1,.628,2A1.531,1.531,0,0,1,85.7,421.122Z" transform="translate(-17.366 -383.918)"/>
        <path id="Trazado_197575" data-name="Trazado 197575" d="M103.893,427.71a1.538,1.538,0,0,0,1.987-.884l.894-2.329a1.538,1.538,0,0,0-2.871-1.1l-.9,2.33A1.539,1.539,0,0,0,103.893,427.71Z" transform="translate(-21.665 -385.074)"/>
        <path id="Trazado_197576" data-name="Trazado 197576" d="M4.386,426.365v11.658a6.3,6.3,0,0,0,6.291,6.291H36.764a8.13,8.13,0,0,0,5.128,9.306V465.6a5.645,5.645,0,0,0,.969,11.207h9.685a5.609,5.609,0,0,0,1.322-.159,5.585,5.585,0,0,0,1.311.159h9.685a5.618,5.618,0,0,0,5.612-5.612v-17.52l4.442-8.45a15,15,0,0,0,1.656-8.29,26.027,26.027,0,0,0,14.9-8.136,9.185,9.185,0,0,0,11.547-12.842,24.941,24.941,0,0,0-1.083-21.642,1.538,1.538,0,0,0-2.7,1.47,21.839,21.839,0,0,1,1.526,17.418,9.089,9.089,0,0,0-2.665-1.517,27.132,27.132,0,0,0-.3-3.822,10.843,10.843,0,0,0-6.723-8.338L63.127,388.818a12.875,12.875,0,0,1-1-6.22,4.978,4.978,0,0,1,6.749-4.063l19.006,7.3a21.655,21.655,0,0,1,7.922,5.253,1.538,1.538,0,0,0,2.219-2.13,24.712,24.712,0,0,0-9.039-5.994l-19.006-7.3a8.053,8.053,0,0,0-10.91,6.6,15.6,15.6,0,0,0,.951,7.035,25.547,25.547,0,0,0-13.1,20.841H10.507a8.577,8.577,0,0,0-7.842,5.11L.36,420.473a4.181,4.181,0,0,0,.323,3.986,4.275,4.275,0,0,0,3.7,1.906Zm33.741,14.873h-6V436.1a1.538,1.538,0,1,0-3.076,0v5.142H10.678a3.219,3.219,0,0,1-3.216-3.215V426.365c14.1-.088,14,.2,15.651-.268a7.049,7.049,0,0,0,4.522-3.921l1.416-3.206v10.975a1.538,1.538,0,1,0,3.076,0V418.97l1.416,3.206a7.03,7.03,0,0,0,6.428,4.189H51.506c.13.186.263.371.4.553-2.762,2.383-3.343,4.126-6.934,10.941a8.027,8.027,0,0,0-6.842,3.38Zm29.621-5.4a5.069,5.069,0,0,1-.882,4.022,27.688,27.688,0,0,1-13.3,9.707c-.439-1.966-1.78-7.963-2.225-9.952a17.489,17.489,0,0,0,7.382-5.758,5.083,5.083,0,0,1,1.075-1.074h0a5.063,5.063,0,0,1,7.945,3.057Zm-22.78,18.284a30.886,30.886,0,0,0,7.892-1.112l13.426,1.526a11.818,11.818,0,0,1-9.618,4.391,1.538,1.538,0,0,0-1.586,1.537v5.046H44.968Zm8.908-24.85a27.28,27.28,0,0,0,2.636,2.423,14.531,14.531,0,0,1-7.434,5.476h0c-.109.035-.219.066-.328.1C50.752,433.744,51.364,431.442,53.876,429.277Zm4.281,32.7a14.854,14.854,0,0,0,9.242-4.1v7.639H58.158ZM39.664,446a5.094,5.094,0,0,1,3.4-4.778c1.425-.494,2.451-.047,5.332-.676l2.205,9.863a24.269,24.269,0,0,1-6.786.565A5.064,5.064,0,0,1,39.664,446Zm.627,25.165a2.572,2.572,0,0,1,2.57-2.57H55.082v2.6h0a2.546,2.546,0,0,1-2.537,2.536H42.861a2.572,2.572,0,0,1-2.57-2.57Zm27.109.034a2.539,2.539,0,0,1-2.537,2.536H57.551a5.614,5.614,0,0,0,.606-2.536v-2.6H67.4v2.6Zm4.794-27.4-4.129,7.854-9.14-1.039a30.744,30.744,0,0,0,9.322-7.526c1.6-1.92,2.563-3.345,2.673-5.841a25.046,25.046,0,0,0,2.6.024,11.737,11.737,0,0,1-1.326,6.527ZM93.53,426.239A24.973,24.973,0,0,0,97.9,414.966a5.994,5.994,0,0,1,1.476,1.143,6.107,6.107,0,0,1-5.848,10.13ZM62.051,391.7l27.93,10.7a7.583,7.583,0,0,1,4.783,5.926,22.6,22.6,0,0,1-24.312,25.8,8.145,8.145,0,0,0-11.5-4.426,22.532,22.532,0,0,1,3.1-37.994ZM46.914,413.218a25.668,25.668,0,0,0,2.745,10.071H39.971a3.952,3.952,0,0,1-3.614-2.356l-3.407-7.716Zm-43.74,8.5,2.305-5.222a5.5,5.5,0,0,1,5.029-3.276H28.229l-3.407,7.716a3.966,3.966,0,0,1-2.754,2.261c-.591.131.772.095-17.868.095a1.12,1.12,0,0,1-1.026-1.573Z" transform="translate(-0.001 -375.119)"/>
      </g>
    </g>
  </g>
</svg>
