<svg xmlns="http://www.w3.org/2000/svg" width="133" height="133" viewBox="0 0 133 133">
  <g id="Grupo_163138" data-name="Grupo 163138" transform="translate(-1077 -2174)">
    <g id="Elipse_18056" data-name="Elipse 18056" transform="translate(1077 2174)" fill="#fff" stroke="#c6412a" stroke-width="4">
      <circle cx="66.5" cy="66.5" r="66.5" stroke="none"/>
      <circle cx="66.5" cy="66.5" r="64.5" fill="none"/>
    </g>
    <g id="Grupo_158149" data-name="Grupo 158149" transform="translate(1098.001 1848.467)">
      <path id="Trazado_197577" data-name="Trazado 197577" d="M46.205,422.653H15.851a3.036,3.036,0,0,1,0-6.071H27.993a3.035,3.035,0,0,0,0-6.071H9.781a3.05,3.05,0,0,1-3.031-3.07c0-.08,0-.159.011-.239a3.15,3.15,0,0,1,3.187-2.762h11.2a3.762,3.762,0,0,0,2.671-1.108,3.837,3.837,0,0,0,1.122-2.671,3.793,3.793,0,0,0-3.779-3.809H9.781a3.036,3.036,0,0,1,0-6.071H31.029a3.035,3.035,0,1,0,0-6.071H5.228a2.969,2.969,0,0,1-2.14-.9,2.967,2.967,0,0,1-.9-2.14,3.045,3.045,0,0,1,3.036-3.035h25.8a3.035,3.035,0,0,0,0-6.071H17.369a3.036,3.036,0,0,1,0-6.071H56.1Z" transform="translate(-0.675 -3.377)" fill="#6677d6"/>
      <path id="Trazado_197578" data-name="Trazado 197578" d="M106.4,359.243,94.625,426.022a1.89,1.89,0,0,1-1.785,1.518H56.1a1.239,1.239,0,0,1-1.249-1.518l11.774-66.778a1.89,1.89,0,0,1,1.785-1.518H105.15a1.239,1.239,0,0,1,1.249,1.518Z" transform="translate(-16.881 -0.675)" fill="#4cb799"/>
      <path id="Trazado_197579" data-name="Trazado 197579" d="M81.505,366.5H97a4.955,4.955,0,0,0,5.008,6.071L93.973,418.1a7.553,7.553,0,0,0-7.133,6.071h-15.5a4.955,4.955,0,0,0-5.008-6.071l8.028-45.53A7.553,7.553,0,0,0,81.505,366.5Z" transform="translate(-20.427 -3.377)" fill="#5fdbb5"/>
      <path id="Trazado_197580" data-name="Trazado 197580" d="M86.889,427.9a3.736,3.736,0,0,0-3.515,3.035,2.465,2.465,0,0,0,2.462,3.035,3.736,3.736,0,0,0,3.515-3.035,2.465,2.465,0,0,0-2.462-3.035Z" transform="translate(-25.655 -22.287)" fill="#4cb799"/>
      <path id="Trazado_197581" data-name="Trazado 197581" d="M95.661,379.657a3.736,3.736,0,0,0-3.515,3.035,2.465,2.465,0,0,0,2.462,3.035,3.736,3.736,0,0,0,3.515-3.035,2.465,2.465,0,0,0-2.462-3.035Z" transform="translate(-28.357 -7.429)" fill="#4cb799"/>
      <ellipse id="Elipse_18282" data-name="Elipse 18282" cx="6.576" cy="5.518" rx="6.576" ry="5.518" transform="matrix(0.707, -0.707, 0.707, 0.707, 55.19, 392.711)" fill="#4cb799"/>
      <path id="Trazado_197582" data-name="Trazado 197582" d="M102.493,370.917a1.514,1.514,0,0,0-1.163-.541,3.55,3.55,0,0,1-2.789-1.2,3.714,3.714,0,0,1-.718-3.087,1.52,1.52,0,0,0-1.493-1.782h-15.5a1.518,1.518,0,0,0-1.493,1.254,6.071,6.071,0,0,1-5.647,4.817A1.517,1.517,0,0,0,72.2,371.63L64.172,417.16a1.517,1.517,0,0,0,1.23,1.758,1.588,1.588,0,0,0,.263.024,3.547,3.547,0,0,1,2.789,1.2,3.714,3.714,0,0,1,.718,3.087,1.52,1.52,0,0,0,1.493,1.782h15.5a1.518,1.518,0,0,0,1.493-1.254,6.07,6.07,0,0,1,5.647-4.817,1.518,1.518,0,0,0,1.493-1.254l8.028-45.531A1.516,1.516,0,0,0,102.493,370.917ZM92.009,416.011a9.136,9.136,0,0,0-7.019,5.966H72.266a6.431,6.431,0,0,0-1.487-3.784,6.3,6.3,0,0,0-3.339-2.073l7.551-42.814a9.137,9.137,0,0,0,7.015-5.966H94.729a6.44,6.44,0,0,0,1.487,3.784,6.315,6.315,0,0,0,3.339,2.075Z" transform="translate(-19.755 -2.702)" fill="#373737"/>
      <path id="Trazado_197583" data-name="Trazado 197583" d="M86.224,425.711A5.248,5.248,0,0,0,81.215,430a4.176,4.176,0,0,0,.864,3.417,3.965,3.965,0,0,0,3.093,1.4,5.248,5.248,0,0,0,5.008-4.293,4.171,4.171,0,0,0-.863-3.416A3.968,3.968,0,0,0,86.224,425.711Zm-1.062,6.071a.965.965,0,0,1-.77-.316,1.14,1.14,0,0,1-.2-.941,2.231,2.231,0,0,1,2.028-1.779.968.968,0,0,1,.77.316,1.14,1.14,0,0,1,.2.941,2.231,2.231,0,0,1-2.021,1.779Z" transform="translate(-24.989 -21.612)" fill="#373737"/>
      <path id="Trazado_197584" data-name="Trazado 197584" d="M95,377.464a5.248,5.248,0,0,0-5.008,4.293,4.173,4.173,0,0,0,.864,3.416,3.968,3.968,0,0,0,3.093,1.4,5.248,5.248,0,0,0,5.008-4.293,4.176,4.176,0,0,0-.864-3.417A3.967,3.967,0,0,0,95,377.464Zm-1.062,6.071a.968.968,0,0,1-.77-.316,1.146,1.146,0,0,1-.2-.943A2.229,2.229,0,0,1,95,380.5a.964.964,0,0,1,.77.316,1.143,1.143,0,0,1,.2.943,2.23,2.23,0,0,1-2.021,1.777Z" transform="translate(-27.69 -6.754)" fill="#373737"/>
      <path id="Trazado_197585" data-name="Trazado 197585" d="M89.78,397.2a8.943,8.943,0,0,0-8.527,7.329,6.829,6.829,0,0,0,1.394,5.594,6.43,6.43,0,0,0,5.026,2.254,8.943,8.943,0,0,0,8.527-7.329,6.83,6.83,0,0,0-1.394-5.594A6.43,6.43,0,0,0,89.78,397.2Zm3.428,7.329a5.992,5.992,0,0,1-5.535,4.812,3.45,3.45,0,0,1-2.7-1.172,3.755,3.755,0,0,1-.724-3.122,5.992,5.992,0,0,1,5.535-4.813,3.45,3.45,0,0,1,2.7,1.172A3.755,3.755,0,0,1,93.208,404.53Z" transform="translate(-24.985 -12.831)" fill="#373737"/>
      <path id="Trazado_197586" data-name="Trazado 197586" d="M89.543,425.347H79.285l11.729-66.514a2.833,2.833,0,0,0-.593-2.32,2.79,2.79,0,0,0-2.151-.979H51.525a3.417,3.417,0,0,0-3.278,2.772L37.762,417.758H15.176a1.484,1.484,0,0,1-1.082-.466,1.456,1.456,0,0,1-.435-1.051,1.518,1.518,0,0,1,1.518-1.518H27.318a4.553,4.553,0,0,0,0-9.106H9.105a1.482,1.482,0,0,1-1.081-.464,1.44,1.44,0,0,1-.428-1.2,1.639,1.639,0,0,1,1.675-1.374h11.2a5.261,5.261,0,0,0,3.743-1.551,5.305,5.305,0,0,0-3.717-9.073H9.105a1.486,1.486,0,0,1-1.082-.465,1.46,1.46,0,0,1-.435-1.053,1.518,1.518,0,0,1,1.518-1.518H30.353a4.553,4.553,0,0,0,0-9.106H4.553a1.481,1.481,0,0,1-1.082-.464,1.463,1.463,0,0,1-.435-1.053,1.517,1.517,0,0,1,1.518-1.518h25.8a4.553,4.553,0,1,0,0-9.106H16.694a1.487,1.487,0,0,1-1.082-.465,1.466,1.466,0,0,1-.435-1.053,1.518,1.518,0,0,1,1.518-1.518h25.8a1.518,1.518,0,0,0,0-3.035h-25.8a4.553,4.553,0,0,0,0,9.107H30.353a1.518,1.518,0,1,1,0,3.035H4.553A4.553,4.553,0,0,0,0,378.3a4.436,4.436,0,0,0,1.327,3.2,4.468,4.468,0,0,0,3.227,1.354h25.8a1.518,1.518,0,1,1,0,3.035H9.105a4.553,4.553,0,0,0-4.553,4.553,4.43,4.43,0,0,0,1.326,3.2,4.462,4.462,0,0,0,3.227,1.354H20.473a2.261,2.261,0,0,1,1.618.677,2.227,2.227,0,0,1,.658,1.593,2.321,2.321,0,0,1-.678,1.619,2.245,2.245,0,0,1-1.6.664H9.272a4.663,4.663,0,0,0-4.7,4.136,4.567,4.567,0,0,0,4.145,4.952c.128.012.257.017.385.018H27.318a1.518,1.518,0,1,1,0,3.035H15.176a4.553,4.553,0,0,0,0,9.107H37.228l-.758,4.289c-.015.089-.011.176-.019.264H1.517a1.518,1.518,0,1,0,0,3.035H89.543a1.518,1.518,0,1,0,0-3.035ZM88.025,358.3l1.493.269-1.493-.264ZM39.506,425.347l11.73-66.517a.4.4,0,0,1,.289-.261H87.978l-11.73,66.517a.4.4,0,0,1-.289.261Z" fill="#373737"/>
    </g>
  </g>
</svg>
