<svg xmlns="http://www.w3.org/2000/svg" width="133" height="133" viewBox="0 0 133 133">
  <g id="Grupo_163185" data-name="Grupo 163185" transform="translate(-98 -0.46)">
    <g id="Grupo_135405" data-name="Grupo 135405" transform="translate(98)">
      <g id="Elipse_18049" data-name="Elipse 18049" transform="translate(0 0.46)" fill="#fff" stroke="#6677d6" stroke-width="4">
        <circle cx="66.5" cy="66.5" r="66.5" stroke="none"/>
        <circle cx="66.5" cy="66.5" r="64.5" fill="none"/>
      </g>
    </g>
    <g id="Grupo_163185-2" data-name="Grupo 163185" transform="translate(105.788 -357.202)">
      <g id="Grupo_158097" data-name="Grupo 158097" transform="translate(22.417 383.867)">
        <path id="Trazado_197476" data-name="Trazado 197476" d="M26.353,384.557H67.859a3.246,3.246,0,0,1,2.3.951l13.681,13.68a3.248,3.248,0,0,1,.95,2.3v59.685a3.245,3.245,0,0,1-3.246,3.246H26.353a3.246,3.246,0,0,1-3.246-3.246V387.8A3.246,3.246,0,0,1,26.353,384.557Z" transform="translate(-23.107 -384.557)" fill="#fff"/>
      </g>
      <g id="Grupo_158098" data-name="Grupo 158098" transform="translate(64.294 383.867)">
        <path id="Trazado_197477" data-name="Trazado 197477" d="M107.8,399.188l-13.681-13.68a3.246,3.246,0,0,0-2.3-.951H88.944v12.336a7.466,7.466,0,0,0,7.466,7.466h4.869a3.246,3.246,0,0,1,3.246,3.246v53.563a3.246,3.246,0,0,1-3.246,3.246h4.22a3.246,3.246,0,0,0,3.246-3.246V401.483a3.245,3.245,0,0,0-.95-2.3Z" transform="translate(-88.944 -384.557)" fill="#d3effd"/>
      </g>
      <g id="Grupo_158099" data-name="Grupo 158099" transform="translate(68.514 384.163)">
        <path id="Trazado_197478" data-name="Trazado 197478" d="M95.578,397.062a3.246,3.246,0,0,0,3.246,3.246h12.04a3.258,3.258,0,0,0-.655-.951l-13.681-13.68a3.227,3.227,0,0,0-.951-.655Z" transform="translate(-95.578 -385.022)" fill="#4e2e8e"/>
      </g>
      <g id="Grupo_158104" data-name="Grupo 158104" transform="translate(30.534 405.941)">
        <g id="Grupo_158101" data-name="Grupo 158101" transform="translate(0 0)">
          <g id="Grupo_158100" data-name="Grupo 158100">
            <path id="Trazado_197479" data-name="Trazado 197479" d="M53.071,441.985H38.139a2.272,2.272,0,0,1-2.272-2.273V421.534a2.272,2.272,0,0,1,2.272-2.273H53.071a2.273,2.273,0,0,1,2.273,2.273v18.179A2.273,2.273,0,0,1,53.071,441.985Z" transform="translate(-35.867 -419.261)" fill="#ffef0f"/>
          </g>
        </g>
        <g id="Grupo_158103" data-name="Grupo 158103" transform="translate(25.969 0)">
          <g id="Grupo_158102" data-name="Grupo 158102">
            <path id="Trazado_197480" data-name="Trazado 197480" d="M93.9,441.985H78.968a2.273,2.273,0,0,1-2.273-2.273V421.534a2.273,2.273,0,0,1,2.273-2.273H93.9a2.273,2.273,0,0,1,2.273,2.273v18.179A2.273,2.273,0,0,1,93.9,441.985Z" transform="translate(-76.695 -419.261)" fill="#ffef0f"/>
          </g>
        </g>
      </g>
      <g id="Grupo_158109" data-name="Grupo 158109" transform="translate(56.503 419.576)">
        <g id="Grupo_158105" data-name="Grupo 158105">
          <path id="Trazado_197481" data-name="Trazado 197481" d="M115.65,461.992v-3.636l-4.126-.859a15.41,15.41,0,0,0-.716-2.682l3.142-2.806-1.819-3.149-4,1.319a15.64,15.64,0,0,0-1.96-1.96l1.319-4-3.149-1.818-2.805,3.141a15.459,15.459,0,0,0-2.682-.716l-.859-4.126H94.354l-.859,4.126a15.459,15.459,0,0,0-2.682.716L88.008,442.4l-3.149,1.818,1.319,4a15.676,15.676,0,0,0-1.96,1.96l-4.005-1.319L78.4,452.009l3.141,2.806a15.462,15.462,0,0,0-.716,2.682l-4.126.859v3.636l4.126.859a15.466,15.466,0,0,0,.716,2.682L78.4,468.338l1.818,3.149,4.005-1.319a15.672,15.672,0,0,0,1.96,1.96l-1.319,4,3.149,1.818,2.805-3.141a15.459,15.459,0,0,0,2.682.716l.859,4.126h3.636l.859-4.126a15.459,15.459,0,0,0,2.682-.716l2.805,3.141,3.149-1.818-1.319-4a15.635,15.635,0,0,0,1.96-1.96l4,1.319,1.819-3.149-3.142-2.806a15.471,15.471,0,0,0,.716-2.682Z" transform="translate(-76.695 -440.696)" fill="#62a4fb"/>
        </g>
        <g id="Grupo_158106" data-name="Grupo 158106" transform="translate(8.165 8.165)">
          <path id="Trazado_197482" data-name="Trazado 197482" d="M120.321,466.663v-3.636l-4.126-.859a15.41,15.41,0,0,0-.716-2.682l3.142-2.806-1.819-3.148-3.627,1.2a19.894,19.894,0,0,1-22.568,22.806L89.531,480.8l3.149,1.818,2.805-3.141a15.466,15.466,0,0,0,2.682.716l.859,4.126h3.636l.859-4.126a15.467,15.467,0,0,0,2.682-.716l2.805,3.141,3.149-1.818-1.319-4a15.633,15.633,0,0,0,1.96-1.96l4,1.319,1.819-3.149-3.142-2.806a15.469,15.469,0,0,0,.716-2.682Z" transform="translate(-89.531 -453.532)" fill="#5392f9"/>
        </g>
        <g id="Grupo_158107" data-name="Grupo 158107" transform="translate(8.927 8.927)">
          <circle id="Elipse_18275" data-name="Elipse 18275" cx="10.55" cy="10.55" r="10.55" fill="#e6f7fe"/>
        </g>
        <g id="Grupo_158108" data-name="Grupo 158108" transform="translate(15.582 15.582)">
          <circle id="Elipse_18276" data-name="Elipse 18276" cx="3.895" cy="3.895" r="3.895" fill="#62a4fb"/>
        </g>
      </g>
      <g id="Grupo_158110" data-name="Grupo 158110" transform="translate(30.533 389.061)">
        <path id="Trazado_197483" data-name="Trazado 197483" d="M35.866,392.723H64.108v5.193H35.866Z" transform="translate(-35.866 -392.723)" fill="#c6412a"/>
      </g>
      <g id="Grupo_158111" data-name="Grupo 158111" transform="translate(30.533 453.337)">
        <path id="Trazado_197484" data-name="Trazado 197484" d="M35.866,493.774H56.642v5.194H35.866Z" transform="translate(-35.866 -493.774)" fill="#6677d6"/>
      </g>
      <g id="Grupo_158112" data-name="Grupo 158112" transform="translate(21.212 382.662)">
        <path id="Trazado_197485" data-name="Trazado 197485" d="M22.417,448.541a1.205,1.205,0,0,0,1.2-1.205V387.113a2.044,2.044,0,0,1,2.042-2.04h41.5c.047,0,.093,0,.14.006V396.2a4.456,4.456,0,0,0,4.451,4.451H82.884c0,.046.008.092.008.139v6.34a1.205,1.205,0,1,0,2.41,0v-6.34a4.479,4.479,0,0,0-1.3-3.147l-13.68-13.68a4.423,4.423,0,0,0-3.149-1.3h-41.5a4.457,4.457,0,0,0-4.452,4.451v60.222A1.205,1.205,0,0,0,22.417,448.541Zm58.769-50.3H71.76a2.044,2.044,0,0,1-2.041-2.041v-9.427Z" transform="translate(-21.212 -382.662)"/>
        <path id="Trazado_197486" data-name="Trazado 197486" d="M33.971,439.022a3.481,3.481,0,0,0,3.477,3.477H52.382a3.481,3.481,0,0,0,3.477-3.477v-8.595a1.205,1.205,0,0,0-2.41,0v8.595a1.068,1.068,0,0,1-1.067,1.067H37.448a1.068,1.068,0,0,1-1.067-1.067V420.843a1.068,1.068,0,0,1,1.067-1.067H52.382a1.068,1.068,0,0,1,1.067,1.067v3.964a1.205,1.205,0,0,0,2.41,0v-3.964a3.481,3.481,0,0,0-3.477-3.477H37.448a3.482,3.482,0,0,0-3.477,3.477Z" transform="translate(-25.855 -395.292)"/>
        <path id="Trazado_197487" data-name="Trazado 197487" d="M43.343,427.943h3.9a1.205,1.205,0,0,0,0-2.41h-3.9a1.205,1.205,0,0,0,0,2.41Z" transform="translate(-28.828 -398.264)"/>
        <path id="Trazado_197488" data-name="Trazado 197488" d="M52.432,433.7H43.342a1.205,1.205,0,1,0,0,2.41h9.089a1.205,1.205,0,1,0,0-2.41Z" transform="translate(-28.827 -401.236)"/>
        <path id="Trazado_197489" data-name="Trazado 197489" d="M52.432,441.864H43.342a1.205,1.205,0,1,0,0,2.41h9.089a1.205,1.205,0,1,0,0-2.41Z" transform="translate(-28.827 -404.208)"/>
        <path id="Trazado_197490" data-name="Trazado 197490" d="M84.171,427.943h3.9a1.205,1.205,0,1,0,0-2.41h-3.9a1.205,1.205,0,1,0,0,2.41Z" transform="translate(-43.686 -398.264)"/>
        <path id="Trazado_197491" data-name="Trazado 197491" d="M84.171,436.109h8.116a1.205,1.205,0,1,0,0-2.41H84.171a1.205,1.205,0,1,0,0,2.41Z" transform="translate(-43.686 -401.236)"/>
        <path id="Trazado_197492" data-name="Trazado 197492" d="M95.7,448.686l-3.345-.7q-.148-.655-.346-1.3l2.547-2.275a1.205,1.205,0,0,0,.24-1.5l-1.818-3.149a1.2,1.2,0,0,0-1.42-.542l-3.249,1.07c-.3-.327-.618-.643-.946-.945l1.07-3.249a1.205,1.205,0,0,0-.542-1.421l-2.595-1.5v-7.8a1.205,1.205,0,1,0-2.41,0V433.5l-1.921,2.151q-.639-.2-1.3-.346l-.7-3.345A1.2,1.2,0,0,0,77.8,431h-.613V420.844a3.481,3.481,0,0,0-3.477-3.477H58.775a3.481,3.481,0,0,0-3.477,3.477v18.179a3.483,3.483,0,0,0,2.235,3.247l-.373.646a1.2,1.2,0,0,0,.24,1.5l2.547,2.275q-.2.64-.346,1.3l-3.345.7a1.206,1.206,0,0,0-.959,1.18V453.5a1.206,1.206,0,0,0,.959,1.18l3.345.7q.148.656.346,1.3L57.4,458.949a1.206,1.206,0,0,0-.24,1.5l1.818,3.148a1.2,1.2,0,0,0,1.42.542l3.249-1.07q.454.49.946.945l-1.071,3.249a1.205,1.205,0,0,0,.542,1.421l3.149,1.818a1.207,1.207,0,0,0,1.5-.241l2.275-2.548q.639.2,1.3.346l.7,3.345a1.206,1.206,0,0,0,1.18.959H77.8a1.2,1.2,0,0,0,1.18-.959l.7-3.345q.655-.147,1.3-.346l1.921,2.151v3.243a2.043,2.043,0,0,1-2.042,2.04H25.664a2.044,2.044,0,0,1-2.042-2.04v-7.52a1.205,1.205,0,0,0-2.41,0v7.52a4.457,4.457,0,0,0,4.452,4.451H80.85a4.457,4.457,0,0,0,4.452-4.451v-2.925l2.594-1.5a1.205,1.205,0,0,0,.542-1.421l-1.07-3.249c.327-.3.643-.618.945-.945l3.249,1.07a1.2,1.2,0,0,0,1.42-.542L94.8,460.45a1.206,1.206,0,0,0-.24-1.5l-2.547-2.275q.2-.639.346-1.3l3.345-.7a1.206,1.206,0,0,0,.959-1.18v-3.636A1.206,1.206,0,0,0,95.7,448.686Zm-36.929-8.6a1.068,1.068,0,0,1-1.067-1.067V420.844a1.068,1.068,0,0,1,1.067-1.067H73.708a1.069,1.069,0,0,1,1.067,1.067V431h-.613a1.205,1.205,0,0,0-1.18.959l-.7,3.345c-.436.1-.87.214-1.3.346L68.715,433.1a1.2,1.2,0,0,0-1.5-.241l-3.149,1.818a1.206,1.206,0,0,0-.542,1.42l1.071,3.25c-.328.3-.643.618-.946.945l-3.249-1.07a1.2,1.2,0,0,0-1.42.542l-.186.323Zm35.478,12.431-3.166.66a1.2,1.2,0,0,0-.941.974,14.346,14.346,0,0,1-.66,2.473,1.2,1.2,0,0,0,.328,1.313l2.411,2.153-.838,1.451-3.074-1.013a1.205,1.205,0,0,0-1.3.371,14.546,14.546,0,0,1-1.81,1.809,1.2,1.2,0,0,0-.371,1.3l1.013,3.074-1.452.838-2.152-2.411a1.2,1.2,0,0,0-1.313-.328,14.351,14.351,0,0,1-2.473.66,1.2,1.2,0,0,0-.974.941l-.66,3.166H75.142l-.66-3.166a1.2,1.2,0,0,0-.974-.941,14.351,14.351,0,0,1-2.473-.66,1.2,1.2,0,0,0-1.313.328l-2.152,2.411-1.451-.838,1.013-3.074a1.2,1.2,0,0,0-.371-1.3,14.472,14.472,0,0,1-1.81-1.81,1.205,1.205,0,0,0-1.3-.371l-3.074,1.013-.838-1.451,2.41-2.153a1.2,1.2,0,0,0,.329-1.313,14.331,14.331,0,0,1-.66-2.473,1.2,1.2,0,0,0-.941-.974l-3.166-.66v-1.676l3.166-.66a1.206,1.206,0,0,0,.941-.974,14.313,14.313,0,0,1,.66-2.473,1.206,1.206,0,0,0-.329-1.313l-2.41-2.152.838-1.451,3.074,1.013a1.205,1.205,0,0,0,1.3-.371,14.476,14.476,0,0,1,1.81-1.81,1.205,1.205,0,0,0,.371-1.3l-1.013-3.074,1.451-.838,2.152,2.41a1.206,1.206,0,0,0,1.313.329,14.252,14.252,0,0,1,2.473-.66,1.2,1.2,0,0,0,.974-.942l.66-3.166h1.676l.66,3.166a1.206,1.206,0,0,0,.974.942,14.315,14.315,0,0,1,2.473.66,1.206,1.206,0,0,0,1.313-.329l2.152-2.41,1.452.838-1.013,3.074a1.205,1.205,0,0,0,.371,1.3,14.477,14.477,0,0,1,1.81,1.81,1.2,1.2,0,0,0,1.3.371l3.074-1.013.838,1.451-2.41,2.152a1.206,1.206,0,0,0-.329,1.313,14.344,14.344,0,0,1,.66,2.473,1.2,1.2,0,0,0,.941.974l3.166.66v1.675Z" transform="translate(-21.212 -395.292)"/>
        <path id="Trazado_197493" data-name="Trazado 197493" d="M104.4,463.3a5.1,5.1,0,1,0,5.1,5.1A5.106,5.106,0,0,0,104.4,463.3Zm0,7.791a2.691,2.691,0,1,1,2.69-2.691A2.694,2.694,0,0,1,104.4,471.09Z" transform="translate(-49.63 -412.008)"/>
        <path id="Trazado_197494" data-name="Trazado 197494" d="M100.591,452.837a11.755,11.755,0,1,0,11.755,11.755A11.768,11.768,0,0,0,100.591,452.837Zm0,21.1a9.345,9.345,0,1,1,9.345-9.345A9.355,9.355,0,0,1,100.591,473.937Z" transform="translate(-45.823 -408.201)"/>
        <path id="Trazado_197495" data-name="Trazado 197495" d="M64.624,392.033a1.2,1.2,0,0,0-1.205-1.205H35.177a1.2,1.2,0,0,0-1.2,1.205v5.193a1.2,1.2,0,0,0,1.2,1.205H63.419a1.2,1.2,0,0,0,1.205-1.205Zm-2.41,3.989H36.382v-2.784H62.214Z" transform="translate(-25.856 -385.634)"/>
        <path id="Trazado_197496" data-name="Trazado 197496" d="M35.177,499.483H55.953a1.2,1.2,0,0,0,1.205-1.2v-5.194a1.205,1.205,0,0,0-1.205-1.205H35.177a1.205,1.205,0,0,0-1.2,1.205v5.194A1.2,1.2,0,0,0,35.177,499.483Zm1.205-5.194H54.748v2.783H36.382Z" transform="translate(-25.856 -422.41)"/>
        <path id="Trazado_197497" data-name="Trazado 197497" d="M40.371,409.57a1.205,1.205,0,1,0,0-2.41H35.177a1.205,1.205,0,0,0,0,2.41Z" transform="translate(-25.856 -391.578)"/>
        <path id="Trazado_197498" data-name="Trazado 197498" d="M70.567,408.365a1.2,1.2,0,0,0-1.205-1.2H51.508a1.205,1.205,0,1,0,0,2.41H69.363A1.2,1.2,0,0,0,70.567,408.365Z" transform="translate(-31.799 -391.578)"/>
        <path id="Trazado_197499" data-name="Trazado 197499" d="M63.568,465.851H56.1a1.205,1.205,0,1,0,0,2.41h7.466a1.205,1.205,0,1,0,0-2.41Z" transform="translate(-33.471 -412.937)"/>
        <path id="Trazado_197500" data-name="Trazado 197500" d="M42.832,465.851a1.205,1.205,0,1,0,0,2.41h3.246a1.205,1.205,0,1,0,0-2.41Z" transform="translate(-28.642 -412.937)"/>
        <path id="Trazado_197501" data-name="Trazado 197501" d="M55.953,474.017H35.177a1.205,1.205,0,0,0,0,2.41H55.953a1.205,1.205,0,1,0,0-2.41Z" transform="translate(-25.856 -415.909)"/>
        <path id="Trazado_197502" data-name="Trazado 197502" d="M35.177,484.593H47.513a1.205,1.205,0,0,0,0-2.411H35.177a1.205,1.205,0,0,0,0,2.411Z" transform="translate(-25.856 -418.881)"/>
        <path id="Trazado_197503" data-name="Trazado 197503" d="M65.982,482.182H62.736a1.205,1.205,0,0,0,0,2.411h3.246a1.205,1.205,0,0,0,0-2.411Z" transform="translate(-35.885 -418.881)"/>
      </g>
    </g>
  </g>
</svg>
