<svg xmlns="http://www.w3.org/2000/svg" width="91.924" height="124.595" viewBox="0 0 91.924 124.595">
  <g id="Grupo_135411" data-name="Grupo 135411" transform="translate(-961.643 -99.554)">
    <g id="Grupo_114644" data-name="Grupo 114644" transform="translate(0.257)">
      <path id="Trazado_163579" data-name="Trazado 163579" d="M816.213,985.9V969.48l37.065-21.4,37.065,21.4V985.9h7.284l3.226,26.383-37.065,21.4-37.065-21.4L808.929,985.9Z" transform="translate(152.457 -809.528)" fill="#c6412a"/>
      <path id="Trazado_163581" data-name="Trazado 163581" d="M853.278,862.029l44.348,25.6v51.209l-44.348,25.6-44.348-25.6V887.633Z" transform="translate(152.457 -762.475)" fill="#c6412a"/>
      <path id="Trazado_163582" data-name="Trazado 163582" d="M862.066,880.587l37.065,21.4v42.8l-37.065,21.4L825,944.785v-42.8Z" transform="translate(143.669 -772.623)" fill="#fff"/>
      <path id="Trazado_163583" data-name="Trazado 163583" d="M1007.868,996.118V953.585l-3.226-35.06v51.209Z" transform="translate(45.442 -793.367)" fill="#c6412a"/>
      <path id="Trazado_163600" data-name="Trazado 163600" d="M897.627,987.513l3.226,26.383-37.065,21.4-37.065-21.4L808.93,987.513l45.4,26.383Z" transform="translate(152.456 -811.146)" fill="#030403" opacity="0.2" style="mix-blend-mode: multiply;isolation: isolate"/>
      <path id="Trazado_163601" data-name="Trazado 163601" d="M1007.868,996.118V953.585l-3.226-35.06v51.209Z" transform="translate(45.442 -793.367)" fill="#030403" opacity="0.1" style="mix-blend-mode: multiply;isolation: isolate"/>
    </g>
    <g id="_10" data-name="10" transform="translate(949.642 4.073)">
      <path id="Trazado_197264" data-name="Trazado 197264" d="M181.883,319.268v-.344a5.585,5.585,0,0,0-1.866-10.853,1.866,1.866,0,1,1,1.866-1.866,1.866,1.866,0,1,0,3.732,0,5.589,5.589,0,0,0-3.732-5.255v-.344a1.866,1.866,0,1,0-3.732,0v.344a5.585,5.585,0,0,0,1.866,10.853,1.866,1.866,0,1,1-1.866,1.866,1.866,1.866,0,0,0-3.732,0,5.589,5.589,0,0,0,3.732,5.254v.344a1.866,1.866,0,1,0,3.732,0Z" transform="translate(-121.891 -155.134)" fill="#c6412a"/>
      <path id="Trazado_197265" data-name="Trazado 197265" d="M82.386,139.874H78.654v-5.6a1.866,1.866,0,0,0-1.866-1.866H73.946a17.31,17.31,0,0,0-.674-1.629l2.008-2.009a1.865,1.865,0,0,0,0-2.639L70,120.853a1.866,1.866,0,0,0-2.639,0l-2.01,2.008a16.941,16.941,0,0,0-1.629-.674v-2.841a1.866,1.866,0,0,0-1.866-1.866H54.394a1.866,1.866,0,0,0-1.866,1.866v2.841a16.941,16.941,0,0,0-1.629.674l-2.01-2.008a1.866,1.866,0,0,0-2.639,0l-5.278,5.279a1.865,1.865,0,0,0,0,2.639l2.008,2.009a17.312,17.312,0,0,0-.674,1.629H39.465a1.866,1.866,0,0,0-1.866,1.866v5.6H33.866A1.866,1.866,0,0,0,32,141.74v26.126a1.866,1.866,0,0,0,1.866,1.866h48.52a1.866,1.866,0,0,0,1.866-1.866V141.74A1.866,1.866,0,0,0,82.386,139.874Zm-1.866,3.732v5.6a5.6,5.6,0,0,1-5.6-5.6Zm-39.189-7.465h2.354a1.865,1.865,0,0,0,1.806-1.4,12.99,12.99,0,0,1,1.392-3.359,1.868,1.868,0,0,0-.288-2.268l-1.666-1.665,2.639-2.64,1.666,1.665a1.861,1.861,0,0,0,2.269.287,12.981,12.981,0,0,1,3.357-1.389,1.866,1.866,0,0,0,1.4-1.807v-2.355h3.732v2.355a1.866,1.866,0,0,0,1.4,1.807,12.98,12.98,0,0,1,3.357,1.389,1.866,1.866,0,0,0,2.269-.287l1.666-1.665,2.639,2.64-1.666,1.665a1.868,1.868,0,0,0-.288,2.268,12.989,12.989,0,0,1,1.392,3.359,1.865,1.865,0,0,0,1.806,1.4h2.354v3.732H67.248a9.331,9.331,0,1,0-18.245,0H41.331Zm11.559,3.732a5.6,5.6,0,1,1,10.472,0Zm-17.158,3.732h5.6a5.6,5.6,0,0,1-5.6,5.6Zm0,22.394v-5.6a5.6,5.6,0,0,1,5.6,5.6Zm22.394,0H45.063a9.342,9.342,0,0,0-9.331-9.331v-3.732a9.342,9.342,0,0,0,9.331-9.331h6.579l.021,0,.021,0h19.5a9.342,9.342,0,0,0,9.331,9.331v3.732A9.342,9.342,0,0,0,71.189,166Zm22.394,0h-5.6a5.6,5.6,0,0,1,5.6-5.6Z" transform="translate(0 0)" fill="#c6412a"/>
    </g>
  </g>
</svg>
