<svg xmlns="http://www.w3.org/2000/svg" width="91.924" height="124.595" viewBox="0 0 91.924 124.595">
  <g id="Grupo_135370" data-name="Grupo 135370" transform="translate(-1293.038 -347.518)">
    <g id="Grupo_114642" data-name="Grupo 114642" transform="translate(-184.334 -75.027)">
      <path id="Trazado_163577" data-name="Trazado 163577" d="M1413.036,996.118V953.585l3.226-35.06v51.209Z" transform="translate(64.336 -470.377)" fill="#3f2572"/>
      <g id="Grupo_114641" data-name="Grupo 114641" transform="translate(11679.333 12451)">
        <path id="Trazado_163573" data-name="Trazado 163573" d="M1497.676,985.9V969.48l-37.064-21.4-37.065,21.4V985.9h-7.284l-3.226,26.383,37.064,21.4,37.065-21.4L1504.96,985.9Z" transform="translate(-11614.997 -12937.537)" fill="#4e2e8e"/>
        <path id="Trazado_163574" data-name="Trazado 163574" d="M1497.675,985.9V969.48l-37.064-21.4-37.065,21.4V985.9h-7.284l-3.226,26.383,37.065,21.4,37.065-21.4,17.794-26.383Z" transform="translate(-11614.997 -12937.537)" fill="#030403" opacity="0.2" style="mix-blend-mode: multiply;isolation: isolate"/>
        <path id="Trazado_163575" data-name="Trazado 163575" d="M1464.5,862.029l-44.348,25.6v51.209l44.348,25.6,44.349-25.6V887.633Z" transform="translate(-11618.891 -12890.483)" fill="#4e2e8e"/>
        <path id="Trazado_163576" data-name="Trazado 163576" d="M1473.292,880.587l-37.065,21.4v42.8l37.065,21.4,37.065-21.4v-42.8Z" transform="translate(-11627.678 -12900.632)" fill="#fff"/>
      </g>
    </g>
    <g id="objetivo_2_" data-name="objetivo (2)" transform="translate(1377.178 411.964)">
      <g id="Grupo_158049" data-name="Grupo 158049" transform="translate(-62.178 -38.9)">
        <path id="Trazado_197269" data-name="Trazado 197269" d="M36.66,411.064H4.471A4.476,4.476,0,0,1,0,406.594V386.922a4.476,4.476,0,0,1,4.471-4.471v1.788a2.686,2.686,0,0,0-2.683,2.682v19.671a2.686,2.686,0,0,0,2.683,2.682H36.66a2.686,2.686,0,0,0,2.682-2.682V388.582H41.13v18.012A4.476,4.476,0,0,1,36.66,411.064Z" transform="translate(0 -362.743)" fill="#4e2e8e"/>
        <path id="Trazado_197270" data-name="Trazado 197270" d="M45.419,470.452h1.788v3.576H45.419Z" transform="translate(-31.103 -423.025)" fill="#4e2e8e"/>
        <path id="Trazado_197271" data-name="Trazado 197271" d="M79.484,470.452h1.788v3.576H79.484Z" transform="translate(-54.43 -423.025)" fill="#4e2e8e"/>
        <path id="Trazado_197272" data-name="Trazado 197272" d="M42.181,448.48H30.187L28.4,446.691H16.621l-1.788,1.788H2.839v-1.788H14.093l1.788-1.788H29.139l1.788,1.788H42.181Z" transform="translate(-1.945 -405.532)" fill="#4e2e8e"/>
        <path id="Trazado_197273" data-name="Trazado 197273" d="M48.258,456.258h1.788v1.788H48.258Z" transform="translate(-33.047 -413.309)" fill="#4e2e8e"/>
        <path id="Trazado_197274" data-name="Trazado 197274" d="M59.613,456.258H63.19v1.788H59.613Z" transform="translate(-40.822 -413.309)" fill="#4e2e8e"/>
        <path id="Trazado_197275" data-name="Trazado 197275" d="M76.645,456.258h1.788v1.788H76.645Z" transform="translate(-52.486 -413.309)" fill="#4e2e8e"/>
        <path id="Trazado_197276" data-name="Trazado 197276" d="M53.736,484.333H34.065V481.65a2.686,2.686,0,0,1,2.682-2.682H51.053a2.686,2.686,0,0,1,2.682,2.682Zm-1.788-1.788v-.894a.9.9,0,0,0-.894-.894H36.747a.9.9,0,0,0-.894.894v.894" transform="translate(-23.324 -428.858)" fill="#4e2e8e"/>
        <path id="Trazado_197277" data-name="Trazado 197277" d="M45.332,357.554H11.355V325.889L17.244,320H49.8v1.788H17.984l-4.841,4.841v29.136h30.4V344.724h1.788Z" transform="translate(-7.778 -320)" fill="#4e2e8e"/>
        <path id="Trazado_197278" data-name="Trazado 197278" d="M20.453,329.1H14.194v-1.788h4.471v-4.471h1.788Z" transform="translate(-9.723 -321.945)" fill="#4e2e8e"/>
        <path id="Trazado_197279" data-name="Trazado 197279" d="M104.251,320a13.412,13.412,0,1,0,13.412,13.412A13.427,13.427,0,0,0,104.251,320Zm0,25.036a11.624,11.624,0,1,1,11.624-11.624A11.637,11.637,0,0,1,104.251,345.036Z" transform="translate(-62.188 -320)" fill="#4e2e8e"/>
        <path id="Trazado_197280" data-name="Trazado 197280" d="M127.585,351.651a.9.9,0,0,1-.894-.894H124.9a2.679,2.679,0,0,0,1.788,2.518v1.953h1.788V353.44h1.788v-2.682a2.686,2.686,0,0,0-2.682-2.682.9.9,0,0,1-.894-.894v-.894h.894a.9.9,0,0,1,.894.894h1.788a2.678,2.678,0,0,0-1.788-2.518V342.71h-1.788V344.5H124.9v2.682a2.686,2.686,0,0,0,2.682,2.682.9.9,0,0,1,.894.894v.894Z" transform="translate(-85.531 -335.557)" fill="#4e2e8e"/>
        <path id="Trazado_197281" data-name="Trazado 197281" d="M119.865,331.355a9.853,9.853,0,0,0-6.232,2.228l1.134,1.383a8.046,8.046,0,0,1,11.323,11.323l1.383,1.134a9.835,9.835,0,0,0-7.608-16.068Z" transform="translate(-77.803 -327.778)" fill="#4e2e8e"/>
        <path id="Trazado_197282" data-name="Trazado 197282" d="M112.029,357.074a8.046,8.046,0,0,1-6.225-13.146l-1.383-1.134a9.835,9.835,0,0,0,13.841,13.841l-1.134-1.383A8.062,8.062,0,0,1,112.029,357.074Z" transform="translate(-69.967 -335.614)" fill="#4e2e8e"/>
        <path id="Trazado_197283" data-name="Trazado 197283" d="M147.613,359.742H149.4v1.788h-1.788Z" transform="translate(-101.08 -347.215)" fill="#4e2e8e"/>
        <path id="Trazado_197284" data-name="Trazado 197284" d="M113.548,359.742h1.788v1.788h-1.788Z" transform="translate(-77.757 -347.215)" fill="#4e2e8e"/>
        <path id="Trazado_197285" data-name="Trazado 197285" d="M48.1,410.839a2.682,2.682,0,1,0,2.683,2.682A2.686,2.686,0,0,0,48.1,410.839Zm0,3.577a.894.894,0,1,1,.894-.894A.895.895,0,0,1,48.1,414.416Z" transform="translate(-31.102 -382.205)" fill="#4e2e8e"/>
        <path id="Trazado_197286" data-name="Trazado 197286" d="M70.811,388.129a2.682,2.682,0,1,0,2.682,2.682A2.686,2.686,0,0,0,70.811,388.129Zm0,3.577a.894.894,0,1,1,.894-.894A.895.895,0,0,1,70.811,391.706Z" transform="translate(-46.653 -366.653)" fill="#4e2e8e"/>
        <path id="Trazado_197287" data-name="Trazado 197287" d="M93.521,405.161a2.683,2.683,0,1,0,2.682,2.682A2.686,2.686,0,0,0,93.521,405.161Zm0,3.577a.894.894,0,1,1,.894-.894A.895.895,0,0,1,93.521,408.738Z" transform="translate(-62.205 -378.317)" fill="#4e2e8e"/>
        <path id="Trazado_197288" data-name="Trazado 197288" d="M100.146,398.262l2.793-4.19,1.488.992-2.793,4.191Z" transform="translate(-68.579 -370.722)" fill="#4e2e8e"/>
        <path id="Trazado_197289" data-name="Trazado 197289" d="M79.471,399.2l1.073-1.43,4.3,3.225-1.073,1.43Z" transform="translate(-54.42 -373.257)" fill="#4e2e8e"/>
        <path id="Trazado_197290" data-name="Trazado 197290" d="M55.941,403.277l4.625-4.625,1.264,1.264-4.625,4.625Z" transform="translate(-38.307 -373.859)" fill="#4e2e8e"/>
        <path id="Trazado_197291" data-name="Trazado 197291" d="M28.075,368.683H22.71v-8.941h5.365ZM24.5,366.9h1.788V361.53H24.5Z" transform="translate(-15.557 -347.214)" fill="#4e2e8e"/>
        <path id="Trazado_197292" data-name="Trazado 197292" d="M28.387,354.065h1.788v2.682H28.387Z" transform="translate(-19.446 -343.327)" fill="#4e2e8e"/>
        <path id="Trazado_197293" data-name="Trazado 197293" d="M28.387,385.29h1.788v2.682H28.387Z" transform="translate(-19.446 -364.71)" fill="#4e2e8e"/>
        <path id="Trazado_197294" data-name="Trazado 197294" d="M50.784,363.006H45.419v-8.941h5.365Zm-3.577-1.788H49v-5.365H47.207Z" transform="translate(-31.102 -343.326)" fill="#4e2e8e"/>
        <path id="Trazado_197295" data-name="Trazado 197295" d="M51.1,348.387h1.788v2.682H51.1Z" transform="translate(-34.991 -339.439)" fill="#4e2e8e"/>
        <path id="Trazado_197296" data-name="Trazado 197296" d="M51.1,379.613h1.788V382.3H51.1Z" transform="translate(-34.991 -360.823)" fill="#4e2e8e"/>
        <path id="Trazado_197297" data-name="Trazado 197297" d="M73.494,357.328H68.129v-8.941h5.365Zm-3.577-1.788h1.788v-5.365H69.917Z" transform="translate(-46.653 -339.438)" fill="#4e2e8e"/>
        <path id="Trazado_197298" data-name="Trazado 197298" d="M73.806,342.71h1.788v2.682H73.806Z" transform="translate(-50.542 -335.557)" fill="#4e2e8e"/>
        <path id="Trazado_197299" data-name="Trazado 197299" d="M73.806,373.935h1.788v2.683H73.806Z" transform="translate(-50.542 -356.934)" fill="#4e2e8e"/>
        <path id="Trazado_197300" data-name="Trazado 197300" d="M39.742,331.355H41.53v1.788H39.742Z" transform="translate(-27.215 -327.778)" fill="#4e2e8e"/>
        <path id="Trazado_197301" data-name="Trazado 197301" d="M51.1,331.355H63.615v1.788H51.1Z" transform="translate(-34.988 -327.778)" fill="#4e2e8e"/>
      </g>
    </g>
  </g>
</svg>
