<svg xmlns="http://www.w3.org/2000/svg" width="88.698" height="124.596" viewBox="0 0 88.698 124.596">
  <g id="Grupo_135369" data-name="Grupo 135369" transform="translate(-910.104 -385.403)">
    <g id="Grupo_114643" data-name="Grupo 114643" transform="translate(0.333)">
      <path id="Trazado_163569" data-name="Trazado 163569" d="M1195.956,1032.494v-16.416l-37.065-21.4-37.064,21.4v16.416h-7.284l7.284,26.383,37.064,21.4,37.065-21.4,7.284-26.383Z" transform="translate(-204.771 -570.276)" fill="#ffef0f"/>
      <path id="Trazado_163571" data-name="Trazado 163571" d="M1158.891,908.627l-44.348,25.6v51.209l44.348,25.6,44.348-25.6V934.231Z" transform="translate(-204.771 -523.224)" fill="#ffef0f"/>
      <path id="Trazado_163572" data-name="Trazado 163572" d="M1167.679,927.185l-37.065,21.4v42.8l37.065,21.4,37.064-21.4v-42.8Z" transform="translate(-213.559 -533.37)" fill="#fff"/>
      <path id="Trazado_163731" data-name="Trazado 163731" d="M1114.542,1032.494l7.284,26.383,37.064,21.4,37.065-21.4,7.284-26.383-44.348,26.383Z" transform="translate(-204.771 -570.276)" fill="#030403" opacity="0.2" style="mix-blend-mode: multiply;isolation: isolate"/>
    </g>
    <g id="surface1" transform="translate(929.104 168.811)">
      <path id="Trazado_197266" data-name="Trazado 197266" d="M164.928,421.918a1.742,1.742,0,0,1,1.742,1.741h1.742A3.483,3.483,0,0,0,165.8,420.3v-.995h-1.742v.995a3.476,3.476,0,0,0,.871,6.842,1.742,1.742,0,1,1-1.742,1.742h-1.742a3.483,3.483,0,0,0,2.612,3.36v.994H165.8v-.994a3.476,3.476,0,0,0-.871-6.843,1.742,1.742,0,0,1,0-3.483Z" transform="translate(-139.8 -155.907)" fill="#ffef0f" stroke="#ffef0f" stroke-width="1"/>
      <path id="Trazado_197267" data-name="Trazado 197267" d="M116.544,388.07a11.321,11.321,0,1,0,11.321,11.321A11.321,11.321,0,0,0,116.544,388.07Zm0,20.9a9.579,9.579,0,1,1,9.579-9.579A9.579,9.579,0,0,1,116.544,408.97Z" transform="translate(-91.415 -129.025)" fill="#ffef0f" stroke="#ffef0f" stroke-width="1"/>
      <path id="Trazado_197268" data-name="Trazado 197268" d="M50.382,257.3a.871.871,0,0,0,.871-.871v-3.483c0-.011-.006-.02-.006-.032a.862.862,0,0,0-.057-.278.051.051,0,0,0-.008-.033.871.871,0,0,0-.174-.256.961.961,0,0,0-.081-.065.873.873,0,0,0-.126-.1L25.547,238.254a.867.867,0,0,0-.841,0L-.547,252.187a.887.887,0,0,0-.126.1.984.984,0,0,0-.081.065.868.868,0,0,0-.174.256.05.05,0,0,1-.008.033.866.866,0,0,0-.057.278c0,.011-.006.02-.006.032v3.483a.871.871,0,0,0,.871.871H2.488v26.124H-.125A.871.871,0,0,0-1,284.3v5.225a.871.871,0,0,0,.871.871H50.382a.871.871,0,0,0,.871-.871V284.3a.871.871,0,0,0-.871-.871H47.77V257.3ZM25.129,240.011,47,252.078H3.257ZM.746,255.561V253.82H49.511v1.741M9.454,283.427V257.3H40.8v26.124ZM4.229,257.3H7.712v26.124H4.229Zm45.282,31.349H.746v-3.483H49.511Zm-3.483-5.225H42.545V257.3h3.483Z" transform="translate(0 0)" fill="#ffef0f" stroke="#ffef0f" stroke-width="1"/>
    </g>
  </g>
</svg>
