<svg xmlns="http://www.w3.org/2000/svg" width="133" height="133" viewBox="0 0 133 133">
  <g id="Grupo_163128" data-name="Grupo 163128" transform="translate(-1077 -2174)">
    <g id="Elipse_18056" data-name="Elipse 18056" transform="translate(1077 2174)" fill="#fff" stroke="#c6412a" stroke-width="4">
      <circle cx="66.5" cy="66.5" r="66.5" stroke="none"/>
      <circle cx="66.5" cy="66.5" r="64.5" fill="none"/>
    </g>
    <g id="Grupo_158057" data-name="Grupo 158057" transform="translate(1076 1848.607)">
      <path id="Trazado_197302" data-name="Trazado 197302" d="M79.74,348.62H30.227v87.023H90.243v-76.52Z" transform="translate(-0.726 -0.726)" fill="#fff"/>
      <g id="Grupo_158056" data-name="Grupo 158056" transform="translate(49.006 347.894)">
        <path id="Trazado_197303" data-name="Trazado 197303" d="M103.711,348.62v10.5h10.5" transform="translate(-73.703 -348.62)" fill="#ceb195"/>
        <path id="Trazado_197304" data-name="Trazado 197304" d="M59.175,357.527H80.181v3H59.175Z" transform="translate(-59.175 -351.525)" fill="#ceb195"/>
        <path id="Trazado_197305" data-name="Trazado 197305" d="M65.855,375.341H95.863v3H65.855Z" transform="translate(-61.354 -357.336)" fill="#ceb195"/>
        <path id="Trazado_197306" data-name="Trazado 197306" d="M65.855,384.248H95.863v3H65.855Z" transform="translate(-61.354 -360.242)" fill="#ceb195"/>
        <path id="Trazado_197307" data-name="Trazado 197307" d="M65.855,408.743h12v3h-12Z" transform="translate(-61.354 -368.232)" fill="#ceb195"/>
        <path id="Trazado_197308" data-name="Trazado 197308" d="M65.855,417.65h9v3h-9Z" transform="translate(-61.354 -371.138)" fill="#ceb195"/>
        <path id="Trazado_197309" data-name="Trazado 197309" d="M65.855,442.145h7.5v3h-7.5Z" transform="translate(-61.354 -379.128)" fill="#ceb195"/>
        <path id="Trazado_197310" data-name="Trazado 197310" d="M65.855,451.052h9v3h-9Z" transform="translate(-61.354 -382.034)" fill="#ceb195"/>
      </g>
      <path id="Trazado_197311" data-name="Trazado 197311" d="M124.907,426.021A19.505,19.505,0,1,1,105.4,406.516,19.506,19.506,0,0,1,124.907,426.021Z" transform="translate(-18.886 -19.612)" fill="#ffef0f"/>
      <path id="Trazado_197312" data-name="Trazado 197312" d="M92.354,441.957a19.522,19.522,0,0,0,27.458,2.851,25.648,25.648,0,0,0,2.85-2.851l-4.051-8.1a2.831,2.831,0,0,0-1.951-1.5l-4.651-1.2,1.35-4.052a1.9,1.9,0,0,0,.15-.9v-5.551a3.01,3.01,0,0,0-3-3h-6a3.01,3.01,0,0,0-3,3V426.2a1.9,1.9,0,0,0,.15.9l1.35,4.052-4.651,1.2a2.829,2.829,0,0,0-1.95,1.5Z" transform="translate(-20.992 -23.244)" fill="#6677d6"/>
      <path id="Trazado_197313" data-name="Trazado 197313" d="M44.361,373.114h6a3.01,3.01,0,0,1,3,3v6a3.01,3.01,0,0,1-3,3h-6a3.01,3.01,0,0,1-3-3v-6A3.01,3.01,0,0,1,44.361,373.114Z" transform="translate(-4.358 -8.716)" fill="#ceb195"/>
      <path id="Trazado_197314" data-name="Trazado 197314" d="M44.361,406.516h6a3.01,3.01,0,0,1,3,3v6a3.009,3.009,0,0,1-3,3h-6a3.009,3.009,0,0,1-3-3v-6A3.01,3.01,0,0,1,44.361,406.516Z" transform="translate(-4.358 -19.612)" fill="#ceb195"/>
      <path id="Trazado_197315" data-name="Trazado 197315" d="M46.522,378.971l7.533-7.532,2.121,2.122-7.532,7.532Z" transform="translate(-6.042 -8.17)" fill="#edd9be"/>
      <path id="Trazado_197316" data-name="Trazado 197316" d="M46.522,412.372l7.532-7.532,2.122,2.122-7.532,7.532Z" transform="translate(-6.042 -19.066)" fill="#edd9be"/>
      <path id="Trazado_197317" data-name="Trazado 197317" d="M44.361,439.918h6a3.01,3.01,0,0,1,3,3v6a3.01,3.01,0,0,1-3,3h-6a3.009,3.009,0,0,1-3-3v-6A3.009,3.009,0,0,1,44.361,439.918Z" transform="translate(-4.358 -30.508)" fill="#ceb195"/>
      <path id="Trazado_197318" data-name="Trazado 197318" d="M46.522,445.774l7.532-7.533,2.122,2.122L48.644,447.9Z" transform="translate(-6.042 -29.961)" fill="#edd9be"/>
      <path id="Trazado_197319" data-name="Trazado 197319" d="M59.175,357.527H80.181v3H59.175Z" transform="translate(-10.169 -3.632)"/>
      <path id="Trazado_197320" data-name="Trazado 197320" d="M65.855,375.341H95.863v3H65.855Z" transform="translate(-12.348 -9.443)"/>
      <path id="Trazado_197321" data-name="Trazado 197321" d="M65.855,384.248H95.863v3H65.855Z" transform="translate(-12.348 -12.348)"/>
      <path id="Trazado_197322" data-name="Trazado 197322" d="M54.138,378.39h-3v3a1.417,1.417,0,0,1-1.5,1.5h-6a1.418,1.418,0,0,1-1.5-1.5v-6a1.418,1.418,0,0,1,1.5-1.5h3v-3h-3a4.42,4.42,0,0,0-4.5,4.5v6a4.42,4.42,0,0,0,4.5,4.5h6a4.421,4.421,0,0,0,4.5-4.5Z" transform="translate(-3.632 -7.99)"/>
      <path id="Trazado_197323" data-name="Trazado 197323" d="M46.522,378.971l7.533-7.532,2.121,2.122-7.532,7.532Z" transform="translate(-6.042 -8.17)"/>
      <path id="Trazado_197324" data-name="Trazado 197324" d="M65.855,408.743h12v3h-12Z" transform="translate(-12.348 -20.339)"/>
      <path id="Trazado_197325" data-name="Trazado 197325" d="M65.855,417.65h9v3h-9Z" transform="translate(-12.348 -23.244)"/>
      <path id="Trazado_197326" data-name="Trazado 197326" d="M54.138,411.791h-3v3a1.417,1.417,0,0,1-1.5,1.5h-6a1.418,1.418,0,0,1-1.5-1.5v-6a1.417,1.417,0,0,1,1.5-1.5h3v-3h-3a4.421,4.421,0,0,0-4.5,4.5v6a4.42,4.42,0,0,0,4.5,4.5h6a4.421,4.421,0,0,0,4.5-4.5Z" transform="translate(-3.632 -18.886)"/>
      <path id="Trazado_197327" data-name="Trazado 197327" d="M46.522,412.372l7.532-7.532,2.122,2.122-7.532,7.532Z" transform="translate(-6.042 -19.066)"/>
      <path id="Trazado_197328" data-name="Trazado 197328" d="M65.855,442.145h7.5v3h-7.5Z" transform="translate(-12.348 -31.235)"/>
      <path id="Trazado_197329" data-name="Trazado 197329" d="M65.855,451.052h9v3h-9Z" transform="translate(-12.348 -34.14)"/>
      <path id="Trazado_197330" data-name="Trazado 197330" d="M39.134,442.192v6a4.42,4.42,0,0,0,4.5,4.5h6a4.421,4.421,0,0,0,4.5-4.5v-3h-3v3a1.417,1.417,0,0,1-1.5,1.5h-6a1.417,1.417,0,0,1-1.5-1.5v-6a1.417,1.417,0,0,1,1.5-1.5h3v-3h-3A4.42,4.42,0,0,0,39.134,442.192Z" transform="translate(-3.632 -29.782)"/>
      <path id="Trazado_197331" data-name="Trazado 197331" d="M46.522,445.774l7.532-7.533,2.122,2.122L48.644,447.9Z" transform="translate(-6.042 -29.961)"/>
      <path id="Trazado_197332" data-name="Trazado 197332" d="M86.516,427.414a21.027,21.027,0,0,0,4.5-41.561V357.8l-11.4-11.4H28v90.024H91.017v-6h-3v3H31V349.394H77.513v10.5h10.5v25.657c-.449,0-1.05-.15-1.5-.15a21.006,21.006,0,0,0,0,42.011Zm-6-75.92,5.4,5.4h-5.4Zm6,72.92a17.668,17.668,0,0,1-13.354-6l3.6-7.2a1.129,1.129,0,0,1,1.051-.75l6.3-1.5-1.95-5.551c0-.15-.15-.3-.15-.45v-5.551a1.417,1.417,0,0,1,1.5-1.5h6a1.417,1.417,0,0,1,1.5,1.5v5.551a.551.551,0,0,1-.15.45l-1.8,5.551,6.3,1.5a2.69,2.69,0,0,1,1.051.75l3.6,7.2A18.221,18.221,0,0,1,86.516,424.414Zm0-36.01a17.929,17.929,0,0,1,18,17.854,17.719,17.719,0,0,1-2.7,9.453l-2.852-5.853a4.417,4.417,0,0,0-3-2.4l-3.151-.751.9-2.551a4.43,4.43,0,0,0,.3-1.5v-5.251a4.421,4.421,0,0,0-4.5-4.5h-6a4.421,4.421,0,0,0-4.5,4.5v5.551a4.4,4.4,0,0,0,.3,1.35l.9,2.55-3.151.75a4.42,4.42,0,0,0-3,2.4l-2.852,5.852a17.933,17.933,0,0,1,6-24.757A16.85,16.85,0,0,1,86.516,388.4Z"/>
    </g>
  </g>
</svg>
