<svg xmlns="http://www.w3.org/2000/svg" width="133" height="133" viewBox="0 0 133 133">
  <g id="Grupo_163122" data-name="Grupo 163122" transform="translate(-390 -2767)">
    <g id="Elipse_18058" data-name="Elipse 18058" transform="translate(390 2767)" fill="#fff" stroke="#c6412a" stroke-width="4">
      <circle cx="66.5" cy="66.5" r="66.5" stroke="none"/>
      <circle cx="66.5" cy="66.5" r="64.5" fill="none"/>
    </g>
    <g id="Grupo_158067" data-name="Grupo 158067" transform="translate(413 2374.711)">
      <path id="Trazado_197375" data-name="Trazado 197375" d="M87.512,419.779v41.743l-1.44,1.44H25.618l-1.44-1.44V419.779a2.886,2.886,0,0,1,2.878-2.878H84.634A2.886,2.886,0,0,1,87.512,419.779Z" transform="translate(-2.587 -0.172)" fill="#6677d6"/>
      <path id="Trazado_197376" data-name="Trazado 197376" d="M69.774,481.952v1.44H47.636l-.892-1.44,1.309-.447a7.073,7.073,0,0,0,4.448-6.751v-1.439H64.017v1.439A7.369,7.369,0,0,0,69.774,481.952Z" transform="translate(-5.001 -6.208)" fill="#a3bdce"/>
      <path id="Trazado_197377" data-name="Trazado 197377" d="M74.093,487.3a1.44,1.44,0,0,1-1.44,1.44H50.285l-2.649-4.318-.892-1.44h23.03A4.318,4.318,0,0,1,74.093,487.3Z" transform="translate(-5.001 -7.242)" fill="#c4ddf0"/>
      <path id="Trazado_197378" data-name="Trazado 197378" d="M87.512,466.868v4.319a2.886,2.886,0,0,1-2.878,2.878H24.178v-7.2Z" transform="translate(-2.587 -5.518)" fill="#f3f9ff"/>
      <path id="Trazado_197379" data-name="Trazado 197379" d="M79.731,423.348a7.2,7.2,0,1,0,7.2,7.2A7.2,7.2,0,0,0,79.731,423.348Z" transform="translate(-7.76 -0.862)" fill="#c6412a"/>
      <path id="Trazado_197380" data-name="Trazado 197380" d="M87.179,431.407a7.206,7.206,0,0,1-12.292,5.1l5.1-5.1Z" transform="translate(-8.011 -1.724)" fill="#ffef0f"/>
      <path id="Trazado_197381" data-name="Trazado 197381" d="M87.79,430.545h-7.2v-7.2A7.2,7.2,0,0,1,87.79,430.545Z" transform="translate(-8.622 -0.862)" fill="#c6412a"/>
      <path id="Trazado_197382" data-name="Trazado 197382" d="M36.158,479.763a11.515,11.515,0,0,1,11.515,11.515v11.516a4.318,4.318,0,0,1-4.318,4.318H5.93a4.318,4.318,0,0,1-4.318-4.318V491.278a11.515,11.515,0,0,1,11.515-11.515Z" transform="translate(-0.172 -6.897)" fill="#6677d6"/>
      <path id="Trazado_197383" data-name="Trazado 197383" d="M31.78,474.927l5.757,4.319-5.157,5.5a.828.828,0,0,1-1.17.03l-.03-.03-5.158-5.5-5.157,5.5a.828.828,0,0,1-1.17.03l-.03-.03-5.157-5.5,5.757-4.319Z" transform="translate(-1.552 -6.38)" fill="#fff"/>
      <path id="Trazado_197384" data-name="Trazado 197384" d="M32.469,468.48v5.758l-5.758,4.318-5.758-4.318V468.48Z" transform="translate(-2.242 -5.69)" fill="#eac2aa"/>
      <path id="Trazado_197385" data-name="Trazado 197385" d="M7.887,447.819A54.5,54.5,0,0,1,6.447,436.3a16.513,16.513,0,0,1,.288-3.081,6.763,6.763,0,0,1,2.447-4,7.171,7.171,0,0,1,4.462-1.555s1.44-4.319,11.515-4.319c5.038,0,7.918,1.08,9.529,2.159a4.847,4.847,0,0,1,1.986,2.159,7,7,0,0,1,6.909,5.555,16.512,16.512,0,0,1,.288,3.081,54.5,54.5,0,0,1-1.44,11.515Z" transform="translate(-0.69 -0.862)" fill="#ffef0f"/>
      <path id="Trazado_197386" data-name="Trazado 197386" d="M42.6,449.2a4.319,4.319,0,0,1-3.223,4.174,1.45,1.45,0,0,0-1.141,1.233,12.955,12.955,0,0,1-25.818,0,1.45,1.45,0,0,0-1.141-1.233,4.318,4.318,0,0,1,.018-8.361,1.461,1.461,0,0,0,1.134-1.227,8.972,8.972,0,0,1,6.68-7.512.617.617,0,0,1,.677.216,6.423,6.423,0,0,0,5.541,2.634,6.424,6.424,0,0,0,5.542-2.634.617.617,0,0,1,.677-.216,8.973,8.973,0,0,1,6.68,7.517,1.461,1.461,0,0,0,1.134,1.227A4.318,4.318,0,0,1,42.6,449.2Z" transform="translate(-0.861 -2.242)" fill="#f9d6bd"/>
      <path id="Trazado_197387" data-name="Trazado 197387" d="M82.047,415.289H24.47a4.318,4.318,0,0,0-4.318,4.318v1.74c-5.105.764-7.237,2.822-8.076,4.063a8.7,8.7,0,0,0-4.482,1.826,8.23,8.23,0,0,0-2.962,4.857,17.846,17.846,0,0,0-.313,3.348A55.228,55.228,0,0,0,5.78,447.215a5.649,5.649,0,0,0,4.346,5.274A14.429,14.429,0,0,0,17.273,463.7v4.13l-4.832,3.624A12.955,12.955,0,0,0,0,484.381V495.9a5.758,5.758,0,0,0,5.757,5.757H43.183A5.758,5.758,0,0,0,48.94,495.9V484.381a12.919,12.919,0,0,0-.085-1.44h18.8a2.879,2.879,0,0,0,2.879-2.879,5.757,5.757,0,0,0-5.47-5.729,5.947,5.947,0,0,1-4.448-4.347H82.047a4.318,4.318,0,0,0,4.318-4.318V419.607A4.318,4.318,0,0,0,82.047,415.289Zm-59.016,4.318a1.438,1.438,0,0,1,1.439-1.439H82.047a1.438,1.438,0,0,1,1.439,1.439v40.3h-47.5a14.374,14.374,0,0,0,2.9-7.383,5.744,5.744,0,0,0,4.277-5.313,55.28,55.28,0,0,0,1.457-11.774H50.38a1.44,1.44,0,1,0,0-2.879H44.374c-.026-.16-.038-.322-.069-.48a8.144,8.144,0,0,0-.894-2.4H57.577a1.439,1.439,0,1,0,0-2.878H40.735a8.568,8.568,0,0,0-3.879-1.4,7.4,7.4,0,0,0-2.055-1.959c-2.383-1.593-5.858-2.4-10.331-2.4-.5,0-.977.012-1.439.03ZM7.46,432.634a5.273,5.273,0,0,1,1.926-3.147,5.7,5.7,0,0,1,3.569-1.243,1.514,1.514,0,0,0,1.35-.94c.013-.035,1.488-3.378,10.164-3.378,4.85,0,7.424,1.042,8.734,1.919a3.94,3.94,0,0,1,1.417,1.415,1.44,1.44,0,0,0,1.365.985,5.555,5.555,0,0,1,5.495,4.387c.086.447.144.9.193,1.363v.038c.045.466.066.937.066,1.409a47.12,47.12,0,0,1-.616,7.141,5.739,5.739,0,0,0-2.327-1.188,10.385,10.385,0,0,0-7.7-8.745,2.083,2.083,0,0,0-2.271.784,5.018,5.018,0,0,1-4.351,2.008,5.029,5.029,0,0,1-4.379-2.047,2.065,2.065,0,0,0-2.241-.746c-.1.029-.219.064-.348.108a10.4,10.4,0,0,0-7.425,8.622A5.721,5.721,0,0,0,7.8,442.566a47.267,47.267,0,0,1-.607-7.125A15.021,15.021,0,0,1,7.46,432.634ZM13,452.25a2.86,2.86,0,0,0-2.214-2.508,2.879,2.879,0,0,1,.014-5.575,2.877,2.877,0,0,0,2.209-2.467,7.4,7.4,0,0,1,5.131-6.116,7.978,7.978,0,0,0,6.333,2.735,7.979,7.979,0,0,0,6.334-2.735,9.479,9.479,0,0,1,1.4.64,7,7,0,0,1,3.734,5.479v.012a2.877,2.877,0,0,0,2.207,2.452,2.879,2.879,0,0,1,.013,5.575,2.855,2.855,0,0,0-2.213,2.5,11.515,11.515,0,0,1-22.951,0Zm17.233,18.1,3.609,2.707L30.228,476.9l-3.609-3.843Zm-5.758-4.678a14.182,14.182,0,0,0,4.319-.684v2.843l-4.319,3.238-4.318-3.238v-2.843A14.176,14.176,0,0,0,24.47,465.669Zm-5.757,4.678,3.609,2.707L18.712,476.9,15.1,473.053ZM46.061,495.9a2.878,2.878,0,0,1-2.878,2.878H5.757A2.878,2.878,0,0,1,2.879,495.9V484.381a10.075,10.075,0,0,1,9.481-10.046l4.717,5.038a2.268,2.268,0,0,0,3.208.061c.026-.025.052-.051.077-.078l4.108-4.386,4.123,4.4a2.269,2.269,0,0,0,3.208.061c.026-.026.052-.052.077-.079l4.7-5.014a10.075,10.075,0,0,1,9.481,10.046Zm21.591-15.834H48.185a12.838,12.838,0,0,0-1.44-2.878H64.773A2.878,2.878,0,0,1,67.652,480.062Zm-7.98-5.757H46.842a8.307,8.307,0,0,0,1.985-4.319h8.864A8.243,8.243,0,0,0,59.672,474.305Zm22.375-7.2H37.425a1.439,1.439,0,1,0,0,2.878h8.469a5.468,5.468,0,0,1-2.711,3.63,12.87,12.87,0,0,0-6.683-2.158l-4.832-3.63V463.7a14.636,14.636,0,0,0,1.393-.911H83.486v2.879A1.439,1.439,0,0,1,82.047,467.108Z" fill="#373737"/>
      <path id="Trazado_197388" data-name="Trazado 197388" d="M79.558,439.01a8.637,8.637,0,1,0-8.637-8.637A8.637,8.637,0,0,0,79.558,439.01Zm0-2.879a5.691,5.691,0,0,1-2.907-.816l3.5-3.5h4.957A5.758,5.758,0,0,1,79.558,436.131Zm5.553-7.2H81V424.82A5.744,5.744,0,0,1,85.111,428.934Zm-6.992-4.114v4.957l-3.5,3.5a5.691,5.691,0,0,1-.816-2.907A5.758,5.758,0,0,1,78.119,424.82Z" transform="translate(-7.587 -0.69)" fill="#373737"/>
      <path id="Trazado_197389" data-name="Trazado 197389" d="M49.795,457.2a1.439,1.439,0,0,0-1.439,1.44v1.44a1.439,1.439,0,1,0,2.878,0v-1.44A1.439,1.439,0,0,0,49.795,457.2Z" transform="translate(-5.173 -4.483)" fill="#373737"/>
      <path id="Trazado_197390" data-name="Trazado 197390" d="M56.243,452.362A1.439,1.439,0,0,0,54.8,453.8v5.758a1.44,1.44,0,0,0,2.879,0V453.8A1.439,1.439,0,0,0,56.243,452.362Z" transform="translate(-5.863 -3.966)" fill="#373737"/>
      <path id="Trazado_197391" data-name="Trazado 197391" d="M62.69,447.526a1.44,1.44,0,0,0-1.44,1.44v10.076a1.44,1.44,0,0,0,2.879,0V448.966A1.44,1.44,0,0,0,62.69,447.526Z" transform="translate(-6.553 -3.449)" fill="#373737"/>
      <path id="Trazado_197392" data-name="Trazado 197392" d="M69.138,461.171a1.439,1.439,0,0,0,1.439-1.44v-4.319a1.439,1.439,0,1,0-2.878,0v4.319A1.439,1.439,0,0,0,69.138,461.171Z" transform="translate(-7.242 -4.138)" fill="#373737"/>
      <path id="Trazado_197393" data-name="Trazado 197393" d="M75.585,450.75a1.439,1.439,0,0,0-1.44,1.44v7.2a1.44,1.44,0,0,0,2.879,0v-7.2A1.439,1.439,0,0,0,75.585,450.75Z" transform="translate(-7.932 -3.794)" fill="#373737"/>
      <path id="Trazado_197394" data-name="Trazado 197394" d="M82.032,447.526a1.439,1.439,0,0,0-1.439,1.44v10.076a1.439,1.439,0,1,0,2.878,0V448.966A1.439,1.439,0,0,0,82.032,447.526Z" transform="translate(-8.622 -3.449)" fill="#373737"/>
      <path id="Trazado_197395" data-name="Trazado 197395" d="M88.48,444.3a1.44,1.44,0,0,0-1.44,1.44V458.7a1.44,1.44,0,0,0,2.879,0V445.742A1.44,1.44,0,0,0,88.48,444.3Z" transform="translate(-9.312 -3.104)" fill="#373737"/>
    </g>
  </g>
</svg>
