<svg xmlns="http://www.w3.org/2000/svg" width="133" height="133" viewBox="0 0 133 133">
  <g id="Grupo_163127" data-name="Grupo 163127" transform="translate(-1077 -2569)">
    <g id="Elipse_18059" data-name="Elipse 18059" transform="translate(1077 2569)" fill="#fff" stroke="#c6412a" stroke-width="4">
      <circle cx="66.5" cy="66.5" r="66.5" stroke="none"/>
      <circle cx="66.5" cy="66.5" r="64.5" fill="none"/>
    </g>
    <g id="Grupo_158071" data-name="Grupo 158071" transform="translate(1092 2199.958)">
      <g id="Grupo_158069" data-name="Grupo 158069" transform="translate(9.411 393.453)">
        <circle id="Elipse_18269" data-name="Elipse 18269" cx="16.932" cy="16.932" r="16.932" transform="translate(25.398 25.398)" fill="#6677d6"/>
        <g id="Grupo_158068" data-name="Grupo 158068" transform="translate(0 0)">
          <path id="Trazado_197396" data-name="Trazado 197396" d="M110.593,454.119H99.3a2.822,2.822,0,0,1-2.822-2.822V440.008a2.822,2.822,0,0,1,2.822-2.822h11.289a2.822,2.822,0,0,1,2.822,2.822V451.3A2.822,2.822,0,0,1,110.593,454.119Z" transform="translate(-28.755 -403.322)" fill="#ffef0f"/>
          <path id="Trazado_197397" data-name="Trazado 197397" d="M67.254,497.457H55.966a2.822,2.822,0,0,1-2.822-2.822V483.347a2.822,2.822,0,0,1,2.822-2.822H67.254a2.822,2.822,0,0,1,2.822,2.822v11.289A2.822,2.822,0,0,1,67.254,497.457Z" transform="translate(-19.28 -412.797)" fill="#ffef0f"/>
          <path id="Trazado_197398" data-name="Trazado 197398" d="M23.915,454.119H12.628A2.822,2.822,0,0,1,9.806,451.3V440.008a2.822,2.822,0,0,1,2.822-2.822H23.915a2.822,2.822,0,0,1,2.822,2.822V451.3A2.822,2.822,0,0,1,23.915,454.119Z" transform="translate(-9.806 -403.322)" fill="#ffef0f"/>
          <path id="Trazado_197399" data-name="Trazado 197399" d="M67.254,410.78H55.966a2.822,2.822,0,0,1-2.822-2.822V396.67a2.822,2.822,0,0,1,2.822-2.822H67.254a2.822,2.822,0,0,1,2.822,2.822v11.289A2.822,2.822,0,0,1,67.254,410.78Z" transform="translate(-19.28 -393.848)" fill="#ffef0f"/>
        </g>
        <circle id="Elipse_18270" data-name="Elipse 18270" cx="2.822" cy="2.822" r="2.822" transform="translate(7.055 79.016)" fill="#c6412a"/>
        <path id="Trazado_197400" data-name="Trazado 197400" d="M107.6,400.9a4.233,4.233,0,1,1,0,8.466H93.493a4.233,4.233,0,1,1,0-8.466,7.055,7.055,0,1,1,14.11,0Z" transform="translate(-27.176 -393.848)" fill="#6677d6"/>
        <circle id="Elipse_18271" data-name="Elipse 18271" cx="12.699" cy="12.699" r="12.699" fill="#6677d6"/>
        <path id="Trazado_197401" data-name="Trazado 197401" d="M23.409,411.906a9.854,9.854,0,0,1,9.453,7.04l.014.014c-.169.17-.324.339-.494.508a12.687,12.687,0,0,1-18.441-.508l.014-.014A9.855,9.855,0,0,1,23.409,411.906Z" transform="translate(-10.71 -397.796)" fill="#c6412a"/>
        <circle id="Elipse_18272" data-name="Elipse 18272" cx="4.233" cy="4.233" r="4.233" transform="translate(8.466 5.644)" fill="#f0d0b4"/>
        <path id="Trazado_197402" data-name="Trazado 197402" d="M111.046,479.735v14.11a2.83,2.83,0,0,1-2.822,2.822H88.47a2.83,2.83,0,0,1-2.822-2.822v-14.11a2.831,2.831,0,0,1,2.822-2.822h19.754A2.831,2.831,0,0,1,111.046,479.735Z" transform="translate(-26.386 -412.007)" fill="#c6412a"/>
      </g>
      <g id="Grupo_158070" data-name="Grupo 158070" transform="translate(8 392.042)">
        <path id="Trazado_197403" data-name="Trazado 197403" d="M21.262,493.165a4.233,4.233,0,1,0,4.233,4.234A4.238,4.238,0,0,0,21.262,493.165Zm0,5.644a1.411,1.411,0,1,1,1.411-1.41A1.412,1.412,0,0,1,21.262,498.809Z" transform="translate(-9.974 -414.149)"/>
        <path id="Trazado_197404" data-name="Trazado 197404" d="M13.509,488.835l2,1.995a7.056,7.056,0,0,1,9.976,0l1.995-1.995a9.875,9.875,0,0,0-13.966,0Z" transform="translate(-9.204 -412.57)"/>
        <path id="Trazado_197405" data-name="Trazado 197405" d="M8.4,483.267l1.995,2a12.715,12.715,0,0,1,17.961,0l1.995-2A15.539,15.539,0,0,0,8.4,483.267Z" transform="translate(-8.088 -410.993)"/>
        <path id="Trazado_197406" data-name="Trazado 197406" d="M108,490.8h-2.822v-5.644h-2.822V490.8H99.532v-2.822H96.71V490.8H93.888v-8.466H91.066v11.288H108Z" transform="translate(-26.159 -411.78)"/>
        <path id="Trazado_197407" data-name="Trazado 197407" d="M91.25,425.907H79.961a4.238,4.238,0,0,0-4.233,4.233v4.233H70.012a18.24,18.24,0,0,0-4.357-10.507l13.479-13.48h10.7a5.645,5.645,0,0,0,1.319-11.133,8.468,8.468,0,0,0-16.748,0,5.628,5.628,0,0,0,.788,11.079L63.66,421.869a18.244,18.244,0,0,0-10.507-4.357V411.8h4.233a4.238,4.238,0,0,0,4.233-4.233V396.275a4.238,4.238,0,0,0-4.233-4.233H46.1a4.238,4.238,0,0,0-4.233,4.233v11.289A4.238,4.238,0,0,0,46.1,411.8H50.33v5.716a18.239,18.239,0,0,0-10.507,4.357l-6.793-6.794a14.145,14.145,0,1,0-2,2l6.793,6.794a18.244,18.244,0,0,0-4.357,10.507H27.754v-4.233a4.238,4.238,0,0,0-4.234-4.233H12.233A4.238,4.238,0,0,0,8,430.139v11.288a4.238,4.238,0,0,0,4.233,4.233H23.521a4.238,4.238,0,0,0,4.234-4.233v-4.233H33.47A18.24,18.24,0,0,0,37.827,447.7l-9.659,9.66,1.995,1.995,9.66-9.66a18.244,18.244,0,0,0,10.507,4.357v5.716H46.1A4.238,4.238,0,0,0,41.864,464v11.289a4.238,4.238,0,0,0,4.233,4.233H57.385a4.238,4.238,0,0,0,4.233-4.233V464a4.238,4.238,0,0,0-4.233-4.233H53.152v-5.716A18.24,18.24,0,0,0,63.66,449.7l7.305,7.3a4.225,4.225,0,0,0-3.7,4.18v14.11a4.239,4.239,0,0,0,4.234,4.233H91.25a4.239,4.239,0,0,0,4.233-4.233v-14.11a4.238,4.238,0,0,0-4.233-4.233H74.9L65.655,447.7a18.244,18.244,0,0,0,4.357-10.507h5.716v4.233a4.238,4.238,0,0,0,4.233,4.233H91.25a4.238,4.238,0,0,0,4.233-4.233V430.139a4.238,4.238,0,0,0-4.233-4.233ZM58.8,403.33H44.686v-2.822H58.8Zm-12.7-8.466H57.385a1.412,1.412,0,0,1,1.411,1.41v1.411H44.686v-1.411A1.412,1.412,0,0,1,46.1,394.864Zm-1.411,12.7v-1.411H58.8v1.411a1.412,1.412,0,0,1-1.411,1.41H46.1A1.412,1.412,0,0,1,44.686,407.563ZM12.233,428.728H23.521a1.413,1.413,0,0,1,1.411,1.411v1.411H10.822v-1.411A1.412,1.412,0,0,1,12.233,428.728Zm12.7,5.644v2.822H10.822v-2.822Zm-1.411,8.466H12.233a1.412,1.412,0,0,1-1.41-1.411v-1.411H24.932v1.411A1.413,1.413,0,0,1,23.521,442.838Zm21.165,25.4H58.8v2.822H44.686Zm12.7,8.466H46.1a1.412,1.412,0,0,1-1.411-1.41V473.88H58.8v1.411A1.412,1.412,0,0,1,57.385,476.7ZM58.8,464v1.411H44.686V464a1.412,1.412,0,0,1,1.411-1.41H57.385A1.412,1.412,0,0,1,58.8,464Zm-7.055-12.7c-1.517,0-3.133-2.155-4.246-5.645h8.493c-1.114,3.49-2.73,5.645-4.247,5.645Zm-4.966-8.466a35.05,35.05,0,0,1-.649-5.644H57.355a35.228,35.228,0,0,1-.649,5.644Zm-10.483-5.644h7.014a38.619,38.619,0,0,0,.577,5.644H37.934a15.358,15.358,0,0,1-1.642-5.644Zm15.449-16.933c1.517,0,3.133,2.155,4.246,5.645H47.494c1.114-3.49,2.73-5.645,4.247-5.645Zm4.966,8.466a35.051,35.051,0,0,1,.649,5.644H46.127a35.228,35.228,0,0,1,.649-5.644Zm-13.4,5.644H36.292a15.373,15.373,0,0,1,1.642-5.644h5.949a38.406,38.406,0,0,0-.577,5.644Zm16.87,2.822H67.19a15.358,15.358,0,0,1-1.642,5.644H59.6A38.405,38.405,0,0,0,60.176,437.194Zm0-2.822a38.62,38.62,0,0,0-.577-5.644h5.949a15.388,15.388,0,0,1,1.642,5.644Zm12.73-29.631a2.825,2.825,0,0,1,2.822-2.822h1.411v-1.41a5.644,5.644,0,0,1,11.16-1.2,5.654,5.654,0,0,0-4.1,5.431h2.822a2.822,2.822,0,1,1,2.822,2.822H75.728A2.825,2.825,0,0,1,72.907,404.741Zm-9.2,21.165H58.946a19.47,19.47,0,0,0-1.963-4.715A15.587,15.587,0,0,1,63.705,425.907Zm-17.2-4.715a19.564,19.564,0,0,0-1.962,4.715H39.779A15.57,15.57,0,0,1,46.5,421.192ZM22.11,394.864a11.266,11.266,0,0,1,9.743,16.96,11.368,11.368,0,0,0-5.512-4.8,5.644,5.644,0,1,0-8.465,0,11.371,11.371,0,0,0-5.511,4.8,11.267,11.267,0,0,1,9.745-16.958Zm-2.822,8.466a2.822,2.822,0,1,1,2.822,2.822A2.825,2.825,0,0,1,19.288,403.33Zm-5,10.944a8.419,8.419,0,0,1,15.639,0,11.24,11.24,0,0,1-15.639,0ZM39.777,445.66h4.759a19.471,19.471,0,0,0,1.963,4.715A15.587,15.587,0,0,1,39.777,445.66Zm17.2,4.715a19.565,19.565,0,0,0,1.962-4.715H63.7A15.571,15.571,0,0,1,56.982,450.375ZM92.66,461.181v14.11a1.412,1.412,0,0,1-1.41,1.41H71.5a1.412,1.412,0,0,1-1.411-1.41v-14.11A1.413,1.413,0,0,1,71.5,459.77H91.25A1.412,1.412,0,0,1,92.66,461.181Zm-12.7-32.453H91.25a1.412,1.412,0,0,1,1.41,1.411v1.411H78.551v-1.411A1.412,1.412,0,0,1,79.961,428.728Zm12.7,5.644v2.822H78.551v-2.822Zm-1.41,8.466H79.961a1.412,1.412,0,0,1-1.41-1.411v-1.411H92.66v1.411A1.412,1.412,0,0,1,91.25,442.838Z" transform="translate(-8 -392.042)"/>
      </g>
    </g>
  </g>
</svg>
