<svg xmlns="http://www.w3.org/2000/svg" width="133" height="133" viewBox="0 0 133 133">
  <g id="Grupo_163244" data-name="Grupo 163244" transform="translate(-394 -5965.694)">
    <g id="Grupo_163123" data-name="Grupo 163123" transform="translate(4 3198.693)">
      <g id="Elipse_18058" data-name="Elipse 18058" transform="translate(390 2767.001)" fill="#fff" stroke="#c6412a" stroke-width="4">
        <circle cx="66.5" cy="66.5" r="66.5" stroke="none"/>
        <circle cx="66.5" cy="66.5" r="64.5" fill="none"/>
      </g>
    </g>
    <g id="Grupo_163129" data-name="Grupo 163129" transform="translate(296 5589.281)">
      <path id="Trazado_197548" data-name="Trazado 197548" d="M168,488.466V507.52c12.687,0,22.971-4.265,22.971-9.527S180.687,488.466,168,488.466Z" transform="translate(-3.441 -12.295)" fill="#eee99a"/>
      <path id="Trazado_197549" data-name="Trazado 197549" d="M181.4,497.993c0-5.262-7.441-9.527-16.619-9.527-12.687,0-22.971,4.265-22.971,9.527s10.285,9.527,22.971,9.527C173.96,507.52,181.4,503.255,181.4,497.993Z" transform="translate(-0.222 -12.295)" fill="#ffef0f"/>
      <path id="Trazado_197550" data-name="Trazado 197550" d="M179.782,419.19h-6.351v6.351l6.351,26.888a3.176,3.176,0,1,0,6.352,0V425.541A6.37,6.37,0,0,0,179.782,419.19Z" transform="translate(-4.108 -3.782)" fill="#6677d6"/>
      <path id="Trazado_197551" data-name="Trazado 197551" d="M154.438,419.19a6.37,6.37,0,0,0-6.352,6.351v26.888a3.176,3.176,0,1,0,6.352,0l6.351-26.888V419.19Z" transform="translate(-0.994 -3.782)" fill="#6677d6"/>
      <path id="Trazado_197552" data-name="Trazado 197552" d="M167.921,390.224v19.054a9.527,9.527,0,0,0,0-19.054Z" transform="translate(-3.431 -0.222)" fill="#c6412a"/>
      <path id="Trazado_197553" data-name="Trazado 197553" d="M169.761,399.751c0-5.262-1.422-9.527-3.175-9.527a9.527,9.527,0,1,0,0,19.054C168.34,409.278,169.761,405.013,169.761,399.751Z" transform="translate(-2.096 -0.222)" fill="#4e2e8e"/>
      <path id="Trazado_197554" data-name="Trazado 197554" d="M171.206,419.19h-9.527a6.369,6.369,0,0,0-6.351,6.351V488.05a3.969,3.969,0,1,0,7.939,0V452.429h6.352V488.05a3.969,3.969,0,1,0,7.939,0V425.541A6.369,6.369,0,0,0,171.206,419.19Z" transform="translate(-1.884 -3.782)" fill="#6677d6"/>
      <path id="Trazado_197555" data-name="Trazado 197555" d="M177.262,479.676V456.7a4.763,4.763,0,0,0,6.351-4.491V425.319a7.948,7.948,0,0,0-7.94-7.94H153.444a7.948,7.948,0,0,0-7.94,7.94v26.888a4.763,4.763,0,0,0,6.351,4.491v31.13a5.558,5.558,0,0,0,11.116,0v-6.485c1.057-.032,2.118-.032,3.175,0v6.485a5.558,5.558,0,0,0,11.116,0v-4.857c5.265,1.531,8.68,3.959,8.68,6.286,0,3.755-8.782,7.939-21.383,7.939s-21.383-4.184-21.383-7.939c0-1.6,1.68-3.338,4.609-4.759a1.588,1.588,0,0,0-1.386-2.858c-5.289,2.566-6.4,5.558-6.4,7.617,0,3.229,2.737,6.141,7.708,8.2a45.367,45.367,0,0,0,16.851,2.912,45.375,45.375,0,0,0,16.852-2.912c4.97-2.061,7.707-4.974,7.707-8.2C189.118,485.17,184.712,481.635,177.262,479.676Zm-11.116-1.511c-1.057-.029-2.118-.029-3.175,0v-24.37h3.175Zm9.527-54.433a1.587,1.587,0,0,0-1.588,1.588v62.509a2.382,2.382,0,1,1-4.764,0V452.206a1.587,1.587,0,0,0-1.588-1.588h-6.352a1.588,1.588,0,0,0-1.588,1.588v35.621a2.382,2.382,0,1,1-4.764,0V425.319a1.588,1.588,0,0,0-3.176,0v26.888a1.588,1.588,0,1,1-3.175,0V425.319a4.769,4.769,0,0,1,4.764-4.764h22.229a4.769,4.769,0,0,1,4.764,4.764v26.888a1.588,1.588,0,1,1-3.175,0V425.319A1.588,1.588,0,0,0,175.674,423.731Z" transform="translate(0 -3.56)"/>
      <path id="Trazado_197556" data-name="Trazado 197556" d="M166.364,410.644a11.115,11.115,0,1,0-11.116-11.116,11.128,11.128,0,0,0,11.116,11.116Zm0-19.055a7.94,7.94,0,1,1-7.94,7.94,7.948,7.948,0,0,1,7.94-7.94Z" transform="translate(-1.874)"/>
    </g>
  </g>
</svg>
