<svg xmlns="http://www.w3.org/2000/svg" width="133" height="133" viewBox="0 0 133 133">
  <g id="Grupo_163125" data-name="Grupo 163125" transform="translate(-1077 -2569)">
    <g id="Elipse_18059" data-name="Elipse 18059" transform="translate(1077 2569)" fill="#fff" stroke="#c6412a" stroke-width="4">
      <circle cx="66.5" cy="66.5" r="66.5" stroke="none"/>
      <circle cx="66.5" cy="66.5" r="64.5" fill="none"/>
    </g>
    <g id="Grupo_158066" data-name="Grupo 158066" transform="translate(1091.024 2192.131)">
      <path id="Trazado_197346" data-name="Trazado 197346" d="M94.05,451.261a4.391,4.391,0,0,0-6.209,0L77.65,461.232a3.765,3.765,0,0,1-2.662,1.1h-19.4a4.478,4.478,0,0,1-4.516-4.193,4.4,4.4,0,0,1,4.394-4.6h7.859a4.05,4.05,0,0,0,4.079-3.9,4,4,0,0,0-4-4.09H46.791a16.411,16.411,0,0,0-12.631,5.933,8.591,8.591,0,0,1-6.747,3.274H25.658v17.93H76.622a4.821,4.821,0,0,0,3.408-1.412l14.018-13.8a4.391,4.391,0,0,0,0-6.209Z" transform="translate(4.128 8.315)" fill="#ffb69f"/>
      <path id="Trazado_197347" data-name="Trazado 197347" d="M28.175,450.175H4.78v23.81H28.175a1.459,1.459,0,0,0,1.458-1.459V451.634a1.459,1.459,0,0,0-1.458-1.459Z" transform="translate(0.153 9.197)" fill="#6677d6"/>
      <path id="Trazado_197348" data-name="Trazado 197348" d="M76.14,468.356h-40.9a.956.956,0,1,1,0-1.913H76.092l13.992-13.772a.957.957,0,1,1,1.343,1.364l-14,13.776a1.8,1.8,0,0,1-1.289.544Zm-44.724,0H29.152a.956.956,0,1,1,0-1.913h2.264a.956.956,0,1,1,0,1.913Z" transform="translate(4.611 9.62)" fill="#fbe0e2"/>
      <path id="Trazado_197349" data-name="Trazado 197349" d="M21.833,469.02a.957.957,0,0,1-.957-.957v-.755a.956.956,0,0,1,1.913,0v.755A.956.956,0,0,1,21.833,469.02Zm0-4.582a.956.956,0,0,1-.957-.956v-9.951a.956.956,0,0,1,1.913,0v9.951A.955.955,0,0,1,21.833,464.438Z" transform="translate(3.218 9.654)" fill="#c5e5ff"/>
      <path id="Trazado_197350" data-name="Trazado 197350" d="M86.591,441.515H38.2a3.826,3.826,0,0,1-3.826-3.827v-6.839a3.826,3.826,0,0,1,3.826-3.827H86.591a3.826,3.826,0,0,1,3.827,3.827v6.839A3.826,3.826,0,0,1,86.591,441.515Z" transform="translate(5.788 4.789)" fill="#ffef0f"/>
      <circle id="Elipse_18264" data-name="Elipse 18264" cx="3.024" cy="3.024" r="3.024" transform="translate(47.145 436.033)" fill="#f2e1d6"/>
      <path id="Trazado_197351" data-name="Trazado 197351" d="M86.591,429.34H38.2a3.826,3.826,0,0,1-3.826-3.827v-6.839a3.827,3.827,0,0,1,3.826-3.827H86.591a3.827,3.827,0,0,1,3.827,3.827v6.839A3.827,3.827,0,0,1,86.591,429.34Z" transform="translate(5.788 2.471)" fill="#ffef0f"/>
      <circle id="Elipse_18265" data-name="Elipse 18265" cx="3.024" cy="3.024" r="3.024" transform="translate(47.145 421.541)" fill="#f2e1d6"/>
      <path id="Trazado_197352" data-name="Trazado 197352" d="M86.591,417.165H38.2a3.826,3.826,0,0,1-3.826-3.826V406.5a3.826,3.826,0,0,1,3.826-3.826H86.591a3.826,3.826,0,0,1,3.827,3.826v6.84A3.826,3.826,0,0,1,86.591,417.165Z" transform="translate(5.788 0.153)" fill="#ffef0f"/>
      <circle id="Elipse_18266" data-name="Elipse 18266" cx="3.024" cy="3.024" r="3.024" transform="translate(47.145 407.048)" fill="#f2e1d6"/>
      <path id="Trazado_197353" data-name="Trazado 197353" d="M91.3,450.73,81.109,460.7l-.007.007a2.838,2.838,0,0,1-1.986.824h-19.4a3.53,3.53,0,0,1-3.559-3.281,3.453,3.453,0,0,1,3.437-3.6h7.86a4.954,4.954,0,1,0,.085-9.908H50.919c-5.627,0-9.554,2.277-13.375,6.289-1.625,1.7-3.212,2.915-6,2.915h-.8v-1.279a2.42,2.42,0,0,0-2.415-2.415H19.475a.957.957,0,0,0,0,1.914h8.851a.5.5,0,0,1,.5.5V473.56a.5.5,0,0,1-.5.5H4.933a.957.957,0,1,0,0,1.913H28.325a2.417,2.417,0,0,0,2.4-2.186h50.02a5.736,5.736,0,0,0,4.084-1.692l0,0,2.587-2.549a.955.955,0,0,0,.012-1.351.978.978,0,0,0-1.351-.011l-2.6,2.556,0,0a3.836,3.836,0,0,1-2.733,1.133h-50V455.858h.8a9.553,9.553,0,0,0,7.494-3.632,15.409,15.409,0,0,1,11.886-5.571H67.536a3.049,3.049,0,0,1,3.038,3.111,3.091,3.091,0,0,1-3.122,2.97h-7.86a5.364,5.364,0,0,0-5.35,5.606,5.43,5.43,0,0,0,5.472,5.1h19.4a4.683,4.683,0,0,0,3.337-1.382h0l10.18-9.961.007-.007a3.433,3.433,0,1,1,4.857,4.852l0,0-5.959,5.866a.956.956,0,0,0-.011,1.355.981.981,0,0,0,1.355.008l5.965-5.875.008,0a5.348,5.348,0,0,0-7.555-7.57Z" transform="translate(0 8.162)"/>
      <path id="Trazado_197354" data-name="Trazado 197354" d="M76.629,463.587a.956.956,0,0,0,.012-1.355.981.981,0,0,0-1.355-.008.957.957,0,0,0,1.343,1.363Z" transform="translate(13.523 11.44)"/>
      <circle id="Elipse_18267" data-name="Elipse 18267" cx="0.957" cy="0.957" r="0.957" transform="translate(14.691 458.414)"/>
      <path id="Trazado_197355" data-name="Trazado 197355" d="M4.933,449.37a.957.957,0,0,0,0,1.914h6.888a.957.957,0,0,0,0-1.914Z" transform="translate(0 9.044)"/>
      <path id="Trazado_197356" data-name="Trazado 197356" d="M50.919,434.219h14.9a.956.956,0,1,0,0-1.913h-14.9a.956.956,0,1,0,0,1.913Z" transform="translate(8.755 5.795)"/>
      <path id="Trazado_197357" data-name="Trazado 197357" d="M68.353,432.7h.454a.957.957,0,0,0,0-1.914h-.454a.957.957,0,0,0,0,1.914Z" transform="translate(12.075 5.505)"/>
      <path id="Trazado_197358" data-name="Trazado 197358" d="M70.689,435.74h.455a.956.956,0,0,0,0-1.913h-.455a.956.956,0,1,0,0,1.913Z" transform="translate(12.519 6.085)"/>
      <path id="Trazado_197359" data-name="Trazado 197359" d="M73.025,432.7h.454a.957.957,0,0,0,0-1.914h-.454a.957.957,0,0,0,0,1.914Z" transform="translate(12.964 5.505)"/>
      <path id="Trazado_197360" data-name="Trazado 197360" d="M75.361,435.74h.455a.956.956,0,0,0,0-1.913h-.455a.956.956,0,1,0,0,1.913Z" transform="translate(13.409 6.085)"/>
      <path id="Trazado_197361" data-name="Trazado 197361" d="M43.418,437.726a3.98,3.98,0,1,0-3.981-3.981A3.985,3.985,0,0,0,43.418,437.726Zm0-6.047a2.067,2.067,0,1,1-2.068,2.067A2.069,2.069,0,0,1,43.418,431.679Z" transform="translate(6.752 5.311)"/>
      <path id="Trazado_197362" data-name="Trazado 197362" d="M65.823,420.131h-14.9a.956.956,0,1,0,0,1.913h14.9a.956.956,0,1,0,0-1.913Z" transform="translate(8.755 3.477)"/>
      <path id="Trazado_197363" data-name="Trazado 197363" d="M68.807,418.608h-.454a.956.956,0,1,0,0,1.913h.454a.956.956,0,1,0,0-1.913Z" transform="translate(12.075 3.187)"/>
      <path id="Trazado_197364" data-name="Trazado 197364" d="M71.143,421.652h-.454a.956.956,0,1,0,0,1.913h.454a.956.956,0,1,0,0-1.913Z" transform="translate(12.519 3.767)"/>
      <path id="Trazado_197365" data-name="Trazado 197365" d="M73.479,418.608h-.454a.956.956,0,1,0,0,1.913h.454a.956.956,0,1,0,0-1.913Z" transform="translate(12.964 3.187)"/>
      <path id="Trazado_197366" data-name="Trazado 197366" d="M75.816,421.652h-.455a.956.956,0,1,0,0,1.913h.455a.956.956,0,0,0,0-1.913Z" transform="translate(13.409 3.767)"/>
      <path id="Trazado_197367" data-name="Trazado 197367" d="M43.418,417.591a3.981,3.981,0,1,0,3.981,3.981A3.985,3.985,0,0,0,43.418,417.591Zm0,6.047a2.067,2.067,0,1,1,2.067-2.066A2.069,2.069,0,0,1,43.418,423.638Z" transform="translate(6.752 2.993)"/>
      <path id="Trazado_197368" data-name="Trazado 197368" d="M49.962,408.913a.957.957,0,0,0,.957.957h14.9a.957.957,0,1,0,0-1.914h-14.9A.957.957,0,0,0,49.962,408.913Z" transform="translate(8.755 1.159)"/>
      <path id="Trazado_197369" data-name="Trazado 197369" d="M68.807,408.347a.957.957,0,1,0,0-1.914h-.454a.957.957,0,1,0,0,1.914Z" transform="translate(12.075 0.869)"/>
      <path id="Trazado_197370" data-name="Trazado 197370" d="M71.143,411.391a.957.957,0,0,0,0-1.914h-.454a.957.957,0,0,0,0,1.914Z" transform="translate(12.519 1.449)"/>
      <path id="Trazado_197371" data-name="Trazado 197371" d="M73.479,408.347a.957.957,0,1,0,0-1.914h-.454a.957.957,0,1,0,0,1.914Z" transform="translate(12.964 0.869)"/>
      <path id="Trazado_197372" data-name="Trazado 197372" d="M75.816,411.391a.957.957,0,0,0,0-1.914h-.455a.957.957,0,1,0,0,1.914Z" transform="translate(13.409 1.449)"/>
      <path id="Trazado_197373" data-name="Trazado 197373" d="M39.437,409.4a3.981,3.981,0,1,0,3.981-3.98,3.985,3.985,0,0,0-3.981,3.98Zm6.047,0a2.067,2.067,0,1,1-2.067-2.067A2.069,2.069,0,0,1,45.484,409.4Z" transform="translate(6.752 0.675)"/>
      <path id="Trazado_197374" data-name="Trazado 197374" d="M91.529,413.492v-6.839a4.791,4.791,0,0,0-4.784-4.784h-23.8a.957.957,0,0,0,0,1.914h23.8a2.88,2.88,0,0,1,2.87,2.87v6.839a2.882,2.882,0,0,1-2.87,2.87H38.355a2.884,2.884,0,0,1-2.87-2.87v-6.839a2.882,2.882,0,0,1,2.87-2.87H55.289a.957.957,0,1,0,0-1.914H38.355a4.791,4.791,0,0,0-4.784,4.784v6.839a4.774,4.774,0,0,0,1.927,3.826,4.775,4.775,0,0,0-1.926,3.827v6.839a4.775,4.775,0,0,0,1.926,3.827,4.772,4.772,0,0,0-1.926,3.827v6.839a4.788,4.788,0,0,0,4.783,4.783H86.745a4.789,4.789,0,0,0,4.784-4.783v-6.839a4.772,4.772,0,0,0-1.926-3.827,4.779,4.779,0,0,0,1.926-3.827v-6.839a4.779,4.779,0,0,0-1.926-3.827,4.778,4.778,0,0,0,1.926-3.826Zm-1.914,22.146v6.839a2.872,2.872,0,0,1-2.87,2.87H38.355a2.873,2.873,0,0,1-2.87-2.87v-6.839a2.873,2.873,0,0,1,2.87-2.87H86.745a2.873,2.873,0,0,1,2.87,2.87Zm0-7.654a2.872,2.872,0,0,1-2.87,2.87H38.355a2.873,2.873,0,0,1-2.87-2.87v-6.839a2.874,2.874,0,0,1,2.87-2.87H86.745a2.873,2.873,0,0,1,2.87,2.87Z" transform="translate(5.635 0)"/>
      <circle id="Elipse_18268" data-name="Elipse 18268" cx="0.957" cy="0.957" r="0.957" transform="translate(63.793 401.869)"/>
    </g>
  </g>
</svg>
