<svg xmlns="http://www.w3.org/2000/svg" width="133" height="133" viewBox="0 0 133 133">
  <g id="Grupo_163124" data-name="Grupo 163124" transform="translate(-390 -2356)">
    <g id="Elipse_18057" data-name="Elipse 18057" transform="translate(390 2356)" fill="#fff" stroke="#c6412a" stroke-width="4">
      <circle cx="66.5" cy="66.5" r="66.5" stroke="none"/>
      <circle cx="66.5" cy="66.5" r="64.5" fill="none"/>
    </g>
    <g id="Grupo_158065" data-name="Grupo 158065" transform="translate(402.998 1992.587)">
      <g id="Grupo_158064" data-name="Grupo 158064" transform="translate(9.055 385.888)">
        <g id="Grupo_158058" data-name="Grupo 158058" transform="translate(25.458 52.766)">
          <path id="Trazado_197333" data-name="Trazado 197333" d="M79.689,461.243v23.942c0,3.253-8.286,5.891-18.507,5.891s-18.507-2.637-18.507-5.891V461.243c0-3.253,8.286-5.891,18.507-5.891S79.689,457.989,79.689,461.243Z" transform="translate(-42.675 -455.352)" fill="#ffef0f" fill-rule="evenodd"/>
          <path id="Trazado_197334" data-name="Trazado 197334" d="M84.95,461.243v23.942c0,3.253-8.286,5.891-18.507,5.891q-.717,0-1.42-.017c9.558-.231,17.087-2.772,17.087-5.874V461.243c0-3.1-7.529-5.642-17.087-5.873q.7-.017,1.42-.018c10.221,0,18.507,2.637,18.507,5.891Z" transform="translate(-47.935 -455.352)" fill="#ffef0f" fill-rule="evenodd"/>
          <path id="Trazado_197335" data-name="Trazado 197335" d="M42.675,475.027c0,3.253,8.286,5.891,18.507,5.891s18.507-2.637,18.507-5.891V463.056c0,3.253-8.286,5.891-18.507,5.891s-18.507-2.637-18.507-5.891Z" transform="translate(-42.675 -457.165)" fill="#ffef0f" fill-rule="evenodd"/>
          <path id="Trazado_197336" data-name="Trazado 197336" d="M87.37,478.163c1.8-.908,2.84-1.983,2.84-3.136V463.056c0,1.153-1.041,2.228-2.84,3.136Z" transform="translate(-53.196 -457.165)" fill="#ffef0f" fill-rule="evenodd"/>
        </g>
        <g id="Grupo_158059" data-name="Grupo 158059" transform="translate(0 6.726)">
          <circle id="Elipse_18262" data-name="Elipse 18262" cx="13.645" cy="13.645" r="13.645" fill="#6677d6"/>
        </g>
        <g id="Grupo_158063" data-name="Grupo 158063" transform="translate(31.489)">
          <g id="Grupo_158061" data-name="Grupo 158061">
            <path id="Trazado_197337" data-name="Trazado 197337" d="M51.853,386.342H68.747a1.249,1.249,0,0,1,.913.378l5.478,5.478a1.246,1.246,0,0,1,.378.913v27.315a1.293,1.293,0,0,1-1.291,1.291H51.853a1.293,1.293,0,0,1-1.291-1.291V387.633a1.293,1.293,0,0,1,1.291-1.291Z" transform="translate(-50.562 -386.342)" fill="#eceff1" fill-rule="evenodd"/>
            <g id="Grupo_158060" data-name="Grupo 158060">
              <path id="Trazado_197338" data-name="Trazado 197338" d="M51.853,386.342h1.1v35.374h-1.1a1.293,1.293,0,0,1-1.291-1.291V387.633A1.293,1.293,0,0,1,51.853,386.342Z" transform="translate(-50.562 -386.342)" fill="#d1d1d6" fill-rule="evenodd"/>
              <path id="Trazado_197339" data-name="Trazado 197339" d="M75.782,392.61h5.384a1.311,1.311,0,0,0-.266-.378l-5.478-5.478a1.291,1.291,0,0,0-.378-.266v5.384A.74.74,0,0,0,75.782,392.61Z" transform="translate(-56.325 -386.376)" fill="#d1d1d6" fill-rule="evenodd"/>
            </g>
          </g>
          <g id="Grupo_158062" data-name="Grupo 158062" transform="translate(30.592 4.548)">
            <path id="Trazado_197340" data-name="Trazado 197340" d="M92.9,392.29h22.178a2.332,2.332,0,0,1,2.325,2.325v34.262a2.332,2.332,0,0,1-2.325,2.326H92.9a2.333,2.333,0,0,1-2.326-2.326V394.615A2.332,2.332,0,0,1,92.9,392.29Z" transform="translate(-90.572 -392.29)" fill="#6677d6" fill-rule="evenodd"/>
            <path id="Trazado_197341" data-name="Trazado 197341" d="M115.528,392.345a2.334,2.334,0,0,1,1.886,2.283v34.263a2.332,2.332,0,0,1-2.325,2.325H92.911a2.335,2.335,0,0,1-2.284-1.886,2.325,2.325,0,0,0,.44.042h22.178a2.332,2.332,0,0,0,2.325-2.325V392.785A2.322,2.322,0,0,0,115.528,392.345Z" transform="translate(-90.585 -392.303)" fill="#6677d6" fill-rule="evenodd"/>
            <path id="Trazado_197342" data-name="Trazado 197342" d="M106.072,408.5a6.659,6.659,0,0,1,6.637,6.118.5.5,0,0,1-.5.541H99.935a.5.5,0,0,1-.5-.541,6.66,6.66,0,0,1,6.637-6.118Z" transform="translate(-92.658 -396.105)" fill="#6677d6" fill-rule="evenodd"/>
            <path id="Trazado_197343" data-name="Trazado 197343" d="M107.962,408.5a6.659,6.659,0,0,1,6.637,6.118.5.5,0,0,1-.5.541h-1a.5.5,0,0,0,.5-.541,6.659,6.659,0,0,0-6.136-6.1c.165-.013.333-.019.5-.019Z" transform="translate(-94.547 -396.105)" fill="#6677d6" fill-rule="evenodd"/>
            <circle id="Elipse_18263" data-name="Elipse 18263" cx="3.367" cy="3.367" r="3.367" transform="translate(10.067 5.169)" fill="#6677d6"/>
            <path id="Trazado_197344" data-name="Trazado 197344" d="M108.018,399.065a3.367,3.367,0,1,1,0,6.733c-.108,0-.214-.005-.32-.015a3.367,3.367,0,0,0,0-6.7C107.8,399.07,107.91,399.065,108.018,399.065Z" transform="translate(-94.603 -393.885)" fill="#6677d6" fill-rule="evenodd"/>
          </g>
        </g>
      </g>
      <path id="Trazado_197345" data-name="Trazado 197345" d="M84.55,404.026a5.191,5.191,0,0,1,4.969,3.708H79.582A5.189,5.189,0,0,1,84.55,404.026Zm0-6.732a1.892,1.892,0,1,1-1.892,1.892A1.893,1.893,0,0,1,84.55,397.294Zm-6.657,13.39H91.209a1.475,1.475,0,0,0,1.475-1.475,8.14,8.14,0,0,0-4.246-7.142,4.842,4.842,0,1,0-7.774,0,8.14,8.14,0,0,0-4.246,7.142A1.475,1.475,0,0,0,77.893,410.684Zm15.589,6.111a1.475,1.475,0,0,1-1.475,1.475H77.095a1.475,1.475,0,1,1,0-2.95H92.007A1.477,1.477,0,0,1,93.482,416.794Zm0,5.417a1.475,1.475,0,0,1-1.475,1.475H77.095a1.475,1.475,0,1,1,0-2.95H92.007A1.475,1.475,0,0,1,93.482,422.211Zm3.009,4.813V392.763a.862.862,0,0,0-.849-.852H73.461a.861.861,0,0,0-.849.852v34.261a.86.86,0,0,0,.849.849h22.18a.86.86,0,0,0,.849-.849Zm-.849-38.062H73.461a3.806,3.806,0,0,0-3.8,3.8v34.261a3.8,3.8,0,0,0,3.8,3.8h22.18a3.8,3.8,0,0,0,3.8-3.8V392.763a3.8,3.8,0,0,0-3.8-3.8Zm-65.593,65.53a1.476,1.476,0,0,1-.647,1.221l-5.213,3.538a1.476,1.476,0,0,1-1.656-2.443l1.242-.84H16.041a1.475,1.475,0,0,1-1.475-1.476V427.5a1.475,1.475,0,1,1,2.949,0v25.513h6.258l-1.241-.843a1.475,1.475,0,1,1,1.656-2.441l5.213,3.537A1.477,1.477,0,0,1,30.048,454.492Zm61.426-19.373v19.373A1.474,1.474,0,0,1,90,455.968H82.267l1.241.84a1.476,1.476,0,1,1-1.655,2.443l-5.214-3.538a1.475,1.475,0,0,1,0-2.441l5.214-3.538a1.475,1.475,0,1,1,1.655,2.441l-1.241.843h6.257v-17.9a1.475,1.475,0,0,1,2.95,0ZM54.495,424.854v5.341l.843-1.241a1.474,1.474,0,0,1,2.44,1.655l-3.536,5.214a1.475,1.475,0,0,1-2.441,0l-3.537-5.214a1.475,1.475,0,0,1,2.441-1.655l.842,1.241v-5.341a1.475,1.475,0,1,1,2.949,0Zm6.718-14.927a1.475,1.475,0,0,1-1.475,1.475H46.3a1.475,1.475,0,0,1,0-2.95H59.738A1.475,1.475,0,0,1,61.213,409.927Zm0-11.9a1.476,1.476,0,0,1-1.475,1.475H46.3a1.475,1.475,0,1,1,0-2.95H59.738A1.475,1.475,0,0,1,61.213,398.026Zm-16.384-5.951A1.475,1.475,0,0,1,46.3,390.6h8.308a1.475,1.475,0,1,1,0,2.949H46.3a1.475,1.475,0,0,1-1.475-1.474Zm16.384,11.9a1.475,1.475,0,0,1-1.475,1.475H46.3a1.475,1.475,0,0,1,0-2.95H59.738A1.475,1.475,0,0,1,61.213,403.976Zm0,11.9a1.477,1.477,0,0,1-1.475,1.475H46.3a1.475,1.475,0,0,1,0-2.95H59.738A1.476,1.476,0,0,1,61.213,415.878ZM42.019,387.363v32.426h22V393.6h-4.76a1.475,1.475,0,0,1-1.474-1.475v-4.76Zm18.719,2.085,1.2,1.2h-1.2Zm-20.194,33.29H65.5a1.475,1.475,0,0,0,1.475-1.475V392.123a1.474,1.474,0,0,0-.431-1.044l-6.234-6.235a1.476,1.476,0,0,0-1.044-.432H40.544a1.475,1.475,0,0,0-1.475,1.475v35.375a1.476,1.476,0,0,0,1.475,1.475Zm-8.737-9.269c-.424-.216-.869-.415-1.329-.6a16.887,16.887,0,0,0,1.29-5.179H34.24A11.635,11.635,0,0,1,31.807,413.469Zm-20.759-5.776h2.472a16.932,16.932,0,0,0,1.291,5.179c-.46.182-.9.382-1.328.6A11.636,11.636,0,0,1,11.047,407.693Zm2.434-8.727c.423.216.865.414,1.322.6a16.777,16.777,0,0,0-1.287,5.182H11.047A11.653,11.653,0,0,1,13.481,398.966Zm10.638,5.777v-3.825a22.322,22.322,0,0,0,3.523-.486,13.8,13.8,0,0,1,1.168,4.312Zm0,6.775v-3.825h4.686A13.95,13.95,0,0,1,27.635,412,22.228,22.228,0,0,0,24.119,411.518Zm4.952,3.974q.228.083.45.173a10.9,10.9,0,0,1-1.054.684C28.678,416.072,28.879,415.784,29.072,415.493Zm-4.952,1.219v-2.231c.639.044,1.272.117,1.894.219A13.84,13.84,0,0,1,24.119,416.712Zm-7.3-.362a11.322,11.322,0,0,1-1.054-.684c.148-.061.3-.118.45-.174C16.409,415.784,16.611,416.072,16.82,416.35Zm4.349-1.869v2.231a13.84,13.84,0,0,1-1.894-2.012C19.9,414.6,20.529,414.525,21.169,414.481Zm0-6.787v3.825a22.308,22.308,0,0,0-3.516.485,13.95,13.95,0,0,1-1.171-4.31Zm0-6.775v3.826H16.478a13.819,13.819,0,0,1,1.168-4.312A22.434,22.434,0,0,0,21.169,400.918Zm-4.958-3.976q-.226-.084-.446-.171a11.618,11.618,0,0,1,1.044-.679Q16.5,396.507,16.212,396.942Zm4.958-1.221v2.235c-.641-.044-1.277-.119-1.9-.222A14.005,14.005,0,0,1,21.169,395.721Zm7.309.371a11.594,11.594,0,0,1,1.043.679q-.218.088-.444.171Q28.79,396.507,28.478,396.092Zm-4.359-.371a14.047,14.047,0,0,1,1.9,2.013c-.622.1-1.259.177-1.9.222Zm10.122,9.022h-2.47a16.76,16.76,0,0,0-1.286-5.182q.686-.272,1.321-.6a11.654,11.654,0,0,1,2.435,5.777Zm-11.6-13.168a14.643,14.643,0,1,0,14.642,14.643A14.659,14.659,0,0,0,22.644,391.575Zm33.7,76.816a1.474,1.474,0,0,1-1.474,1.474H51.167a1.475,1.475,0,1,1,0-2.949h3.707A1.475,1.475,0,0,1,56.348,468.391Zm0-11.97a1.474,1.474,0,0,1-1.474,1.474H51.167a1.475,1.475,0,1,1,0-2.949h3.707A1.474,1.474,0,0,1,56.348,456.421Zm9.311-9.116a43.468,43.468,0,0,1-12.638,1.655A43.47,43.47,0,0,1,40.382,447.3c-3.223-1.027-4.393-2.212-4.393-2.76s1.171-1.734,4.393-2.759a43.442,43.442,0,0,1,12.639-1.656,43.44,43.44,0,0,1,12.638,1.656c3.224,1.025,4.393,2.212,4.393,2.759S68.883,446.278,65.659,447.3Zm0,11.97c3.224-1.025,4.393-2.213,4.393-2.76v-7.9a17.141,17.141,0,0,1-3.5,1.5,46.471,46.471,0,0,1-13.533,1.794,46.476,46.476,0,0,1-13.534-1.794,17.17,17.17,0,0,1-3.5-1.5v7.9c0,.547,1.171,1.734,4.393,2.76a43.419,43.419,0,0,0,12.639,1.657A43.413,43.413,0,0,0,65.659,459.275Zm0,11.971c3.224-1.027,4.393-2.212,4.393-2.759v-7.9a16.971,16.971,0,0,1-3.5,1.5,46.415,46.415,0,0,1-13.533,1.8,46.421,46.421,0,0,1-13.534-1.8,16.959,16.959,0,0,1-3.5-1.5v7.9c0,.547,1.171,1.733,4.393,2.759A43.475,43.475,0,0,0,53.021,472.9,43.469,43.469,0,0,0,65.659,471.246Zm.895-32.273a46.421,46.421,0,0,0-13.533-1.794,46.426,46.426,0,0,0-13.534,1.794c-5.329,1.7-6.448,3.965-6.448,5.571v23.942c0,1.6,1.119,3.874,6.448,5.571a46.477,46.477,0,0,0,13.534,1.794,46.472,46.472,0,0,0,13.533-1.794c5.329-1.7,6.448-3.967,6.448-5.571V444.544C73,442.939,71.883,440.67,66.554,438.973Z" fill-rule="evenodd"/>
    </g>
  </g>
</svg>
