<svg id="Grupo_163145" data-name="Grupo 163145" xmlns="http://www.w3.org/2000/svg" width="70" height="84.671" viewBox="0 0 70 84.671">
  <path id="Trazado_159987" data-name="Trazado 159987" d="M733.305-2863.349q0,15.4,0,30.81a5.547,5.547,0,0,1-4.309,5.78,7.174,7.174,0,0,1-1.626.138q-23.517.01-47.035,0c-3.682,0-5.967-2.291-5.977-5.967,0-1.438-.027-2.877.012-4.314.016-.585-.126-.8-.751-.779-1.495.047-2.992.024-4.487.013a5.524,5.524,0,0,1-5.818-5.864q-.01-30.939,0-61.879a5.515,5.515,0,0,1,5.892-5.874q23.561-.01,47.121,0a5.534,5.534,0,0,1,5.933,5.922c.006,1.438.032,2.877-.013,4.314-.02.625.117.853.795.826,1.465-.057,2.934-.024,4.4-.016a5.528,5.528,0,0,1,5.863,5.905Q733.314-2878.841,733.305-2863.349Zm-14.762-11.083q0-15.359,0-30.719c0-1.915-.55-2.463-2.462-2.463h-46.6c-1.911,0-2.462.55-2.462,2.463q0,30.675,0,61.351c0,1.91.556,2.465,2.462,2.465h46.509c2.026,0,2.549-.522,2.549-2.551Q718.544-2859.159,718.544-2874.432Zm11.047,11q0-15.447,0-30.893c0-1.613-.638-2.239-2.249-2.243-1.381,0-2.765.056-4.141-.022-.818-.046-.958.234-.957.987.021,17.288-.012,34.575.039,51.863a5.808,5.808,0,0,1-6.066,6.106c-5.924-.11-11.851-.031-17.776-.031-6.5,0-13,.013-19.5-.018-.737,0-.911.216-.882.913.055,1.321.015,2.646.016,3.969,0,1.973.539,2.512,2.5,2.512h46.512c1.967,0,2.506-.538,2.506-2.508Q729.592-2848.114,729.591-2863.431Z" transform="translate(-663.307 2911.288)" fill="#040404"/>
  <path id="Trazado_159988" data-name="Trazado 159988" d="M730.936-2862.186q0,15.274,0,30.546c0,2.029-.522,2.552-2.548,2.552H681.878c-1.906,0-2.462-.555-2.462-2.466q0-30.675,0-61.351c0-1.912.552-2.463,2.463-2.463h46.6c1.912,0,2.462.549,2.462,2.464Q730.937-2877.544,730.936-2862.186Zm-25.754-25.8a14.679,14.679,0,0,0-14.719,14.66A14.689,14.689,0,0,0,705-2858.566a14.68,14.68,0,0,0,14.888-14.488A14.66,14.66,0,0,0,705.182-2887.984Zm7.417,37.708c3.017,0,6.034.013,9.051-.007a1.835,1.835,0,0,0,1.943-1.858,1.839,1.839,0,0,0-1.929-1.8q-9.137-.018-18.274,0a1.783,1.783,0,0,0-1.679,1,1.81,1.81,0,0,0,1.751,2.655C706.508-2850.257,709.554-2850.274,712.6-2850.276Zm0,7.38c-3.017,0-6.034-.007-9.05,0a1.83,1.83,0,0,0-2.033,1.843,1.776,1.776,0,0,0,1.959,1.818q9.051.018,18.1.006a2,2,0,0,0,1.224-.327,1.829,1.829,0,0,0,.684-2.058,1.794,1.794,0,0,0-1.833-1.279C718.634-2842.9,715.617-2842.895,712.6-2842.9Zm-20.391-7.378c1.206,0,2.411.016,3.617,0a1.784,1.784,0,0,0,1.962-1.812,1.8,1.8,0,0,0-1.937-1.846q-3.574-.027-7.147,0a1.842,1.842,0,0,0-1.942,1.864,1.838,1.838,0,0,0,1.918,1.79C689.855-2850.257,691.032-2850.276,692.209-2850.274Zm.015,11.044c1.234,0,2.469.022,3.7-.007a1.764,1.764,0,0,0,1.862-1.822,1.784,1.784,0,0,0-1.867-1.829q-3.617-.036-7.234,0a1.841,1.841,0,0,0-1.927,1.792,1.842,1.842,0,0,0,1.933,1.862C689.87-2839.21,691.047-2839.229,692.224-2839.23Z" transform="translate(-675.7 2899.04)" fill="#f3f9ff"/>
  <path id="Trazado_159989" data-name="Trazado 159989" d="M778.761-2814.43q0,15.317,0,30.634c0,1.97-.539,2.509-2.506,2.509H729.742c-1.963,0-2.5-.54-2.5-2.513,0-1.323.039-2.648-.016-3.969-.029-.7.146-.916.883-.913,6.5.031,13,.019,19.5.019,5.925,0,11.853-.079,17.776.03a5.807,5.807,0,0,0,6.066-6.106c-.05-17.287-.017-34.575-.039-51.863,0-.753.14-1.033.957-.987,1.376.077,2.76.018,4.141.021,1.612.005,2.248.631,2.249,2.244Q778.764-2829.876,778.761-2814.43Z" transform="translate(-712.477 2862.287)" fill="#dee4f0"/>
  <path id="Trazado_159990" data-name="Trazado 159990" d="M742.025-2863.363a14.66,14.66,0,0,1,14.7,14.929,14.68,14.68,0,0,1-14.888,14.489,14.688,14.688,0,0,1-14.532-14.76A14.677,14.677,0,0,1,742.025-2863.363Zm-.009,3.663a11.075,11.075,0,0,0-11.043,10.919,11.055,11.055,0,0,0,10.962,11.171,11.053,11.053,0,0,0,11.126-11A11.053,11.053,0,0,0,742.016-2859.7Z" transform="translate(-712.542 2874.419)" fill="#020202"/>
  <path id="Trazado_159991" data-name="Trazado 159991" d="M786.207-2712.131c-3.046,0-6.091.018-9.137-.007a1.809,1.809,0,0,1-1.751-2.654,1.784,1.784,0,0,1,1.679-1q9.137,0,18.274,0a1.839,1.839,0,0,1,1.929,1.8,1.835,1.835,0,0,1-1.942,1.858C792.241-2712.119,789.224-2712.132,786.207-2712.131Z" transform="translate(-749.307 2760.897)" fill="#020202"/>
  <path id="Trazado_159992" data-name="Trazado 159992" d="M786.3-2667.916c3.017,0,6.034-.007,9.051,0a1.794,1.794,0,0,1,1.833,1.279,1.827,1.827,0,0,1-.684,2.057,2,2,0,0,1-1.224.328q-9.051,0-18.1-.006a1.775,1.775,0,0,1-1.959-1.817,1.83,1.83,0,0,1,2.033-1.843C780.27-2667.922,783.287-2667.916,786.3-2667.916Z" transform="translate(-749.403 2724.06)" fill="#020202"/>
  <path id="Trazado_159993" data-name="Trazado 159993" d="M716.7-2712.155c-1.177,0-2.354.018-3.531-.006a1.838,1.838,0,0,1-1.918-1.791,1.841,1.841,0,0,1,1.942-1.863q3.573-.028,7.147,0a1.8,1.8,0,0,1,1.937,1.846,1.785,1.785,0,0,1-1.962,1.813C719.115-2712.136,717.909-2712.153,716.7-2712.155Z" transform="translate(-700.194 2760.919)" fill="#020202"/>
  <path id="Trazado_159994" data-name="Trazado 159994" d="M716.716-2664.27c-1.177,0-2.354.02-3.531,0a1.843,1.843,0,0,1-1.933-1.863,1.84,1.84,0,0,1,1.927-1.792q3.617-.029,7.234,0a1.784,1.784,0,0,1,1.867,1.829,1.764,1.764,0,0,1-1.862,1.822C719.186-2664.248,717.951-2664.27,716.716-2664.27Z" transform="translate(-700.192 2724.08)" fill="#020202"/>
  <path id="Trazado_159995" data-name="Trazado 159995" d="M754.246-2847.481a11.053,11.053,0,0,1,11.045,11.087,11.051,11.051,0,0,1-11.126,11,11.055,11.055,0,0,1-10.962-11.17A11.075,11.075,0,0,1,754.246-2847.481Zm7.333,7.324a1.769,1.769,0,0,0-1.135-1.631,1.806,1.806,0,0,0-2.112.5c-1.79,1.785-3.6,3.552-5.348,5.375-.49.51-.751.444-1.169-.031-.53-.6-1.114-1.161-1.7-1.708a1.835,1.835,0,0,0-2.688-.033,1.828,1.828,0,0,0,.086,2.625c1.158,1.2,2.333,2.38,3.535,3.532a1.784,1.784,0,0,0,2.744-.021c2.41-2.382,4.8-4.79,7.194-7.184A1.958,1.958,0,0,0,761.579-2840.157Z" transform="translate(-724.772 2862.201)" fill="#c6412a"/>
  <path id="Trazado_159996" data-name="Trazado 159996" d="M773.941-2821.687a1.958,1.958,0,0,1-.595,1.43c-2.4,2.394-4.784,4.8-7.194,7.184a1.783,1.783,0,0,1-2.744.021c-1.2-1.152-2.377-2.334-3.535-3.532a1.827,1.827,0,0,1-.086-2.625,1.836,1.836,0,0,1,2.688.033c.588.547,1.171,1.106,1.7,1.708.418.474.678.541,1.169.03,1.75-1.823,3.558-3.589,5.348-5.374a1.806,1.806,0,0,1,2.112-.505A1.768,1.768,0,0,1,773.941-2821.687Z" transform="translate(-737.135 2843.732)" fill="#fff"/>
</svg>
