<?xml version="1.0" encoding="UTF-8" standalone="no"?>
<svg
   xmlns:dc="http://purl.org/dc/elements/1.1/"
   xmlns:cc="http://creativecommons.org/ns#"
   xmlns:rdf="http://www.w3.org/1999/02/22-rdf-syntax-ns#"
   xmlns:svg="http://www.w3.org/2000/svg"
   xmlns="http://www.w3.org/2000/svg"
   xmlns:sodipodi="http://sodipodi.sourceforge.net/DTD/sodipodi-0.dtd"
   xmlns:inkscape="http://www.inkscape.org/namespaces/inkscape"
   width="1030"
   height="841.93701"
   viewBox="0 0 1030 841.93701"
   version="1.1"
   id="svg316"
   sodipodi:docname="t1-i17.66892f0b.svg"
   inkscape:version="0.92.3 (2405546, 2018-03-11)">
  <metadata
     id="metadata320">
    <rdf:RDF>
      <cc:Work
         rdf:about="">
        <dc:format>image/svg+xml</dc:format>
        <dc:type
           rdf:resource="http://purl.org/dc/dcmitype/StillImage" />
        <dc:title></dc:title>
      </cc:Work>
    </rdf:RDF>
  </metadata>
  <sodipodi:namedview
     pagecolor="#ffffff"
     bordercolor="#666666"
     borderopacity="1"
     objecttolerance="10"
     gridtolerance="10"
     guidetolerance="10"
     inkscape:pageopacity="0"
     inkscape:pageshadow="2"
     inkscape:window-width="1366"
     inkscape:window-height="705"
     id="namedview318"
     showgrid="false"
     inkscape:zoom="0.61923332"
     inkscape:cx="597.29904"
     inkscape:cy="623.73296"
     inkscape:window-x="-8"
     inkscape:window-y="-8"
     inkscape:window-maximized="1"
     inkscape:current-layer="Grupo_163242"
     fit-margin-top="0"
     fit-margin-left="0"
     fit-margin-right="0"
     fit-margin-bottom="0" />
  <defs
     id="defs57">
    <filter
       id="Elipse_18349"
       x="82.499001"
       y="151.164"
       width="123.137"
       height="123.137"
       filterUnits="userSpaceOnUse">
      <feOffset
         dx="2"
         dy="2"
         input="SourceAlpha"
         id="feOffset2" />
      <feGaussianBlur
         stdDeviation="1.5"
         result="blur"
         id="feGaussianBlur4" />
      <feFlood
         flood-opacity="0.2"
         id="feFlood6" />
      <feComposite
         operator="in"
         in2="blur"
         id="feComposite8"
         result="result1" />
      <feComposite
         in="SourceGraphic"
         in2="result1"
         id="feComposite10" />
    </filter>
    <filter
       id="Elipse_18351"
       x="82.499001"
       y="500.39301"
       width="123.137"
       height="123.137"
       filterUnits="userSpaceOnUse">
      <feOffset
         dx="2"
         dy="2"
         input="SourceAlpha"
         id="feOffset13" />
      <feGaussianBlur
         stdDeviation="1.5"
         result="blur-2"
         id="feGaussianBlur15" />
      <feFlood
         flood-opacity="0.2"
         id="feFlood17" />
      <feComposite
         operator="in"
         in2="blur-2"
         id="feComposite19"
         result="result1" />
      <feComposite
         in="SourceGraphic"
         in2="result1"
         id="feComposite21" />
    </filter>
    <filter
       id="Elipse_18350"
       x="82.499001"
       y="343.164"
       width="123.137"
       height="123.137"
       filterUnits="userSpaceOnUse">
      <feOffset
         dx="2"
         dy="2"
         input="SourceAlpha"
         id="feOffset24" />
      <feGaussianBlur
         stdDeviation="1.5"
         result="blur-3"
         id="feGaussianBlur26" />
      <feFlood
         flood-opacity="0.2"
         id="feFlood28" />
      <feComposite
         operator="in"
         in2="blur-3"
         id="feComposite30"
         result="result1" />
      <feComposite
         in="SourceGraphic"
         in2="result1"
         id="feComposite32" />
    </filter>
    <filter
       id="Elipse_18352"
       x="82.499001"
       y="658.81299"
       width="123.137"
       height="123.137"
       filterUnits="userSpaceOnUse">
      <feOffset
         dx="2"
         dy="2"
         input="SourceAlpha"
         id="feOffset35" />
      <feGaussianBlur
         stdDeviation="1.5"
         result="blur-4"
         id="feGaussianBlur37" />
      <feFlood
         flood-opacity="0.2"
         id="feFlood39" />
      <feComposite
         operator="in"
         in2="blur-4"
         id="feComposite41"
         result="result1" />
      <feComposite
         in="SourceGraphic"
         in2="result1"
         id="feComposite43" />
    </filter>
    <filter
       id="Elipse_18353"
       x="82.499001"
       y="813.05603"
       width="123.137"
       height="123.137"
       filterUnits="userSpaceOnUse">
      <feOffset
         dx="2"
         dy="2"
         input="SourceAlpha"
         id="feOffset46" />
      <feGaussianBlur
         stdDeviation="1.5"
         result="blur-5"
         id="feGaussianBlur48" />
      <feFlood
         flood-opacity="0.2"
         id="feFlood50" />
      <feComposite
         operator="in"
         in2="blur-5"
         id="feComposite52"
         result="result1" />
      <feComposite
         in="SourceGraphic"
         in2="result1"
         id="feComposite54" />
    </filter>
  </defs>
  <g
     id="Grupo_163242"
     data-name="Grupo 163242"
     transform="translate(-285,-3727.1198)">
    <g
       id="g1837"
       transform="translate(0,-61.366207)">
      <g
         style="opacity:0.49900004"
         data-name="Grupo 163220"
         id="Grupo_163220">
        <path
           style="fill:#a4addc"
           inkscape:connector-curvature="0"
           transform="translate(-188.423,3043.589)"
           d="M 1430.781,1474.76 H 785.424 v -138.609 h 645.357 l 72.641,69.3 z"
           data-name="Trazado 201386"
           id="Trazado_201386" />
        <path
           inkscape:connector-curvature="0"
           style="isolation:isolate;mix-blend-mode:multiply;fill:#7f8cd8"
           transform="translate(-158.95,3043.589)"
           d="m 723.878,1523.239 32.071,-48.479 v -138.609 l -32.071,31.419 z"
           data-name="Trazado 201388"
           id="Trazado_201388" />
        <path
           style="fill:#a4addc"
           inkscape:connector-curvature="0"
           transform="translate(99.576,3014.714)"
           d="m 185.424,1396.446 h 280.587 v 155.668 l -140.293,63.595 -140.293,-63.595 z"
           data-name="Trazado 201389"
           id="Trazado_201389" />
        <path
           style="fill:#9888b8"
           inkscape:connector-curvature="0"
           transform="translate(-188.423,3170.974)"
           d="M 1430.781,1208.766 H 785.424 v -138.609 h 645.357 l 72.641,69.3 z"
           data-name="Trazado 201504"
           id="Trazado_201504" />
        <path
           style="fill:#7f8cd8"
           inkscape:connector-curvature="0"
           transform="translate(-158.95,3586.966)"
           d="m 723.878,201.52 32.071,36.819 v 138.608 l -32.071,-19.759 z"
           data-name="Trazado 201505"
           id="Trazado_201505" />
        <path
           style="fill:#6b529f"
           inkscape:connector-curvature="0"
           transform="translate(-158.95,3443.903)"
           d="m 755.95,658.619 -32.071,-2.7 V 500.252 l 32.071,19.759 z"
           data-name="Trazado 201507"
           id="Trazado_201507" />
        <path
           style="fill:#7f8cd8"
           inkscape:connector-curvature="0"
           transform="translate(-158.95,3300.84)"
           d="m 723.878,954.651 32.071,-14.36 V 801.683 l -32.071,-2.7 z"
           data-name="Trazado 201508"
           id="Trazado_201508" />
        <path
           style="fill:#6b529f"
           inkscape:connector-curvature="0"
           transform="translate(-158.95,3170.974)"
           d="m 723.878,1240.185 32.071,-31.419 v -138.609 l -32.071,14.36 z"
           data-name="Trazado 201509"
           id="Trazado_201509" />
        <path
           style="fill:#9888b8"
           inkscape:connector-curvature="0"
           transform="translate(99.576,3157.776)"
           d="m 185.424,1097.714 h 280.587 v 155.668 l -140.293,63.595 -140.293,-63.595 z"
           data-name="Trazado 201513"
           id="Trazado_201513" />
        <path
           style="fill:#a4addc"
           inkscape:connector-curvature="0"
           transform="translate(-188.423,3298.359)"
           d="M 1430.781,942.772 H 785.424 V 804.164 h 645.357 l 72.641,69.3 z"
           data-name="Trazado 201628"
           id="Trazado_201628" />
        <path
           style="fill:#9888b8"
           inkscape:connector-curvature="0"
           transform="translate(-188.423,3425.744)"
           d="M 1430.781,676.779 H 785.424 V 538.17 h 645.357 l 72.641,69.3 z"
           data-name="Trazado 201686"
           id="Trazado_201686" />
        <path
           style="fill:#a4addc;fill-rule:evenodd"
           inkscape:connector-curvature="0"
           transform="translate(-188.422,3553.127)"
           d="m 1503.422,341.481 -72.644,69.306 H 785.422 V 272.181 h 645.356 z"
           data-name="Trazado 201744"
           id="Trazado_201744" />
        <path
           style="fill:#a4addc"
           inkscape:connector-curvature="0"
           transform="translate(99.576,3300.84)"
           d="M 185.424,798.983 H 466.011 V 954.651 L 325.718,1018.246 185.424,954.651 Z"
           data-name="Trazado 201745"
           id="Trazado_201745" />
        <path
           style="fill:#9888b8"
           inkscape:connector-curvature="0"
           transform="translate(99.576,3443.903)"
           d="M 185.424,500.252 H 466.011 V 655.92 L 325.718,719.515 185.424,655.92 Z"
           data-name="Trazado 201803"
           id="Trazado_201803" />
        <path
           style="fill:#a4addc"
           inkscape:connector-curvature="0"
           transform="translate(99.576,3586.966)"
           d="M 185.424,201.52 H 466.011 V 357.188 L 325.718,420.783 185.424,357.188 Z"
           data-name="Trazado 201861"
           id="Trazado_201861" />
      </g>
      <g
         data-name="Grupo 163225"
         id="Grupo_163225">
        <g
           style="filter:url(#Elipse_18349)"
           id="g79"
           transform="translate(285,3676.47)">
          <circle
             style="fill:#ffffff"
             r="50"
             transform="rotate(-81.19,189.81275,76.645641)"
             cy="50"
             cx="50"
             data-name="Elipse 18349"
             id="Elipse_18349-2" />
        </g>
        <g
           transform="translate(398.91,3848.311)"
           id="Layer_1">
          <path
             style="fill-rule:evenodd"
             inkscape:connector-curvature="0"
             transform="translate(-41.689,-426.817)"
             d="M 80.156,494.091 H 59.541 a 1.143,1.143 0 0 1 -1.144,-1.144 v -4.825 a 1.143,1.143 0 0 1 1.144,-1.144 h 2.886 v -6.112 h -19.6 a 1.141,1.141 0 0 1 -1.135,-1.144 V 447.2 a 1.141,1.141 0 0 1 1.135,-1.145 h 15.389 v -6.4 h -8.032 a 4.328,4.328 0 1 1 0,-2.279 h 9.177 a 1.146,1.146 0 0 1 1.144,1.135 v 7.54 h 3.265 v -10.739 a 4.324,4.324 0 1 1 2.29,0 v 10.738 h 7.578 v -10.738 a 4.324,4.324 0 1 1 2.29,0 V 446.05 H 79.2 v -7.54 a 1.138,1.138 0 0 1 1.135,-1.135 h 9.177 a 4.328,4.328 0 1 1 0,2.279 H 81.48 v 6.4 h 15.393 a 1.141,1.141 0 0 1 1.135,1.145 v 32.525 a 1.141,1.141 0 0 1 -1.135,1.144 H 77.27 v 6.112 h 2.886 a 1.143,1.143 0 0 1 1.144,1.144 v 4.825 a 1.143,1.143 0 0 1 -1.144,1.142 z M 43.969,478.576 H 95.728 V 448.33 H 43.969 Z m 49.79,-0.823 H 45.936 a 1.149,1.149 0 0 1 -1.144,-1.144 V 450.3 a 1.147,1.147 0 0 1 1.144,-1.136 H 93.76 a 1.141,1.141 0 0 1 1.14,1.136 v 26.31 a 1.143,1.143 0 0 1 -1.14,1.143 z m -46.678,-2.29 h 45.534 v -24.02 H 47.081 Z m 0.975,-36.943 v -0.009 a 2.039,2.039 0 1 0 0,0.009 z m 16.858,-9.413 a 2.039,2.039 0 1 0 2.044,2.034 2.039,2.039 0 0 0 -2.044,-2.034 z m 9.867,0 a 2.039,2.039 0 1 0 2.044,2.034 2.039,2.039 0 0 0 -2.043,-2.034 z m 18.9,7.37 a 2.045,2.045 0 0 0 -2.044,2.034 v 0.009 a 2.044,2.044 0 1 0 2.044,-2.043 z M 75.86,473.846 H 63.836 a 1.143,1.143 0 0 1 -1.145,-1.145 v -10.71 a 1.142,1.142 0 0 1 1.145,-1.144 H 64.81 V 458.1 a 5.038,5.038 0 1 1 10.076,0 v 2.744 h 0.975 A 1.142,1.142 0 0 1 77,461.991 V 472.7 a 1.142,1.142 0 0 1 -1.14,1.146 z m -8.761,-13 h 5.5 V 458.1 a 2.75,2.75 0 1 0 -5.5,0 z m -2.119,10.719 h 9.735 v -8.429 h -9.734 z m 4.872,-1.722 a 1.141,1.141 0 0 1 -1.144,-1.136 v -2.715 a 1.14,1.14 0 1 1 2.28,0 v 2.715 a 1.139,1.139 0 0 1 -1.135,1.137 z m -5.137,17.133 h 10.266 v -6.112 H 64.716 Z m 11.409,2.29 H 60.686 v 2.545 h 18.325 v -2.545 h -2.886 z"
             data-name="Trazado 200857"
             id="Trazado_200857" />
          <g
             transform="translate(2.28,2.29)"
             data-name="Grupo 162561"
             id="Grupo_162561">
            <path
               style="fill:#ffef0f;fill-rule:evenodd"
               inkscape:connector-curvature="0"
               transform="translate(-44.576,-431.678)"
               d="m 46.619,443.126 a 2.045,2.045 0 0 0 2.044,-2.034 v -0.01 a 2.044,2.044 0 1 0 -2.044,2.044 z"
               data-name="Trazado 200858"
               id="Trazado_200858" />
            <path
               style="fill:#ffef0f;fill-rule:evenodd"
               inkscape:connector-curvature="0"
               transform="translate(-49.608,-429.716)"
               d="m 68.51,431.75 a 2.044,2.044 0 1 0 2.043,-2.034 2.047,2.047 0 0 0 -2.043,2.034 z"
               data-name="Trazado 200859"
               id="Trazado_200859" />
            <path
               style="fill:#ffef0f;fill-rule:evenodd"
               inkscape:connector-curvature="0"
               transform="translate(-52.235,-429.716)"
               d="m 83.047,429.716 a 2.039,2.039 0 1 0 2.044,2.034 2.039,2.039 0 0 0 -2.044,-2.034 z"
               data-name="Trazado 200860"
               id="Trazado_200860" />
            <path
               style="fill:#ffef0f;fill-rule:evenodd"
               inkscape:connector-curvature="0"
               transform="translate(-57.266,-431.678)"
               d="m 106.982,439.048 a 2.045,2.045 0 0 0 -2.044,2.034 v 0.01 a 2.044,2.044 0 1 0 2.044,-2.043 z"
               data-name="Trazado 200861"
               id="Trazado_200861" />
          </g>
          <path
             style="fill:#797959;fill-rule:evenodd"
             inkscape:connector-curvature="0"
             transform="translate(-42.296,-432.544)"
             d="M 96.335,454.057 H 44.576 V 484.3 h 51.759 z m -1.968,0.832 a 1.141,1.141 0 0 1 1.145,1.136 v 26.31 a 1.143,1.143 0 0 1 -1.145,1.144 H 46.543 a 1.149,1.149 0 0 1 -1.144,-1.144 v -26.31 a 1.147,1.147 0 0 1 1.144,-1.136 z"
             data-name="Trazado 200862"
             id="Trazado_200862" />
          <path
             style="fill:#4e2e8e;fill-rule:evenodd"
             inkscape:connector-curvature="0"
             transform="translate(-43.125,-433.372)"
             d="M 94.051,458 H 48.517 v 24.021 H 94.051 Z M 78.44,468.547 v 10.709 A 1.142,1.142 0 0 1 77.3,480.4 H 65.272 a 1.143,1.143 0 0 1 -1.145,-1.145 v -10.708 a 1.142,1.142 0 0 1 1.145,-1.144 h 0.974 v -2.744 a 5.038,5.038 0 1 1 10.076,0 V 467.4 H 77.3 a 1.142,1.142 0 0 1 1.14,1.147 z"
             data-name="Trazado 200863"
             id="Trazado_200863" />
          <path
             style="fill:#7fe289;fill-rule:evenodd"
             inkscape:connector-curvature="0"
             transform="translate(-48.453,-434.413)"
             d="m 79.361,465.7 a 2.75,2.75 0 1 0 -5.5,0 v 2.744 h 5.5 z"
             data-name="Trazado 200864"
             id="Trazado_200864" />
          <path
             style="fill:#ffef0f;fill-rule:evenodd"
             inkscape:connector-curvature="0"
             transform="translate(-47.889,-436.485)"
             d="m 79.942,472.8 h -8.761 v 8.429 h 9.735 V 472.8 Z m -2.753,2.857 v 2.715 a 1.14,1.14 0 0 1 -2.28,0 v -2.715 a 1.14,1.14 0 1 1 2.28,0 z"
             data-name="Trazado 200865"
             id="Trazado_200865" />
          <path
             style="fill:#797959;fill-rule:evenodd"
             inkscape:connector-curvature="0"
             transform="translate(-47.819,-441.205)"
             d="M 81.111,495.253 H 70.846 v 6.112 h 10.265 z"
             data-name="Trazado 200866"
             id="Trazado_200866" />
          <path
             style="fill:#797959;fill-rule:evenodd"
             inkscape:connector-curvature="0"
             transform="translate(-46.746,-443.441)"
             d="M 81.182,505.891 H 65.743 v 2.545 h 18.325 v -2.545 z"
             data-name="Trazado 200867"
             id="Trazado_200867" />
        </g>
      </g>
      <g
         data-name="Grupo 163223"
         id="Grupo_163223">
        <g
           style="filter:url(#Elipse_18351)"
           id="g96"
           transform="translate(285,3676.47)">
          <circle
             style="fill:#ffffff"
             r="50"
             transform="rotate(-81.19,393.57555,251.26064)"
             cy="50"
             cx="50"
             data-name="Elipse 18351"
             id="Elipse_18351-2" />
        </g>
        <g
           transform="translate(393.91,4208.411)"
           data-name="Grupo 163171"
           id="Grupo_163171">
          <path
             style="fill:#cecece"
             inkscape:connector-curvature="0"
             transform="translate(-18.816,-340.628)"
             d="m 25.364,381.9 a 3.7,3.7 0 0 1 -3.7,-3.7 v -33.471 a 3.7,3.7 0 0 1 3.7,-3.7 h 51.9 a 3.7,3.7 0 0 1 3.7,3.7 V 378.2 a 3.7,3.7 0 0 1 -3.7,3.7 z"
             data-name="Trazado 200868"
             id="Trazado_200868" />
          <g
             transform="translate(2.853,0.406)"
             data-name="Grupo 162562"
             id="Grupo_162562">
            <path
               style="fill:#afafaf"
               inkscape:connector-curvature="0"
               transform="translate(-21.669,-341.034)"
               d="m 25.635,378.2 v -33.471 a 3.7,3.7 0 0 1 3.7,-3.7 h -3.971 a 3.7,3.7 0 0 0 -3.7,3.7 V 378.2 a 3.7,3.7 0 0 0 3.7,3.7 h 3.966 a 3.7,3.7 0 0 1 -3.695,-3.7 z"
               data-name="Trazado 200869"
               id="Trazado_200869" />
          </g>
          <g
             transform="translate(54.485,0.406)"
             data-name="Grupo 162563"
             id="Grupo_162563">
            <path
               style="fill:#e2e2e2"
               inkscape:connector-curvature="0"
               transform="translate(-130.78,-341.034)"
               d="m 134.476,378.2 v -33.471 a 3.7,3.7 0 0 0 -3.7,-3.7 h 3.966 a 3.7,3.7 0 0 1 3.7,3.7 V 378.2 a 3.7,3.7 0 0 1 -3.7,3.7 h -3.962 a 3.7,3.7 0 0 0 3.696,-3.7 z"
               data-name="Trazado 200870"
               id="Trazado_200870" />
          </g>
          <path
             style="fill:#4e2e8e"
             inkscape:connector-curvature="0"
             transform="translate(-21.348,-343.16)"
             d="M 81.221,377.488 A 1.425,1.425 0 0 1 79.8,378.91 H 27.9 a 1.425,1.425 0 0 1 -1.421,-1.422 V 347.26 a 1.425,1.425 0 0 1 1.421,-1.422 h 51.9 a 1.426,1.426 0 0 1 1.422,1.422 v 30.227 z"
             data-name="Trazado 200871"
             id="Trazado_200871" />
          <g
             transform="translate(5.127,2.679)"
             data-name="Grupo 162564"
             id="Grupo_162564">
            <path
               style="fill:#6677d6"
               inkscape:connector-curvature="0"
               transform="translate(-26.475,-345.839)"
               d="M 30.441,377.488 V 347.26 a 1.426,1.426 0 0 1 1.422,-1.422 H 27.9 a 1.425,1.425 0 0 0 -1.421,1.422 v 30.227 a 1.425,1.425 0 0 0 1.421,1.422 h 3.966 a 1.426,1.426 0 0 1 -1.425,-1.421 z"
               data-name="Trazado 200872"
               id="Trazado_200872" />
          </g>
          <g
             transform="translate(54.485,2.679)"
             data-name="Grupo 162565"
             id="Grupo_162565">
            <path
               style="fill:#6677d6"
               inkscape:connector-curvature="0"
               transform="translate(-130.78,-345.839)"
               d="M 132.2,377.488 V 347.26 a 1.425,1.425 0 0 0 -1.421,-1.422 h 3.966 a 1.425,1.425 0 0 1 1.421,1.422 v 30.227 a 1.425,1.425 0 0 1 -1.421,1.422 h -3.965 a 1.426,1.426 0 0 0 1.42,-1.421 z"
               data-name="Trazado 200873"
               id="Trazado_200873" />
          </g>
          <g
             transform="translate(21.523,6.091)"
             data-name="Grupo 162567"
             id="Grupo_162567">
            <path
               style="fill:#ffffff"
               inkscape:connector-curvature="0"
               transform="translate(-61.123,-353.048)"
               d="m 82.549,371.683 -9.639,7.339 a 1.337,1.337 0 0 1 -1.621,0 l -9.639,-7.339 a 1.338,1.338 0 0 1 -0.528,-1.065 v -13.54 a 1.339,1.339 0 0 1 0.978,-1.289 l 9.64,-2.689 a 1.339,1.339 0 0 1 0.72,0 l 9.64,2.69 a 1.338,1.338 0 0 1 0.979,1.289 v 13.54 a 1.34,1.34 0 0 1 -0.53,1.064 z"
               data-name="Trazado 200874"
               id="Trazado_200874" />
            <circle
               style="fill:#ffef0f"
               r="6.5149999"
               transform="translate(4.462,5.388)"
               cy="6.5149999"
               cx="6.5149999"
               data-name="Elipse 18344"
               id="Elipse_18344" />
            <g
               transform="translate(6.589,8.397)"
               data-name="Grupo 162566"
               id="Grupo_162566">
              <path
                 style="fill:#6677d6"
                 inkscape:connector-curvature="0"
                 transform="translate(-75.048,-370.793)"
                 d="m 78.037,377.805 a 1.221,1.221 0 0 1 -0.842,-0.335 l -1.763,-1.67 a 1.2265928,1.2265928 0 0 1 1.686,-1.782 l 0.9,0.847 3.717,-3.717 a 1.227,1.227 0 0 1 1.735,1.734 l -4.56,4.56 a 1.224,1.224 0 0 1 -0.867,0.359 z"
                 data-name="Trazado 200875"
                 id="Trazado_200875" />
            </g>
          </g>
          <path
             style="fill:#9e9e9e"
             inkscape:connector-curvature="0"
             transform="translate(-40.323,-392.789)"
             d="m 62.495,440.05 h 20.656 v 2.487 H 62.495 Z"
             data-name="Trazado 200876"
             id="Trazado_200876" />
          <g
             transform="translate(22.172,47.261)"
             data-name="Grupo 162568"
             id="Grupo_162568">
            <path
               style="fill:#707070"
               inkscape:connector-curvature="0"
               transform="translate(-62.495,-440.05)"
               d="m 62.495,440.05 h 3.966 v 2.487 h -3.966 z"
               data-name="Trazado 200877"
               id="Trazado_200877" />
          </g>
          <path
             style="fill:#cecece"
             inkscape:connector-curvature="0"
             transform="translate(-43.593,-386.118)"
             d="m 68.7,427.387 h 14.783 v 5.992 H 68.7 Z"
             data-name="Trazado 200878"
             id="Trazado_200878" />
          <g
             transform="translate(25.109,41.269)"
             data-name="Grupo 162569"
             id="Grupo_162569">
            <path
               style="fill:#afafaf"
               inkscape:connector-curvature="0"
               transform="translate(-68.702,-427.387)"
               d="m 68.7,427.387 h 3.966 v 5.992 H 68.7 Z"
               data-name="Trazado 200879"
               id="Trazado_200879" />
          </g>
          <circle
             style="fill:#9e9e9e"
             r="1.217"
             transform="translate(31.283,37.292)"
             cy="1.217"
             cx="1.217"
             data-name="Elipse 18345"
             id="Elipse_18345" />
          <g
             transform="translate(38.74,33.785)"
             data-name="Grupo 162570"
             id="Grupo_162570">
            <path
               style="fill:#cecece"
               inkscape:connector-curvature="0"
               transform="translate(-97.507,-411.573)"
               d="M 119.584,419.554 H 98.837 a 1.33,1.33 0 0 1 -1.33,-1.33 V 412.9 a 1.33,1.33 0 0 1 1.33,-1.33 h 20.746 a 1.33,1.33 0 0 1 1.33,1.33 v 5.321 a 1.33,1.33 0 0 1 -1.329,1.333 z"
               data-name="Trazado 200880"
               id="Trazado_200880" />
          </g>
          <g
             transform="translate(38.74,41.766)"
             data-name="Grupo 162571"
             id="Grupo_162571">
            <path
               style="fill:#cecece"
               inkscape:connector-curvature="0"
               transform="translate(-97.507,-428.439)"
               d="M 119.584,436.421 H 98.837 a 1.33,1.33 0 0 1 -1.33,-1.33 v -5.321 a 1.331,1.331 0 0 1 1.33,-1.331 h 20.746 a 1.33,1.33 0 0 1 1.33,1.331 v 5.321 a 1.33,1.33 0 0 1 -1.329,1.33 z"
               data-name="Trazado 200881"
               id="Trazado_200881" />
          </g>
          <g
             transform="translate(38.74,25.804)"
             data-name="Grupo 162572"
             id="Grupo_162572">
            <path
               style="fill:#cecece"
               inkscape:connector-curvature="0"
               transform="translate(-97.507,-394.707)"
               d="M 119.584,402.688 H 98.837 a 1.33,1.33 0 0 1 -1.33,-1.33 v -5.321 a 1.33,1.33 0 0 1 1.33,-1.33 h 20.746 a 1.33,1.33 0 0 1 1.33,1.33 v 5.321 a 1.33,1.33 0 0 1 -1.329,1.33 z"
               data-name="Trazado 200882"
               id="Trazado_200882" />
          </g>
          <g
             transform="translate(56.85,25.804)"
             data-name="Grupo 162573"
             id="Grupo_162573">
            <path
               style="fill:#e2e2e2"
               inkscape:connector-curvature="0"
               transform="translate(-135.778,-394.707)"
               d="m 139.744,394.707 h -3.966 a 1.33,1.33 0 0 1 1.33,1.33 v 5.321 a 1.33,1.33 0 0 1 -1.33,1.33 h 3.966 a 1.33,1.33 0 0 0 1.33,-1.33 v -5.321 a 1.33,1.33 0 0 0 -1.33,-1.33 z"
               data-name="Trazado 200883"
               id="Trazado_200883" />
          </g>
          <g
             transform="translate(56.85,33.785)"
             data-name="Grupo 162574"
             id="Grupo_162574">
            <path
               style="fill:#e2e2e2"
               inkscape:connector-curvature="0"
               transform="translate(-135.778,-411.573)"
               d="m 139.744,411.573 h -3.966 a 1.33,1.33 0 0 1 1.33,1.331 v 5.321 a 1.33,1.33 0 0 1 -1.33,1.33 h 3.966 a 1.33,1.33 0 0 0 1.33,-1.33 V 412.9 a 1.33,1.33 0 0 0 -1.33,-1.327 z"
               data-name="Trazado 200884"
               id="Trazado_200884" />
          </g>
          <g
             transform="translate(56.85,41.766)"
             data-name="Grupo 162575"
             id="Grupo_162575">
            <path
               style="fill:#e2e2e2"
               inkscape:connector-curvature="0"
               transform="translate(-135.778,-428.439)"
               d="m 139.744,428.439 h -3.966 a 1.33,1.33 0 0 1 1.33,1.331 v 5.321 a 1.33,1.33 0 0 1 -1.33,1.33 h 3.966 a 1.33,1.33 0 0 0 1.33,-1.33 v -5.321 a 1.33,1.33 0 0 0 -1.33,-1.331 z"
               data-name="Trazado 200885"
               id="Trazado_200885" />
          </g>
          <g
             transform="translate(41.161,28.935)"
             data-name="Grupo 162576"
             id="Grupo_162576">
            <path
               style="fill:#c6412a"
               inkscape:connector-curvature="0"
               transform="translate(-102.622,-401.324)"
               d="m 114.383,403.043 h -11.108 a 0.655,0.655 0 0 1 -0.653,-0.653 v -0.413 a 0.655,0.655 0 0 1 0.653,-0.653 h 11.108 a 0.655,0.655 0 0 1 0.653,0.653 v 0.413 a 0.655,0.655 0 0 1 -0.653,0.653 z"
               data-name="Trazado 200886"
               id="Trazado_200886" />
            <path
               style="fill:#c6412a"
               inkscape:connector-curvature="0"
               transform="translate(-102.622,-410.209)"
               d="m 114.383,419.91 h -11.108 a 0.655,0.655 0 0 1 -0.653,-0.653 v -0.413 a 0.655,0.655 0 0 1 0.653,-0.653 h 11.108 a 0.655,0.655 0 0 1 0.653,0.653 v 0.413 a 0.655,0.655 0 0 1 -0.653,0.653 z"
               data-name="Trazado 200887"
               id="Trazado_200887" />
            <path
               style="fill:#c6412a"
               inkscape:connector-curvature="0"
               transform="translate(-102.622,-419.094)"
               d="m 114.383,436.776 h -11.108 a 0.655,0.655 0 0 1 -0.653,-0.653 v -0.413 a 0.655,0.655 0 0 1 0.653,-0.653 h 11.108 a 0.655,0.655 0 0 1 0.653,0.653 v 0.413 a 0.655,0.655 0 0 1 -0.653,0.653 z"
               data-name="Trazado 200888"
               id="Trazado_200888" />
            <path
               style="fill:#c6412a"
               inkscape:connector-curvature="0"
               transform="translate(-120.517,-401.324)"
               d="m 137.657,403.043 h -0.413 a 0.655,0.655 0 0 1 -0.653,-0.653 v -0.413 a 0.655,0.655 0 0 1 0.653,-0.653 h 0.413 a 0.655,0.655 0 0 1 0.654,0.653 v 0.413 a 0.655,0.655 0 0 1 -0.654,0.653 z"
               data-name="Trazado 200889"
               id="Trazado_200889" />
            <path
               style="fill:#c6412a"
               inkscape:connector-curvature="0"
               transform="translate(-120.517,-410.209)"
               d="m 137.657,419.91 h -0.413 a 0.655,0.655 0 0 1 -0.653,-0.653 v -0.413 a 0.655,0.655 0 0 1 0.653,-0.653 h 0.413 a 0.655,0.655 0 0 1 0.654,0.653 v 0.413 a 0.655,0.655 0 0 1 -0.654,0.653 z"
               data-name="Trazado 200890"
               id="Trazado_200890" />
          </g>
          <g
             data-name="Grupo 162578"
             id="Grupo_162578">
            <path
               style="fill:#12263f;stroke:#12263f;stroke-width:0.5"
               inkscape:connector-curvature="0"
               transform="translate(-79.356,-390.159)"
               d="m 137.657,436.776 h -0.413 a 0.655,0.655 0 0 1 -0.653,-0.653 v -0.413 a 0.655,0.655 0 0 1 0.653,-0.653 h 0.413 a 0.655,0.655 0 0 1 0.654,0.653 v 0.413 a 0.655,0.655 0 0 1 -0.654,0.653 z"
               data-name="Trazado 200891"
               id="Trazado_200891" />
            <g
               data-name="Grupo 162577"
               id="Grupo_162577">
              <path
                 style="fill:#12263f;stroke:#12263f;stroke-width:0.5"
                 inkscape:connector-curvature="0"
                 transform="translate(-15.64,-398.41)"
                 d="m 20.914,450.72 h -4.868 a 0.406,0.406 0 0 0 0,0.811 h 4.868 a 0.406,0.406 0 1 0 0,-0.811 z"
                 data-name="Trazado 200892"
                 id="Trazado_200892" />
              <path
                 style="fill:#12263f;stroke:#12263f;stroke-width:0.5"
                 inkscape:connector-curvature="0"
                 transform="translate(-81.677,-398.41)"
                 d="M 146.271,450.72 H 141.4 a 0.406,0.406 0 1 0 0,0.811 h 4.869 a 0.406,0.406 0 1 0 0,-0.811 z"
                 data-name="Trazado 200893"
                 id="Trazado_200893" />
              <path
                 style="fill:#12263f;stroke:#12263f;stroke-width:0.5"
                 inkscape:connector-curvature="0"
                 transform="translate(-24.13,-398.41)"
                 d="M 81.1,450.72 H 32.162 a 0.406,0.406 0 0 0 0,0.811 H 81.1 a 0.406,0.406 0 0 0 0,-0.811 z"
                 data-name="Trazado 200894"
                 id="Trazado_200894" />
              <path
                 style="fill:#12263f;stroke:#12263f;stroke-width:0.5"
                 inkscape:connector-curvature="0"
                 transform="translate(-15.64,-340.177)"
                 d="m 16.046,390.331 h 64.188 a 0.406,0.406 0 1 0 0,-0.811 h -2.311 a 1.726,1.726 0 0 0 0.269,-0.925 v -5.321 a 1.732,1.732 0 0 1 0,-2.66 v -36.336 a 4.105,4.105 0 0 0 -4.1,-4.1 h -51.9 a 4.105,4.105 0 0 0 -4.1,4.1 v 33.472 a 4.106,4.106 0 0 0 4.1,4.1 h 18.151 v 5.181 h -2.531 a 0.405,0.405 0 0 0 -0.406,0.406 v 2.082 h -21.36 a 0.406,0.406 0 1 0 0,0.811 z m 61.336,-7.056 v 5.321 a 0.926,0.926 0 0 1 -0.925,0.924 H 55.71 a 0.925,0.925 0 0 1 -0.924,-0.924 v -5.321 a 0.925,0.925 0 0 1 0.924,-0.925 h 20.747 a 0.925,0.925 0 0 1 0.924,0.924 z m 0,-10.642 a 0.926,0.926 0 0 1 -0.925,0.925 H 55.71 a 0.925,0.925 0 0 1 -0.924,-0.925 v -5.321 a 0.926,0.926 0 0 1 0.924,-0.925 h 20.747 a 0.926,0.926 0 0 1 0.925,0.925 z m -23.407,-5.321 v 0.6 a 0.4,0.4 0 0 0 -0.046,0.029 l -5.223,3.977 a 0.936,0.936 0 0 1 -1.13,0 l -9.639,-7.339 a 0.939,0.939 0 0 1 -0.368,-0.742 V 350.3 a 0.937,0.937 0 0 1 0.682,-0.9 l 9.639,-2.693 a 0.933,0.933 0 0 1 0.5,0 l 9.64,2.693 a 0.936,0.936 0 0 1 0.682,0.9 v 13.539 a 0.939,0.939 0 0 1 -0.368,0.743 l -1.209,0.921 a 0.416,0.416 0 0 0 -0.073,0.074 H 55.71 a 1.738,1.738 0 0 0 -1.735,1.734 z m 21.133,-1.736 H 58.376 l 0.459,-0.35 a 1.753,1.753 0 0 0 0.688,-1.387 V 350.3 a 1.75,1.75 0 0 0 -1.275,-1.68 l -9.639,-2.693 a 1.757,1.757 0 0 0 -0.939,0 l -9.639,2.693 a 1.751,1.751 0 0 0 -1.275,1.68 v 13.539 a 1.755,1.755 0 0 0 0.688,1.388 l 9.639,7.338 a 1.749,1.749 0 0 0 2.113,0 l 4.778,-3.638 v 3.706 a 1.732,1.732 0 0 1 0,2.66 v 0.229 H 22.188 a 1.017,1.017 0 0 1 -1.016,-1.016 v -30.228 a 1.017,1.017 0 0 1 1.016,-1.016 h 51.9 a 1.017,1.017 0 0 1 1.016,1.016 v 21.3 z m -19.4,15.962 a 0.925,0.925 0 0 1 -0.924,-0.925 v -5.321 a 0.925,0.925 0 0 1 0.924,-0.924 h 20.749 a 0.926,0.926 0 0 1 0.925,0.924 v 5.321 a 0.926,0.926 0 0 1 -0.925,0.925 z M 18.9,377.75 v -33.472 a 3.294,3.294 0 0 1 3.29,-3.29 h 51.9 a 3.293,3.293 0 0 1 3.29,3.29 v 21.567 a 1.724,1.724 0 0 0 -0.925,-0.269 h -0.538 v -21.3 a 1.829,1.829 0 0 0 -1.827,-1.827 h -51.9 a 1.829,1.829 0 0 0 -1.827,1.827 v 30.227 a 1.829,1.829 0 0 0 1.827,1.827 h 31.785 v 4.281 a 1.738,1.738 0 0 0 0.055,0.427 H 22.188 a 3.293,3.293 0 0 1 -3.29,-3.29 z m 22.256,4.1 h 13.31 0.027 c 0.034,0.033 0.069,0.065 0.1,0.1 a 1.733,1.733 0 0 0 -0.623,1.33 v 3.758 H 41.155 Z m -2.937,5.992 h 15.756 v 0.751 a 1.726,1.726 0 0 0 0.269,0.925 H 38.218 Z"
                 data-name="Trazado 200895"
                 id="Trazado_200895" />
              <path
                 style="fill:#12263f;stroke:#12263f;stroke-width:0.5"
                 inkscape:connector-curvature="0"
                 transform="translate(-44.115,-352.503)"
                 d="m 76.615,363.576 a 6.921,6.921 0 1 0 6.921,6.921 6.929,6.929 0 0 0 -6.921,-6.921 z m 0,13.031 a 6.11,6.11 0 1 1 6.11,-6.11 6.117,6.117 0 0 1 -6.11,6.11 z"
                 data-name="Trazado 200896"
                 id="Trazado_200896" />
              <path
                 style="fill:#12263f;stroke:#12263f;stroke-width:0.5"
                 inkscape:connector-curvature="0"
                 transform="translate(-46.484,-355.855)"
                 d="m 80.991,370.414 -3.437,3.438 -0.61,-0.576 a 1.6322862,1.6322862 0 1 0 -2.243,2.372 l 1.763,1.667 a 1.632,1.632 0 0 0 2.275,-0.032 l 4.56,-4.56 a 1.6320026,1.6320026 0 1 0 -2.309,-2.307 z m 1.735,1.735 -4.56,4.56 a 0.84,0.84 0 0 1 -1.144,0.016 l -1.763,-1.667 a 0.82,0.82 0 0 1 0.541,-1.416 h 0.024 a 0.816,0.816 0 0 1 0.564,0.225 l 0.9,0.847 a 0.406,0.406 0 0 0 0.565,-0.008 l 3.717,-3.717 a 0.821,0.821 0 0 1 1.161,1.161 z"
                 data-name="Trazado 200897"
                 id="Trazado_200897" />
              <path
                 style="fill:#12263f;stroke:#12263f;stroke-width:0.5"
                 inkscape:connector-curvature="0"
                 transform="translate(-50.014,-381.24)"
                 d="m 82.514,421.372 a 1.622,1.622 0 1 0 -1.623,-1.623 1.624,1.624 0 0 0 1.623,1.623 z m 0,-2.434 a 0.811,0.811 0 1 1 -0.811,0.811 0.812,0.812 0 0 1 0.811,-0.811 z"
                 data-name="Trazado 200898"
                 id="Trazado_200898" />
              <path
                 style="fill:#12263f;stroke:#12263f;stroke-width:0.5"
                 inkscape:connector-curvature="0"
                 transform="translate(-61.009,-371.937)"
                 d="m 113.931,400.467 h -11.108 a 1.06,1.06 0 0 0 -1.059,1.059 v 0.413 a 1.06,1.06 0 0 0 1.059,1.061 h 11.108 a 1.06,1.06 0 0 0 1.059,-1.059 v -0.413 a 1.06,1.06 0 0 0 -1.059,-1.061 z m 0.247,1.471 a 0.25,0.25 0 0 1 -0.247,0.247 h -11.108 a 0.25,0.25 0 0 1 -0.247,-0.247 v -0.413 a 0.251,0.251 0 0 1 0.247,-0.248 h 11.108 a 0.251,0.251 0 0 1 0.247,0.248 z"
                 data-name="Trazado 200899"
                 id="Trazado_200899" />
              <path
                 style="fill:#12263f;stroke:#12263f;stroke-width:0.5"
                 inkscape:connector-curvature="0"
                 transform="translate(-61.009,-380.822)"
                 d="m 113.931,417.333 h -11.108 a 1.06,1.06 0 0 0 -1.059,1.059 v 0.413 a 1.06,1.06 0 0 0 1.059,1.059 h 11.108 a 1.06,1.06 0 0 0 1.059,-1.059 v -0.413 a 1.06,1.06 0 0 0 -1.059,-1.059 z m 0.247,1.472 a 0.251,0.251 0 0 1 -0.247,0.247 h -11.108 a 0.251,0.251 0 0 1 -0.247,-0.247 v -0.413 a 0.25,0.25 0 0 1 0.247,-0.247 h 11.108 a 0.25,0.25 0 0 1 0.247,0.247 z"
                 data-name="Trazado 200900"
                 id="Trazado_200900" />
              <path
                 style="fill:#12263f;stroke:#12263f;stroke-width:0.5"
                 inkscape:connector-curvature="0"
                 transform="translate(-61.009,-389.707)"
                 d="m 102.823,436.73 h 11.108 a 1.06,1.06 0 0 0 1.059,-1.059 v -0.413 a 1.06,1.06 0 0 0 -1.059,-1.059 h -11.108 a 1.06,1.06 0 0 0 -1.059,1.059 v 0.413 a 1.06,1.06 0 0 0 1.059,1.059 z m -0.247,-1.472 a 0.251,0.251 0 0 1 0.247,-0.247 h 11.108 a 0.25,0.25 0 0 1 0.247,0.247 v 0.413 a 0.251,0.251 0 0 1 -0.247,0.247 h -11.108 a 0.251,0.251 0 0 1 -0.247,-0.247 z"
                 data-name="Trazado 200901"
                 id="Trazado_200901" />
              <path
                 style="fill:#12263f;stroke:#12263f;stroke-width:0.5"
                 inkscape:connector-curvature="0"
                 transform="translate(-78.904,-371.937)"
                 d="m 137.205,400.467 h -0.413 a 1.06,1.06 0 0 0 -1.059,1.059 v 0.413 a 1.06,1.06 0 0 0 1.06,1.061 h 0.413 a 1.06,1.06 0 0 0 1.059,-1.059 v -0.413 a 1.06,1.06 0 0 0 -1.06,-1.061 z m 0.247,1.471 a 0.25,0.25 0 0 1 -0.247,0.247 h -0.413 a 0.251,0.251 0 0 1 -0.248,-0.247 v -0.413 a 0.251,0.251 0 0 1 0.248,-0.248 h 0.413 a 0.251,0.251 0 0 1 0.247,0.248 z"
                 data-name="Trazado 200902"
                 id="Trazado_200902" />
              <path
                 style="fill:#12263f;stroke:#12263f;stroke-width:0.5"
                 inkscape:connector-curvature="0"
                 transform="translate(-78.904,-380.822)"
                 d="m 137.205,417.333 h -0.413 a 1.06,1.06 0 0 0 -1.059,1.059 v 0.413 a 1.06,1.06 0 0 0 1.059,1.059 h 0.413 a 1.06,1.06 0 0 0 1.059,-1.059 v -0.413 a 1.06,1.06 0 0 0 -1.059,-1.059 z m 0.247,1.472 a 0.251,0.251 0 0 1 -0.247,0.247 h -0.413 a 0.251,0.251 0 0 1 -0.248,-0.247 v -0.413 a 0.251,0.251 0 0 1 0.248,-0.247 h 0.413 a 0.25,0.25 0 0 1 0.247,0.247 z"
                 data-name="Trazado 200903"
                 id="Trazado_200903" />
              <path
                 style="fill:#12263f;stroke:#12263f;stroke-width:0.5"
                 inkscape:connector-curvature="0"
                 transform="translate(-78.904,-389.707)"
                 d="m 136.793,436.73 h 0.413 a 1.06,1.06 0 0 0 1.059,-1.059 v -0.413 a 1.06,1.06 0 0 0 -1.059,-1.059 h -0.413 a 1.06,1.06 0 0 0 -1.059,1.059 v 0.413 a 1.06,1.06 0 0 0 1.059,1.059 z m -0.248,-1.472 a 0.251,0.251 0 0 1 0.248,-0.247 h 0.413 a 0.251,0.251 0 0 1 0.247,0.247 v 0.413 a 0.251,0.251 0 0 1 -0.247,0.247 h -0.413 a 0.251,0.251 0 0 1 -0.248,-0.247 z"
                 data-name="Trazado 200904"
                 id="Trazado_200904" />
            </g>
          </g>
        </g>
      </g>
      <text
         style="font-size:16px;font-family:Roboto-Regular, Roboto;fill:#12263f"
         font-size="16"
         transform="translate(623.823,3848.403)"
         data-name="El cifrado de la información es un texto no entendible por las personas con el fin de proteger los datos. Para acceder a esta información se debe disponer de las claves/certificados necesarios (personas autorizadas o destinatarios), aunque  sea interceptad"
         id="El_cifrado_de_la_información_es_un_texto_no_entendible_por_las_personas_con_el_fin_de_proteger_los_datos._Para_acceder_a_esta_información_se_debe_disponer_de_las_claves_certificados_necesarios_personas_autorizadas_o_destinatarios_aunque_sea_interceptad">
        <tspan
           id="tspan156"
           y="17"
           x="0">El cifrado de la información es un texto no entendible por las personas con el fin de</tspan>
        <tspan
           id="tspan158"
           y="41"
           x="0">proteger los datos. Para acceder a esta información se debe disponer de las</tspan>
        <tspan
           id="tspan160"
           xml:space="preserve"
           y="65"
           x="0">claves/certificados necesarios (personas autorizadas o destinatarios), aunque  sea </tspan>        <tspan
           id="tspan162"
           y="89"
           x="0">interceptada en tránsito o llegue al repositorio donde se encuentre almacenada.</tspan>
      </text>
      <text
         style="font-size:16px;font-family:Roboto-Regular, Roboto;fill:#12263f"
         font-size="16"
         transform="translate(623.823,4000.049)"
         data-name="Controles de acceso a las instalaciones, los repositorios y sistemas donde se encuentra la información o la red por la que se mueve, evitando acceso no autorizado."
         id="Controles_de_acceso_a_las_instalaciones_los_repositorios_y_sistemas_donde_se_encuentra_la_información_o_la_red_por_la_que_se_mueve_evitando_acceso_no_autorizado.">
        <tspan
           id="tspan165"
           y="17"
           x="0">Controles de acceso a las instalaciones, los repositorios y sistemas donde se</tspan>
        <tspan
           id="tspan167"
           y="41"
           x="0">encuentra la información o la red por la que se mueve, evitando acceso no</tspan>
        <tspan
           id="tspan169"
           y="65"
           x="0">autorizado.</tspan>
      </text>
      <text
         style="font-size:16px;font-family:Roboto-Regular, Roboto;fill:#12263f"
         font-size="16"
         transform="translate(623.823,4136.271)"
         data-name="Procedimientos formales de clasificación de la información en función de sus valores, sensibilidad, requisitos legales y de tratamiento (qué se puede hacer con ella y qué no)."
         id="Procedimientos_formales_de_clasificación_de_la_información_en_función_de_sus_valores_sensibilidad_requisitos_legales_y_de_tratamiento_qué_se_puede_hacer_con_ella_y_qué_no_.">
        <tspan
           id="tspan172"
           y="17"
           x="0">Procedimientos formales de clasificación de la información en función de sus</tspan>
        <tspan
           id="tspan174"
           y="41"
           x="0">valores, sensibilidad, requisitos legales y de tratamiento (qué se puede hacer con</tspan>
        <tspan
           id="tspan176"
           y="65"
           x="0">ella y qué no).</tspan>
      </text>
      <text
         style="font-size:16px;font-family:Roboto-Regular, Roboto;fill:#12263f"
         font-size="16"
         transform="translate(623.823,4285.915)"
         data-name="Formación y toma de conciencia hacia las  personas acerca de la confidencialidad y protección de la información."
         id="Formación_y_toma_de_conciencia_hacia_las_personas_acerca_de_la_confidencialidad_y_protección_de_la_información.">
        <tspan
           id="tspan179"
           xml:space="preserve"
           y="17"
           x="0">Formación y toma de conciencia hacia las  personas acerca de la confidencialidad y </tspan>        <tspan
           id="tspan181"
           y="41"
           x="0">protección de la información.</tspan>
      </text>
      <text
         style="font-size:16px;font-family:Roboto-Regular, Roboto;fill:#12263f"
         font-size="16"
         transform="translate(623.823,4427.884)"
         data-name="Acuerdo de confidencialidad (NDA) establecido formalmente con los empleados que acceden y tratan información confidencial."
         id="Acuerdo_de_confidencialidad_NDA_establecido_formalmente_con_los_empleados_que_acceden_y_tratan_información_confidencial.">
        <tspan
           id="tspan184"
           y="17"
           x="0">Acuerdo de confidencialidad (NDA) establecido formalmente con los empleados que</tspan>
        <tspan
           id="tspan186"
           y="41"
           x="0">acceden y tratan información confidencial.</tspan>
      </text>
      <g
         data-name="Grupo 163224"
         id="Grupo_163224">
        <g
           style="filter:url(#Elipse_18350)"
           id="g190"
           transform="translate(285,3676.47)">
          <circle
             style="fill:#ffffff"
             r="50"
             transform="rotate(-81.19,301.83766,172.64564)"
             cy="50"
             cx="50"
             data-name="Elipse 18350"
             id="Elipse_18350-2" />
        </g>
        <g
           transform="translate(399.91,4051.543)"
           data-name="Grupo 163118"
           id="Grupo_163118">
          <g
             transform="translate(0.892,0.893)"
             data-name="Grupo 162559"
             id="Grupo_162559">
            <g
               transform="translate(6.246)"
               data-name="Grupo 162547"
               id="Grupo_162547">
              <path
                 style="fill:#c6412a"
                 inkscape:connector-curvature="0"
                 transform="translate(-17.094,-381.661)"
                 d="m 52.783,381.661 v 10.707 h -0.892 v -6.246 A 0.894,0.894 0 0 0 51,385.23 H 17.094 v -3.569 z"
                 data-name="Trazado 200832"
                 id="Trazado_200832" />
            </g>
            <g
               transform="translate(4.461,3.569)"
               data-name="Grupo 162548"
               id="Grupo_162548">
              <path
                 style="fill:#e6e9ed"
                 inkscape:connector-curvature="0"
                 transform="translate(-12.82,-390.208)"
                 d="m 49.4,391.1 v 6.246 H 28.541 a 0.894,0.894 0 0 1 -0.8,-0.491 l -1.285,-2.587 a 0.9,0.9 0 0 0 -0.8,-0.491 H 12.82 v -3.569 h 35.69 a 0.894,0.894 0 0 1 0.89,0.892 z"
                 data-name="Trazado 200833"
                 id="Trazado_200833" />
            </g>
            <g
               transform="translate(0,19.629)"
               data-name="Grupo 162549"
               id="Grupo_162549">
              <path
                 style="fill:#ffffff"
                 inkscape:connector-curvature="0"
                 transform="translate(-2.137,-428.668)"
                 d="m 2.137,461.681 v -33.013 h 37.474 a 8.915,8.915 0 0 0 -3.569,7.138 v 6.576 a 10.557,10.557 0 0 0 -1.785,5.915 10.7,10.7 0 0 0 12.491,10.555 v 2.829 a 0.9,0.9 0 0 1 -0.892,0.892 H 3.029 a 0.894,0.894 0 0 1 -0.892,-0.892 z"
                 data-name="Trazado 200834"
                 id="Trazado_200834" />
            </g>
            <g
               transform="translate(0,7.138)"
               data-name="Grupo 162550"
               id="Grupo_162550">
              <path
                 style="fill:#6677d6"
                 inkscape:connector-curvature="0"
                 transform="translate(-2.137,-398.754)"
                 d="m 46.749,403.215 v 6.424 a 8.946,8.946 0 0 0 -7.138,1.606 H 2.137 v -11.6 a 0.9,0.9 0 0 1 0.892,-0.892 h 16.4 a 0.9,0.9 0 0 1 0.8,0.491 l 1.285,2.587 a 0.894,0.894 0 0 0 0.8,0.491 h 23.542 a 0.9,0.9 0 0 1 0.893,0.893 z"
                 data-name="Trazado 200835"
                 id="Trazado_200835" />
            </g>
            <g
               transform="translate(12.491,23.198)"
               data-name="Grupo 162551"
               id="Grupo_162551">
              <path
                 style="fill:#b27946"
                 inkscape:connector-curvature="0"
                 transform="translate(-32.051,-437.215)"
                 d="m 35.62,449.706 a 4.465,4.465 0 0 0 2.525,4.024 l -0.74,2.221 a 4.881,4.881 0 0 0 -2.106,1.392 1.913,1.913 0 0 0 -0.125,0.152 6.47,6.47 0 0 1 -3.123,-5.532 v -6.718 a 8.03,8.03 0 0 1 16.06,0 v 6.718 a 6.47,6.47 0 0 1 -3.123,5.532 4.766,4.766 0 0 0 -2.231,-1.544 l -0.74,-2.221 1.222,-0.866 a 4.48,4.48 0 0 0 1.3,-3.158 v -2.676 a 1.79,1.79 0 0 0 -1.785,-1.784 h -0.75 a 3.881,3.881 0 0 1 -2.364,-0.8 l -2.587,0.517 a 1.785,1.785 0 0 0 -1.437,1.749 z"
                 data-name="Trazado 200836"
                 id="Trazado_200836" />
            </g>
            <g
               transform="translate(14.276,41.935)"
               data-name="Grupo 162552"
               id="Grupo_162552">
              <path
                 style="fill:#ff826e"
                 inkscape:connector-curvature="0"
                 transform="translate(-36.324,-482.086)"
                 d="m 42.57,484.763 2.677,-2.677 a 4.767,4.767 0 0 1 2.231,1.544 4.838,4.838 0 0 1 1,2.115 l 0.339,1.695 H 36.324 l 0.339,-1.695 a 4.838,4.838 0 0 1 1,-2.115 1.915,1.915 0 0 1 0.125,-0.152 4.881,4.881 0 0 1 2.106,-1.392 z"
                 data-name="Trazado 200837"
                 id="Trazado_200837" />
            </g>
            <g
               transform="translate(17.845,39.714)"
               data-name="Grupo 162553"
               id="Grupo_162553">
              <path
                 style="fill:#f0d0b4"
                 inkscape:connector-curvature="0"
                 transform="translate(-44.871,-476.766)"
                 d="m 45.611,476.766 a 4.506,4.506 0 0 0 3.873,0 l 0.74,2.221 -2.677,2.677 -2.677,-2.677 z"
                 data-name="Trazado 200838"
                 id="Trazado_200838" />
            </g>
            <g
               transform="translate(16.06,30.425)"
               data-name="Grupo 162554"
               id="Grupo_162554">
              <path
                 style="fill:#f0d0b4"
                 inkscape:connector-curvature="0"
                 transform="translate(-40.597,-454.523)"
                 d="m 48.217,462.946 -1.222,0.866 a 4.461,4.461 0 0 1 -6.4,-4.024 v -3 a 1.785,1.785 0 0 1 1.437,-1.749 l 2.587,-0.517 a 3.881,3.881 0 0 0 2.364,0.8 h 0.75 a 1.79,1.79 0 0 1 1.785,1.784 v 2.677 a 4.48,4.48 0 0 1 -1.301,3.163 z"
                 data-name="Trazado 200839"
                 id="Trazado_200839" />
            </g>
            <g
               transform="translate(33.905,17.845)"
               data-name="Grupo 162555"
               id="Grupo_162555">
              <path
                 style="fill:#aab2bd"
                 inkscape:connector-curvature="0"
                 transform="translate(-83.332,-424.395)"
                 d="m 101.177,433.317 v 6.567 a 10.877,10.877 0 0 0 -3.569,-3.355 v -3.212 a 5.361,5.361 0 0 0 -5.353,-5.353 5.358,5.358 0 0 0 -5.354,5.353 v 3.212 a 10.64,10.64 0 0 0 -3.569,3.364 v -6.576 a 8.9225,8.9225 0 0 1 17.845,0 z"
                 data-name="Trazado 200840"
                 id="Trazado_200840" />
            </g>
            <g
               transform="translate(32.12,28.551)"
               data-name="Grupo 162556"
               id="Grupo_162556">
              <path
                 style="fill:#ffef0f"
                 inkscape:connector-curvature="0"
                 transform="translate(-79.058,-450.035)"
                 d="m 95.118,451.463 a 10.877,10.877 0 0 1 3.569,3.355 10.708,10.708 0 1 1 -19.629,5.925 10.716,10.716 0 0 1 16.06,-9.279 z"
                 data-name="Trazado 200841"
                 id="Trazado_200841" />
            </g>
            <g
               transform="translate(35.689,32.12)"
               data-name="Grupo 162557"
               id="Grupo_162557">
              <path
                 style="fill:#ffeaa7"
                 inkscape:connector-curvature="0"
                 transform="translate(-87.605,-458.582)"
                 d="m 94.743,458.582 a 7.138,7.138 0 1 1 -7.138,7.138 7.136,7.136 0 0 1 7.138,-7.138 z"
                 data-name="Trazado 200842"
                 id="Trazado_200842" />
            </g>
            <g
               transform="translate(41.043,35.689)"
               data-name="Grupo 162558"
               id="Grupo_162558">
              <circle
                 style="fill:#5cd6b3"
                 r="1.784"
                 cy="1.784"
                 cx="1.784"
                 data-name="Elipse 18343"
                 id="Elipse_18343" />
            </g>
          </g>
          <g
             data-name="Grupo 162560"
             id="Grupo_162560">
            <path
               inkscape:connector-curvature="0"
               transform="translate(-57.246,-429.303)"
               d="m 100.966,464.992 a 2.671,2.671 0 0 0 -0.892,5.19 v 3.733 h 1.784 v -3.733 a 2.67,2.67 0 0 0 -0.892,-5.19 z m 0,3.569 a 0.892,0.892 0 1 1 0.892,-0.892 0.893,0.893 0 0 1 -0.892,0.892 z"
               data-name="Trazado 200843"
               id="Trazado_200843" />
            <path
               inkscape:connector-curvature="0"
               transform="translate(-49.779,-424.325)"
               d="m 93.5,456.446 a 8.03,8.03 0 1 0 8.03,8.03 8.039,8.039 0 0 0 -8.03,-8.03 z m 0,14.276 a 6.246,6.246 0 1 1 6.246,-6.246 6.253,6.253 0 0 1 -6.246,6.246 z"
               data-name="Trazado 200844"
               id="Trazado_200844" />
            <path
               inkscape:connector-curvature="0"
               transform="translate(0,-384.502)"
               d="M 55.319,424.653 A 11.506,11.506 0 0 0 53.534,418.5 v -6.338 a 9.826,9.826 0 0 0 -7.138,-9.434 v -5.734 a 1.786,1.786 0 0 0 -1.785,-1.784 h -1.784 v -5.354 a 1.786,1.786 0 0 0 -1.784,-1.784 H 5.353 v 1.784 h 35.69 v 5.354 h -19.97 l -1.291,-2.583 a 1.776,1.776 0 0 0 -1.6,-0.986 H 1.784 A 1.786,1.786 0 0 0 0,393.424 v 44.612 a 1.786,1.786 0 0 0 1.784,1.784 h 42.828 a 1.786,1.786 0 0 0 1.785,-1.784 v -2.108 a 11.612,11.612 0 0 0 8.922,-11.275 z M 51.75,412.161 v 4.139 a 11.642,11.642 0 0 0 -1.784,-1.408 v -2.733 a 6.246,6.246 0 0 0 -12.491,0 v 2.733 A 11.645,11.645 0 0 0 35.69,416.3 v -4.141 a 8.03,8.03 0 0 1 16.06,0 z m -3.569,1.787 a 11.568,11.568 0 0 0 -8.922,0 v -1.787 a 4.461,4.461 0 0 1 8.922,0 z m -30,-20.524 1.291,2.583 a 1.776,1.776 0 0 0 1.6,0.986 h 23.54 v 5.4 c -0.294,-0.027 -0.59,-0.046 -0.892,-0.046 a 9.751,9.751 0 0 0 -5.626,1.785 H 1.784 v -10.708 z m 26.426,44.612 H 1.784 v -32.12 h 34.37 a 9.767,9.767 0 0 0 -2.249,6.246 v 6.338 a 11.576,11.576 0 0 0 9.815,17.752 c 0.3,0 0.6,-0.022 0.892,-0.045 z m -0.892,-3.569 a 9.815,9.815 0 1 1 9.814,-9.815 9.826,9.826 0 0 1 -9.809,9.815 z"
               data-name="Trazado 200845"
               id="Trazado_200845" />
            <path
               inkscape:connector-curvature="0"
               transform="translate(-9.956,-379.524)"
               d="m 17.094,379.524 h 35.689 v 1.785 H 17.094 Z"
               data-name="Trazado 200846"
               id="Trazado_200846" />
            <path
               inkscape:connector-curvature="0"
               transform="translate(-7.467,-396.947)"
               d="m 12.82,409.438 h 1.78 v 3.569 h -1.78 z"
               data-name="Trazado 200847"
               id="Trazado_200847" />
            <path
               inkscape:connector-curvature="0"
               transform="translate(-12.445,-396.947)"
               d="m 21.367,409.438 h 1.784 v 3.569 h -1.784 z"
               data-name="Trazado 200848"
               id="Trazado_200848" />
            <path
               inkscape:connector-curvature="0"
               transform="translate(-17.423,-396.947)"
               d="M 29.914,409.438 H 31.7 v 3.569 h -1.786 z"
               data-name="Trazado 200849"
               id="Trazado_200849" />
            <path
               inkscape:connector-curvature="0"
               transform="translate(-4.978,-449.215)"
               d="m 8.547,499.18 h 3.569 v 1.784 H 8.547 Z"
               data-name="Trazado 200850"
               id="Trazado_200850" />
            <path
               inkscape:connector-curvature="0"
               transform="translate(-12.445,-449.215)"
               d="m 21.367,499.18 h 3.569 v 1.784 h -3.569 z"
               data-name="Trazado 200851"
               id="Trazado_200851" />
            <path
               inkscape:connector-curvature="0"
               transform="translate(-4.978,-444.237)"
               d="m 8.547,490.633 h 8.922 v 1.784 H 8.547 Z"
               data-name="Trazado 200852"
               id="Trazado_200852" />
            <path
               inkscape:connector-curvature="0"
               transform="translate(-4.978,-439.259)"
               d="m 8.547,482.086 h 1.784 v 1.784 H 8.547 Z"
               data-name="Trazado 200853"
               id="Trazado_200853" />
            <path
               inkscape:connector-curvature="0"
               transform="translate(-9.956,-439.259)"
               d="m 17.094,482.086 h 5.353 v 1.784 h -5.353 z"
               data-name="Trazado 200854"
               id="Trazado_200854" />
            <path
               inkscape:connector-curvature="0"
               transform="translate(-27.379,-429.667)"
               d="m 48.423,466.249 h -1.415 v 1.785 h 1.415 a 3.912,3.912 0 0 0 2.786,-1.154 l -1.262,-1.262 a 2.139,2.139 0 0 1 -1.523,0.631 z"
               data-name="Trazado 200855"
               id="Trazado_200855" />
            <path
               inkscape:connector-curvature="0"
               transform="translate(-17.423,-411.881)"
               d="M 38.836,435.079 A 8.932,8.932 0 0 0 29.914,444 v 6.717 a 7.392,7.392 0 0 0 2.792,5.762 5.718,5.718 0 0 0 -0.651,1.711 l -0.553,2.762 h 14.669 l -0.552,-2.762 a 5.707,5.707 0 0 0 -0.651,-1.711 7.391,7.391 0 0 0 2.791,-5.762 V 444 a 8.932,8.932 0 0 0 -8.923,-8.921 z m -5.157,24.09 0.126,-0.627 a 3.983,3.983 0 0 1 2.143,-2.785 l 2.888,2.889 2.889,-2.889 a 3.981,3.981 0 0 1 2.143,2.785 l 0.125,0.627 z m 5.157,-7.138 a 3.572,3.572 0 0 1 -3.569,-3.569 v -3 a 0.892,0.892 0 0 1 0.717,-0.874 l 2.206,-0.442 a 4.807,4.807 0 0 0 2.574,0.745 h 0.747 a 0.894,0.894 0 0 1 0.892,0.892 v 2.677 a 3.572,3.572 0 0 1 -3.567,3.571 z m 0,1.784 a 5.35,5.35 0 0 0 1.377,-0.185 l 0.279,0.838 -1.656,1.655 -1.656,-1.656 0.279,-0.838 a 5.316,5.316 0 0 0 1.377,0.187 z m 7.138,-3.1 a 5.6,5.6 0 0 1 -2.118,4.366 5.749,5.749 0 0 0 -1.631,-1.059 l -0.379,-1.138 a 5.353,5.353 0 0 0 2.343,-4.424 v -2.677 a 2.68,2.68 0 0 0 -2.677,-2.677 h -0.747 a 3.024,3.024 0 0 1 -2.1,-0.846 l -0.005,-0.028 h -0.02 a 3.016,3.016 0 0 1 -0.743,-1.2 l -1.692,0.565 a 4.814,4.814 0 0 0 0.48,1.022 l -1.05,0.21 a 2.684,2.684 0 0 0 -2.153,2.625 v 3 a 5.351,5.351 0 0 0 2.344,4.424 l -0.379,1.138 a 5.73,5.73 0 0 0 -1.631,1.059 5.6,5.6 0 0 1 -2.118,-4.366 V 444 a 7.138,7.138 0 1 1 14.276,0 z"
               data-name="Trazado 200856"
               id="Trazado_200856" />
          </g>
        </g>
      </g>
      <g
         data-name="Grupo 163222"
         id="Grupo_163222">
        <g
           style="filter:url(#Elipse_18352)"
           id="g235"
           transform="translate(285,3676.47)">
          <circle
             style="fill:#ffffff"
             r="50"
             transform="rotate(-81.19,486.00777,330.47064)"
             cy="50"
             cx="50"
             data-name="Elipse 18352"
             id="Elipse_18352-2" />
        </g>
        <g
           transform="translate(398.189,4365.05)"
           data-name="Grupo 163120"
           id="Grupo_163120">
          <g
             transform="translate(0.873,0.873)"
             data-name="Grupo 162582"
             id="Grupo_162582">
            <path
               style="fill:#515fab"
               inkscape:connector-curvature="0"
               transform="translate(-9.6,-398.675)"
               d="m 44.827,407.8 -4.151,-9.128 h -24.9 A 6.181,6.181 0 0 0 9.6,404.856 v 39.852 a 6.181,6.181 0 0 0 6.181,6.181 h 37.848 v -39.262 z"
               data-name="Trazado 200905"
               id="Trazado_200905" />
            <path
               style="fill:#6677d6"
               inkscape:connector-curvature="0"
               transform="translate(-9.6,-398.675)"
               d="m 18.942,426.919 c 0,-11.98 5.348,-22.467 13.349,-28.244 H 15.781 A 6.181,6.181 0 0 0 9.6,404.856 v 39.852 a 6.18,6.18 0 0 0 6.181,6.181 H 27.59 a 36.162,36.162 0 0 1 -8.648,-23.97 z"
               data-name="Trazado 200906"
               id="Trazado_200906" />
            <path
               style="fill:#59c2e7"
               inkscape:connector-curvature="0"
               transform="translate(-38.489,-398.675)"
               d="m 69.565,398.675 v 9.316 a 3.636,3.636 0 0 0 3.636,3.636 h 9.317 z"
               data-name="Trazado 200907"
               id="Trazado_200907" />
            <g
               transform="translate(35.259,26.881)"
               data-name="Grupo 162580"
               id="Grupo_162580">
              <path
                 style="fill:#5c84d9"
                 inkscape:connector-curvature="0"
                 transform="translate(-77.635,-450.544)"
                 d="m 92.882,467.875 a 2.168,2.168 0 0 1 -2.167,-2.168 v -6.456 a 4.372,4.372 0 0 0 -8.744,0 v 6.456 a 2.168,2.168 0 1 1 -4.335,0 v -6.456 a 8.707,8.707 0 1 1 17.414,0 v 6.456 a 2.167,2.167 0 0 1 -2.167,2.168 z"
                 data-name="Trazado 200908"
                 id="Trazado_200908" />
            </g>
            <g
               transform="translate(31.918,38.751)"
               data-name="Grupo 162581"
               id="Grupo_162581">
              <path
                 style="fill:#ffef0f"
                 inkscape:connector-curvature="0"
                 transform="translate(-71.189,-473.449)"
                 d="M 89.383,473.449 H 77.09 a 5.9,5.9 0 0 0 -5.9,5.9 v 7.3 a 5.9,5.9 0 0 0 5.9,5.9 h 12.293 a 5.9,5.9 0 0 0 5.9,-5.9 v -7.3 a 5.9,5.9 0 0 0 -5.9,-5.9 z"
                 data-name="Trazado 200909"
                 id="Trazado_200909" />
            </g>
            <path
               style="fill:#5c84d9"
               inkscape:connector-curvature="0"
               transform="translate(-47.396,-439.881)"
               d="m 93.329,487.559 v -1.449 a 1.9035,1.9035 0 1 0 -3.807,0 v 1.449 a 3.371,3.371 0 1 0 3.807,0 z"
               data-name="Trazado 200910"
               id="Trazado_200910" />
            <path
               style="fill:#5c84d9"
               inkscape:connector-curvature="0"
               transform="translate(-16.356,-429.162)"
               d="m 37.767,472.938 h -9.31 l -4.834,-4.872 a 12.669,12.669 0 0 1 4.629,-6.108 h 9.719 a 12.659,12.659 0 0 1 4.629,6.108 z"
               data-name="Trazado 200911"
               id="Trazado_200911" />
            <path
               style="fill:#4677d4"
               inkscape:connector-curvature="0"
               transform="translate(-16.356,-430.84)"
               d="m 26.212,465.44 a 13.2,13.2 0 0 0 -2.589,4.3 l 4.834,4.872 h 0.49 a 37.084,37.084 0 0 1 -2.735,-9.172 z"
               data-name="Trazado 200912"
               id="Trazado_200912" />
            <path
               style="fill:#ffffff"
               inkscape:connector-curvature="0"
               transform="translate(-15.579,-434.84)"
               d="m 27.68,473.744 v 4.873 h -5.67 a 14.1,14.1 0 0 1 0.836,-4.873 z"
               data-name="Trazado 200913"
               id="Trazado_200913" />
            <path
               style="fill:#e0e0e0"
               inkscape:connector-curvature="0"
               transform="translate(-15.579,-434.84)"
               d="m 26.4,473.744 h -3.554 a 14.1,14.1 0 0 0 -0.836,4.873 h 5.67 v -1.152 a 36.407,36.407 0 0 1 -1.28,-3.721 z"
               data-name="Trazado 200914"
               id="Trazado_200914" />
            <path
               style="fill:#ffffff"
               inkscape:connector-curvature="0"
               transform="translate(-29.504,-434.84)"
               d="m 56.586,478.616 h -5.671 v -4.873 h 4.834 a 14.067,14.067 0 0 1 0.837,4.873 z"
               data-name="Trazado 200915"
               id="Trazado_200915" />
            <circle
               style="fill:#ffffff"
               r="11.066"
               transform="translate(5.691,11.786)"
               cy="11.066"
               cx="11.066"
               data-name="Elipse 18346"
               id="Elipse_18346" />
            <path
               style="fill:#e0e0e0"
               inkscape:connector-curvature="0"
               transform="translate(-14.89,-410.362)"
               d="m 24.232,438.606 a 37.984,37.984 0 0 1 3.312,-15.672 11.067,11.067 0 0 0 -3.2,18.59 q -0.107,-1.443 -0.109,-2.918 z"
               data-name="Trazado 200916"
               id="Trazado_200916" />
          </g>
          <g
             data-name="Grupo 162583"
             id="Grupo_162583">
            <path
               inkscape:connector-curvature="0"
               transform="translate(-45.711,-438.196)"
               d="m 93.39,486.32 v -1.02 a 2.7765,2.7765 0 1 0 -5.553,0 v 1.021 a 4.244,4.244 0 1 0 5.553,0 z m -2.776,5.708 a 2.5,2.5 0 0 1 -1.41,-4.56 0.873,0.873 0 0 0 0.38,-0.72 V 485.3 a 1.0305,1.0305 0 1 1 2.061,0 v 1.449 a 0.874,0.874 0 0 0 0.379,0.72 2.5,2.5 0 0 1 -1.41,4.56 z"
               data-name="Trazado 200917"
               id="Trazado_200917" />
            <path
               inkscape:connector-curvature="0"
               transform="translate(-23.588,-424.268)"
               d="m 41.218,453.611 a 0.77,0.77 0 1 0 0.77,0.77 0.77,0.77 0 0 0 -0.77,-0.77 z"
               data-name="Trazado 200918"
               id="Trazado_200918" />
            <path
               inkscape:connector-curvature="0"
               transform="translate(-20.484,-412.66)"
               d="m 38.2,429.517 a 4.108,4.108 0 0 0 -4.2,4.108 0.873,0.873 0 1 0 1.746,0 2.363,2.363 0 1 1 2.363,2.363 0.874,0.874 0 0 0 -0.873,0.873 v 3.384 a 0.873,0.873 0 0 0 1.746,0 v -2.605 a 4.109,4.109 0 0 0 -0.789,-8.123 z"
               data-name="Trazado 200919"
               id="Trazado_200919" />
            <path
               inkscape:connector-curvature="0"
               transform="translate(-7.915,-396.99)"
               d="m 62.334,433.451 a 9.509,9.509 0 0 0 -1.758,-5.522 0.8730272,0.8730272 0 1 0 -1.425,1.009 7.769,7.769 0 0 1 1.438,4.513 v 2.5 A 9.209,9.209 0 0 0 58,435.741 v -2.29 a 5.2455,5.2455 0 0 0 -10.491,0 v 2.29 a 9.709,9.709 0 0 0 -2.589,0.211 18.058,18.058 0 0 1 0.247,-4.457 7.843,7.843 0 0 1 11.72,-4.695 0.87322677,0.87322677 0 0 0 0.924,-1.482 9.536,9.536 0 0 0 -4.121,-1.4 v -13.1 A 0.879,0.879 0 0 0 53.434,410.2 L 40.482,397.246 v 0 a 0.879,0.879 0 0 0 -0.617,-0.255 h -24.9 a 7.062,7.062 0 0 0 -7.054,7.054 v 6.17 a 0.873,0.873 0 1 0 1.746,0 v -6.17 a 5.314,5.314 0 0 1 5.308,-5.307 h 24.027 v 8.443 a 4.514,4.514 0 0 0 4.509,4.509 h 8.444 v 12.21 a 9.544,9.544 0 0 0 -5.359,2.225 c -4.007,3.381 -3.343,7.191 -3.411,10.545 a 6.805,6.805 0 0 0 -3.341,5.841 V 449.2 H 14.969 a 5.314,5.314 0 0 1 -5.308,-5.3 v -30.19 a 0.873,0.873 0 1 0 -1.746,0 v 30.19 a 7.062,7.062 0 0 0 7.054,7.054 h 24.96 a 6.785,6.785 0 0 0 6.678,5.643 H 58.9 a 6.782,6.782 0 0 0 6.774,-6.774 v -7.3 a 6.776,6.776 0 0 0 -3.341,-5.836 v -3.229 z m -6.081,0 v 2.29 H 53.69 v -5.661 a 3.5,3.5 0 0 1 2.563,3.371 z M 51.01,430.42 a 3.478,3.478 0 0 1 0.934,-0.372 v 5.693 h -2.689 c 0,-2.229 -0.333,-4.1 1.755,-5.321 z M 43.5,409.942 a 2.766,2.766 0 0 1 -2.763,-2.763 v -7.209 l 9.971,9.971 z m 20.429,32.574 v 7.3 a 5.034,5.034 0 0 1 -5.028,5.028 H 46.607 a 5.034,5.034 0 0 1 -5.022,-4.805 v 0 c 0,-0.043 0,-0.086 0,-0.129 0,-0.043 0,-0.062 0,-0.093 0,-8.087 -0.007,-7.4 0.017,-7.7 a 5.037,5.037 0 0 1 5.011,-4.633 c 13.139,0 12.773,-0.091 13.8,0.232 a 5.038,5.038 0 0 1 3.518,4.8 z"
               data-name="Trazado 200920"
               id="Trazado_200920" />
            <path
               inkscape:connector-curvature="0"
               transform="translate(-13.205,-407.946)"
               d="m 42.773,431.671 a 11.939,11.939 0 1 0 -18.373,10.055 14.006,14.006 0 0 0 -3.879,5.7 v 0 a 15.026,15.026 0 0 0 -0.889,5.172 0.873,0.873 0 0 0 0.873,0.873 h 20.656 a 0.874,0.874 0 0 0 0.873,-0.873 14.249,14.249 0 0 0 -4.771,-10.869 11.939,11.939 0 0 0 5.51,-10.056 z M 21.972,448.6 h 3.334 v 3.127 h -3.9 a 13.2,13.2 0 0 1 0.566,-3.127 z m 14.39,3.127 V 448.6 H 39.7 a 13.189,13.189 0 0 1 0.564,3.127 z m -0.762,-9.1 a 12.181,12.181 0 0 1 3.4,4.23 h -3.51 a 0.873,0.873 0 0 0 -0.873,0.873 v 4 h -7.564 v -4 a 0.873,0.873 0 0 0 -0.873,-0.873 h -3.515 a 12.192,12.192 0 0 1 3.4,-4.23 11.962,11.962 0 0 0 9.531,0 z m -5.814,-0.81 a 10.193,10.193 0 1 1 11.241,-10.139 10.208,10.208 0 0 1 -11.24,10.132 z"
               data-name="Trazado 200921"
               id="Trazado_200921" />
          </g>
        </g>
      </g>
      <g
         data-name="Grupo 163221"
         id="Grupo_163221">
        <g
           style="filter:url(#Elipse_18353)"
           id="g262"
           transform="translate(285,3676.47)">
          <circle
             style="fill:#ffffff"
             r="50"
             transform="rotate(-81.19,576.00694,407.59564)"
             cy="50"
             cx="50"
             data-name="Elipse 18353"
             id="Elipse_18353-2" />
        </g>
        <g
           transform="translate(398.288,4521.783)"
           data-name="Grupo 163121"
           id="Grupo_163121">
          <g
             transform="translate(0.978,0.978)"
             data-name="Grupo 162600"
             id="Grupo_162600">
            <g
               transform="translate(41.067)"
               data-name="Grupo 162585"
               id="Grupo_162585">
              <path
                 style="fill:#e6e9ed"
                 inkscape:connector-curvature="0"
                 transform="translate(-68.728,-414.502)"
                 d="M 76.55,422.324 V 414.5 h 9.778 v 23.467 h -17.6 v -15.643 z"
                 data-name="Trazado 200922"
                 id="Trazado_200922" />
            </g>
            <g
               transform="translate(41.067)"
               data-name="Grupo 162586"
               id="Grupo_162586">
              <path
                 style="fill:#c6412a"
                 inkscape:connector-curvature="0"
                 transform="translate(-68.728,-414.502)"
                 d="m 76.55,414.5 v 7.822 h -7.822 z"
                 data-name="Trazado 200923"
                 id="Trazado_200923" />
            </g>
            <g
               data-name="Grupo 162587"
               id="Grupo_162587">
              <path
                 style="fill:#ffef0f"
                 inkscape:connector-curvature="0"
                 transform="translate(-1.598,-414.502)"
                 d="m 21.124,428.6 a 2.938,2.938 0 0 1 -2.9,2.522 8.134,8.134 0 0 1 -5.29,-1.955 h -1.558 a 3.91,3.91 0 0 0 -3.912,3.911 v 0.978 H 5.51 a 3.9,3.9 0 0 0 -2.6,0.988 14.519,14.519 0 0 1 13.208,-20.544 h 8.115 a 14.516,14.516 0 0 1 13.209,20.543 3.9,3.9 0 0 0 -2.6,-0.988 h -1.955 v -1.819 a 3.915,3.915 0 0 0 -1.74,-3.256 l -1.193,-0.792 a 2.937,2.937 0 0 1 -2.933,2.933 8.157,8.157 0 0 1 -5.9,-2.522 z"
                 data-name="Trazado 200924"
                 id="Trazado_200924" />
            </g>
            <g
               transform="translate(19.556,39.424)"
               data-name="Grupo 162588"
               id="Grupo_162588">
              <path
                 style="fill:#4e2e8e"
                 inkscape:connector-curvature="0"
                 transform="translate(-33.565,-478.946)"
                 d="m 43.343,484.52 v 9.758 H 39.432 V 493.3 a 2.93,2.93 0 0 0 -2.933,-2.933 h -0.978 l -1.956,-7.822 1.8,-3.6 a 12.691,12.691 0 0 1 7.949,5.574 z"
                 data-name="Trazado 200925"
                 id="Trazado_200925" />
            </g>
            <g
               transform="translate(5.867,39.414)"
               data-name="Grupo 162589"
               id="Grupo_162589">
              <path
                 style="fill:#4e2e8e"
                 inkscape:connector-curvature="0"
                 transform="translate(-11.188,-478.93)"
                 d="m 22.921,490.361 a 1.961,1.961 0 0 1 1.956,1.956 v 3.911 a 1.961,1.961 0 0 1 -1.956,1.956 H 15.1 a 3.91,3.91 0 0 1 -3.912,-3.912 v -2.933 a 12.735,12.735 0 0 1 9.934,-12.408 l 1.8,3.608 -1.955,7.822 z"
                 data-name="Trazado 200926"
                 id="Trazado_200926" />
            </g>
            <g
               transform="translate(15.645,43.022)"
               data-name="Grupo 162590"
               id="Grupo_162590">
              <path
                 style="fill:#ffeaa7"
                 inkscape:connector-curvature="0"
                 transform="translate(-27.172,-484.828)"
                 d="m 31.083,484.828 1.956,7.822 h -5.867 l 1.955,-7.822 z"
                 data-name="Trazado 200927"
                 id="Trazado_200927" />
            </g>
            <g
               transform="translate(15.801,39.111)"
               data-name="Grupo 162591"
               id="Grupo_162591">
              <path
                 style="fill:#fcd770"
                 inkscape:connector-curvature="0"
                 transform="translate(-27.427,-478.435)"
                 d="m 32.981,478.748 -1.8,3.6 h -1.955 l -1.8,-3.608 a 12.952,12.952 0 0 1 2.777,-0.3 12.487,12.487 0 0 1 2.778,0.308 z"
                 data-name="Trazado 200928"
                 id="Trazado_200928" />
            </g>
            <g
               transform="translate(17.6,50.844)"
               data-name="Grupo 162592"
               id="Grupo_162592">
              <path
                 style="fill:#f0d0b4"
                 inkscape:connector-curvature="0"
                 transform="translate(-30.368,-497.615)"
                 d="m 34.28,497.615 h 0.978 a 2.93,2.93 0 0 1 2.933,2.933 v 0.978 h -5.867 v -1.955 a 1.961,1.961 0 0 0 -1.956,-1.956 z"
                 data-name="Trazado 200929"
                 id="Trazado_200929" />
            </g>
            <g
               transform="translate(31.289,19.555)"
               data-name="Grupo 162593"
               id="Grupo_162593">
              <path
                 style="fill:#f0d0b4"
                 inkscape:connector-curvature="0"
                 transform="translate(-52.745,-446.468)"
                 d="m 57.3,447.456 a 3.911,3.911 0 0 1 -2.6,6.834 h -1.955 v -7.822 H 54.7 a 3.9,3.9 0 0 1 2.6,0.988 z"
                 data-name="Trazado 200930"
                 id="Trazado_200930" />
            </g>
            <g
               transform="translate(5.867,13.688)"
               data-name="Grupo 162594"
               id="Grupo_162594">
              <path
                 style="fill:#f0d0b4"
                 inkscape:connector-curvature="0"
                 transform="translate(-11.188,-436.878)"
                 d="m 36.61,450.567 v 1.956 a 9.781,9.781 0 0 1 -9.778,9.778 h -5.866 a 9.782,9.782 0 0 1 -9.778,-9.778 v -10.756 a 3.91,3.91 0 0 1 3.912,-3.911 h 1.554 a 8.134,8.134 0 0 0 5.29,1.955 2.938,2.938 0 0 0 2.9,-2.522 8.157,8.157 0 0 0 5.9,2.522 2.937,2.937 0 0 0 2.933,-2.933 l 1.193,0.792 a 3.915,3.915 0 0 1 1.74,3.256 z"
                 data-name="Trazado 200931"
                 id="Trazado_200931" />
            </g>
            <g
               transform="translate(0,19.555)"
               data-name="Grupo 162595"
               id="Grupo_162595">
              <path
                 style="fill:#f0d0b4"
                 inkscape:connector-curvature="0"
                 transform="translate(-1.598,-446.468)"
                 d="m 7.465,446.468 v 7.822 H 5.51 a 3.911,3.911 0 1 1 0,-7.822 z"
                 data-name="Trazado 200932"
                 id="Trazado_200932" />
            </g>
            <g
               transform="translate(17.6,54.755)"
               data-name="Grupo 162596"
               id="Grupo_162596">
              <path
                 style="fill:#aab2bd"
                 inkscape:connector-curvature="0"
                 transform="translate(-30.368,-504.008)"
                 d="m 59.7,504.008 v 0.978 a 2.929,2.929 0 0 1 -2.933,2.933 h -26.4 a 1.961,1.961 0 0 0 1.956,-1.956 v -1.956 H 59.7 Z"
                 data-name="Trazado 200933"
                 id="Trazado_200933" />
            </g>
            <g
               transform="translate(29.333,41.067)"
               data-name="Grupo 162597"
               id="Grupo_162597">
              <path
                 style="fill:#ccd1d9"
                 inkscape:connector-curvature="0"
                 transform="translate(-49.548,-481.632)"
                 d="m 67.148,483.587 v 11.733 h -17.6 v -11.733 a 1.961,1.961 0 0 1 1.956,-1.955 h 13.689 a 1.961,1.961 0 0 1 1.955,1.955 z"
                 data-name="Trazado 200934"
                 id="Trazado_200934" />
            </g>
            <g
               transform="translate(36.178,44.978)"
               data-name="Grupo 162598"
               id="Grupo_162598">
              <circle
                 style="fill:#69d6f4"
                 r="1.956"
                 cy="1.956"
                 cx="1.956"
                 data-name="Elipse 18347"
                 id="Elipse_18347" />
            </g>
            <g
               transform="translate(21.512,29.333)"
               data-name="Grupo 162599"
               id="Grupo_162599">
              <path
                 style="fill:#aab2bd"
                 inkscape:connector-curvature="0"
                 transform="translate(-36.762,-462.452)"
                 d="m 40.673,463.43 v 3.911 a 0.981,0.981 0 0 1 -0.978,0.978 H 37.74 a 0.981,0.981 0 0 1 -0.978,-0.978 v -4.889 H 39.7 a 0.98,0.98 0 0 1 0.973,0.978 z"
                 data-name="Trazado 200935"
                 id="Trazado_200935" />
            </g>
          </g>
          <g
             data-name="Grupo 162601"
             id="Grupo_162601">
            <path
               inkscape:connector-curvature="0"
               transform="translate(0,-412.903)"
               d="M 45.956,453.97 H 32.267 a 2.933,2.933 0 0 0 -2.843,2.245 13.59,13.59 0 0 0 -3.711,-2.739 10.775,10.775 0 0 0 7.532,-10.261 v -0.978 h 0.978 a 4.894,4.894 0 0 0 4.888,-4.888 4.838,4.838 0 0 0 -1.159,-3.122 A 15.452,15.452 0 0 0 23.613,412.9 H 15.5 A 15.452,15.452 0 0 0 1.159,434.225 4.841,4.841 0 0 0 0,437.348 a 4.894,4.894 0 0 0 4.889,4.888 h 0.978 v 0.978 a 10.773,10.773 0 0 0 7.554,10.268 13.693,13.693 0 0 0 -7.554,12.218 v 2.933 a 4.895,4.895 0 0 0 4.889,4.889 h 34.222 a 3.915,3.915 0 0 0 3.912,-3.911 V 456.9 a 2.937,2.937 0 0 0 -2.933,-2.933 z m -16.622,5.267 v 8.423 h -1.956 a 3.915,3.915 0 0 0 -3.911,-3.911 h -0.215 l -1.682,-6.73 1.28,-2.563 a 11.673,11.673 0 0 1 6.483,4.78 z m -9.778,-5.267 a 11.759,11.759 0 0 1 1.31,0.083 l -0.937,1.873 h -0.747 l -0.938,-1.878 a 11.915,11.915 0 0 1 1.312,-0.078 z m -0.215,3.912 h 0.429 l 1.466,5.867 h -3.362 z m 1.991,7.822 h 2.136 a 1.958,1.958 0 0 1 1.956,1.956 h -3.913 v -0.978 a 2.9,2.9 0 0 0 -0.18,-0.982 z m 12.891,-25.422 h -0.978 v -5.867 h 0.978 a 2.9335,2.9335 0 1 1 0,5.867 z m -29.333,0 a 2.9335,2.9335 0 0 1 0,-5.867 h 0.978 v 5.867 z M 5.868,432.46 H 4.889 A 4.836,4.836 0 0 0 2.762,432.967 13.4,13.4 0 0 1 1.956,428.401 13.557,13.557 0 0 1 15.5,414.859 h 8.116 a 13.508,13.508 0 0 1 12.735,18.107 4.835,4.835 0 0 0 -2.126,-0.507 h -0.978 v -0.84 a 4.875,4.875 0 0 0 -2.177,-4.068 l -0.812,-0.542 a 3.9,3.9 0 0 0 -3.855,-3.351 h -1.959 v 1.956 H 26.4 a 1.9555,1.9555 0 1 1 0,3.911 7.2,7.2 0 0 1 -4.89,-1.942 v -0.014 a 3.915,3.915 0 0 0 -3.911,-3.911 h -1.955 v 1.956 H 17.6 a 1.9555,1.9555 0 1 1 0,3.911 7.151,7.151 0 0 1 -6.793,-4.9 l -0.1,-0.3 -1.855,0.618 0.1,0.3 a 9.1,9.1 0 0 0 1.21,2.383 4.878,4.878 0 0 0 -4.3,4.829 z m 10.756,19.556 a 8.81,8.81 0 0 1 -8.8,-8.8 v -10.757 a 2.937,2.937 0 0 1 2.933,-2.933 h 1.208 a 9.1,9.1 0 0 0 5.636,1.956 3.9,3.9 0 0 0 3.312,-1.853 9.155,9.155 0 0 0 5.488,1.853 3.909,3.909 0 0 0 3.563,-2.317 l 0.02,0.013 a 2.927,2.927 0 0 1 1.307,2.441 v 11.6 a 8.81,8.81 0 0 1 -8.8,8.8 z M 17.6,471.57 H 10.756 A 2.937,2.937 0 0 1 7.823,468.637 V 465.7 a 11.747,11.747 0 0 1 8.435,-11.253 l 1.283,2.567 -1.682,6.73 h -3.671 l -2.246,3.368 1.627,1.084 1.665,-2.5 h 5.344 a 0.979,0.979 0 0 1 0.978,0.978 v 3.911 a 0.979,0.979 0 0 1 -0.978,0.978 z m 27.379,0 H 21.331 a 2.9,2.9 0 0 0 0.18,-0.978 v -0.978 h 25.422 a 1.957,1.957 0 0 1 -1.955,1.956 z M 31.291,467.659 V 456.9 a 0.979,0.979 0 0 1 0.978,-0.978 h 13.687 a 0.979,0.979 0 0 1 0.978,0.978 v 10.756 z"
               data-name="Trazado 200936"
               id="Trazado_200936" />
            <path
               inkscape:connector-curvature="0"
               transform="translate(-13.652,-425.935)"
               d="m 39.075,451.357 a 3.915,3.915 0 0 0 3.911,-3.911 v -0.978 H 41.03 v 0.978 a 1.9555,1.9555 0 0 1 -3.911,0 v -0.978 h -1.956 v 0.978 a 3.915,3.915 0 0 0 3.912,3.911 z"
               data-name="Trazado 200937"
               id="Trazado_200937" />
            <path
               inkscape:connector-curvature="0"
               transform="translate(-6.205,-425.935)"
               d="m 23.805,447.446 v -0.978 H 21.85 v 0.978 a 1.9555,1.9555 0 0 1 -3.911,0 v -0.978 h -1.956 v 0.978 a 3.911,3.911 0 0 0 7.822,0 z"
               data-name="Trazado 200938"
               id="Trazado_200938" />
            <path
               inkscape:connector-curvature="0"
               transform="translate(-7.447,-430.279)"
               d="m 32.869,467.435 a 1.957,1.957 0 0 0 1.955,-1.956 v -3.911 a 1.957,1.957 0 0 0 -1.955,-1.956 H 27 v -1.955 h -1.953 v 1.955 h -1.956 v -1.955 h -1.955 v 1.955 H 19.18 v 1.956 h 1.956 v 1.956 h 1.955 v -1.956 h 1.956 v 1.956 H 27 v -1.956 h 1.955 v 3.911 a 1.958,1.958 0 0 0 1.956,1.956 z m -1.956,-5.867 h 1.956 v 3.911 h -1.956 z"
               data-name="Trazado 200939"
               id="Trazado_200939" />
            <path
               inkscape:connector-curvature="0"
               transform="translate(-22.96,-441.449)"
               d="M 62.071,486.427 A 2.933,2.933 0 1 0 65,489.36 2.937,2.937 0 0 0 62.071,486.427 Z m 0,3.911 a 0.978,0.978 0 1 1 0.978,-0.978 0.979,0.979 0 0 1 -0.978,0.978 z"
               data-name="Trazado 200940"
               id="Trazado_200940" />
            <path
               inkscape:connector-curvature="0"
               transform="translate(-26.063,-412.903)"
               d="m 75.525,412.9 -8.4,8.4 v 17.027 H 86.686 V 412.9 Z m -0.573,3.338 v 4.484 H 70.468 Z M 84.73,436.37 H 69.086 v -13.689 h 7.822 v -7.822 h 7.822 z"
               data-name="Trazado 200941"
               id="Trazado_200941" />
            <path
               inkscape:connector-curvature="0"
               transform="translate(-26.063,-430.279)"
               d="m 67.13,457.657 h 3.911 v 1.955 H 67.13 Z"
               data-name="Trazado 200942"
               id="Trazado_200942" />
            <path
               inkscape:connector-curvature="0"
               transform="translate(-29.787,-430.279)"
               d="m 76.72,457.657 h 13.689 v 1.955 H 76.72 Z"
               data-name="Trazado 200943"
               id="Trazado_200943" />
            <path
               inkscape:connector-curvature="0"
               transform="translate(-26.063,-432.761)"
               d="m 67.13,464.05 h 19.556 v 1.956 H 67.13 Z"
               data-name="Trazado 200944"
               id="Trazado_200944" />
            <path
               inkscape:connector-curvature="0"
               transform="translate(-26.063,-435.243)"
               d="m 67.13,470.443 h 1.956 V 472.4 H 67.13 Z"
               data-name="Trazado 200945"
               id="Trazado_200945" />
            <path
               inkscape:connector-curvature="0"
               transform="translate(-28.545,-435.243)"
               d="m 73.523,470.443 h 3.912 v 1.957 h -3.912 z"
               data-name="Trazado 200946"
               id="Trazado_200946" />
            <path
               inkscape:connector-curvature="0"
               transform="translate(-32.269,-435.243)"
               d="m 83.113,470.443 h 9.778 v 1.957 h -9.778 z"
               data-name="Trazado 200947"
               id="Trazado_200947" />
            <path
               inkscape:connector-curvature="0"
               transform="translate(-33.51,-415.386)"
               d="m 86.31,419.3 h 3.911 v 1.955 H 86.31 Z"
               data-name="Trazado 200948"
               id="Trazado_200948" />
            <path
               inkscape:connector-curvature="0"
               transform="translate(-33.51,-417.868)"
               d="m 86.31,425.69 h 3.911 v 1.956 H 86.31 Z"
               data-name="Trazado 200949"
               id="Trazado_200949" />
            <path
               inkscape:connector-curvature="0"
               transform="translate(-28.545,-420.35)"
               d="m 73.523,432.083 h 11.733 v 1.956 H 73.523 Z"
               data-name="Trazado 200950"
               id="Trazado_200950" />
            <path
               inkscape:connector-curvature="0"
               transform="translate(-28.545,-422.832)"
               d="m 73.523,438.477 h 11.733 v 1.955 H 73.523 Z"
               data-name="Trazado 200951"
               id="Trazado_200951" />
            <path
               inkscape:connector-curvature="0"
               transform="translate(-28.545,-425.314)"
               d="m 73.523,444.87 h 11.733 v 1.956 H 73.523 Z"
               data-name="Trazado 200952"
               id="Trazado_200952" />
          </g>
        </g>
      </g>
    </g>
  </g>
</svg>
