<svg xmlns="http://www.w3.org/2000/svg" width="133" height="133" viewBox="0 0 133 133">
  <g id="Grupo_163187" data-name="Grupo 163187" transform="translate(-374 -6578.905)">
    <g id="Grupo_163134" data-name="Grupo 163134" transform="translate(-16 3811.904)">
      <g id="Elipse_18058" data-name="Elipse 18058" transform="translate(390 2767.001)" fill="#fff" stroke="#c6412a" stroke-width="4">
        <circle cx="66.5" cy="66.5" r="66.5" stroke="none"/>
        <circle cx="66.5" cy="66.5" r="64.5" fill="none"/>
      </g>
    </g>
    <g id="Finance" transform="translate(380.973 6244.391)">
      <rect id="Rectángulo_44567" data-name="Rectángulo 44567" width="31.211" height="49.417" rx="4.467" transform="translate(17.3 389.309)" fill="#6677d6"/>
      <path id="Trazado_197664" data-name="Trazado 197664" d="M27.167,431.233H97.392v36.413H27.167Z" transform="translate(-4.665 -28.919)" fill="#5eac24"/>
      <path id="Trazado_197666" data-name="Trazado 197666" d="M119.781,374.637H80.767l19.507-10.4Z" transform="translate(-27.054 -0.933)" fill="#c6412a"/>
      <path id="Trazado_197667" data-name="Trazado 197667" d="M119.045,382.1v5.2H85.233v-5.2Z" transform="translate(-28.919 -8.396)" fill="#fee9ab"/>
      <path id="Trazado_197668" data-name="Trazado 197668" d="M132.134,391.033h5.2v13h-5.2Z" transform="translate(-48.51 -12.127)" fill="#c6412a"/>
      <path id="Trazado_197669" data-name="Trazado 197669" d="M95.921,445.369v15.605a5.2,5.2,0,0,0-5.2,5.2H41.3a5.2,5.2,0,0,0-5.2-5.2V445.369a5.2,5.2,0,0,0,5.2-5.2H90.719A5.2,5.2,0,0,0,95.921,445.369Z" transform="translate(-8.396 -32.651)" fill="#b2fa09"/>
      <path id="Trazado_197671" data-name="Trazado 197671" d="M109.8,391.033H115v13h-5.2Z" transform="translate(-39.181 -12.127)" fill="#c6412a"/>
      <circle id="Elipse_18284" data-name="Elipse 18284" cx="7.803" cy="7.803" r="7.803" transform="translate(49.812 412.718)" fill="#ffef0f"/>
      <path id="Trazado_197673" data-name="Trazado 197673" d="M87.467,391.033h5.2v13h-5.2Z" transform="translate(-29.852 -12.127)" fill="#c6412a"/>
      <circle id="Elipse_18285" data-name="Elipse 18285" cx="2.601" cy="2.601" r="2.601" transform="translate(30.305 378.906)" fill="#ffef0f"/>
      <path id="Trazado_197674" data-name="Trazado 197674" d="M35.14,364.6A16.843,16.843,0,0,1,47.1,369.554l1.835-1.842a19.507,19.507,0,0,0-27.583,0l1.835,1.842A16.842,16.842,0,0,1,35.14,364.6Z" transform="translate(-2.234 0)"/>
      <path id="Trazado_197675" data-name="Trazado 197675" d="M47.892,375.124a14.3,14.3,0,0,0-20.22-.008l-.008.008,1.839,1.839a11.7,11.7,0,0,1,16.549,0Z" transform="translate(-4.873 -3.731)"/>
      <path id="Trazado_197676" data-name="Trazado 197676" d="M46.856,382.541A9.089,9.089,0,0,0,34,382.52l-.021.021,1.848,1.831A6.486,6.486,0,0,1,45,384.365l.008.008Z" transform="translate(-7.511 -7.464)"/>
      <path id="Trazado_197677" data-name="Trazado 197677" d="M38.333,392.7a3.9,3.9,0,1,0,3.9-3.9A3.9,3.9,0,0,0,38.333,392.7Zm5.2,0a1.3,1.3,0,1,1-1.3-1.3A1.3,1.3,0,0,1,43.535,392.7Z" transform="translate(-9.329 -11.195)"/>
      <path id="Trazado_197678" data-name="Trazado 197678" d="M92.727,419.671H49.812v-9.1a3.9,3.9,0,0,0-3.9-3.9H19.9a3.9,3.9,0,0,0-3.9,3.9v44.216a3.9,3.9,0,0,0,3.9,3.9H92.727a1.3,1.3,0,0,0,1.3-1.3V420.971A1.3,1.3,0,0,0,92.727,419.671Zm-71.525,1.3v35.112H19.9a1.3,1.3,0,0,1-1.3-1.3V410.567a1.3,1.3,0,0,1,1.3-1.3H45.911a1.3,1.3,0,0,1,1.3,1.3v9.1H22.5A1.3,1.3,0,0,0,21.2,420.971Zm70.225,35.112H23.8V422.272H91.427Z" transform="translate(0 -18.657)"/>
      <path id="Trazado_197679" data-name="Trazado 197679" d="M80.937,465.073a9.1,9.1,0,1,0-9.1-9.1h0A9.114,9.114,0,0,0,80.937,465.073Zm0-15.605a6.5,6.5,0,1,1-6.5,6.5A6.5,6.5,0,0,1,80.937,449.468Z" transform="translate(-23.322 -35.45)"/>
      <path id="Trazado_197680" data-name="Trazado 197680" d="M35.167,461.341a3.9,3.9,0,0,1,3.9,3.9,1.3,1.3,0,0,0,1.3,1.3H89.786a1.3,1.3,0,0,0,1.3-1.3,3.9,3.9,0,0,1,3.9-3.9,1.3,1.3,0,0,0,1.3-1.3V444.435a1.3,1.3,0,0,0-1.3-1.3,3.9,3.9,0,0,1-3.9-3.9,1.3,1.3,0,0,0-1.3-1.3H40.369a1.3,1.3,0,0,0-1.3,1.3,3.9,3.9,0,0,1-3.9,3.9,1.3,1.3,0,0,0-1.3,1.3v15.605A1.3,1.3,0,0,0,35.167,461.341Zm1.3-15.735a6.518,6.518,0,0,0,5.072-5.072H88.616a6.52,6.52,0,0,0,5.072,5.072v13.265a6.52,6.52,0,0,0-5.072,5.072H41.539a6.518,6.518,0,0,0-5.072-5.072Z" transform="translate(-7.463 -31.718)"/>
      <path id="Trazado_197681" data-name="Trazado 197681" d="M118.848,390.61h-2.6v-10.4a1.3,1.3,0,0,0,1.3-1.3V375h1.3a1.3,1.3,0,0,0,.613-2.447l-19.507-10.4a1.3,1.3,0,0,0-1.225,0l-19.507,10.4A1.3,1.3,0,0,0,79.834,375h1.3v3.9a1.3,1.3,0,0,0,1.3,1.3v10.4h-2.6a1.3,1.3,0,0,0-1.3,1.3v5.2a1.3,1.3,0,0,0,1.3,1.3h39.014a1.3,1.3,0,0,0,1.3-1.3v-5.2A1.3,1.3,0,0,0,118.848,390.61Zm-5.2,0h-2.6v-10.4h2.6Zm-18.207-10.4v10.4h-5.2v-10.4Zm2.6,0h2.6v10.4h-2.6Zm5.2,0h5.2v10.4h-5.2Zm-3.9-15.432,14.305,7.63H85.035ZM114.946,375v2.6H83.735V375Zm-29.911,5.2h2.6v10.4h-2.6Zm32.512,15.605H81.134v-2.6h36.413Z" transform="translate(-26.12)"/>
    </g>
  </g>
</svg>
