<svg xmlns="http://www.w3.org/2000/svg" width="133" height="133" viewBox="0 0 133 133">
  <g id="Grupo_163184" data-name="Grupo 163184" transform="translate(-97)">
    <g id="Grupo_135404" data-name="Grupo 135404" transform="translate(97)">
      <g id="Elipse_18048" data-name="Elipse 18048" fill="#fff" stroke="#6677d6" stroke-width="4">
        <circle cx="66.5" cy="66.5" r="66.5" stroke="none"/>
        <circle cx="66.5" cy="66.5" r="64.5" fill="none"/>
      </g>
    </g>
    <g id="Grupo_163182" data-name="Grupo 163182" transform="translate(53.184 -389.402)">
      <g id="Grupo_158087" data-name="Grupo 158087" transform="translate(80.794 412.493)">
        <path id="Trazado_197461" data-name="Trazado 197461" d="M80.963,493.7V414.363a1.7,1.7,0,0,1,1.7-1.7h55.641a1.7,1.7,0,0,1,1.7,1.7V493.7a1.7,1.7,0,0,1-1.7,1.7H82.665a1.7,1.7,0,0,1-1.7-1.7Z" transform="translate(-80.963 -412.662)" fill="#fffaf0"/>
      </g>
      <g id="Grupo_158088" data-name="Grupo 158088" transform="translate(80.794 412.493)">
        <path id="Trazado_197462" data-name="Trazado 197462" d="M140.008,418.849v-4.486a1.7,1.7,0,0,0-1.7-1.7H82.665a1.7,1.7,0,0,0-1.7,1.7v4.486Z" transform="translate(-80.963 -412.662)" fill="#ffef0f"/>
      </g>
      <g id="Grupo_158089" data-name="Grupo 158089" transform="translate(117.04 485.134)">
        <path id="Trazado_197463" data-name="Trazado 197463" d="M129.228,508.557l-2.283-1.237a1.175,1.175,0,0,0-1.119,0l-2.282,1.237a1.174,1.174,0,0,1-1.734-1.032v-13h9.151v13a1.174,1.174,0,0,1-1.733,1.032Z" transform="translate(-121.81 -494.524)" fill="#6677d6"/>
      </g>
      <g id="Grupo_158090" data-name="Grupo 158090" transform="translate(109.853 465.595)">
        <circle id="Elipse_18274" data-name="Elipse 18274" cx="11.76" cy="11.76" r="11.76" fill="#6677d6"/>
      </g>
      <g id="Grupo_158091" data-name="Grupo 158091" transform="translate(132.823 412.493)">
        <path id="Trazado_197464" data-name="Trazado 197464" d="M144.91,412.662H139.6a1.7,1.7,0,0,1,1.7,1.7V493.7a1.7,1.7,0,0,1-1.7,1.7h5.314a1.7,1.7,0,0,0,1.7-1.7V414.363A1.7,1.7,0,0,0,144.91,412.662Z" transform="translate(-139.596 -412.662)" fill="#c6412a"/>
      </g>
      <g id="Grupo_158092" data-name="Grupo 158092" transform="translate(132.823 412.493)">
        <path id="Trazado_197465" data-name="Trazado 197465" d="M144.91,412.662H139.6a1.7,1.7,0,0,1,1.7,1.7v4.486h5.315v-4.486A1.7,1.7,0,0,0,144.91,412.662Z" transform="translate(-139.596 -412.662)" fill="#edbf66"/>
      </g>
      <g id="Grupo_158093" data-name="Grupo 158093" transform="translate(118.959 465.562)">
        <path id="Trazado_197466" data-name="Trazado 197466" d="M126.63,472.468a11.753,11.753,0,0,0-2.658.305,11.761,11.761,0,0,1,0,22.914,11.762,11.762,0,1,0,2.658-23.219Z" transform="translate(-123.972 -472.468)" fill="#6677d6"/>
      </g>
      <g id="Grupo_158094" data-name="Grupo 158094" transform="translate(117.771 471.274)">
        <path id="Trazado_197467" data-name="Trazado 197467" d="M126.479,478.905l-3.845,4.608v4.724a.542.542,0,0,0,.542.541h6.6a.542.542,0,0,0,.542-.541v-4.724Z" transform="translate(-122.634 -478.905)" fill="#fffaf0"/>
      </g>
      <g id="Grupo_158095" data-name="Grupo 158095" transform="translate(79.466 411.164)">
        <path id="Trazado_197468" data-name="Trazado 197468" d="M138.137,411.164H82.5a3.034,3.034,0,0,0-3.03,3.03v79.334a3.034,3.034,0,0,0,3.03,3.03H96.769a1.329,1.329,0,0,0,0-2.658H82.5a.373.373,0,0,1-.373-.373V420.009H96.769a1.329,1.329,0,0,0,0-2.658H82.124v-3.157a.373.373,0,0,1,.373-.373h55.641a.373.373,0,0,1,.373.373v3.157H102.083a1.329,1.329,0,0,0,0,2.658H138.51v73.519a.373.373,0,0,1-.373.373H127.521V489a13.091,13.091,0,1,0-11.81,0v4.9H102.083a1.329,1.329,0,0,0,0,2.658h13.628v1.576a2.51,2.51,0,0,0,2.5,2.506,2.508,2.508,0,0,0,1.193-.305l2.21-1.2,2.209,1.2a2.5,2.5,0,0,0,3.7-2.2v-1.576h10.616a3.034,3.034,0,0,0,3.03-3.03V414.194a3.034,3.034,0,0,0-3.03-3.03Zm-26.955,66.16a10.434,10.434,0,1,1,10.434,10.433A10.446,10.446,0,0,1,111.182,477.324Zm11.627,19.438a2.494,2.494,0,0,0-2.386,0l-2.054,1.114v-7.867a13.12,13.12,0,0,0,6.495,0v7.867Z" transform="translate(-79.466 -411.164)"/>
        <path id="Trazado_197469" data-name="Trazado 197469" d="M89.755,444.806a1.329,1.329,0,0,0,1.329,1.328h40.783a1.329,1.329,0,0,0,0-2.658H91.084a1.33,1.33,0,0,0-1.329,1.329Z" transform="translate(-80.625 -414.804)"/>
        <path id="Trazado_197470" data-name="Trazado 197470" d="M91.084,455.09h40.783a1.329,1.329,0,0,0,0-2.658H91.084a1.329,1.329,0,1,0,0,2.658Z" transform="translate(-80.625 -415.813)"/>
        <path id="Trazado_197471" data-name="Trazado 197471" d="M91.084,464.045h40.783a1.329,1.329,0,0,0,0-2.658H91.084a1.329,1.329,0,1,0,0,2.658Z" transform="translate(-80.625 -416.821)"/>
        <path id="Trazado_197472" data-name="Trazado 197472" d="M123.93,434.033a1.329,1.329,0,0,0,0-2.658h-22.6a1.329,1.329,0,0,0,0,2.658Z" transform="translate(-81.779 -413.441)"/>
        <path id="Trazado_197473" data-name="Trazado 197473" d="M100.188,480.286h-9.1a1.329,1.329,0,1,0,0,2.658h9.1a1.329,1.329,0,1,0,0-2.658Z" transform="translate(-80.625 -418.95)"/>
        <path id="Trazado_197474" data-name="Trazado 197474" d="M100.188,487h-9.1a1.329,1.329,0,1,0,0,2.658h9.1a1.329,1.329,0,1,0,0-2.658Z" transform="translate(-80.625 -419.706)"/>
        <path id="Trazado_197475" data-name="Trazado 197475" d="M131.483,488.069v-4.724a1.331,1.331,0,0,0-.308-.851l-3.844-4.609a1.329,1.329,0,0,0-2.041,0l-3.845,4.609a1.331,1.331,0,0,0-.308.851v4.724a1.873,1.873,0,0,0,1.871,1.871h6.6a1.872,1.872,0,0,0,1.871-1.871Zm-2.658-.787h-5.03v-3.455l2.515-3.016,2.516,3.016v3.455Z" transform="translate(-84.16 -418.626)"/>
      </g>
    </g>
  </g>
</svg>
