<svg xmlns="http://www.w3.org/2000/svg" width="157" height="157" viewBox="0 0 157 157">
  <g id="Grupo_163229" data-name="Grupo 163229" transform="translate(-721.5 -1598.447)">
    <g id="Grupo_163226" data-name="Grupo 163226" transform="translate(419.5 852.447)">
      <g id="Rectángulo_44464" data-name="Rectángulo 44464" transform="translate(302 746)" fill="#fff" stroke="#c44230" stroke-width="4">
        <rect width="157" height="157" rx="78.5" stroke="none"/>
        <rect x="2" y="2" width="153" height="153" rx="76.5" fill="none"/>
      </g>
    </g>
    <g id="Grupo_163132" data-name="Grupo 163132" transform="translate(742 1222.036)">
      <g id="Grupo_158082" data-name="Grupo 158082" transform="translate(9.598 406.526)">
        <g id="Grupo_158073" data-name="Grupo 158073" transform="translate(23.299 38.748)">
          <path id="Trazado_197427" data-name="Trazado 197427" d="M95.886,444.876a3.206,3.206,0,0,1,3.2,3.2,3.218,3.218,0,0,1-3.2,3.2H35.165a3.205,3.205,0,0,1-3.2-3.2,3.22,3.22,0,0,1,3.2-3.2Z" transform="translate(-31.969 -444.876)" fill="#aab2bd"/>
        </g>
        <g id="Grupo_158074" data-name="Grupo 158074" transform="translate(16.907 45.67)">
          <path id="Trazado_197428" data-name="Trazado 197428" d="M104.419,470.763a24.713,24.713,0,0,0-3.068-6.5l-8.66-12.991H38.361L29.7,464.259A24.539,24.539,0,0,0,50.106,502.4h30.84a24.523,24.523,0,0,0,23.473-31.639Z" transform="translate(-25.577 -451.268)" fill="#6677d6"/>
        </g>
        <g id="Grupo_158075" data-name="Grupo 158075" transform="translate(42.149 87.216)">
          <path id="Trazado_197429" data-name="Trazado 197429" d="M76.711,492.814h3.2a3.206,3.206,0,0,1,3.2,3.2v3.2a3.205,3.205,0,0,1-3.2,3.2H54.34a3.205,3.205,0,0,1-3.2-3.2v-3.2a3.206,3.206,0,0,1,3.2-3.2H76.711Z" transform="translate(-51.144 -492.814)" fill="#ffef0f"/>
        </g>
        <g id="Grupo_158076" data-name="Grupo 158076" transform="translate(48.634 67.835)">
          <path id="Trazado_197430" data-name="Trazado 197430" d="M83.1,473.639h3.2a3.205,3.205,0,0,1,3.2,3.2v3.2a3.205,3.205,0,0,1-3.2,3.2H60.732a3.205,3.205,0,0,1-3.2-3.2v-3.2a3.205,3.205,0,0,1,3.2-3.2H83.1Z" transform="translate(-57.536 -473.639)" fill="#ffef0f"/>
        </g>
        <g id="Grupo_158077" data-name="Grupo 158077" transform="translate(35.665 77.629)">
          <path id="Trazado_197431" data-name="Trazado 197431" d="M70.319,483.227h3.2a3.205,3.205,0,0,1,3.2,3.2v3.2a3.2,3.2,0,0,1-3.2,3.2H47.948a3.2,3.2,0,0,1-3.2-3.2v-3.2a3.2,3.2,0,0,1,3.2-3.2H70.319Z" transform="translate(-44.753 -483.227)" fill="#ffef0f"/>
        </g>
        <g id="Grupo_158078" data-name="Grupo 158078" transform="translate(42.149 58.145)">
          <path id="Trazado_197432" data-name="Trazado 197432" d="M76.711,464.052h3.2a3.2,3.2,0,0,1,3.2,3.2v3.2a3.205,3.205,0,0,1-3.2,3.2H54.34a3.205,3.205,0,0,1-3.2-3.2v-3.2a3.2,3.2,0,0,1,3.2-3.2H76.711Z" transform="translate(-51.144 -464.052)" fill="#ffef0f"/>
        </g>
        <g id="Grupo_158079" data-name="Grupo 158079" transform="translate(38.907)">
          <path id="Trazado_197433" data-name="Trazado 197433" d="M57.536,430.223a3.727,3.727,0,0,0-2.844-3.627l-4.778-1.2c-.607-.144-1.2-.32-1.79-.48V424.9a17.081,17.081,0,0,1-.176-2.4,15.783,15.783,0,0,1,1.343-6.391A15.984,15.984,0,1,1,52.9,434.058l1.182-.1A3.757,3.757,0,0,0,57.536,430.223Z" transform="translate(-47.948 -406.526)" fill="#ffef0f"/>
        </g>
        <g id="Grupo_158080" data-name="Grupo 158080" transform="translate(12.783)">
          <path id="Trazado_197434" data-name="Trazado 197434" d="M57.408,407.916a16,16,0,0,0-8.117,8.2H41.317a2.962,2.962,0,0,0-1.326,5.608,47.893,47.893,0,0,0,8.133,3.18v.016c.591.16,1.183.336,1.79.48l4.778,1.2a3.744,3.744,0,0,1-.608,7.366l-1.182.1-15.085,1.151c-.7.048-1.406.08-2.125.08a27.642,27.642,0,0,1-10.275-1.982l-3.036-1.214V412.918l5.21-2.078a27.616,27.616,0,0,1,5.736-1.614l14.909-2.476a16.3,16.3,0,0,1,2.637-.224,15.989,15.989,0,0,1,6.535,1.39Z" transform="translate(-22.381 -406.526)" fill="#f0d0b4"/>
        </g>
        <g id="Grupo_158081" data-name="Grupo 158081" transform="translate(0 3.196)">
          <path id="Trazado_197435" data-name="Trazado 197435" d="M22.381,412.918v19.175L9.6,435.289V409.722Z" transform="translate(-9.598 -409.722)" fill="#4e2e8e"/>
        </g>
      </g>
      <g id="Grupo_158083" data-name="Grupo 158083" transform="translate(8 404.928)">
        <path id="Trazado_197436" data-name="Trazado 197436" d="M62.33,430.263v3.428h3.2v-3.428a4.543,4.543,0,0,0,.674-8.408L63.084,420.3a1.365,1.365,0,0,1,.61-2.586h.467a1.367,1.367,0,0,1,1.365,1.365v.233h3.2v-.233a4.551,4.551,0,0,0-3.2-4.329V411.32h-3.2v3.427a4.545,4.545,0,0,0-.675,8.409l3.116,1.558a1.364,1.364,0,0,1-.61,2.585h-.467a1.367,1.367,0,0,1-1.364-1.365V424.1h-3.2v1.831A4.552,4.552,0,0,0,62.33,430.263Z" transform="translate(-7.47 -404.928)"/>
        <path id="Trazado_197437" data-name="Trazado 197437" d="M24.829,434.793A29.106,29.106,0,0,0,35.7,436.887q1.125,0,2.245-.087l14.391-1.107a17.579,17.579,0,1,0,5.075-29.5,17.642,17.642,0,0,0-9.44-1.026l-14.912,2.486a29.3,29.3,0,0,0-6.06,1.7l-4.731,1.892L8,407.675v29.662l14.268-3.566Zm53.48-12.288a14.365,14.365,0,0,1-21.82,12.3,5.317,5.317,0,0,0-1.4-9.76l-4.79-1.2c-.224-.056-.443-.126-.665-.186-.029-.385-.085-.767-.085-1.152a14.381,14.381,0,0,1,28.763,0Zm-31.954.147a46.863,46.863,0,0,1-5.642-2.355,1.365,1.365,0,0,1,.61-2.586h5.708a17.534,17.534,0,0,0-.681,4.794C46.35,422.555,46.355,422.6,46.355,422.652ZM28.187,412.317a25.987,25.987,0,0,1,5.4-1.51L48.5,408.32a14.425,14.425,0,0,1,4.992.077,17.68,17.68,0,0,0-5.2,6.119H41.323a4.561,4.561,0,0,0-2.039,8.64,50.07,50.07,0,0,0,10.238,3.785l4.791,1.2a2.147,2.147,0,0,1-.356,4.223L37.7,433.614a25.945,25.945,0,0,1-11.682-1.788l-2.038-.815V414Zm-7.4,18.528-9.587,2.4V411.769l9.587,2.4Z" transform="translate(-8 -404.928)"/>
        <path id="Trazado_197438" data-name="Trazado 197438" d="M102.684,463.377l-7.008-10.511h.21a4.794,4.794,0,1,0,0-9.588H35.165a4.794,4.794,0,1,0,0,9.588h.211l-7.007,10.511A26.127,26.127,0,0,0,50.109,504H80.943a26.13,26.13,0,0,0,21.741-40.623ZM33.567,448.072a1.6,1.6,0,0,1,1.6-1.6H95.886a1.6,1.6,0,0,1,0,3.2H35.165A1.6,1.6,0,0,1,33.567,448.072Zm19.175,39.949v-3.2h3.2v3.2h3.2v-3.2h3.2v3.2h3.2v-3.2h3.2v3.2h3.195v-3.2h1.6a1.6,1.6,0,0,1,1.6,1.6v3.2a1.6,1.6,0,0,1-1.6,1.6H47.948a1.6,1.6,0,0,1-1.6-1.6v-3.2a1.6,1.6,0,0,1,1.6-1.6h1.6v3.2Zm6.392-7.99v-3.2a1.6,1.6,0,0,1,1.6-1.6h1.6v3.2h3.2v-3.2h3.2v3.2h3.195v-3.2h3.2v3.2h3.2v-3.2h3.2v3.2h3.2v-3.2h1.6a1.6,1.6,0,0,1,1.6,1.6v3.2a1.6,1.6,0,0,1-1.6,1.6H60.732A1.6,1.6,0,0,1,59.134,480.031Zm0-11.186v-3.2h3.2v3.2h3.2v-3.2h3.2v3.2h3.195v-3.2h3.2v3.2h3.2v-3.2h1.6a1.6,1.6,0,0,1,1.6,1.6v3.2a1.6,1.6,0,0,1-1.6,1.6H54.34a1.6,1.6,0,0,1-1.6-1.6v-3.2a1.6,1.6,0,0,1,1.6-1.6h1.6v3.2ZM54.34,500.8a1.6,1.6,0,0,1-1.6-1.6v-3.2a1.6,1.6,0,0,1,1.6-1.6h1.6v3.2h3.2v-3.2h3.2v3.2h3.2v-3.2h3.2v3.2h3.195v-3.2h3.2v3.2h3.2v-3.2h1.6a1.6,1.6,0,0,1,1.6,1.6v3.2a1.6,1.6,0,0,1-1.6,1.6Zm30.161-.3a4.727,4.727,0,0,0,.2-1.293v-3.2a4.8,4.8,0,0,0-4.794-4.793H78.015a4.743,4.743,0,0,0,.294-1.6v-3.2a4.738,4.738,0,0,0-.294-1.6H86.3a4.8,4.8,0,0,0,4.794-4.794v-3.2a4.8,4.8,0,0,0-4.794-4.794H84.407a4.733,4.733,0,0,0,.294-1.6v-3.2a4.8,4.8,0,0,0-4.794-4.793H54.34a4.8,4.8,0,0,0-4.794,4.793v3.2a4.8,4.8,0,0,0,4.794,4.794h1.892a4.743,4.743,0,0,0-.294,1.6v3.2a4.743,4.743,0,0,0,.294,1.6H47.948a4.8,4.8,0,0,0-4.793,4.794v3.2a4.8,4.8,0,0,0,4.793,4.793H49.84a4.743,4.743,0,0,0-.294,1.6v3.2a4.7,4.7,0,0,0,.291,1.584,22.925,22.925,0,0,1-18.811-35.641l8.19-12.283h52.62l8.189,12.285A22.909,22.909,0,0,1,84.5,500.5Z" transform="translate(-7.072 -404)"/>
        <path id="Trazado_197439" data-name="Trazado 197439" d="M86.886,456.922l2.659-1.774,2.132,3.2-2.659,1.774Z" transform="translate(-7.224 -404.433)"/>
        <path id="Trazado_197440" data-name="Trazado 197440" d="M97.366,466.923l-3.57-5.356-2.659,1.772,3.57,5.356a16.494,16.494,0,0,1,2.777,9.176l-.008.514,3.195.094q.009-.3.009-.608a19.674,19.674,0,0,0-3.314-10.948Z" transform="translate(-7.072 -404.288)"/>
        <path id="Trazado_197441" data-name="Trazado 197441" d="M31.88,485.438a19.738,19.738,0,0,0,1.97,3.613l2.63-1.817a16.44,16.44,0,0,1-1.649-3.023Z" transform="translate(-7.765 -404)"/>
        <path id="Trazado_197442" data-name="Trazado 197442" d="M33.685,466.923A19.754,19.754,0,0,0,30.8,481.96l3.127-.662a16.557,16.557,0,0,1,2.419-12.6l.374-.562-2.659-1.772Z" transform="translate(-7.776 -404.245)"/>
      </g>
    </g>
  </g>
</svg>
