<svg xmlns="http://www.w3.org/2000/svg" width="157" height="157" viewBox="0 0 157 157">
  <g id="Grupo_163230" data-name="Grupo 163230" transform="translate(-302 -1598.447)">
    <g id="Grupo_135375" data-name="Grupo 135375" transform="translate(0 852.447)">
      <g id="Rectángulo_44464" data-name="Rectángulo 44464" transform="translate(302 746)" fill="#fff" stroke="#c44230" stroke-width="4">
        <rect width="157" height="157" rx="78.5" stroke="none"/>
        <rect x="2" y="2" width="153" height="153" rx="76.5" fill="none"/>
      </g>
    </g>
    <g id="Grupo_163131" data-name="Grupo 163131" transform="translate(328 1228.447)">
      <path id="Trazado_197408" data-name="Trazado 197408" d="M45.871,494.236h58.842V416.014L86.377,398.266H32.172v95.97Z" transform="translate(-6.729 -0.251)" fill="#fff"/>
      <path id="Trazado_197409" data-name="Trazado 197409" d="M93.117,398.53v18.1h18.1" transform="translate(-13.469 -0.28)" fill="#5a55e1"/>
      <rect id="Rectángulo_44560" data-name="Rectángulo 44560" width="40.301" height="9.672" transform="translate(2.015 484.313)" fill="#ffef0f"/>
      <rect id="Rectángulo_44561" data-name="Rectángulo 44561" width="40.301" height="9.672" transform="translate(8.06 474.64)" fill="#ffef0f"/>
      <rect id="Rectángulo_44562" data-name="Rectángulo 44562" width="40.301" height="9.672" transform="translate(2.015 465.693)" fill="#ffef0f"/>
      <circle id="Elipse_18273" data-name="Elipse 18273" cx="16.12" cy="16.12" r="16.12" transform="translate(2.015 434.115)" fill="#ffef0f"/>
      <path id="Trazado_197410" data-name="Trazado 197410" d="M99.428,414.343,81.654,396.572A1.953,1.953,0,0,0,80.273,396H27.734a1.954,1.954,0,0,0-1.953,1.953v8.593H12.5a1.953,1.953,0,1,0,0,3.907H50.681a1.953,1.953,0,1,0,0-3.907H29.688v-6.641H78.321v15.821a1.953,1.953,0,0,0,1.953,1.953H96.094v74.415H42.969v-5.469h3.906a1.954,1.954,0,0,0,1.953-1.953V475.3a1.953,1.953,0,0,0-1.953-1.953H42.969v-7.422a1.953,1.953,0,0,0-1.953-1.953h-12.4a17.578,17.578,0,1,0-22.07,0H1.953A1.953,1.953,0,0,0,0,465.922V475.3a1.953,1.953,0,0,0,1.953,1.953H5.859v5.469H1.953A1.953,1.953,0,0,0,0,484.672v9.375A1.953,1.953,0,0,0,1.953,496H98.047A1.953,1.953,0,0,0,100,494.047V415.724A1.953,1.953,0,0,0,99.428,414.343ZM3.906,450.3a13.672,13.672,0,1,1,13.672,13.672A13.688,13.688,0,0,1,3.906,450.3Zm0,17.578H39.063v5.469H33.2v-1.628a1.953,1.953,0,0,0-3.907,0v1.628H23.438v-1.628a1.953,1.953,0,0,0-3.907,0v1.628H13.672v-1.628a1.953,1.953,0,1,0-3.906,0v1.628H3.906Zm5.859,9.375H44.922v5.469H39.063v-1.172a1.953,1.953,0,0,0-3.907,0v1.172H29.3v-1.172a1.953,1.953,0,0,0-3.906,0v1.172H19.531v-1.172a1.953,1.953,0,0,0-3.906,0v1.172H9.766Zm-5.859,9.375H39.063v5.469H33.2v-.977a1.953,1.953,0,1,0-3.907,0v.977H23.438v-.977a1.953,1.953,0,1,0-3.907,0v.977H13.672v-.977a1.953,1.953,0,1,0-3.906,0v.977H3.906Zm78.321-83.957,11.107,11.105H82.227Z"/>
      <path id="Trazado_197411" data-name="Trazado 197411" d="M19.589,451.521a2.244,2.244,0,0,1,2.417,2.008,2.015,2.015,0,0,0,4.031,0,6.1,6.1,0,0,0-4.435-5.736,2.014,2.014,0,0,0-4.026,0,6.1,6.1,0,0,0-4.435,5.735,6.261,6.261,0,0,0,6.448,6.039,2.043,2.043,0,1,1,0,4.017,2.244,2.244,0,0,1-2.418-2.008,2.015,2.015,0,1,0-4.03,0,6.1,6.1,0,0,0,4.437,5.736,2.012,2.012,0,0,0,4.021,0,6.1,6.1,0,0,0,4.438-5.736,6.261,6.261,0,0,0-6.448-6.039,2.043,2.043,0,1,1,0-4.016Z" transform="translate(-1.453 -7.271)"/>
      <path id="Trazado_197412" data-name="Trazado 197412" d="M46.159,418.2H14.246a2.015,2.015,0,1,0,0,4.03H46.159a2.015,2.015,0,1,0,0-4.03Z" transform="translate(-1.353 -3.087)"/>
      <path id="Trazado_197413" data-name="Trazado 197413" d="M58.988,420.218A2.014,2.014,0,0,0,61,422.233h6.534a2.015,2.015,0,0,0,0-4.03H61A2.015,2.015,0,0,0,58.988,420.218Z" transform="translate(-8.32 -3.087)"/>
      <path id="Trazado_197414" data-name="Trazado 197414" d="M69.285,411.674a2.013,2.013,0,1,0-1.425.591A2.029,2.029,0,0,0,69.285,411.674Z" transform="translate(-9.155 -1.353)"/>
      <path id="Trazado_197415" data-name="Trazado 197415" d="M14.246,432.2H37.062a2.015,2.015,0,1,0,0-4.03H14.246a2.015,2.015,0,1,0,0,4.03Z" transform="translate(-1.353 -4.473)"/>
      <path id="Trazado_197416" data-name="Trazado 197416" d="M50.127,428.172a2.016,2.016,0,1,0,1.425.591A2.027,2.027,0,0,0,50.127,428.172Z" transform="translate(-6.69 -4.473)"/>
      <path id="Trazado_197417" data-name="Trazado 197417" d="M59.579,428.763A2.013,2.013,0,1,0,61,428.172,2.028,2.028,0,0,0,59.579,428.763Z" transform="translate(-8.202 -4.473)"/>
      <path id="Trazado_197418" data-name="Trazado 197418" d="M70.454,431.611a2.013,2.013,0,1,0-.591-1.424A2.031,2.031,0,0,0,70.454,431.611Z" transform="translate(-9.714 -4.473)"/>
      <path id="Trazado_197419" data-name="Trazado 197419" d="M60.039,497.249a2.015,2.015,0,0,0,2.015,2.015H99.231a2.015,2.015,0,1,0,0-4.031H62.054A2.015,2.015,0,0,0,60.039,497.249Z" transform="translate(-9.811 -14.146)"/>
      <path id="Trazado_197420" data-name="Trazado 197420" d="M101.249,455.792a2.016,2.016,0,1,0-1.425-.591A2.022,2.022,0,0,0,101.249,455.792Z" transform="translate(-14.146 -7.753)"/>
      <path id="Trazado_197421" data-name="Trazado 197421" d="M99.234,485.04a2.015,2.015,0,0,0,4.031,0V463.284a2.015,2.015,0,0,0-4.031,0Z" transform="translate(-14.146 -9.597)"/>
      <path id="Trazado_197422" data-name="Trazado 197422" d="M94.2,485.04V463.284a2.015,2.015,0,1,0-4.03,0V485.04a2.015,2.015,0,0,0,4.03,0Z" transform="translate(-12.538 -9.597)"/>
      <path id="Trazado_197423" data-name="Trazado 197423" d="M85.14,486.049V472.4a2.015,2.015,0,0,0-4.031,0v13.645a2.015,2.015,0,0,0,4.031,0Z" transform="translate(-11.278 -10.681)"/>
      <path id="Trazado_197424" data-name="Trazado 197424" d="M76.077,485.163V464.4a2.015,2.015,0,0,0-4.03,0v20.766a2.015,2.015,0,0,0,4.03,0Z" transform="translate(-10.018 -9.73)"/>
      <path id="Trazado_197425" data-name="Trazado 197425" d="M67.015,485.841V470.529a2.015,2.015,0,0,0-4.031,0v15.312a2.015,2.015,0,0,0,4.031,0Z" transform="translate(-8.757 -10.459)"/>
      <path id="Trazado_197426" data-name="Trazado 197426" d="M57.646,459.064a2.014,2.014,0,0,0,2.85,0l10.9-10.9,6.016,6.017a2.014,2.014,0,0,0,2.85,0L95.452,438.99v1.183a2.015,2.015,0,1,0,4.031,0v-6.048a2.015,2.015,0,0,0-2.015-2.015H91.42a2.015,2.015,0,0,0,0,4.03H92.6L78.841,449.9l-6.017-6.017a2.014,2.014,0,0,0-2.85,0L57.646,456.215A2.015,2.015,0,0,0,57.646,459.064Z" transform="translate(-9.481 -5.34)"/>
    </g>
  </g>
</svg>
