<svg xmlns="http://www.w3.org/2000/svg" width="133" height="133" viewBox="0 0 133 133">
  <g id="Grupo_163135" data-name="Grupo 163135" transform="translate(-390 -2356)">
    <g id="Elipse_18057" data-name="Elipse 18057" transform="translate(390 2356)" fill="#fff" stroke="#c6412a" stroke-width="4">
      <circle cx="66.5" cy="66.5" r="66.5" stroke="none"/>
      <circle cx="66.5" cy="66.5" r="64.5" fill="none"/>
    </g>
    <g id="Grupo_158192" data-name="Grupo 158192" transform="translate(406 2001)">
      <g id="Grupo_158150" data-name="Grupo 158150" transform="translate(17.936 377.42)">
        <path id="Trazado_197587" data-name="Trazado 197587" d="M22.452,463.226V378.065H74.968L84.9,388v75.226Z" transform="translate(-22.452 -378.065)" fill="#fff"/>
      </g>
      <g id="Grupo_158151" data-name="Grupo 158151" transform="translate(49.161 427.097)">
        <path id="Trazado_197588" data-name="Trazado 197588" d="M89.161,450.323h-4.4a9.934,9.934,0,0,0-7.026,2.909l-8.861,8.861a3.427,3.427,0,0,0,0,4.846l1.835,1.835Z" transform="translate(-67.871 -450.323)" fill="#e2b88f"/>
      </g>
      <g id="Grupo_158152" data-name="Grupo 158152" transform="translate(60.516 429.936)">
        <path id="Trazado_197589" data-name="Trazado 197589" d="M112.774,454.452h-9.935L100,457.291h1.419v4.5a9.692,9.692,0,0,1-9.691,9.692h-4.5a2.839,2.839,0,0,0,0,5.677h7.341a9.687,9.687,0,0,0,6.852-2.839,9.689,9.689,0,0,1,6.853-2.839h4.5Z" transform="translate(-84.387 -454.452)" fill="#e2b88f"/>
      </g>
      <g id="Grupo_158153" data-name="Grupo 158153" transform="translate(46.323 411.484)">
        <path id="Trazado_197590" data-name="Trazado 197590" d="M68,463.1l34.481-34.48a3.426,3.426,0,0,1,4.845,0l.832.831a3.428,3.428,0,0,1,0,4.846l-34.48,34.48-9.936,4.258Z" transform="translate(-63.742 -427.613)" fill="#6677d6"/>
      </g>
      <g id="Grupo_158154" data-name="Grupo 158154" transform="translate(88.903 427.097)">
        <path id="Trazado_197591" data-name="Trazado 197591" d="M125.677,450.323h5.677v22.71h-5.677Z" transform="translate(-125.677 -450.323)" fill="#8a8275"/>
      </g>
      <g id="Grupo_158155" data-name="Grupo 158155" transform="translate(70.452 377.42)">
        <path id="Trazado_197592" data-name="Trazado 197592" d="M108.774,388H98.839v-9.935Z" transform="translate(-98.839 -378.065)" fill="#8a8275"/>
      </g>
      <g id="Grupo_158156" data-name="Grupo 158156" transform="translate(40.645 391.613)">
        <path id="Trazado_197593" data-name="Trazado 197593" d="M55.484,398.71h5.677v17.032H55.484Z" transform="translate(-55.484 -398.71)" fill="#8a8275"/>
      </g>
      <g id="Grupo_158157" data-name="Grupo 158157" transform="translate(52 397.29)">
        <path id="Trazado_197594" data-name="Trazado 197594" d="M72,406.968h5.677v11.355H72Z" transform="translate(-72 -406.968)" fill="#8a8275"/>
      </g>
      <g id="Grupo_158158" data-name="Grupo 158158" transform="translate(63.355 393.032)">
        <path id="Trazado_197595" data-name="Trazado 197595" d="M88.516,400.774h5.677v15.613H88.516Z" transform="translate(-88.516 -400.774)" fill="#8a8275"/>
      </g>
      <g id="Grupo_158159" data-name="Grupo 158159" transform="translate(29.29 385.936)">
        <path id="Trazado_197596" data-name="Trazado 197596" d="M38.968,390.452h5.677v22.709H38.968Z" transform="translate(-38.968 -390.452)" fill="#8a8275"/>
      </g>
      <g id="Grupo_158160" data-name="Grupo 158160" transform="translate(12.258 428.516)">
        <path id="Trazado_197597" data-name="Trazado 197597" d="M14.194,452.387H42.581V460.9H14.194Z" transform="translate(-14.194 -452.387)" fill="#ffef0f"/>
      </g>
      <g id="Grupo_158161" data-name="Grupo 158161" transform="translate(9.42 437.032)">
        <path id="Trazado_197598" data-name="Trazado 197598" d="M10.065,464.774H38.452v8.516H10.065Z" transform="translate(-10.065 -464.774)" fill="#ba9b50"/>
      </g>
      <g id="Grupo_158162" data-name="Grupo 158162" transform="translate(12.258 445.548)">
        <path id="Trazado_197599" data-name="Trazado 197599" d="M14.194,477.161H42.581v8.516H14.194Z" transform="translate(-14.194 -477.161)" fill="#ffef0f"/>
      </g>
      <g id="Grupo_158163" data-name="Grupo 158163" transform="translate(9.42 454.064)">
        <path id="Trazado_197600" data-name="Trazado 197600" d="M10.065,489.548H38.452v8.516H10.065Z" transform="translate(-10.065 -489.548)" fill="#ba9b50"/>
      </g>
      <g id="Grupo_158164" data-name="Grupo 158164" transform="translate(8 452.645)">
        <path id="Trazado_197601" data-name="Trazado 197601" d="M37.807,498.839H9.42A1.419,1.419,0,0,1,8,497.419V488.9a1.419,1.419,0,0,1,1.42-1.419H37.807a1.419,1.419,0,0,1,1.419,1.419v8.516A1.419,1.419,0,0,1,37.807,498.839ZM10.839,496H36.387v-5.677H10.839Z" transform="translate(-8 -487.484)"/>
      </g>
      <g id="Grupo_158165" data-name="Grupo 158165" transform="translate(10.839 444.129)">
        <path id="Trazado_197602" data-name="Trazado 197602" d="M41.936,486.452H13.549a1.419,1.419,0,0,1-1.42-1.42v-8.516a1.419,1.419,0,0,1,1.42-1.419H41.936a1.419,1.419,0,0,1,1.419,1.419v8.516A1.419,1.419,0,0,1,41.936,486.452Zm-26.968-2.839H40.516v-5.677H14.968Z" transform="translate(-12.129 -475.097)"/>
      </g>
      <g id="Grupo_158166" data-name="Grupo 158166" transform="translate(10.839 427.097)">
        <path id="Trazado_197603" data-name="Trazado 197603" d="M41.936,461.678H13.549a1.419,1.419,0,0,1-1.42-1.42v-8.516a1.419,1.419,0,0,1,1.42-1.419H41.936a1.418,1.418,0,0,1,1.419,1.419v8.516A1.419,1.419,0,0,1,41.936,461.678Zm-26.968-2.839H40.516v-5.677H14.968Z" transform="translate(-12.129 -450.323)"/>
      </g>
      <g id="Grupo_158167" data-name="Grupo 158167" transform="translate(8 435.613)">
        <path id="Trazado_197604" data-name="Trazado 197604" d="M37.807,474.065H9.42A1.419,1.419,0,0,1,8,472.645v-8.516a1.419,1.419,0,0,1,1.42-1.419H37.807a1.419,1.419,0,0,1,1.419,1.419v8.516A1.419,1.419,0,0,1,37.807,474.065Zm-26.968-2.839H36.387v-5.677H10.839Z" transform="translate(-8 -462.71)"/>
      </g>
      <g id="Grupo_158168" data-name="Grupo 158168" transform="translate(13.677 437.032)">
        <path id="Trazado_197605" data-name="Trazado 197605" d="M16.258,464.774H19.1v8.516H16.258Z" transform="translate(-16.258 -464.774)"/>
      </g>
      <g id="Grupo_158169" data-name="Grupo 158169" transform="translate(19.355 437.032)">
        <path id="Trazado_197606" data-name="Trazado 197606" d="M24.516,464.774h2.839v8.516H24.516Z" transform="translate(-24.516 -464.774)"/>
      </g>
      <g id="Grupo_158170" data-name="Grupo 158170" transform="translate(25.032 437.032)">
        <path id="Trazado_197607" data-name="Trazado 197607" d="M32.774,464.774h2.839v8.516H32.774Z" transform="translate(-32.774 -464.774)"/>
      </g>
      <g id="Grupo_158171" data-name="Grupo 158171" transform="translate(30.71 437.032)">
        <path id="Trazado_197608" data-name="Trazado 197608" d="M41.032,464.774h2.839v8.516H41.032Z" transform="translate(-41.032 -464.774)"/>
      </g>
      <g id="Grupo_158172" data-name="Grupo 158172" transform="translate(13.677 454.064)">
        <path id="Trazado_197609" data-name="Trazado 197609" d="M16.258,489.548H19.1v8.516H16.258Z" transform="translate(-16.258 -489.548)"/>
      </g>
      <g id="Grupo_158173" data-name="Grupo 158173" transform="translate(19.355 454.064)">
        <path id="Trazado_197610" data-name="Trazado 197610" d="M24.516,489.548h2.839v8.516H24.516Z" transform="translate(-24.516 -489.548)"/>
      </g>
      <g id="Grupo_158174" data-name="Grupo 158174" transform="translate(25.032 454.064)">
        <path id="Trazado_197611" data-name="Trazado 197611" d="M32.774,489.548h2.839v8.516H32.774Z" transform="translate(-32.774 -489.548)"/>
      </g>
      <g id="Grupo_158175" data-name="Grupo 158175" transform="translate(30.71 454.064)">
        <path id="Trazado_197612" data-name="Trazado 197612" d="M41.032,489.548h2.839v8.516H41.032Z" transform="translate(-41.032 -489.548)"/>
      </g>
      <g id="Grupo_158176" data-name="Grupo 158176" transform="translate(37.807 448.387)">
        <path id="Trazado_197613" data-name="Trazado 197613" d="M93.935,496.9H51.355v-2.839H92.516V481.29h2.839v14.193A1.419,1.419,0,0,1,93.935,496.9Z" transform="translate(-51.355 -481.29)"/>
      </g>
      <g id="Grupo_158177" data-name="Grupo 158177" transform="translate(16.516 376)">
        <path id="Trazado_197614" data-name="Trazado 197614" d="M23.226,428.516H20.387v-51.1a1.42,1.42,0,0,1,1.42-1.42H74.323a1.415,1.415,0,0,1,1,.416l9.936,9.936a1.415,1.415,0,0,1,.416,1v29.807H82.839V387.943l-9.1-9.1H23.226Z" transform="translate(-20.387 -376)"/>
      </g>
      <g id="Grupo_158178" data-name="Grupo 158178" transform="translate(69.032 377.42)">
        <path id="Trazado_197615" data-name="Trazado 197615" d="M108.129,389.42H98.194a1.42,1.42,0,0,1-1.42-1.42v-9.935h2.839v8.516h8.516Z" transform="translate(-96.774 -378.065)"/>
      </g>
      <g id="Grupo_158179" data-name="Grupo 158179" transform="translate(25.032 407.226)">
        <path id="Trazado_197616" data-name="Trazado 197616" d="M32.774,421.419H81.032v2.839H32.774Z" transform="translate(-32.774 -421.419)"/>
      </g>
      <g id="Grupo_158180" data-name="Grupo 158180" transform="translate(25.032 418.58)">
        <path id="Trazado_197617" data-name="Trazado 197617" d="M32.774,437.935H81.032v2.839H32.774Z" transform="translate(-32.774 -437.935)"/>
      </g>
      <g id="Grupo_158181" data-name="Grupo 158181" transform="translate(27.871 384.516)">
        <path id="Trazado_197618" data-name="Trazado 197618" d="M45.419,412.516H42.58V391.226H39.742v21.291H36.9v-22.71a1.42,1.42,0,0,1,1.42-1.42H44a1.42,1.42,0,0,1,1.419,1.42Z" transform="translate(-36.903 -388.387)"/>
      </g>
      <g id="Grupo_158182" data-name="Grupo 158182" transform="translate(39.226 390.193)">
        <path id="Trazado_197619" data-name="Trazado 197619" d="M61.935,415.1H59.1V399.484H56.258V415.1H53.419V398.065a1.42,1.42,0,0,1,1.42-1.42h5.677a1.42,1.42,0,0,1,1.419,1.42Z" transform="translate(-53.419 -396.645)"/>
      </g>
      <g id="Grupo_158183" data-name="Grupo 158183" transform="translate(50.58 395.871)">
        <path id="Trazado_197620" data-name="Trazado 197620" d="M78.452,417.677H75.613v-9.936H72.774v9.936H69.935V406.323a1.42,1.42,0,0,1,1.42-1.42h5.677a1.42,1.42,0,0,1,1.42,1.42Z" transform="translate(-69.935 -404.903)"/>
      </g>
      <g id="Grupo_158184" data-name="Grupo 158184" transform="translate(61.936 391.613)">
        <path id="Trazado_197621" data-name="Trazado 197621" d="M94.968,415.742H92.129V401.549H89.291v14.193H86.452V400.129a1.42,1.42,0,0,1,1.419-1.419h5.677a1.42,1.42,0,0,1,1.42,1.419Z" transform="translate(-86.452 -398.71)"/>
      </g>
      <g id="Grupo_158185" data-name="Grupo 158185" transform="translate(59.097 431.355)">
        <path id="Trazado_197622" data-name="Trazado 197622" d="M93.92,479.225h-7.34a4.258,4.258,0,0,1,0-8.516h4.5a8.272,8.272,0,0,0,8.273-8.272v-5.921h1.419a1.419,1.419,0,0,1,1.42,1.42v4.5a11.112,11.112,0,0,1-11.112,11.111h-4.5a1.419,1.419,0,0,0,0,2.839h7.34a8.22,8.22,0,0,0,5.851-2.423,11.039,11.039,0,0,1,7.857-3.255h4.5v2.839h-4.5a8.219,8.219,0,0,0-5.851,2.423,11.038,11.038,0,0,1-7.857,3.255Z" transform="translate(-82.323 -456.516)"/>
      </g>
      <g id="Grupo_158186" data-name="Grupo 158186" transform="translate(47.742 425.677)">
        <path id="Trazado_197623" data-name="Trazado 197623" d="M70.064,469.549a1.418,1.418,0,0,1-1-.416L67.226,467.3a4.844,4.844,0,0,1,0-6.852l8.861-8.861a11.28,11.28,0,0,1,8.028-3.325h4.4V451.1h-4.4a8.463,8.463,0,0,0-6.022,2.494l-8.86,8.861a2.006,2.006,0,0,0,0,2.839l.831.832,11.771-11.771,2.007,2.007L71.068,469.133a1.418,1.418,0,0,1-1,.416Z" transform="translate(-65.806 -448.258)"/>
      </g>
      <g id="Grupo_158187" data-name="Grupo 158187" transform="translate(78.968 428.516)">
        <path id="Trazado_197624" data-name="Trazado 197624" d="M111.226,452.387h9.935v2.839h-9.935Z" transform="translate(-111.226 -452.387)"/>
      </g>
      <g id="Grupo_158188" data-name="Grupo 158188" transform="translate(44.904 410.111)">
        <path id="Trazado_197625" data-name="Trazado 197625" d="M63.1,473.828a1.419,1.419,0,0,1-1.3-1.979l4.258-9.936a1.4,1.4,0,0,1,.3-.444l34.48-34.48a4.962,4.962,0,0,1,6.853,0l.831.832a4.844,4.844,0,0,1,0,6.852l-34.48,34.48a1.407,1.407,0,0,1-.444.3l-9.936,4.258a1.409,1.409,0,0,1-.559.115Zm5.455-10.544L65.8,469.7l6.423-2.753,34.287-34.286a2.007,2.007,0,0,0,0-2.839l-.832-.832a2.079,2.079,0,0,0-2.839,0Z" transform="translate(-61.678 -425.616)"/>
      </g>
      <g id="Grupo_158189" data-name="Grupo 158189" transform="translate(87.484 425.677)">
        <path id="Trazado_197626" data-name="Trazado 197626" d="M130.709,473.806h-5.677a1.418,1.418,0,0,1-1.419-1.419v-22.71a1.419,1.419,0,0,1,1.419-1.42h5.677a1.419,1.419,0,0,1,1.42,1.42v22.71A1.419,1.419,0,0,1,130.709,473.806Zm-4.258-2.839h2.839V451.1h-2.839Z" transform="translate(-123.613 -448.258)"/>
      </g>
      <g id="Grupo_158190" data-name="Grupo 158190" transform="translate(77.952 417.581)">
        <path id="Trazado_197627" data-name="Trazado 197627" d="M109.749,438.488l2.007-2.007,5.677,5.677-2.007,2.007Z" transform="translate(-109.749 -436.481)"/>
      </g>
      <g id="Grupo_158191" data-name="Grupo 158191" transform="translate(27.871 412.903)">
        <path id="Trazado_197628" data-name="Trazado 197628" d="M36.9,429.677H79.484v2.839H36.9Z" transform="translate(-36.903 -429.677)"/>
      </g>
    </g>
  </g>
</svg>
