<svg xmlns="http://www.w3.org/2000/svg" width="133" height="133" viewBox="0 0 133 133">
  <g id="Grupo_163186" data-name="Grupo 163186" transform="translate(-1057 -6372.905)">
    <g id="Grupo_163137" data-name="Grupo 163137" transform="translate(-20 3803.904)">
      <g id="Elipse_18059" data-name="Elipse 18059" transform="translate(1077 2569.001)" fill="#fff" stroke="#c6412a" stroke-width="4">
        <circle cx="66.5" cy="66.5" r="66.5" stroke="none"/>
        <circle cx="66.5" cy="66.5" r="64.5" fill="none"/>
      </g>
    </g>
    <g id="Grupo_163139" data-name="Grupo 163139" transform="translate(1058.878 6009.578)">
      <rect id="Rectángulo_44564" data-name="Rectángulo 44564" width="9.227" height="16.916" transform="translate(78.496 436.613)" fill="#6677d6"/>
      <rect id="Rectángulo_44565" data-name="Rectángulo 44565" width="9.227" height="23.067" transform="translate(87.723 430.462)" fill="#6677d6"/>
      <rect id="Rectángulo_44566" data-name="Rectángulo 44566" width="9.227" height="30.756" transform="translate(96.95 422.773)" fill="#6677d6"/>
      <path id="Trazado_197655" data-name="Trazado 197655" d="M42.962,454.694l-3.5-5.257a15.76,15.76,0,0,1-2.647-8.742h0a15.759,15.759,0,0,1,3.981-10.472l8.321-9.361-1.742-4.355a1.665,1.665,0,0,1,2.073-2.2h0a1.666,1.666,0,0,0,1.912-.657l1.517-2.275a2.874,2.874,0,0,1,2.391-1.28h0a2.871,2.871,0,0,1,2.39,1.28l1.517,2.275a1.666,1.666,0,0,0,1.912.657h0a1.665,1.665,0,0,1,2.074,2.2l-1.743,4.355,8.322,9.361a15.763,15.763,0,0,1,3.981,10.472h0a15.761,15.761,0,0,1-2.648,8.742l-3.5,5.257Z" transform="translate(-2.911 -4.24)" fill="#c6412a"/>
      <path id="Trazado_197656" data-name="Trazado 197656" d="M67.917,464a2.641,2.641,0,0,1-1.886,2.533l-13.492,4.049-3.076,6.151L38.7,481.349l-6.151,4.613h-12.3V465.97l4.389-3.375,14.675-11.289a3.444,3.444,0,0,1,5.542,2.729,4.939,4.939,0,0,1-.132,1.14,4.839,4.839,0,0,1-.39,1.079l-2.553,5.1h23.5A2.645,2.645,0,0,1,67.917,464Z" transform="translate(-0.185 -10.904)" fill="#ffceb6"/>
      <path id="Trazado_197657" data-name="Trazado 197657" d="M38.7,483.712l-6.151,4.613h-12.3V468.334l4.389-3.375Z" transform="translate(-0.185 -13.267)" fill="#ffef0f"/>
      <path id="Trazado_197658" data-name="Trazado 197658" d="M105.568,386.168a15.379,15.379,0,1,0,15.378,15.379h0A15.379,15.379,0,0,0,105.568,386.168Zm0,21.53a6.15,6.15,0,1,1,4.35-1.8A6.15,6.15,0,0,1,105.568,407.7Z" transform="translate(-11.694 -0.303)" fill="#ffef0f"/>
      <path id="Trazado_197659" data-name="Trazado 197659" d="M123.975,401.546h-9.227a6.153,6.153,0,0,0-6.151-6.151v-9.227A15.379,15.379,0,0,1,123.975,401.546Z" transform="translate(-14.723 -0.303)" fill="#ffa100"/>
      <path id="Trazado_197660" data-name="Trazado 197660" d="M124.832,404.575a15.334,15.334,0,0,1-4.5,10.874l-6.524-6.524a6.133,6.133,0,0,0,1.8-4.35Z" transform="translate(-15.579 -3.332)" fill="#f78e00"/>
      <path id="Trazado_197661" data-name="Trazado 197661" d="M56.452,454.321h3.075v-3.153a3.845,3.845,0,0,0-.769-7.612H57.221a.769.769,0,0,1,0-1.538H62.6v-3.075H59.527v-3.075H56.452v3.153a3.844,3.844,0,0,0,.769,7.611h1.538a.769.769,0,0,1,0,1.538H53.377v3.075h3.075Z" transform="translate(-5.636 -8.481)"/>
      <path id="Trazado_197662" data-name="Trazado 197662" d="M107.715,426.71a1.538,1.538,0,0,0-1.537-1.538H96.951a1.538,1.538,0,0,0-1.538,1.538v6.151h-7.69a1.538,1.538,0,0,0-1.537,1.538v4.613H78.5a1.538,1.538,0,0,0-1.537,1.538v14.514l-6.2-7.439a17.29,17.29,0,0,0-.848-16.077l6.049-4.838H86.186v-3.076H75.421a1.535,1.535,0,0,0-.961.337l-6.353,5.082c-.044-.051-.086-.1-.132-.155l-7.69-8.651,1.389-3.472a3.2,3.2,0,0,0-3.988-4.229.126.126,0,0,1-.146-.05l-1.517-2.275a4.411,4.411,0,0,0-7.341,0L47.167,412.5a.127.127,0,0,1-.147.05,3.2,3.2,0,0,0-3.987,4.229l1.389,3.472-7.69,8.651a17.289,17.289,0,0,0-3.181,17.788l-14.428,11.1L21,460.223l3.155-2.427,12.209,16.279-4.921,3.69,1.845,2.46,6-4.5,10.6-4.541a1.541,1.541,0,0,0,.77-.726l2.778-5.557,12.857-3.856a4.181,4.181,0,0,0,.872-7.637l1.961-2.942,6.656,7.987a1.537,1.537,0,0,0,1.181.553h33.832v-3.075h-3.076ZM45.914,415.5a.108.108,0,0,1,.133-.033,3.209,3.209,0,0,0,3.679-1.262l1.517-2.275a1.334,1.334,0,0,1,2.222,0l1.517,2.275a3.211,3.211,0,0,0,3.678,1.262.128.128,0,0,1,.162.081.132.132,0,0,1,0,.088l-1.356,3.388H47.243l-1.355-3.389A.108.108,0,0,1,45.914,415.5ZM35.438,440.392a14.21,14.21,0,0,1,3.593-9.45l7.862-8.845H48.9a9.344,9.344,0,0,0-1.084,8.175l2.918-.972a6.3,6.3,0,0,1,1.529-6.478l.088-.088.087.087a6.3,6.3,0,0,1,1.53,6.479l2.917.972a9.347,9.347,0,0,0-1.083-8.175h2.009l7.862,8.845a14.223,14.223,0,0,1,1.2,17.339l-3.048,4.572H44.077l1.439-2.878a6.52,6.52,0,0,0,.686-2.906,4.98,4.98,0,0,0-8.017-3.948l-2.073,1.594A14.329,14.329,0,0,1,35.438,440.392ZM65.4,458.1l-13.493,4.048a1.539,1.539,0,0,0-.934.785l-2.823,5.647-9.137,3.916L26.59,455.921l13.471-10.362a1.9,1.9,0,0,1,3.066,1.51,3.438,3.438,0,0,1-.362,1.53l-2.551,5.1a1.539,1.539,0,0,0,1.375,2.226h23.5A1.107,1.107,0,0,1,65.4,458.1Zm14.63-16.009h6.151v13.841H80.034Zm9.227-6.151h6.151v19.992H89.261Zm9.227,19.992V428.248h6.151v27.681Z" transform="translate(0 -3.937)"/>
      <path id="Trazado_197663" data-name="Trazado 197663" d="M105.265,384.327a16.916,16.916,0,1,0,16.916,16.916A16.916,16.916,0,0,0,105.265,384.327Zm13.753,15.378H112.8a7.711,7.711,0,0,0-6-6v-6.218A13.864,13.864,0,0,1,119.019,399.705Zm-7.341,5.775a7.644,7.644,0,0,0,1.122-2.7h6.219a13.785,13.785,0,0,1-2.946,7.094Zm-6.412-8.851a4.613,4.613,0,1,1-4.613,4.613A4.613,4.613,0,0,1,105.265,396.63Zm-13.84,4.613a13.858,13.858,0,0,1,12.3-13.752v6.218a7.689,7.689,0,1,0,5.775,13.946l4.395,4.395a13.829,13.829,0,0,1-22.472-10.807Z" transform="translate(-11.391)"/>
    </g>
  </g>
</svg>
