<svg xmlns="http://www.w3.org/2000/svg" width="133" height="133" viewBox="0 0 133 133">
  <g id="Grupo_163183" data-name="Grupo 163183" transform="translate(-105)">
    <g id="Grupo_135403" data-name="Grupo 135403" transform="translate(105)">
      <g id="Elipse_18047" data-name="Elipse 18047" fill="#fff" stroke="#6677d6" stroke-width="4">
        <circle cx="66.5" cy="66.5" r="66.5" stroke="none"/>
        <circle cx="66.5" cy="66.5" r="64.5" fill="none"/>
      </g>
    </g>
    <g id="c12_card" data-name="c12 card" transform="translate(125 35.563)">
      <path id="Trazado_197459" data-name="Trazado 197459" d="M83.087,10.885H1.91c-1.047,0-1.91.62-1.91,1.378V71.379c0,.752.863,1.378,1.91,1.378H83.087c1.06,0,1.913-.627,1.913-1.378V12.263C85,11.505,84.147,10.885,83.087,10.885ZM35.68,58.249h-.1a26.206,26.206,0,0,0-2.012-9.5c-.61-1.378-3.856-2.622-4.982-3.009-1.726-3.8-.8-8.605-.8-8.605a5.55,5.55,0,0,1-.7,1.894,9.014,9.014,0,0,1-2.317,4.5,4.817,4.817,0,0,0,.2,1.713c-3.1,5.018-5.648,2.4-6.9.341a4.511,4.511,0,0,0,.341-2.054,8.965,8.965,0,0,1-2.327-4.5,5.515,5.515,0,0,1-.692-1.894s.942,4.792-.784,8.592c-1.349.571-2.691.978-2.691.978A4.755,4.755,0,0,0,9.859,48.1a14.654,14.654,0,0,0-1.792,5.08V25.7H35.68Zm41.985-3.692H41.384V51.5H77.665Zm0-10.633H41.384V40.861H77.665Zm0-11.237H41.384V29.631H77.665Z" transform="translate(0 -10.885)" fill="#fff" stroke="#4e2e8e" stroke-miterlimit="10" stroke-width="3"/>
      <path id="Trazado_197460" data-name="Trazado 197460" d="M14.509,21.737a4.181,4.181,0,0,0,2.314,2.681s.069-.666.259-.732a.588.588,0,0,1,.269.361s.453-4.289-1.5-5.9l.007-.016c-4.086-3.594-8.694-.863-8.694-.863-3.38,2.179-2.432,6.875-2.432,6.875C11.086,24.747,14.41,21.826,14.509,21.737Z" transform="translate(10.525 1.42)" fill="#ffef0f" stroke="#4e2e8e" stroke-miterlimit="10" stroke-width="3"/>
    </g>
  </g>
</svg>
