<svg xmlns="http://www.w3.org/2000/svg" width="133" height="133" viewBox="0 0 133 133">
  <g id="Grupo_163133" data-name="Grupo 163133" transform="translate(-390 -2767)">
    <g id="Elipse_18058" data-name="Elipse 18058" transform="translate(390 2767)" fill="#fff" stroke="#c6412a" stroke-width="4">
      <circle cx="66.5" cy="66.5" r="66.5" stroke="none"/>
      <circle cx="66.5" cy="66.5" r="64.5" fill="none"/>
    </g>
    <g id="Grupo_158195" data-name="Grupo 158195" transform="translate(400 2469.665)">
      <path id="Trazado_197644" data-name="Trazado 197644" d="M56.533,374.934h54.65v31.424H56.533Z" transform="translate(-18.673 -21.007)" fill="#00b55b"/>
      <path id="Trazado_197645" data-name="Trazado 197645" d="M89.466,382.534h19.127v27.325H89.466Z" transform="translate(-33.845 -24.508)" fill="#ffef0f"/>
      <path id="Trazado_197646" data-name="Trazado 197646" d="M18.533,405.334H45.858v25.959H18.533Z" transform="translate(-1.167 -35.012)" fill="#6677d6"/>
      <path id="Trazado_197647" data-name="Trazado 197647" d="M69.2,401.833h4.1l9.564-4.1h17.28a3.214,3.214,0,0,1,1.1,6.234l-12.913,4.7,13.662,8.2H118a3.115,3.115,0,0,1,.856,6.11l-16.868,4.82H69.2Z" transform="translate(-24.508 -31.511)" fill="#ffceb6"/>
      <rect id="Rectángulo_44563" data-name="Rectángulo 44563" width="54.65" height="27.325" rx="5.067" transform="translate(37.86 330.701)" fill="#02c26a"/>
      <path id="Trazado_197648" data-name="Trazado 197648" d="M150.863,367.335h-4.1a4.1,4.1,0,0,0-4.1,4.1v4.1h5.465a2.733,2.733,0,0,0,2.733-2.732Z" transform="translate(-58.353 -17.506)" fill="#e0edff"/>
      <path id="Trazado_197649" data-name="Trazado 197649" d="M89.466,331.868h19.127v27.325H89.466Z" transform="translate(-33.845 -1.167)" fill="#ffef0f"/>
      <g id="Grupo_158194" data-name="Grupo 158194" transform="translate(37.86 330.701)">
        <path id="Trazado_197650" data-name="Trazado 197650" d="M150.863,340.066h-4.1a4.1,4.1,0,0,1-4.1-4.1v-4.1h5.465a2.733,2.733,0,0,1,2.733,2.733Z" transform="translate(-96.213 -331.868)" fill="#e0edff"/>
        <path id="Trazado_197651" data-name="Trazado 197651" d="M56.533,367.335h4.1a4.1,4.1,0,0,1,4.1,4.1v4.1H59.265a2.732,2.732,0,0,1-2.732-2.732Z" transform="translate(-56.533 -348.207)" fill="#e0edff"/>
        <path id="Trazado_197652" data-name="Trazado 197652" d="M56.533,340.066h4.1a4.1,4.1,0,0,0,4.1-4.1v-4.1H59.265a2.733,2.733,0,0,0-2.732,2.733Z" transform="translate(-56.533 -331.868)" fill="#e0edff"/>
      </g>
      <path id="Trazado_197653" data-name="Trazado 197653" d="M93.876,384V333.434a4.1,4.1,0,0,0-4.1-4.1H40.592a4.1,4.1,0,0,0-4.1,4.1v35.522H17.366A1.366,1.366,0,0,0,16,370.322h0v25.959a1.366,1.366,0,0,0,1.366,1.366H77.481a1.377,1.377,0,0,0,.375-.052l16.868-4.82A4.481,4.481,0,0,0,93.876,384Zm-54.65-24.845a4.079,4.079,0,0,0,1.366.235H54.255v2.732H39.226Zm2.733-10.7H39.226v-8.2h2.733a5.471,5.471,0,0,0,5.465-5.465v-2.732h6.831V343H47.424v2.733h6.831v10.93H47.424v-2.733A5.472,5.472,0,0,0,41.959,348.462Zm46.452-8.2h2.732v8.2H88.411a5.471,5.471,0,0,0-5.465,5.465v2.733H76.115V345.73h6.831V343H76.115v-10.93h6.831V334.8A5.471,5.471,0,0,0,88.411,340.265Zm-12.3,35.522H91.143v2.733H76.115Zm15.029-13.662H76.115v-2.732H89.777a4.079,4.079,0,0,0,1.366-.235ZM73.382,356.66h-16.4V332.068h16.4Zm-16.4,2.733h16.4v5.465H58.353a1.369,1.369,0,0,0-.538.111l-.828.355Zm19.127,5.465H91.143v2.732H79.823a4.592,4.592,0,0,0-3.708-2.707Zm4.008,5.465h11.02v2.733H78.44A4.605,4.605,0,0,0,80.123,370.322ZM73.382,381.3l-6.4-3.841,6.4-2.328Zm2.732-.046H91.143v2.733H77.859l-1.745-1.047Zm15.029-25.958a1.367,1.367,0,0,1-1.366,1.366h-4.1v-2.733a2.736,2.736,0,0,1,2.733-2.732h2.732Zm0-21.86v4.1H88.411a2.736,2.736,0,0,1-2.733-2.733v-2.732h4.1A1.367,1.367,0,0,1,91.143,333.434Zm-50.551-1.366h4.1V334.8a2.735,2.735,0,0,1-2.732,2.733H39.226v-4.1A1.368,1.368,0,0,1,40.592,332.068ZM39.226,351.2h2.733a2.735,2.735,0,0,1,2.732,2.732v2.733h-4.1a1.368,1.368,0,0,1-1.366-1.366Zm4.1,43.719H18.733V371.688H43.325Zm-4.1-25.958v-4.1H54.255v1.636l-5.745,2.463Zm54.747,21.192L77.29,394.914H46.058V371.688H48.79a1.357,1.357,0,0,0,.538-.111l9.306-3.988h17a1.848,1.848,0,0,1,.632,3.584l-12.913,4.7a1.366,1.366,0,0,0-.236,2.455l13.662,8.2a1.367,1.367,0,0,0,.7.195H93.493a1.749,1.749,0,0,1,.481,3.431Z"/>
      <path id="Trazado_197654" data-name="Trazado 197654" d="M103.7,353.13H99.6v2.733h2.732V358.6h2.733v-2.967a4.1,4.1,0,0,0-1.366-7.962,1.366,1.366,0,1,1,0-2.733h4.1V342.2h-2.733v-2.733H102.33v2.968A4.1,4.1,0,0,0,103.7,350.4a1.366,1.366,0,1,1,0,2.732Z" transform="translate(-38.512 -4.668)"/>
    </g>
  </g>
</svg>
