<svg xmlns="http://www.w3.org/2000/svg" width="157" height="157" viewBox="0 0 157 157">
  <g id="Grupo_163228" data-name="Grupo 163228" transform="translate(-1142 -1598.447)">
    <g id="Grupo_163227" data-name="Grupo 163227" transform="translate(840 852.447)">
      <g id="Rectángulo_44464" data-name="Rectángulo 44464" transform="translate(302 746)" fill="#fff" stroke="#c44230" stroke-width="4">
        <rect width="157" height="157" rx="78.5" stroke="none"/>
        <rect x="2" y="2" width="153" height="153" rx="76.5" fill="none"/>
      </g>
    </g>
    <g id="_79_Sponsorship" data-name="79 Sponsorship" transform="translate(1173.262 1204.976)">
      <g id="Grupo_158085" data-name="Grupo 158085" transform="translate(3.738 420.99)">
        <path id="Trazado_197443" data-name="Trazado 197443" d="M88.661,464.122a24.519,24.519,0,1,1-24.515-24.514,24.516,24.516,0,0,1,24.515,24.514Z" transform="translate(0.689 -418.693)" fill="#c6412a"/>
        <path id="Trazado_197444" data-name="Trazado 197444" d="M80.477,463.313a17.145,17.145,0,1,1-17.142-17.141,17.143,17.143,0,0,1,17.142,17.141Z" transform="translate(1.499 -417.884)" fill="#ffef0f"/>
        <path id="Trazado_197445" data-name="Trazado 197445" d="M80.26,463.1a17.141,17.141,0,0,1-32.347,7.917,16.925,16.925,0,0,0,7.907,1.941A17.149,17.149,0,0,0,72.97,455.806a16.938,16.938,0,0,0-1.94-7.907,17.093,17.093,0,0,1,9.231,15.2Z" transform="translate(1.711 -417.671)" opacity="0.1" style="isolation: isolate"/>
        <path id="Trazado_197446" data-name="Trazado 197446" d="M44.4,441.786A19.861,19.861,0,1,1,24.54,421.927,19.858,19.858,0,0,1,44.4,441.786Z" transform="translate(-3.622 -420.874)" fill="#c6412a"/>
        <path id="Trazado_197447" data-name="Trazado 197447" d="M37.769,441.131a13.888,13.888,0,1,1-13.886-13.887A13.886,13.886,0,0,1,37.769,441.131Z" transform="translate(-2.966 -420.219)" fill="#ffef0f"/>
        <path id="Trazado_197448" data-name="Trazado 197448" d="M37.593,440.955a13.885,13.885,0,0,1-26.2,6.414,13.722,13.722,0,0,0,6.4,1.572,13.891,13.891,0,0,0,13.893-13.892,13.71,13.71,0,0,0-1.573-6.405A13.843,13.843,0,0,1,37.593,440.955Z" transform="translate(-2.794 -420.046)" opacity="0.1" style="isolation: isolate"/>
        <path id="Trazado_197449" data-name="Trazado 197449" d="M100.321,491.512a3.945,3.945,0,0,1-2.162,3.576l-32.139,16.6a16.319,16.319,0,0,1-15.142-.089c-3.753-1.986-7.99-4.216-10.374-5.474-4.923-2.583-17.593-1.3-17.593-1.3V484.889s7.814-.045,13.2-2.605c3.753-1.787,12.649,2.274,17.7,4.9a23.631,23.631,0,0,0,8.366,2.473l10.728,1.126a4.281,4.281,0,0,1,3.818,4.57L94.759,487.8a4.007,4.007,0,0,1,5.562,3.708Z" transform="translate(-1.373 -413.483)" fill="#f1b2a3"/>
        <path id="Trazado_197450" data-name="Trazado 197450" d="M27.337,486.767v15.973a4.1,4.1,0,0,1-4.1,4.1H15.525V482.666h7.711A4.1,4.1,0,0,1,27.337,486.767Z" transform="translate(-2.284 -413.382)" fill="#e8f1f8"/>
        <path id="Trazado_197451" data-name="Trazado 197451" d="M19.064,480.327H7.93a3.254,3.254,0,0,0-3.254,3.254V506.5a3.254,3.254,0,0,0,3.254,3.254H19.064a3.254,3.254,0,0,0,3.254-3.254V483.581A3.254,3.254,0,0,0,19.064,480.327Z" transform="translate(-3.622 -413.67)" fill="#475da9"/>
        <path id="Trazado_197452" data-name="Trazado 197452" d="M63.106,467.969H57.736a1.053,1.053,0,0,0,0,2.106h3.249v1.634a1.053,1.053,0,0,0,2.105,0v-1.634h.017a4.287,4.287,0,1,0,0-8.573H60.97a2.181,2.181,0,1,1,0-4.362h5.37a1.053,1.053,0,1,0,0-2.105H63.09V453.4a1.053,1.053,0,1,0-2.106,0v1.635H60.97a4.287,4.287,0,0,0,0,8.573h2.137a2.18,2.18,0,1,1,0,4.361Z" transform="translate(2.793 -417.122)"/>
        <path id="Trazado_197453" data-name="Trazado 197453" d="M21.989,436.352h4.35a1.053,1.053,0,1,0,0-2.106H23.907v-1.124a1.053,1.053,0,0,0-2.106,0v1.144a3.665,3.665,0,0,0,.189,7.326h1.73a1.567,1.567,0,1,1,0,3.133H19.37a1.053,1.053,0,1,0,0,2.106H21.8v1.123a1.053,1.053,0,0,0,2.106,0v-1.142a3.665,3.665,0,0,0-.188-7.325h-1.73a1.567,1.567,0,1,1,0-3.133Z" transform="translate(-1.94 -419.623)"/>
        <path id="Trazado_197454" data-name="Trazado 197454" d="M64.262,489.813a25.571,25.571,0,1,0-25.576-25.574,25.6,25.6,0,0,0,25.576,25.574Zm0-49.037a23.466,23.466,0,1,1-23.469,23.462,23.489,23.489,0,0,1,23.469-23.462Z" transform="translate(0.573 -418.809)"/>
        <path id="Trazado_197455" data-name="Trazado 197455" d="M24.655,420.99A20.914,20.914,0,1,0,45.566,441.9,20.938,20.938,0,0,0,24.655,420.99Zm0,39.723A18.808,18.808,0,1,1,43.461,441.9,18.834,18.834,0,0,1,24.655,460.713Z" transform="translate(-3.738 -420.99)" fill="#c6412a"/>
        <path id="Trazado_197456" data-name="Trazado 197456" d="M63.451,481.63a18.2,18.2,0,1,0-18.2-18.2A18.217,18.217,0,0,0,63.451,481.63Zm0-34.289a16.092,16.092,0,1,1-16.094,16.09,16.107,16.107,0,0,1,16.094-16.09Z" transform="translate(1.383 -417.999)"/>
        <path id="Trazado_197457" data-name="Trazado 197457" d="M24,426.307a14.941,14.941,0,1,0,14.94,14.94A14.958,14.958,0,0,0,24,426.307Zm0,27.776a12.835,12.835,0,1,1,12.834-12.837A12.852,12.852,0,0,1,24,454.083Z" transform="translate(-3.082 -420.334)"/>
        <path id="Trazado_197458" data-name="Trazado 197458" d="M3.738,506.619a4.314,4.314,0,0,0,4.308,4.308H19.18a4.313,4.313,0,0,0,3.965-2.629h1.543a5.17,5.17,0,0,0,4.333-2.371c6.258-.264,11.107.252,13.357,1.427,2.16,1.149,6.418,3.378,10.37,5.475a17.394,17.394,0,0,0,16.118.091L101,496.332a5.077,5.077,0,0,0-4.279-9.2l-16.7,6.993a5.38,5.38,0,0,0-4.636-4.088L64.65,488.912a22.351,22.351,0,0,1-7.985-2.364c-6.323-3.279-14.688-6.8-18.646-4.911a30.169,30.169,0,0,1-9.335,2.284,5.177,5.177,0,0,0-4-1.9H23.147a4.314,4.314,0,0,0-3.968-2.631H8.046A4.313,4.313,0,0,0,3.738,483.7v22.923Zm35.186-23.081c2.439-1.164,8.552.614,16.772,4.879A24.411,24.411,0,0,0,64.43,491l10.727,1.127a3.238,3.238,0,0,1,2.876,3.067c-1.549,1.322-9.486,6.946-26.226.422a1.053,1.053,0,1,0-.765,1.961A42.458,42.458,0,0,0,66.4,500.836c8.284,0,12.414-3.461,13.284-4.289l17.843-7.469a3.012,3.012,0,0,1,3.4.807,2.982,2.982,0,0,1-.886,4.57L67.9,511.048a15.283,15.283,0,0,1-14.166-.078c-3.55-1.885-8.245-4.347-10.375-5.479-3.378-1.768-9.732-1.826-13.552-1.7.04-.321.145-16.825-.111-17.858a31.1,31.1,0,0,0,9.227-2.391Zm-15.436.586h1.2a3.062,3.062,0,0,1,3.053,3.042v15.972a3.064,3.064,0,0,1-3.053,3.054h-1.2ZM5.843,483.7a2.2,2.2,0,0,1,2.2-2.2H19.18a2.2,2.2,0,0,1,2.2,2.2v22.922a2.2,2.2,0,0,1-2.2,2.2H8.046a2.2,2.2,0,0,1-2.2-2.2Z" transform="translate(-3.738 -413.786)"/>
      </g>
    </g>
  </g>
</svg>
