<svg xmlns="http://www.w3.org/2000/svg" width="133" height="133" viewBox="0 0 133 133">
  <g id="Grupo_163243" data-name="Grupo 163243" transform="translate(-570.172 -4455.54)">
    <g id="Elipse_18259" data-name="Elipse 18259" transform="translate(570.172 4455.54)" fill="#fff" stroke="#6677d6" stroke-width="4">
      <circle cx="66.5" cy="66.5" r="66.5" stroke="none"/>
      <circle cx="66.5" cy="66.5" r="64.5" fill="none"/>
    </g>
    <g id="Grupo_158126" data-name="Grupo 158126" transform="translate(589.5 4060.465)">
      <g id="Grupo_158125" data-name="Grupo 158125">
        <g id="Grupo_158122" data-name="Grupo 158122">
          <g id="Grupo_158118" data-name="Grupo 158118">
            <path id="Trazado_197505" data-name="Trazado 197505" d="M67.238,500.212H11.071a2.856,2.856,0,0,1-2.856-2.856V426.432a2.856,2.856,0,0,1,2.856-2.856H67.239a2.856,2.856,0,0,1,2.856,2.856v70.924A2.857,2.857,0,0,1,67.238,500.212Z" fill="#6677d6"/>
            <path id="Trazado_197506" data-name="Trazado 197506" d="M63.668,495.214H14.641a1.428,1.428,0,0,1-1.428-1.428V430a1.428,1.428,0,0,1,1.428-1.428H63.669A1.428,1.428,0,0,1,65.1,430v63.784A1.429,1.429,0,0,1,63.668,495.214Z" fill="#fff"/>
            <path id="Trazado_197507" data-name="Trazado 197507" d="M45.511,421.017a6.418,6.418,0,0,0-12.713,0h-8.28a2.856,2.856,0,0,0-2.856,2.856v6.069a1.428,1.428,0,0,0,1.428,1.428H55.22a1.428,1.428,0,0,0,1.428-1.428v-6.069a2.856,2.856,0,0,0-2.856-2.856Z" fill="#ffef0f"/>
            <g id="Grupo_158117" data-name="Grupo 158117">
              <path id="Trazado_197508" data-name="Trazado 197508" d="M55.22,429.228H23.09a1.428,1.428,0,0,1-1.428-1.428v2.142a1.428,1.428,0,0,0,1.428,1.428H55.22a1.428,1.428,0,0,0,1.428-1.428V427.8A1.428,1.428,0,0,1,55.22,429.228Z" fill="#fff"/>
              <circle id="Elipse_18277" data-name="Elipse 18277" cx="2.142" cy="2.142" r="2.142" transform="translate(37.013 419.767)" fill="#fff"/>
            </g>
          </g>
          <g id="Grupo_158121" data-name="Grupo 158121">
            <circle id="Elipse_18278" data-name="Elipse 18278" cx="13.221" cy="13.221" r="13.221" transform="translate(25.933 436.673)" fill="#c6412a"/>
            <g id="Grupo_158120" data-name="Grupo 158120">
              <path id="Trazado_197509" data-name="Trazado 197509" d="M29.733,459.163a13.208,13.208,0,0,0,18.844,0V456.2a4.808,4.808,0,0,0-4.808-4.807H34.54a4.807,4.807,0,0,0-4.807,4.807Z" fill="#d4fbff"/>
              <g id="Grupo_158119" data-name="Grupo 158119">
                <path id="Trazado_197510" data-name="Trazado 197510" d="M39.155,452.267a5.9,5.9,0,0,1-2.45-.533l1.431,3.669h2.037l1.431-3.669a5.891,5.891,0,0,1-2.449.533Z" fill="#0089ef"/>
                <path id="Trazado_197511" data-name="Trazado 197511" d="M39.155,463.115a13.158,13.158,0,0,0,1.48-.088l-.462-7.624H38.136l-.462,7.625a13.4,13.4,0,0,0,1.481.087Z" fill="#0089ef"/>
              </g>
              <path id="Trazado_197512" data-name="Trazado 197512" d="M45.074,446.373a5.92,5.92,0,1,1-5.919-5.894A5.906,5.906,0,0,1,45.074,446.373Z" fill="#fff"/>
            </g>
          </g>
        </g>
        <g id="Grupo_158124" data-name="Grupo 158124">
          <path id="Trazado_197513" data-name="Trazado 197513" d="M88.067,500.212a4.165,4.165,0,0,1-5.437-2.8L78.1,481.143l5.352-1.948,6.986,15.379a4.163,4.163,0,0,1-2.367,5.638Z" fill="#c6412a"/>
          <path id="Trazado_197514" data-name="Trazado 197514" d="M84.662,473.746a18.927,18.927,0,0,1-11,4l.64,1.758a2.835,2.835,0,0,0,3.634,1.7l5.67-2.064A2.835,2.835,0,0,0,85.3,475.5Z" fill="#fa759e"/>
          <circle id="Elipse_18279" data-name="Elipse 18279" cx="18.921" cy="18.921" r="18.921" transform="translate(54.087 439.917)" fill="#c6412a"/>
          <circle id="Elipse_18280" data-name="Elipse 18280" cx="14.923" cy="14.923" r="14.923" transform="translate(58.085 443.915)" fill="#fff"/>
          <g id="Grupo_158123" data-name="Grupo 158123">
            <path id="Trazado_197515" data-name="Trazado 197515" d="M8.214,446.053a.714.714,0,0,0,.714-.714v-7.125a.714.714,0,0,0-1.428,0v7.125A.714.714,0,0,0,8.214,446.053Z" fill="#3a2c60"/>
            <path id="Trazado_197516" data-name="Trazado 197516" d="M39.155,424.765a2.856,2.856,0,1,0-2.856-2.856A2.858,2.858,0,0,0,39.155,424.765Zm0-4.284a1.428,1.428,0,1,1-1.428,1.428A1.43,1.43,0,0,1,39.155,420.481Z" fill="#3a2c60"/>
            <path id="Trazado_197517" data-name="Trazado 197517" d="M39.155,463.829a13.935,13.935,0,1,0-13.936-13.935A13.951,13.951,0,0,0,39.155,463.829Zm-8.708-4.976V456.2a4.1,4.1,0,0,1,4.093-4.093h1.337a6.609,6.609,0,0,0,6.555,0h1.337a4.1,4.1,0,0,1,4.094,4.093v2.648a12.46,12.46,0,0,1-17.416,0Zm8.708-7.3a5.181,5.181,0,1,1,5.205-5.181A5.2,5.2,0,0,1,39.155,451.554Zm0-14.166a12.485,12.485,0,0,1,10.136,19.8v-.987a5.524,5.524,0,0,0-5.137-5.5,6.557,6.557,0,0,0,1.634-4.33,6.634,6.634,0,1,0-11.633,4.33,5.524,5.524,0,0,0-5.136,5.5v.987a12.484,12.484,0,0,1,10.136-19.8Z" fill="#3a2c60"/>
            <path id="Trazado_197518" data-name="Trazado 197518" d="M58.463,473.72h-25.7a.714.714,0,0,0,0,1.428h25.7a.714.714,0,0,0,0-1.428Z" fill="#3a2c60"/>
            <path id="Trazado_197519" data-name="Trazado 197519" d="M28.368,466.763l-.872.938a2.132,2.132,0,0,0-1.7-.854H20.621a2.145,2.145,0,0,0-2.142,2.142v5.177a2.145,2.145,0,0,0,2.142,2.142H25.8a2.145,2.145,0,0,0,2.142-2.142v-4.845l1.475-1.586a.714.714,0,1,0-1.046-.972Zm-1.858,7.4a.714.714,0,0,1-.714.714H20.62a.714.714,0,0,1-.714-.714v-5.177a.714.714,0,0,1,.714-.714H25.8a.7.7,0,0,1,.676.526l-3.107,3.341-1.68-1.86a.714.714,0,1,0-1.059.957l2.2,2.439a.714.714,0,0,0,.525.236h.005a.71.71,0,0,0,.522-.228l2.631-2.829v3.309Z" fill="#3a2c60"/>
            <path id="Trazado_197520" data-name="Trazado 197520" d="M58.463,482.288h-25.7a.714.714,0,0,0,0,1.428h25.7a.714.714,0,0,0,0-1.428Z" fill="#3a2c60"/>
            <path id="Trazado_197521" data-name="Trazado 197521" d="M58.463,488h-25.7a.714.714,0,0,0,0,1.428h25.7a.714.714,0,0,0,0-1.428Z" fill="#3a2c60"/>
            <path id="Trazado_197522" data-name="Trazado 197522" d="M28.368,481.044l-.872.937a2.133,2.133,0,0,0-1.7-.852H20.621a2.145,2.145,0,0,0-2.142,2.142v5.176a2.145,2.145,0,0,0,2.142,2.142H25.8a2.145,2.145,0,0,0,2.142-2.142V483.6l1.475-1.586a.714.714,0,0,0-1.046-.972Zm-1.858,7.4a.714.714,0,0,1-.714.714H20.62a.714.714,0,0,1-.714-.714V483.27a.714.714,0,0,1,.714-.714H25.8a.7.7,0,0,1,.676.526l-3.107,3.341-1.68-1.861a.714.714,0,1,0-1.059.957l2.2,2.439a.71.71,0,0,0,.525.236h.005a.71.71,0,0,0,.522-.228l2.631-2.828v3.309Z" fill="#3a2c60"/>
            <path id="Trazado_197523" data-name="Trazado 197523" d="M84.393,479.55a3.531,3.531,0,0,0,1.579-4.29l-.462-1.27a19.639,19.639,0,0,0-14.7-34.66v-12.9a3.573,3.573,0,0,0-3.57-3.57H57.2a3.563,3.563,0,0,0-3.406-2.559H46.1a7.131,7.131,0,0,0-13.9,0H24.518a3.563,3.563,0,0,0-3.407,2.559H11.07a3.574,3.574,0,0,0-3.57,3.57v8.39a.714.714,0,1,0,1.428,0v-8.39a2.145,2.145,0,0,1,2.142-2.142h9.877v3.57H14.64A2.145,2.145,0,0,0,12.5,430v63.784a2.145,2.145,0,0,0,2.142,2.142H63.668a2.145,2.145,0,0,0,2.142-2.142V477.1a19.775,19.775,0,0,0,3.57,1.022v19.239a2.145,2.145,0,0,1-2.142,2.142H11.07a2.145,2.145,0,0,1-2.142-2.142V448.467a.714.714,0,1,0-1.428,0v48.89a3.575,3.575,0,0,0,3.57,3.57H67.238a3.575,3.575,0,0,0,3.571-3.57V478.334a19.486,19.486,0,0,0,2.219.14c.045,0,.092-.005.137-.005l.467,1.283a3.529,3.529,0,0,0,3.97,2.277l4.339,15.578a4.88,4.88,0,1,0,9.143-3.328Zm5.725-26.939a18.206,18.206,0,1,1-17.13-11.981,18.091,18.091,0,0,1,17.13,11.981ZM69.38,426.432v13.112a19.739,19.739,0,0,0-3.087.843c-.163.059-.322.127-.483.19V430a2.145,2.145,0,0,0-2.142-2.142H57.362v-3.57h9.876A2.145,2.145,0,0,1,69.38,426.432Zm-47-2.559a2.145,2.145,0,0,1,2.142-2.142H32.8a.715.715,0,0,0,.707-.615,5.7,5.7,0,0,1,11.3,0,.713.713,0,0,0,.706.615h8.281a2.145,2.145,0,0,1,2.142,2.142v6.069a.714.714,0,0,1-.714.714H23.09a.714.714,0,0,1-.714-.714Zm42.006,69.913a.714.714,0,0,1-.714.714H14.64a.715.715,0,0,1-.714-.714V430a.715.715,0,0,1,.714-.714h6.307v.654a2.145,2.145,0,0,0,2.142,2.142h32.13a2.145,2.145,0,0,0,2.142-2.142v-.654h6.307a.714.714,0,0,1,.714.714v11.2a19.551,19.551,0,0,0-8.724,26.808h-22.9a.714.714,0,0,0,0,1.428h23.73a19.61,19.61,0,0,0,7.894,7.029v17.321ZM76.071,480.46a2.1,2.1,0,0,1-1.1-1.2l-.313-.859a19.7,19.7,0,0,0,9.657-3.513l.312.857a2.122,2.122,0,0,1-1.268,2.718l-5.67,2.065a2.113,2.113,0,0,1-1.622-.071Zm13.754,17.174a3.451,3.451,0,0,1-6.507-.41l-4.356-15.635,4.11-1.5,6.713,14.778A3.409,3.409,0,0,1,89.825,497.634Z" fill="#3a2c60"/>
            <path id="Trazado_197524" data-name="Trazado 197524" d="M73.008,471.015a8.117,8.117,0,0,0,8.108-8.107v-2.851a.714.714,0,1,0-1.428,0v2.851a6.68,6.68,0,0,1-13.359,0V454.77a6.68,6.68,0,0,1,13.359,0v3.014a.714.714,0,0,0,1.428,0V454.77a8.107,8.107,0,0,0-16.215,0v8.137A8.116,8.116,0,0,0,73.008,471.015Z" fill="#3a2c60"/>
            <path id="Trazado_197525" data-name="Trazado 197525" d="M70.681,452a.714.714,0,0,0-.919-1.093,5.044,5.044,0,0,0-1.8,3.867v8.136a5.05,5.05,0,1,0,10.1,0,.714.714,0,1,0-1.428,0,3.622,3.622,0,1,1-7.244,0v-8.136A3.618,3.618,0,0,1,70.681,452Z" fill="#3a2c60"/>
            <path id="Trazado_197526" data-name="Trazado 197526" d="M78.058,458.176a.714.714,0,0,0-1.428,0v2.772a.714.714,0,0,0,1.428,0Z" fill="#3a2c60"/>
            <path id="Trazado_197527" data-name="Trazado 197527" d="M78.058,454.771A5.052,5.052,0,0,0,72,449.822a.714.714,0,1,0,.285,1.4,3.727,3.727,0,0,1,.729-.074,3.626,3.626,0,0,1,3.621,3.623v1.163a.714.714,0,1,0,1.428,0v-1.163Z" fill="#3a2c60"/>
            <path id="Trazado_197528" data-name="Trazado 197528" d="M71.016,462.906a1.993,1.993,0,1,0,3.985,0v-4.73a.714.714,0,0,0-1.428,0v4.73a.565.565,0,1,1-1.129,0v-.557a.714.714,0,0,0-1.428,0Z" fill="#3a2c60"/>
            <path id="Trazado_197529" data-name="Trazado 197529" d="M74.287,457.075a.713.713,0,0,0,.714-.714V454.77a1.993,1.993,0,1,0-3.985,0v5.285a.714.714,0,1,0,1.428,0V454.77a.564.564,0,1,1,1.129,0v1.591A.713.713,0,0,0,74.287,457.075Z" fill="#3a2c60"/>
            <path id="Trazado_197530" data-name="Trazado 197530" d="M58.835,452.23a15.638,15.638,0,1,0,8.825-8.086,15.532,15.532,0,0,0-8.825,8.086Zm9.313-6.744a14.209,14.209,0,1,1-8.019,7.348,14.165,14.165,0,0,1,8.019-7.348Z" fill="#3a2c60"/>
          </g>
        </g>
      </g>
    </g>
  </g>
</svg>
