<svg xmlns="http://www.w3.org/2000/svg" width="133" height="133" viewBox="0 0 133 133">
  <g id="Grupo_163244" data-name="Grupo 163244" transform="translate(-917.172 -4455.54)">
    <g id="Elipse_18261" data-name="Elipse 18261" transform="translate(917.172 4455.54)" fill="#fff" stroke="#6677d6" stroke-width="4">
      <circle cx="66.5" cy="66.5" r="66.5" stroke="none"/>
      <circle cx="66.5" cy="66.5" r="64.5" fill="none"/>
    </g>
    <g id="Grupo_158141" data-name="Grupo 158141" transform="translate(945.804 4108.99)">
      <g id="Grupo_158127" data-name="Grupo 158127" transform="translate(1.278 372.143)">
        <path id="Trazado_197531" data-name="Trazado 197531" d="M3.925,372.917H64.332a1.88,1.88,0,0,1,1.874,1.873v80.066a1.883,1.883,0,0,1-1.874,1.874H3.925a1.88,1.88,0,0,1-1.874-1.874V374.79A1.877,1.877,0,0,1,3.925,372.917Z" transform="translate(-2.051 -372.917)" fill="#faf8f9" fill-rule="evenodd"/>
      </g>
      <g id="Grupo_158128" data-name="Grupo 158128" transform="translate(75.696 377.449)">
        <path id="Trazado_197532" data-name="Trazado 197532" d="M121.5,388.671l6.224,3.146,2.691-5.326a3.487,3.487,0,1,0-6.223-3.146Z" transform="translate(-121.499 -381.433)" fill="#c6412a" fill-rule="evenodd"/>
      </g>
      <g id="Grupo_158129" data-name="Grupo 158129" transform="translate(48.291 433.178)">
        <path id="Trazado_197533" data-name="Trazado 197533" d="M77.9,478.02l-.392,5.932c0,.4,0,.416.32.163l4.546-3.829,4.9-4.13-2.959-5.273-5.995.746Z" transform="translate(-77.512 -470.883)" fill="#918291" fill-rule="evenodd"/>
      </g>
      <g id="Grupo_158130" data-name="Grupo 158130" transform="translate(49.104 384.524)">
        <path id="Trazado_197534" data-name="Trazado 197534" d="M103.353,393.626,78.816,442.189l4.474,2.261,4.479,2.266,22.74-45,1.8-3.562a1.532,1.532,0,0,0-.674-2.055l-6.224-3.146a1.537,1.537,0,0,0-2.055.674Z" transform="translate(-78.816 -392.789)" fill="#6677d6" fill-rule="evenodd"/>
      </g>
      <g id="Grupo_158131" data-name="Grupo 158131" transform="translate(78.808 377.448)">
        <path id="Trazado_197535" data-name="Trazado 197535" d="M129.185,384.918l-2.691,5.326,3.112,1.573,2.691-5.326a3.5,3.5,0,0,0-1.539-4.684,3.46,3.46,0,0,0-1.769-.368A3.5,3.5,0,0,1,129.185,384.918Z" transform="translate(-126.494 -381.432)" fill="#772719" fill-rule="evenodd"/>
      </g>
      <g id="Grupo_158132" data-name="Grupo 158132" transform="translate(54.945 386.26)">
        <path id="Trazado_197536" data-name="Trazado 197536" d="M110.932,401.191,89.249,444.1l-1.057,2.094,3.112,1.572,22.74-45,1.8-3.562a1.531,1.531,0,0,0-.674-2.055l-3.112-1.572a1.531,1.531,0,0,1,.674,2.055Z" transform="translate(-88.192 -395.575)" fill="#81a7c6" fill-rule="evenodd"/>
      </g>
      <g id="Grupo_158133" data-name="Grupo 158133" transform="translate(48.291 436.878)">
        <path id="Trazado_197537" data-name="Trazado 197537" d="M84.165,476.822l-4.9,4.131-1.492,1.257-.263,3.982c0,.4,0,.416.32.162l4.546-3.829,4.9-4.13Z" transform="translate(-77.511 -476.822)" fill="#685d68" fill-rule="evenodd"/>
      </g>
      <g id="Grupo_158134" data-name="Grupo 158134" transform="translate(18.124 382.956)">
        <path id="Trazado_197538" data-name="Trazado 197538" d="M58.947,409.786l-2.8-7.978,2.945-4.379c.411-.612.077-.966-.469-1.454l-5.8-5.177c-.712-.635-.875-.516-1.989-.516l-6.5,2.94-6.5-2.94c-1.114,0-1.281-.12-1.989.516l-5.8,5.177c-.549.488-.879.841-.473,1.454l2.949,4.379-2.8,7.978c-1.53,4.355-.216,6.535,3.078,8.562,3.04,1.874,7.266,5.4,11.535,5.3,4.269.1,8.494-3.423,11.535-5.3,3.294-2.027,4.6-4.207,3.074-8.562Z" transform="translate(-29.09 -390.273)" fill="#ffef0f" fill-rule="evenodd"/>
      </g>
      <g id="Grupo_158135" data-name="Grupo 158135" transform="translate(26.706 393.502)">
        <path id="Trazado_197539" data-name="Trazado 197539" d="M43.844,413.638,45,415.33l.086,2.171.038,1.363a.655.655,0,0,0,.841.6l1.372-.335,2.194-.536,2.19.536,1.376.335a.656.656,0,0,0,.842-.6l.038-1.363.086-2.171,1.248-1.826.774-1.138a.629.629,0,0,0-.335-.956l-1.334-.469-2.123-.746L50.88,408.5,50,407.443a.718.718,0,0,0-.464-.244.706.706,0,0,0-.464.244l-.889,1.062L46.769,410.2l-2.122.746-1.334.469a.623.623,0,0,0-.335.956Z" transform="translate(-42.866 -407.199)" fill="#c6412a" fill-rule="evenodd"/>
      </g>
      <g id="Grupo_158136" data-name="Grupo 158136" transform="translate(56.212 372.143)">
        <path id="Trazado_197540" data-name="Trazado 197540" d="M92.1,374.79v42.125l7.347-14.533V374.79a1.88,1.88,0,0,0-1.874-1.873H90.225A1.877,1.877,0,0,1,92.1,374.79Z" transform="translate(-90.225 -372.917)" fill="#e5e1e5" fill-rule="evenodd"/>
      </g>
      <g id="Grupo_158137" data-name="Grupo 158137" transform="translate(56.212 423.857)">
        <path id="Trazado_197541" data-name="Trazado 197541" d="M92.1,470.454v15.694a1.88,1.88,0,0,1-1.874,1.874h7.347a1.883,1.883,0,0,0,1.874-1.874V455.922Z" transform="translate(-90.225 -455.922)" fill="#e5e1e5" fill-rule="evenodd"/>
      </g>
      <g id="Grupo_158138" data-name="Grupo 158138" transform="translate(38.607 382.956)">
        <path id="Trazado_197542" data-name="Trazado 197542" d="M65.4,406.5a36.748,36.748,0,0,1-3.437,15.761c2.352-1.171,4.527-2.82,6.3-3.916,3.294-2.027,4.6-4.207,3.074-8.562l-2.8-7.978,2.945-4.379c.411-.612.077-.966-.469-1.453l-5.8-5.177c-.712-.635-.875-.516-1.989-.516l-1.224.555A36.7,36.7,0,0,1,65.4,406.5Z" transform="translate(-61.967 -390.273)" fill="#ffc250" fill-rule="evenodd"/>
      </g>
      <g id="Grupo_158139" data-name="Grupo 158139" transform="translate(33.195 393.501)">
        <path id="Trazado_197543" data-name="Trazado 197543" d="M53.883,414.092a39.374,39.374,0,0,1-.263,4.541l2.027.5,1.377.335a.655.655,0,0,0,.841-.6L57.9,417.5l.086-2.171,1.247-1.826.774-1.138a.628.628,0,0,0-.335-.956l-1.333-.469-2.123-.746L54.806,408.5l-.885-1.061a.716.716,0,0,0-.464-.244.558.558,0,0,0-.177.044,39.062,39.062,0,0,1,.6,6.85Z" transform="translate(-53.281 -407.198)" fill="#c6412a" fill-rule="evenodd"/>
      </g>
      <g id="Grupo_158140" data-name="Grupo 158140" transform="translate(0 370.865)">
        <path id="Trazado_197544" data-name="Trazado 197544" d="M87.158,395.651a1.275,1.275,0,0,0-.637-.741l-4.01-2.025,1.221-2.417a2.783,2.783,0,0,0,.164-2.144,2.818,2.818,0,0,0-.4-.779l2.254-4.46a4.764,4.764,0,0,0-8.5-4.3l-2.257,4.464a2.819,2.819,0,0,0-2.491,1.535l-5.79,11.459V374.017a3.155,3.155,0,0,0-3.151-3.152H3.152A3.156,3.156,0,0,0,0,374.017v34.046a1.278,1.278,0,0,0,2.556,0V374.017a.6.6,0,0,1,.6-.6H63.559a.6.6,0,0,1,.6.6V401.3L49.719,429.874H14.849a1.278,1.278,0,1,0,0,2.555H48.428l-.464.919,0,.012a1.28,1.28,0,0,0-.13.48l-.237,3.582H14.849a1.278,1.278,0,0,0,0,2.556H47.424L47.1,444.97H14.849a1.278,1.278,0,1,0,0,2.556H47.477a1.346,1.346,0,0,0,.3.2,1.293,1.293,0,0,0,.564.134,1.746,1.746,0,0,0,1.054-.441l.037-.031,9.446-7.96a1.272,1.272,0,0,0,.313-.4l0,0,4.957-9.81v24.865a.6.6,0,0,1-.6.6H3.152a.6.6,0,0,1-.6-.6V414.048a1.278,1.278,0,0,0-2.556,0v40.035a3.155,3.155,0,0,0,3.152,3.152H63.559a3.155,3.155,0,0,0,3.152-3.152V424.161l2.549-5.044a1.278,1.278,0,0,0-2.281-1.153l-9.485,18.77-6.673-3.374,23.959-47.42a.259.259,0,0,1,.341-.113l6.224,3.145h0a.248.248,0,0,1,.123.145.251.251,0,0,1-.014.193L69.623,412.726a1.277,1.277,0,1,0,2.28,1.152l9.456-18.714,2.869,1.45-8.262,16.35a1.278,1.278,0,1,0,2.281,1.153l8.839-17.491a1.278,1.278,0,0,0,.073-.975Zm-31.4,43.069-6.023,5.076.518-7.859Zm23.771-58.781a2.209,2.209,0,1,1,3.943,1.992l-2.115,4.185-3.944-1.993Z" transform="translate(0 -370.865)"/>
        <path id="Trazado_197545" data-name="Trazado 197545" d="M33.127,453.226a1.278,1.278,0,1,0,0,2.556H57.592a1.278,1.278,0,1,0,0-2.556Z" transform="translate(-12.006 -401.914)"/>
        <path id="Trazado_197546" data-name="Trazado 197546" d="M31.353,418.663c.556.343,1.165.751,1.81,1.183,2.871,1.922,6.43,4.306,10.214,4.306l.181,0,.181,0c3.785,0,7.344-2.384,10.214-4.306.645-.432,1.254-.84,1.809-1.182,4.175-2.569,5.22-5.488,3.61-10.073l-2.584-7.373,2.587-3.848a2.233,2.233,0,0,0-.678-3.119l-5.8-5.177a2.868,2.868,0,0,0-2.415-.846c-.124,0-.263,0-.424,0a1.269,1.269,0,0,0-.526.114l-5.975,2.7-5.975-2.7a1.276,1.276,0,0,0-.526-.114c-.16,0-.3,0-.424,0a2.861,2.861,0,0,0-2.415.846l-5.8,5.174a2.262,2.262,0,0,0-.685,3.123l2.591,3.847L27.74,408.59c-1.611,4.583-.563,7.5,3.614,10.072Zm-1.2-9.226,2.8-7.978a1.278,1.278,0,0,0-.146-1.137l-2.761-4.1.075-.067,5.8-5.18a2.037,2.037,0,0,1,.238-.193c.077-.007.26,0,.425,0l.191,0,6.255,2.829a1.282,1.282,0,0,0,1.053,0l6.255-2.829.191,0c.163,0,.347-.006.422,0a2.019,2.019,0,0,1,.244.2l5.8,5.176.073.066-2.757,4.1a1.278,1.278,0,0,0-.145,1.136l2.8,7.978h0c1.34,3.815.2,5.367-2.538,7.051-.6.368-1.226.789-1.891,1.235-2.624,1.757-5.885,3.944-8.943,3.872h-.06c-3.059.072-6.319-2.115-8.943-3.872-.666-.445-1.294-.867-1.893-1.235-2.737-1.685-3.881-3.237-2.542-7.051Z" transform="translate(-10.186 -377.409)"/>
        <path id="Trazado_197547" data-name="Trazado 197547" d="M41.149,412.312l.865,1.272,0,0,.949,1.389.071,1.788.039,1.363c0,.024,0,.047,0,.07a1.933,1.933,0,0,0,.766,1.414,2,2,0,0,0,1.612.333l.039-.009,3.263-.8,3.265.8.037.009a2.124,2.124,0,0,0,.44.046,1.957,1.957,0,0,0,1.172-.379,1.932,1.932,0,0,0,.766-1.414c0-.023,0-.047,0-.07l.038-1.348.072-1.8,1.816-2.663c.013-.019.025-.038.037-.057a1.9,1.9,0,0,0-.94-2.8l-.064-.024-3.124-1.1L50.2,405.852l-.032-.037a1.982,1.982,0,0,0-1.3-.662,1.315,1.315,0,0,0-.216,0,1.983,1.983,0,0,0-1.306.662c-.011.011-.021.022-.03.034l-2.076,2.485-3.124,1.1-.06.022a1.9,1.9,0,0,0-.938,2.811l.031.047Zm5.271-1.683a1.283,1.283,0,0,0,.558-.388l1.78-2.134,1.784,2.135a1.28,1.28,0,0,0,.556.386l2.684.943-1.546,2.265a1.271,1.271,0,0,0-.222.67l-.087,2.185-.017.586-2.848-.7a1.267,1.267,0,0,0-.606,0l-2.849.7-.1-2.769a1.277,1.277,0,0,0-.222-.671l-1.546-2.265Z" transform="translate(-15.387 -383.789)"/>
      </g>
    </g>
  </g>
</svg>
