<svg xmlns="http://www.w3.org/2000/svg" width="133" height="133" viewBox="0 0 133 133">
  <g id="Grupo_163136" data-name="Grupo 163136" transform="translate(-1077 -2569)">
    <g id="Elipse_18059" data-name="Elipse 18059" transform="translate(1077 2569)" fill="#fff" stroke="#c6412a" stroke-width="4">
      <circle cx="66.5" cy="66.5" r="66.5" stroke="none"/>
      <circle cx="66.5" cy="66.5" r="64.5" fill="none"/>
    </g>
    <g id="Grupo_158193" data-name="Grupo 158193" transform="translate(1089 2198.142)">
      <path id="Trazado_197629" data-name="Trazado 197629" d="M86.241,462.918l-4.54-4.54-9.078,9.078L68.084,472l-4.54-4.54H45.387v22.7a4.545,4.545,0,0,1-4.539,4.54H90.781V458.378Z" transform="translate(-5.612 -11.535)" fill="#ffeaa7"/>
      <path id="Trazado_197630" data-name="Trazado 197630" d="M39.555,453.7l-3.026,3.026-1.695,1.695a4.561,4.561,0,0,0-1.332,3.208V488.5a4.539,4.539,0,1,1-9.078,0V449.16h8.322a3.78,3.78,0,0,0,1.8-.454h.016Z" transform="translate(-2.806 -9.883)" fill="#cf9e76"/>
      <path id="Trazado_197631" data-name="Trazado 197631" d="M44.451,466.833v22.7a4.539,4.539,0,1,1-9.078,0V462.657a4.561,4.561,0,0,1,1.332-3.208l1.695-1.695,3.026-3.026,3.026,3.026Z" transform="translate(-4.676 -10.912)" fill="#cf9e76"/>
      <path id="Trazado_197632" data-name="Trazado 197632" d="M32.988,445.189a3.78,3.78,0,0,1-1.8.454H21.352a6.051,6.051,0,0,1-6.052-6.053v-7.565a12.333,12.333,0,0,1,.635-3.9l2.39,2.39,4.54,4.54,3.026,3.026h5.3A3.789,3.789,0,0,1,33,445.189Z" transform="translate(-1.247 -6.366)" fill="#6677d6"/>
      <path id="Trazado_197633" data-name="Trazado 197633" d="M22.69,419.8a12.054,12.054,0,0,1,5.977-1.574H57.794l.076-.015a16.483,16.483,0,0,0,4.1,7.58H45.311a3.036,3.036,0,0,0-3.026,3.026v10.592l-12.1-12.1-4.539-4.54-2.951-2.95Z" transform="translate(-2.51 -4.673)" fill="#6677d6"/>
      <circle id="Elipse_18283" data-name="Elipse 18283" cx="10.592" cy="10.592" r="10.592" transform="translate(20.105 392.371)" fill="#f0d0b4"/>
      <path id="Trazado_197634" data-name="Trazado 197634" d="M20.492,419.2l2.951,2.95L17.39,428.2,15,425.809l-3.919-3.919a4.279,4.279,0,1,1,6.052-6.052Z" transform="translate(-0.312 -4.053)" fill="#aab2bd"/>
      <path id="Trazado_197635" data-name="Trazado 197635" d="M30.476,429.18l12.1,12.1,9.079,9.078-6.053,6.053-3.026-3.026-3.026-3.026-4.993-4.993a3.786,3.786,0,0,0-1.816-7.112h-5.3l-3.026-3.026Z" transform="translate(-2.806 -6.547)" fill="#ffef0f"/>
      <path id="Trazado_197636" data-name="Trazado 197636" d="M56.025,454.728l1.513,7.566-7.566-1.513Z" transform="translate(-7.171 -10.912)" fill="#aab2bd"/>
      <path id="Trazado_197637" data-name="Trazado 197637" d="M18.944,429.756,25,423.7l4.539,4.54-6.052,6.051Z" transform="translate(-1.87 -5.612)" fill="#ffef0f"/>
      <path id="Trazado_197638" data-name="Trazado 197638" d="M90.651,440.129v1.513a7.566,7.566,0,1,1-15.131,0v-1.513Z" transform="translate(-11.535 -8.418)" fill="#aab2bd"/>
      <path id="Trazado_197639" data-name="Trazado 197639" d="M91.229,432.83a3.035,3.035,0,0,1,3.026,3.026,3.048,3.048,0,0,1-3.026,3.026H73.072a3.035,3.035,0,0,1-3.026-3.026,3.048,3.048,0,0,1,3.026-3.026H91.229Z" transform="translate(-10.6 -7.171)" fill="#ccd1d9"/>
      <path id="Trazado_197640" data-name="Trazado 197640" d="M97.859,409.327v.666a16.651,16.651,0,0,1-4.872,11.772l-2,2a7.641,7.641,0,0,0-1.513,2.21H72.954a7.641,7.641,0,0,0-1.513-2.21l-2-2c-.105-.106-.211-.227-.318-.333a16.654,16.654,0,0,1-4.555-11.439v-.666a16.644,16.644,0,0,1,33.288,0Z" transform="translate(-9.665 -0.312)" fill="#ffef0f"/>
      <path id="Trazado_197641" data-name="Trazado 197641" d="M115,441.954l-3.026,12.1-4.54-4.539-4.539-4.54Z" transform="translate(-16.212 -8.729)" fill="#c6412a"/>
      <path id="Trazado_197642" data-name="Trazado 197642" d="M81.885,413.288a1.515,1.515,0,0,1-1.513-1.513H77.345a4.546,4.546,0,0,0,4.54,4.54v3.026h3.026v-3.026H89.45v-4.54a4.545,4.545,0,0,0-4.539-4.54H81.885a1.515,1.515,0,0,1-1.513-1.512V404.21h4.54a1.515,1.515,0,0,1,1.513,1.513H89.45a4.545,4.545,0,0,0-4.539-4.54v-3.026H81.885v3.026h-4.54v4.54a4.545,4.545,0,0,0,4.54,4.539h3.026a1.515,1.515,0,0,1,1.513,1.513v1.513Z" transform="translate(-11.847 -1.247)"/>
      <path id="Trazado_197643" data-name="Trazado 197643" d="M96.581,448.29l4.285-17.145-17.144,4.287,5.36,5.36-8.452,8.452L76.09,444.7,62.472,458.322l-3.914-3.914H41.288V450.5l.768.768,10.24,2.048-2.049-10.24-8.959-8.959v-9.966a1.515,1.515,0,0,1,1.513-1.513H58.819l1.876,1.876a4.539,4.539,0,0,0,1.777,8.715,9.078,9.078,0,0,0,18.157,0,4.539,4.539,0,0,0,1.777-8.715l1.983-1.985a18.03,18.03,0,0,0,5.318-12.838v-.672a18.157,18.157,0,0,0-36.315,0v.672a18.325,18.325,0,0,0,.17,2.355H38.677a12.1,12.1,0,1,0-15.538.362,13.519,13.519,0,0,0-2.657.9l-2.593-2.594A5.793,5.793,0,0,0,9.7,418.905l3.293,3.292a13.641,13.641,0,0,0-.449,3.463v7.565a7.575,7.575,0,0,0,7.565,7.566v37.827A6.027,6.027,0,0,0,30.7,482.579a6.013,6.013,0,0,0,4.54,2.091H86.682v-37.2l4.539-4.54Zm-22,33.355H68.524v-25.1l6.053-6.053ZM65.5,459.574v22.07H59.446v-22.07l3.026,3.026Zm-9.078,22.07H50.367v-24.21h6.052Zm-9.078-24.21v24.21H40.447a6,6,0,0,0,.841-3.026V457.434ZM29.94,430.2h-4.67l-1.513-1.512,3.913-3.914,19.044,19.044L42.8,447.729l-8.835-8.835a5.267,5.267,0,0,0-4.026-8.7Zm-4.409-7.565-3.913,3.913-2.4-2.4,3.913-3.913ZM45.87,448.94l2.055-2.055.513,2.568Zm25.681-9.662a6.059,6.059,0,0,1-6.053-6.053H77.6A6.058,6.058,0,0,1,71.551,439.277Zm9.078-9.079H62.472a1.513,1.513,0,1,1,0-3.026H80.629a1.513,1.513,0,1,1,0,3.026Zm-24.21-21.183a15.131,15.131,0,0,1,30.263,0v.672a15.031,15.031,0,0,1-4.432,10.7l-1.987,1.988a8.87,8.87,0,0,0-1.322,1.772H64.16a8.8,8.8,0,0,0-1.323-1.772l-1.987-1.988a15.031,15.031,0,0,1-4.432-10.7Zm-34.8-6.052a9.078,9.078,0,1,1,9.078,9.078A9.088,9.088,0,0,1,21.618,402.963Zm4.54,12.1H54.2a17.931,17.931,0,0,0,2.142,4.539H42.8a4.545,4.545,0,0,0-4.539,4.54v6.939L22.809,415.633A10.616,10.616,0,0,1,26.158,415.068Zm-15.131-.259a2.766,2.766,0,0,1,4.722-1.957l5.243,5.241-3.913,3.914-5.243-5.242A2.75,2.75,0,0,1,11.026,414.809Zm4.539,18.416v-7.565c0-.275.046-.546.067-.82l5.359,5.359h-2.4v3.026H29.94a2.27,2.27,0,0,1,0,4.54H20.1A4.545,4.545,0,0,1,15.565,433.225ZM32.21,478.618V451.75a3.015,3.015,0,0,1,.886-2.141l1.7-1.7-2.139-2.139-1.7,1.7a6.011,6.011,0,0,0-1.774,4.28v26.868a3.026,3.026,0,1,1-6.052,0V440.791H29.94a5.216,5.216,0,0,0,1.424-.22l6.9,6.9v31.148a3.026,3.026,0,1,1-6.053,0Zm51.446,3.026H77.6V450.5l3.026,3.026,3.026-3.026ZM96.707,435.3,94.94,442.37l-5.3-5.3Z" transform="translate(0 0)"/>
    </g>
  </g>
</svg>
