<svg xmlns="http://www.w3.org/2000/svg" width="133" height="133" viewBox="0 0 133 133">
  <g id="Grupo_163218" data-name="Grupo 163218" transform="translate(-390.106 -2767)">
    <g id="Elipse_18058" data-name="Elipse 18058" transform="translate(390.106 2767)" fill="#fff" stroke="#c6412a" stroke-width="4">
      <circle cx="66.5" cy="66.5" r="66.5" stroke="none"/>
      <circle cx="66.5" cy="66.5" r="64.5" fill="none"/>
    </g>
    <g id="_45_Selection" data-name="45 Selection" transform="translate(405.387 2376.227)">
      <g id="Grupo_158272" data-name="Grupo 158272" transform="translate(6.719 414.773)">
        <path id="Trazado_197736" data-name="Trazado 197736" d="M38.791,427.62q.007-.426-.016-.86a11.793,11.793,0,0,0-23.567.664v.086a7.609,7.609,0,0,0,7.686,7.411h8.219a7.591,7.591,0,0,0,7.678-7.3Z" transform="translate(-6.016 -414.702)" fill="#ffef0f"/>
        <path id="Trazado_197737" data-name="Trazado 197737" d="M38.789,427.462a7.584,7.584,0,0,1-7.672,7.3H22.894a7.6,7.6,0,0,1-7.683-7.408v-.088c0-.166,0-.341.011-.507a11.77,11.77,0,0,0,18.361-9.235,11.894,11.894,0,0,1,5.2,9.081c.011.286.022.572.011.859Z" transform="translate(-6.016 -414.545)" opacity="0.12" style="isolation: isolate"/>
        <path id="Trazado_197738" data-name="Trazado 197738" d="M82.362,427.62q.007-.426-.017-.86a11.793,11.793,0,0,0-23.567.664v.086a7.61,7.61,0,0,0,7.686,7.411h8.219A7.593,7.593,0,0,0,82.362,427.62Z" transform="translate(-2.408 -414.702)" fill="#ffef0f"/>
        <path id="Trazado_197739" data-name="Trazado 197739" d="M82.36,427.462a7.584,7.584,0,0,1-7.673,7.3H66.465a7.6,7.6,0,0,1-7.684-7.408v-.088c0-.166,0-.341.012-.507a11.769,11.769,0,0,0,18.36-9.235,11.892,11.892,0,0,1,5.2,9.081c.011.286.022.572.011.859Z" transform="translate(-2.408 -414.545)" opacity="0.12" style="isolation: isolate"/>
        <path id="Trazado_197740" data-name="Trazado 197740" d="M31.152,443.432H24a15.039,15.039,0,0,0-9.221,3.02,21.086,21.086,0,0,0-6.855,9.3,5.492,5.492,0,0,0,5.193,7.349H42.148a5.493,5.493,0,0,0,5.192-7.351,21.073,21.073,0,0,0-6.113-8.689,15.554,15.554,0,0,0-10.074-3.626Z" transform="translate(-6.647 -412.4)" fill="#6677d6"/>
        <path id="Trazado_197741" data-name="Trazado 197741" d="M42.15,462.911H13.113a5.5,5.5,0,0,1-5.2-7.341c.078-.2.155-.408.243-.606a22.412,22.412,0,0,0,31.416-9.312h.011a16.508,16.508,0,0,1,1.639,1.221,21.076,21.076,0,0,1,6.109,8.7,5.484,5.484,0,0,1-5.184,7.341Z" transform="translate(-6.647 -412.216)" opacity="0.12" style="isolation: isolate"/>
        <path id="Trazado_197742" data-name="Trazado 197742" d="M17.364,428.691v3.961a9.665,9.665,0,0,0,9.281,9.77,9.458,9.458,0,0,0,9.635-9.456v-4.275a4.378,4.378,0,0,0-4.379-4.379H21.743a4.379,4.379,0,0,0-4.379,4.379Z" transform="translate(-5.837 -413.983)" fill="#ebd8ae"/>
        <path id="Trazado_197743" data-name="Trazado 197743" d="M74.723,443.432H67.567a15.033,15.033,0,0,0-9.22,3.02,21.088,21.088,0,0,0-6.856,9.3,5.493,5.493,0,0,0,5.193,7.349H85.718a5.492,5.492,0,0,0,5.192-7.351,21.071,21.071,0,0,0-6.112-8.689,15.558,15.558,0,0,0-10.074-3.626Z" transform="translate(-3.04 -412.4)" fill="#b0a2cd"/>
        <path id="Trazado_197744" data-name="Trazado 197744" d="M85.721,462.911H56.683a5.5,5.5,0,0,1-5.2-7.341c.077-.2.154-.408.243-.606a22.411,22.411,0,0,0,31.415-9.312h.011a16.4,16.4,0,0,1,1.64,1.221,21.076,21.076,0,0,1,6.109,8.7,5.485,5.485,0,0,1-5.184,7.341Z" transform="translate(-3.04 -412.216)" fill="#4e2e8e" style="isolation: isolate"/>
        <path id="Trazado_197745" data-name="Trazado 197745" d="M60.935,428.691v3.961a9.664,9.664,0,0,0,9.28,9.77,9.458,9.458,0,0,0,9.635-9.456v-4.275a4.378,4.378,0,0,0-4.378-4.379H65.313a4.378,4.378,0,0,0-4.378,4.379Z" transform="translate(-2.23 -413.983)" fill="#ebd8ae"/>
        <path id="Trazado_197746" data-name="Trazado 197746" d="M40.959,480.513a13.806,13.806,0,1,1-13.809-13.8A13.812,13.812,0,0,1,40.959,480.513Z" transform="translate(-6.17 -410.473)" fill="#515fab"/>
        <path id="Trazado_197747" data-name="Trazado 197747" d="M40.847,480.4A13.806,13.806,0,0,1,14.7,486.592,13.806,13.806,0,0,0,33.23,468.064a13.8,13.8,0,0,1,7.616,12.34Z" transform="translate(-6.058 -410.361)" fill="#6677d6" style="isolation: isolate"/>
        <path id="Trazado_197748" data-name="Trazado 197748" d="M84.529,480.513a13.806,13.806,0,1,1-13.809-13.8A13.812,13.812,0,0,1,84.529,480.513Z" transform="translate(-2.563 -410.473)" fill="#c6412a"/>
        <path id="Trazado_197749" data-name="Trazado 197749" d="M84.416,480.4a13.806,13.806,0,0,1-26.149,6.188A13.807,13.807,0,0,0,76.8,468.064,13.8,13.8,0,0,1,84.416,480.4Z" transform="translate(-2.451 -410.361)" fill="#c6412a" style="isolation: isolate"/>
        <g id="Grupo_158271" data-name="Grupo 158271">
          <path id="Trazado_197750" data-name="Trazado 197750" d="M32.524,474.659l-8.475,8.475-3.24-3.24a.928.928,0,1,0-1.313,1.312l3.9,3.9a.929.929,0,0,0,1.313,0l9.13-9.131a.928.928,0,0,0-1.312-1.313Z" transform="translate(-5.683 -409.837)"/>
          <path id="Trazado_197751" data-name="Trazado 197751" d="M75.31,474.659a.929.929,0,0,0-1.313,0l-3.909,3.909-3.909-3.909a.928.928,0,1,0-1.312,1.313l3.909,3.909-3.909,3.909a.928.928,0,0,0,1.312,1.313l3.909-3.91L74,485.1a.929.929,0,0,0,1.313-1.313L71.4,479.881l3.909-3.909A.929.929,0,0,0,75.31,474.659Z" transform="translate(-1.927 -409.837)"/>
          <path id="Trazado_197752" data-name="Trazado 197752" d="M70.791,465.853a14.735,14.735,0,1,0,14.738,14.731A14.748,14.748,0,0,0,70.791,465.853Zm0,27.612a12.878,12.878,0,1,1,12.881-12.881A12.893,12.893,0,0,1,70.791,493.465Z" transform="translate(-2.634 -410.544)"/>
          <path id="Trazado_197753" data-name="Trazado 197753" d="M16.686,433.441a10.6,10.6,0,0,0,10.191,10.7,10.378,10.378,0,0,0,10.581-10.384v-.516c5.822-6.041.187-18.071-9.891-18.456-10.811-.415-16.841,12.25-10.881,18.451Zm18.914.314a8.525,8.525,0,0,1-8.689,8.527,8.734,8.734,0,0,1-8.368-8.841v-3.961a3.452,3.452,0,0,1,3.449-3.45H32.151a3.454,3.454,0,0,1,3.451,3.45v4.275Zm-8.1-17.117c7.871.3,11.923,8.6,9.962,13.311v-.469a5.314,5.314,0,0,0-5.308-5.307H21.992a5.312,5.312,0,0,0-5.306,5.307v.381C14.519,424.484,19.526,416.312,27.5,416.639Z" transform="translate(-6.088 -414.773)"/>
          <path id="Trazado_197754" data-name="Trazado 197754" d="M60.257,433.441a10.591,10.591,0,0,0,10.388,10.7,10.38,10.38,0,0,0,10.384-10.386v-.5c5.835-6.05.139-18.085-9.891-18.468-10.75-.41-16.88,12.2-10.881,18.448v.211Zm18.915.314a8.525,8.525,0,0,1-8.689,8.527,8.734,8.734,0,0,1-8.369-8.841v-3.961a3.453,3.453,0,0,1,3.45-3.45H75.723a3.453,3.453,0,0,1,3.45,3.45v4.275Zm-8.1-17.117c7.745.3,11.983,8.449,9.962,13.31v-.468a5.313,5.313,0,0,0-5.308-5.307H65.564a5.312,5.312,0,0,0-5.307,5.307v.408C58.009,424.365,63.217,416.316,71.068,416.639Z" transform="translate(-2.481 -414.773)"/>
          <path id="Trazado_197755" data-name="Trazado 197755" d="M31.224,442.575H24.068c-8.3,0-14.349,5.962-16.945,12.921a6.421,6.421,0,0,0,6.063,8.6H42.219a6.421,6.421,0,0,0,6.061-8.6C45.6,448.332,39.386,442.575,31.224,442.575Zm11,19.667H13.185a4.564,4.564,0,0,1-4.324-6.1c2.406-6.45,7.885-11.714,15.206-11.714h7.156c7.484,0,12.964,5.414,15.318,11.711A4.565,4.565,0,0,1,42.219,462.242Z" transform="translate(-6.719 -412.471)"/>
          <path id="Trazado_197756" data-name="Trazado 197756" d="M27.22,465.853a14.735,14.735,0,1,0,14.738,14.731A14.748,14.748,0,0,0,27.22,465.853Zm0,27.612A12.878,12.878,0,1,1,40.1,480.584,12.892,12.892,0,0,1,27.22,493.465Z" transform="translate(-6.241 -410.544)"/>
          <path id="Trazado_197757" data-name="Trazado 197757" d="M91.852,455.494c-2.68-7.171-8.9-12.919-17.057-12.919H67.639c-8.286,0-14.348,5.957-16.946,12.921a6.421,6.421,0,0,0,6.063,8.6H85.789a6.422,6.422,0,0,0,6.063-8.6Zm-6.063,6.748H56.755a4.564,4.564,0,0,1-4.324-6.1c2.407-6.45,7.885-11.714,15.207-11.714h7.156c7.483,0,12.964,5.414,15.317,11.711A4.564,4.564,0,0,1,85.789,462.242Z" transform="translate(-3.111 -412.471)"/>
        </g>
      </g>
    </g>
  </g>
</svg>
