<svg xmlns="http://www.w3.org/2000/svg" width="133" height="133" viewBox="0 0 133 133">
  <g id="Grupo_163215" data-name="Grupo 163215" transform="translate(-1077.106 -2174)">
    <g id="Elipse_18056" data-name="Elipse 18056" transform="translate(1077.106 2174)" fill="#fff" stroke="#c6412a" stroke-width="4">
      <circle cx="66.5" cy="66.5" r="66.5" stroke="none"/>
      <circle cx="66.5" cy="66.5" r="64.5" fill="none"/>
    </g>
    <g id="Layer_48" data-name="Layer 48" transform="translate(1032.63 1797.432)">
      <g id="Grupo_158264" data-name="Grupo 158264" transform="translate(77.476 399.568)">
        <g id="Grupo_158198" data-name="Grupo 158198" transform="translate(0.942 0.942)">
          <g id="Grupo_158197" data-name="Grupo 158197">
            <path id="Trazado_197682" data-name="Trazado 197682" d="M139.24,413.136,126.885,400.78H81.607a2.919,2.919,0,0,0-2.919,2.919v79.625a2.919,2.919,0,0,0,2.919,2.919h54.715a2.919,2.919,0,0,0,2.919-2.919V451.857l-4.955,12.307-7.136-2.873,12.091-30.031Z" transform="translate(-78.688 -400.78)" fill="#fff"/>
          </g>
        </g>
        <g id="Grupo_158200" data-name="Grupo 158200" transform="translate(64.607 16.67)">
          <g id="Grupo_158199" data-name="Grupo 158199">
            <path id="Trazado_197683" data-name="Trazado 197683" d="M168.884,422.382l-3.13-1.26a1.314,1.314,0,0,0-1.659.617l-3.456,6.307,7.136,2.873,1.879-6.942A1.317,1.317,0,0,0,168.884,422.382Z" transform="translate(-160.638 -421.026)" fill="#6677d6"/>
          </g>
        </g>
        <g id="Grupo_158202" data-name="Grupo 158202" transform="translate(56.037 23.678)">
          <g id="Grupo_158201" data-name="Grupo 158201">
            <path id="Trazado_197684" data-name="Trazado 197684" d="M149.607,451.464l8.631-21.417,7.139,2.877-8.631,21.417Z" transform="translate(-149.607 -430.047)" fill="#6677d6"/>
          </g>
        </g>
        <g id="Grupo_158204" data-name="Grupo 158204" transform="translate(48.823 61.452)">
          <g id="Grupo_158203" data-name="Grupo 158203">
            <path id="Trazado_197685" data-name="Trazado 197685" d="M140.9,478.669l-.578,9.465a.893.893,0,0,0,1.572.633l6.141-7.225Z" transform="translate(-140.322 -478.669)" fill="#dae6f1"/>
          </g>
        </g>
        <g id="Grupo_158206" data-name="Grupo 158206" transform="translate(48.823 66.173)">
          <g id="Grupo_158205" data-name="Grupo 158205">
            <path id="Trazado_197686" data-name="Trazado 197686" d="M140.612,484.746l-.289,4.744a.893.893,0,0,0,1.572.633l3.078-3.621Z" transform="translate(-140.322 -484.746)" fill="#6cadef"/>
          </g>
        </g>
        <g id="Grupo_158208" data-name="Grupo 158208" transform="translate(49.457 45.1)">
          <g id="Grupo_158207" data-name="Grupo 158207">
            <path id="Trazado_197687" data-name="Trazado 197687" d="M141.137,473.98l6.593-16.36,7.139,2.877-6.593,16.36Z" transform="translate(-141.137 -457.621)" fill="#6677d6"/>
          </g>
        </g>
        <g id="Grupo_158210" data-name="Grupo 158210" transform="translate(6.69 7.073)">
          <g id="Grupo_158209" data-name="Grupo 158209">
            <path id="Trazado_197688" data-name="Trazado 197688" d="M131.455,414.9a2.919,2.919,0,0,1-2.919-2.919v-3.3H87.016a.929.929,0,0,0-.928.929v8.107a.929.929,0,0,0,.928.929h47.2a.929.929,0,0,0,.928-.929V414.9Z" transform="translate(-86.088 -408.673)" fill="#c6412a"/>
          </g>
        </g>
        <g id="Grupo_158212" data-name="Grupo 158212" transform="translate(49.138 0.942)">
          <g id="Grupo_158211" data-name="Grupo 158211">
            <path id="Trazado_197689" data-name="Trazado 197689" d="M140.727,400.78v9.437a2.919,2.919,0,0,0,2.919,2.92h9.438Z" transform="translate(-140.727 -400.78)" fill="#edf4fc"/>
          </g>
        </g>
        <g id="Grupo_158214" data-name="Grupo 158214">
          <g id="Grupo_158213" data-name="Grupo 158213">
            <path id="Trazado_197690" data-name="Trazado 197690" d="M138.971,431.849a.941.941,0,0,0,.942-.942V412.866a.944.944,0,0,0-.276-.667L127.28,399.844a.941.941,0,0,0-.666-.276H81.336a3.865,3.865,0,0,0-3.86,3.86v79.625a3.865,3.865,0,0,0,3.86,3.86h54.715a3.865,3.865,0,0,0,3.86-3.86V451.683a.942.942,0,0,0-1.883,0v31.371a1.98,1.98,0,0,1-1.977,1.977H81.336a1.98,1.98,0,0,1-1.977-1.977V403.428a1.979,1.979,0,0,1,1.977-1.977h44.888l11.8,11.8v17.652a.941.941,0,0,0,.942.942Z" transform="translate(-77.476 -399.568)"/>
          </g>
        </g>
        <g id="Grupo_158216" data-name="Grupo 158216" transform="translate(21.716 21.509)">
          <g id="Grupo_158215" data-name="Grupo 158215">
            <path id="Trazado_197691" data-name="Trazado 197691" d="M123.491,427.255H106.371a.942.942,0,1,0,0,1.883h17.121a.942.942,0,1,0,0-1.883Z" transform="translate(-105.429 -427.255)"/>
          </g>
        </g>
        <g id="Grupo_158218" data-name="Grupo 158218" transform="translate(8.097 26.311)">
          <g id="Grupo_158217" data-name="Grupo 158217">
            <path id="Trazado_197692" data-name="Trazado 197692" d="M133.2,433.435H88.841a.942.942,0,1,0,0,1.883H133.2a.942.942,0,1,0,0-1.883Z" transform="translate(-87.899 -433.435)"/>
          </g>
        </g>
        <g id="Grupo_158220" data-name="Grupo 158220" transform="translate(8.097 31.112)">
          <g id="Grupo_158219" data-name="Grupo 158219">
            <path id="Trazado_197693" data-name="Trazado 197693" d="M133.2,439.616H88.841a.942.942,0,1,0,0,1.883H133.2a.942.942,0,1,0,0-1.883Z" transform="translate(-87.899 -439.616)"/>
          </g>
        </g>
        <g id="Grupo_158222" data-name="Grupo 158222" transform="translate(26.677 35.914)">
          <g id="Grupo_158221" data-name="Grupo 158221">
            <path id="Trazado_197694" data-name="Trazado 197694" d="M130.082,445.8H112.757a.942.942,0,0,0,0,1.883h17.325a.942.942,0,0,0,0-1.883Z" transform="translate(-111.815 -445.797)"/>
          </g>
        </g>
        <g id="Grupo_158224" data-name="Grupo 158224" transform="translate(26.677 40.715)">
          <g id="Grupo_158223" data-name="Grupo 158223">
            <path id="Trazado_197695" data-name="Trazado 197695" d="M130.082,451.977H112.757a.942.942,0,1,0,0,1.883h17.325a.942.942,0,1,0,0-1.883Z" transform="translate(-111.815 -451.977)"/>
          </g>
        </g>
        <g id="Grupo_158226" data-name="Grupo 158226" transform="translate(26.677 45.517)">
          <g id="Grupo_158225" data-name="Grupo 158225">
            <path id="Trazado_197696" data-name="Trazado 197696" d="M130.082,458.158H112.757a.942.942,0,0,0,0,1.883h17.325a.942.942,0,0,0,0-1.883Z" transform="translate(-111.815 -458.158)"/>
          </g>
        </g>
        <g id="Grupo_158228" data-name="Grupo 158228" transform="translate(16.551 35.914)">
          <g id="Grupo_158227" data-name="Grupo 158227">
            <path id="Trazado_197697" data-name="Trazado 197697" d="M105.328,445.8H99.722a.942.942,0,0,0,0,1.883h5.607a.942.942,0,0,0,0-1.883Z" transform="translate(-98.78 -445.797)"/>
          </g>
        </g>
        <g id="Grupo_158230" data-name="Grupo 158230" transform="translate(16.551 40.715)">
          <g id="Grupo_158229" data-name="Grupo 158229">
            <path id="Trazado_197698" data-name="Trazado 197698" d="M105.328,451.977H99.722a.942.942,0,1,0,0,1.883h5.607a.942.942,0,1,0,0-1.883Z" transform="translate(-98.78 -451.977)"/>
          </g>
        </g>
        <g id="Grupo_158232" data-name="Grupo 158232" transform="translate(16.551 45.517)">
          <g id="Grupo_158231" data-name="Grupo 158231">
            <path id="Trazado_197699" data-name="Trazado 197699" d="M105.328,458.158H99.722a.942.942,0,0,0,0,1.883h5.607a.942.942,0,0,0,0-1.883Z" transform="translate(-98.78 -458.158)"/>
          </g>
        </g>
        <g id="Grupo_158234" data-name="Grupo 158234" transform="translate(8.097 50.318)">
          <g id="Grupo_158233" data-name="Grupo 158233">
            <path id="Trazado_197700" data-name="Trazado 197700" d="M133.2,464.338H88.841a.942.942,0,1,0,0,1.883H133.2a.942.942,0,1,0,0-1.883Z" transform="translate(-87.899 -464.338)"/>
          </g>
        </g>
        <g id="Grupo_158236" data-name="Grupo 158236" transform="translate(8.097 55.12)">
          <g id="Grupo_158235" data-name="Grupo 158235">
            <path id="Trazado_197701" data-name="Trazado 197701" d="M131.316,470.519H88.841a.942.942,0,1,0,0,1.883h42.475a.942.942,0,1,0,0-1.883Z" transform="translate(-87.899 -470.519)"/>
          </g>
        </g>
        <g id="Grupo_158238" data-name="Grupo 158238" transform="translate(36.491 76.424)">
          <g id="Grupo_158237" data-name="Grupo 158237">
            <path id="Trazado_197702" data-name="Trazado 197702" d="M140.454,497.941H125.389a.942.942,0,1,0,0,1.883h15.065a.942.942,0,1,0,0-1.883Z" transform="translate(-124.447 -497.941)"/>
          </g>
        </g>
        <g id="Grupo_158240" data-name="Grupo 158240" transform="translate(8.997 76.424)">
          <g id="Grupo_158239" data-name="Grupo 158239">
            <path id="Trazado_197703" data-name="Trazado 197703" d="M105.064,497.941H90a.942.942,0,1,0,0,1.883h15.065a.942.942,0,1,0,0-1.883Z" transform="translate(-89.057 -497.941)"/>
          </g>
        </g>
        <g id="Grupo_158242" data-name="Grupo 158242" transform="translate(8.997 64.61)">
          <g id="Grupo_158241" data-name="Grupo 158241">
            <path id="Trazado_197704" data-name="Trazado 197704" d="M105.906,487.536a.942.942,0,0,0-1.263-.421l-2.474,1.237a.1.1,0,0,1-.1-.006l-2.954-1.969a1.98,1.98,0,0,0-2.936.912.1.1,0,0,1-.18,0l-1.12-3.221a1.98,1.98,0,0,0-3.74,0l-2.032,5.844a.942.942,0,0,0,.58,1.2.932.932,0,0,0,.309.052.942.942,0,0,0,.889-.632l2.033-5.844a.1.1,0,0,1,.182,0l1.12,3.221a1.98,1.98,0,0,0,3.708.085.089.089,0,0,1,.061-.057.093.093,0,0,1,.082.012l2.954,1.969a1.985,1.985,0,0,0,1.983.124l2.474-1.238a.942.942,0,0,0,.421-1.263Z" transform="translate(-89.056 -482.734)"/>
          </g>
        </g>
        <g id="Grupo_158244" data-name="Grupo 158244" transform="translate(36.491 64.61)">
          <g id="Grupo_158243" data-name="Grupo 158243">
            <path id="Trazado_197705" data-name="Trazado 197705" d="M137.207,488.176l-2.7-1.8a1.98,1.98,0,0,0-2.936.912.08.08,0,0,1-.091.061.081.081,0,0,1-.089-.064l-1.121-3.221a1.955,1.955,0,0,0-1.869-1.329h0a1.955,1.955,0,0,0-1.869,1.329l-2.033,5.844a.943.943,0,0,0,.58,1.2.953.953,0,0,0,.309.052.942.942,0,0,0,.889-.632l2.033-5.844a.081.081,0,0,1,.091-.064.083.083,0,0,1,.091.064l1.12,3.221a1.98,1.98,0,0,0,3.708.085.092.092,0,0,1,.061-.055.091.091,0,0,1,.082.012l2.7,1.8a.942.942,0,0,0,1.044-1.568Z" transform="translate(-124.447 -482.734)"/>
          </g>
        </g>
        <g id="Grupo_158246" data-name="Grupo 158246" transform="translate(63.665 15.726)">
          <g id="Grupo_158245" data-name="Grupo 158245">
            <path id="Trazado_197706" data-name="Trazado 197706" d="M168.965,421.237l-3.131-1.26A2.239,2.239,0,0,0,163,421.015l-3.456,6.307a.942.942,0,0,0,1.652.905l3.466-6.328a.373.373,0,0,1,.472-.175l3.131,1.26a.379.379,0,0,1,.212.475L166.6,430.4a.942.942,0,0,0,1.818.492l1.873-6.92A2.249,2.249,0,0,0,168.965,421.237Z" transform="translate(-159.426 -419.811)"/>
          </g>
        </g>
        <g id="Grupo_158248" data-name="Grupo 158248" transform="translate(64.066 19.108)">
          <g id="Grupo_158247" data-name="Grupo 158247" transform="translate(0)">
            <path id="Trazado_197707" data-name="Trazado 197707" d="M170.187,427.837l-8.952-3.6a.941.941,0,0,0-.7,1.746l8.953,3.6a2.076,2.076,0,0,1,1.148,2.7l-5.715,14.194a.942.942,0,0,0-.981,1.352l.431.865a.94.94,0,0,0,.842.521h.038a.942.942,0,0,0,.836-.59l6.3-15.639A3.961,3.961,0,0,0,170.187,427.837Z" transform="translate(-159.941 -424.164)"/>
          </g>
        </g>
        <g id="Grupo_158251" data-name="Grupo 158251" transform="translate(55.046 22.749)">
          <g id="Grupo_158250" data-name="Grupo 158250">
            <g id="Grupo_158249" data-name="Grupo 158249">
              <path id="Trazado_197708" data-name="Trazado 197708" d="M165.38,431.791l-7.136-2.873a.941.941,0,0,0-1.225.522l-8.62,21.408a.943.943,0,0,0,.522,1.225l7.136,2.873a.941.941,0,0,0,1.225-.522l8.619-21.408a.942.942,0,0,0-.522-1.225Zm-9.493,21.057-5.389-2.17,7.916-19.661,5.388,2.17Z" transform="translate(-148.331 -428.85)"/>
            </g>
          </g>
        </g>
        <g id="Grupo_158253" data-name="Grupo 158253" transform="translate(65.183 66.707)">
          <g id="Grupo_158252" data-name="Grupo 158252">
            <path id="Trazado_197709" data-name="Trazado 197709" d="M161.409,485.433c-.038,0-.038.075,0,.113" transform="translate(-161.38 -485.433)" fill="#70d6f9"/>
          </g>
        </g>
        <g id="Grupo_158255" data-name="Grupo 158255" transform="translate(47.882 60.51)">
          <g id="Grupo_158254" data-name="Grupo 158254">
            <path id="Trazado_197710" data-name="Trazado 197710" d="M148.376,480.554a.941.941,0,0,0-1.327.107L141,487.777l.569-9.321a.941.941,0,1,0-1.879-.114l-.578,9.465a1.81,1.81,0,0,0,1.147,1.814,1.862,1.862,0,0,0,.7.137,1.813,1.813,0,0,0,1.387-.651l6.141-7.225a.942.942,0,0,0-.109-1.327Z" transform="translate(-139.109 -477.457)"/>
          </g>
        </g>
        <g id="Grupo_158257" data-name="Grupo 158257" transform="translate(48.459 65.347)">
          <g id="Grupo_158256" data-name="Grupo 158256">
            <path id="Trazado_197711" data-name="Trazado 197711" d="M144.942,485.279l-3.8-1.527a.942.942,0,1,0-.7,1.747l3.794,1.527a.942.942,0,1,0,.7-1.747Z" transform="translate(-139.853 -483.683)"/>
          </g>
        </g>
        <g id="Grupo_158259" data-name="Grupo 158259" transform="translate(48.461 44.156)">
          <g id="Grupo_158258" data-name="Grupo 158258">
            <path id="Trazado_197712" data-name="Trazado 197712" d="M154.87,459.348a.941.941,0,0,0-1.225.521l-6.234,15.48-5.389-2.17,6.233-15.48a.942.942,0,1,0-1.747-.7l-6.584,16.353a.942.942,0,0,0,.522,1.224l7.136,2.874a.932.932,0,0,0,.351.068.942.942,0,0,0,.874-.59l6.584-16.353a.94.94,0,0,0-.521-1.224Z" transform="translate(-139.856 -456.406)"/>
          </g>
        </g>
        <g id="Grupo_158261" data-name="Grupo 158261" transform="translate(5.749 6.132)">
          <g id="Grupo_158260" data-name="Grupo 158260">
            <path id="Trazado_197713" data-name="Trazado 197713" d="M134.872,413.972a.941.941,0,0,0-.942.942l.013,2.512-47.185.013-.013-8.094h41.238a.942.942,0,1,0,0-1.883H86.746a1.872,1.872,0,0,0-1.87,1.87v8.108a1.872,1.872,0,0,0,1.87,1.87h47.2a1.872,1.872,0,0,0,1.87-1.87v-2.525a.941.941,0,0,0-.942-.942Z" transform="translate(-84.876 -407.461)"/>
          </g>
        </g>
        <g id="Grupo_158263" data-name="Grupo 158263" transform="translate(48.197 0.297)">
          <g id="Grupo_158262" data-name="Grupo 158262">
            <path id="Trazado_197714" data-name="Trazado 197714" d="M152.337,412.009h-8.962a1.979,1.979,0,0,1-1.977-1.977v-9.14a.942.942,0,0,0-1.883,0v9.14a3.865,3.865,0,0,0,3.86,3.86h8.962a.942.942,0,0,0,0-1.883Z" transform="translate(-139.515 -399.95)"/>
          </g>
        </g>
      </g>
    </g>
  </g>
</svg>
