<svg xmlns="http://www.w3.org/2000/svg" width="133" height="133" viewBox="0 0 133 133">
  <g id="Grupo_163217" data-name="Grupo 163217" transform="translate(-1077.106 -2569)">
    <g id="Elipse_18059" data-name="Elipse 18059" transform="translate(1077.106 2569)" fill="#fff" stroke="#c6412a" stroke-width="4">
      <circle cx="66.5" cy="66.5" r="66.5" stroke="none"/>
      <circle cx="66.5" cy="66.5" r="64.5" fill="none"/>
    </g>
    <g id="Grupo_158270" data-name="Grupo 158270" transform="translate(1094.106 2198)">
      <path id="Trazado_197725" data-name="Trazado 197725" d="M89.271,479.126H41.464a5.05,5.05,0,0,1-5.05-5.05V401.355a5.05,5.05,0,0,1,5.05-5.05H89.271a5.05,5.05,0,0,1,5.05,5.05v72.721A5.05,5.05,0,0,1,89.271,479.126Z" transform="translate(-9.817 -0.621)" fill="#6677d6"/>
      <path id="Trazado_197726" data-name="Trazado 197726" d="M45.633,408.75H90.074v62.957H45.633Z" transform="translate(-12.302 -3.977)" fill="#fff"/>
      <path id="Trazado_197727" data-name="Trazado 197727" d="M71.188,468.928l-6.633,4.842a1.262,1.262,0,0,1-1.944-1.412l2.555-7.805L58.5,459.733a1.262,1.262,0,0,1,.74-2.285h8.227l2.521-7.8a1.262,1.262,0,0,1,2.4,0l2.521,7.8h8.227a1.262,1.262,0,0,1,.74,2.285l-6.666,4.821,2.555,7.805a1.262,1.262,0,0,1-1.944,1.412Z" transform="translate(-15.63 -14.767)" fill="#c6412a"/>
      <path id="Trazado_197728" data-name="Trazado 197728" d="M42.705,416.505a20.182,20.182,0,1,0-13.676,19.123l4.923,4.949V433.15A20.178,20.178,0,0,0,42.705,416.505Z" transform="translate(-0.621 -0.621)" fill="#cbe558"/>
      <path id="Trazado_197729" data-name="Trazado 197729" d="M42.705,416.505a20.2,20.2,0,1,1-20.2-20.2A20.2,20.2,0,0,1,42.705,416.505Z" transform="translate(-0.621 -0.621)" fill="#ffef0f"/>
      <path id="Trazado_197730" data-name="Trazado 197730" d="M31.69,412.193l-7.669,7.669-3.384-3.384-4.762,4.762,8.145,8.145,12.43-12.43Z" transform="translate(-4.28 -4.905)" fill="#fff"/>
      <path id="Trazado_197731" data-name="Trazado 197731" d="M79.454,394H32.6a6.707,6.707,0,0,0-3.746,1.139,21.884,21.884,0,1,0-6.972,42.629,22.013,22.013,0,0,0,3.03-.209v35.9a6.742,6.742,0,0,0,6.734,6.734H79.454a6.742,6.742,0,0,0,6.734-6.734V400.734A6.742,6.742,0,0,0,79.454,394ZM3.366,415.884a18.517,18.517,0,1,1,29.009,15.259,1.682,1.682,0,0,0-.728,1.386v3.348L29.6,433.82a1.684,1.684,0,0,0-1.194-.5,1.664,1.664,0,0,0-.543.09,18.53,18.53,0,0,1-24.5-17.53Zm72.721.337v49.828H35.014V433.391a21.922,21.922,0,0,0,6.186-7.228H62.039a1.683,1.683,0,0,0,0-3.366H42.646a21.874,21.874,0,0,0,1.117-6.633H68.771a1.683,1.683,0,1,0,0-3.366H43.548a21.678,21.678,0,0,0-1.918-6.34H76.088Zm6.734,57.234a3.371,3.371,0,0,1-3.367,3.367H31.647a3.371,3.371,0,0,1-3.366-3.367V437.265l3.366,3.385v27.081a1.684,1.684,0,0,0,1.684,1.684H77.772a1.683,1.683,0,0,0,1.683-1.684V404.774a1.683,1.683,0,0,0-1.683-1.684H39.627a22.069,22.069,0,0,0-6.094-5.723H79.454a3.371,3.371,0,0,1,3.367,3.367Z" transform="translate(0 0)"/>
      <path id="Trazado_197732" data-name="Trazado 197732" d="M75.423,500.016a1.683,1.683,0,1,0,0,3.366h.015a1.683,1.683,0,0,0-.015-3.366Z" transform="translate(-19.88 -28.581)"/>
      <path id="Trazado_197733" data-name="Trazado 197733" d="M82.516,455.143h-7L73.37,448.51a2.945,2.945,0,0,0-5.6,0l-2.144,6.634h-7a2.945,2.945,0,0,0-1.726,5.332l5.67,4.1-2.172,6.637a2.944,2.944,0,0,0,4.536,3.3l5.641-4.117,5.641,4.117a2.946,2.946,0,0,0,4.537-3.3l-2.173-6.637,5.671-4.1a2.946,2.946,0,0,0-1.727-5.332ZM75.6,462.568a1.683,1.683,0,0,0-.614,1.887l2.149,6.564-5.579-4.071a1.68,1.68,0,0,0-1.985,0L64,471.02l2.149-6.564a1.683,1.683,0,0,0-.614-1.887l-5.612-4.059h6.926a1.684,1.684,0,0,0,1.6-1.165l2.12-6.559,2.12,6.559a1.684,1.684,0,0,0,1.6,1.165h6.926Z" transform="translate(-15.009 -14.146)"/>
      <path id="Trazado_197734" data-name="Trazado 197734" d="M93.534,433.424a1.685,1.685,0,1,0,1.191.494A1.694,1.694,0,0,0,93.534,433.424Z" transform="translate(-24.762 -10.628)"/>
      <path id="Trazado_197735" data-name="Trazado 197735" d="M37.02,415.142l-4.762-4.761a1.683,1.683,0,0,0-2.38,0L23.4,416.86l-2.193-2.194a1.684,1.684,0,0,0-2.381,0l-4.762,4.762a1.683,1.683,0,0,0,0,2.38l8.145,8.146a1.685,1.685,0,0,0,2.374.008L37.02,417.523A1.684,1.684,0,0,0,37.02,415.142ZM23.4,426.382l-5.765-5.764,2.381-2.38,2.193,2.193a1.685,1.685,0,0,0,2.381,0l6.479-6.479,2.381,2.38Z" transform="translate(-3.659 -4.283)"/>
    </g>
  </g>
</svg>
